<?xml version="1.0" encoding="utf-8"?>
<!-- Generator: Adobe Illustrator 21.0.0, SVG Export Plug-In . SVG Version: 6.00 Build 0)  -->
<svg version="1.1" id="Layer_1" xmlns="http://www.w3.org/2000/svg" xmlns:xlink="http://www.w3.org/1999/xlink" x="0px" y="0px"
	 viewBox="0 0 671 768" style="enable-background:new 0 0 671 768;" xml:space="preserve">
<style type="text/css">
	.st0{fill:#EAC398;}
	.st1{fill:#CCA266;}
	.st2{fill:#BC9668;}
	.st3{fill:#B1CF79;}
	.st4{fill:#7E975D;}
	.st5{fill:#9DB964;}
	.st6{fill:#2156A7;}
	.st7{fill:#21366D;}
	.st8{fill:#165488;}
	.st9{fill:#F3F3F5;}
	.st10{fill:#E6E6E6;}
	.st11{fill:#ECAC20;}
	.st12{fill:#946C29;}
	.st13{fill:#D49A29;}
	.st14{fill:#F5D5AE;}
	.st15{fill:#0783C1;}
	.st16{fill:#E05959;}
	.st17{fill:#F16464;}
	.st18{fill:#1891D0;}
	.st19{fill:#4D4D4D;}
	.st20{fill:#F2F2F2;}
	.st21{fill:#CCCBD0;}
	.st22{fill:#FFFFFF;}
	.st23{fill:#F9F9F9;}
	.st24{fill:#CE5252;}
	.st25{fill:#545571;}
	.st26{fill:#353849;}
	.st27{fill:#44455A;}
	.st28{fill:#47C1B6;}
	.st29{fill:#139096;}
	.st30{fill-rule:evenodd;clip-rule:evenodd;fill:#397600;}
	.st31{fill-rule:evenodd;clip-rule:evenodd;fill:#48840A;}
	.st32{fill-rule:evenodd;clip-rule:evenodd;fill:#4F2400;}
	.st33{fill-rule:evenodd;clip-rule:evenodd;fill:#683D05;}
	.st34{fill-rule:evenodd;clip-rule:evenodd;fill:#855921;}
	.st35{fill-rule:evenodd;clip-rule:evenodd;fill:#559924;}
	.st36{fill:#EDE9E8;}
	.st37{fill:#DFD7D5;}
	.st38{fill:#D2C5C2;}
	.st39{fill:#F9F3BC;}
	.st40{fill:#D2C8A0;}
	.st41{fill:#E8E1AF;}
	.st42{fill:#EBF3FA;}
	.st43{fill:#D8D8D8;}
	.st44{fill-rule:evenodd;clip-rule:evenodd;fill:#C0CD5B;}
	.st45{fill-rule:evenodd;clip-rule:evenodd;fill:#A7B54A;}
	.st46{fill-rule:evenodd;clip-rule:evenodd;fill:#89993D;}
	.st47{fill-rule:evenodd;clip-rule:evenodd;fill:#FFFFFF;}
	.st48{fill-rule:evenodd;clip-rule:evenodd;fill:#CFCAC3;}
	.st49{fill-rule:evenodd;clip-rule:evenodd;fill:url(#SVGID_1_);}
	.st50{fill-rule:evenodd;clip-rule:evenodd;fill:#929087;}
	.st51{fill-rule:evenodd;clip-rule:evenodd;fill:#BEB9B1;}
	.st52{fill-rule:evenodd;clip-rule:evenodd;fill:#E4DFD8;}
	.st53{fill-rule:evenodd;clip-rule:evenodd;fill:url(#SVGID_2_);}
	.st54{fill-rule:evenodd;clip-rule:evenodd;fill:url(#SVGID_3_);}
	.st55{fill-rule:evenodd;clip-rule:evenodd;fill:#939188;}
	.st56{fill-rule:evenodd;clip-rule:evenodd;fill:#95938A;}
	.st57{fill-rule:evenodd;clip-rule:evenodd;fill:#96948B;}
	.st58{fill-rule:evenodd;clip-rule:evenodd;fill:#98958C;}
	.st59{fill-rule:evenodd;clip-rule:evenodd;fill:#99978E;}
	.st60{fill-rule:evenodd;clip-rule:evenodd;fill:#9A988F;}
	.st61{fill-rule:evenodd;clip-rule:evenodd;fill:#9C9990;}
	.st62{fill-rule:evenodd;clip-rule:evenodd;fill:#9D9B92;}
	.st63{fill-rule:evenodd;clip-rule:evenodd;fill:#9E9C93;}
	.st64{fill-rule:evenodd;clip-rule:evenodd;fill:#A09D94;}
	.st65{fill-rule:evenodd;clip-rule:evenodd;fill:#A19F96;}
	.st66{fill-rule:evenodd;clip-rule:evenodd;fill:#A3A097;}
	.st67{fill-rule:evenodd;clip-rule:evenodd;fill:#A4A198;}
	.st68{fill-rule:evenodd;clip-rule:evenodd;fill:#A5A39A;}
	.st69{fill-rule:evenodd;clip-rule:evenodd;fill:#A7A49B;}
	.st70{fill-rule:evenodd;clip-rule:evenodd;fill:#A8A59C;}
	.st71{fill-rule:evenodd;clip-rule:evenodd;fill:#A9A79E;}
	.st72{fill-rule:evenodd;clip-rule:evenodd;fill:#ABA89F;}
	.st73{fill-rule:evenodd;clip-rule:evenodd;fill:#ACA9A0;}
	.st74{fill-rule:evenodd;clip-rule:evenodd;fill:#AEABA2;}
	.st75{fill-rule:evenodd;clip-rule:evenodd;fill:#AFACA3;}
	.st76{fill-rule:evenodd;clip-rule:evenodd;fill:#B0ADA4;}
	.st77{fill-rule:evenodd;clip-rule:evenodd;fill:#B1AEA5;}
	.st78{fill-rule:evenodd;clip-rule:evenodd;fill:#B2AEA6;}
	.st79{fill-rule:evenodd;clip-rule:evenodd;fill:#B3AFA6;}
	.st80{fill-rule:evenodd;clip-rule:evenodd;fill:#B3B0A7;}
	.st81{fill-rule:evenodd;clip-rule:evenodd;fill:#B4B0A8;}
	.st82{fill-rule:evenodd;clip-rule:evenodd;fill:#B5B1A8;}
	.st83{fill-rule:evenodd;clip-rule:evenodd;fill:#B5B2A9;}
	.st84{fill-rule:evenodd;clip-rule:evenodd;fill:#B6B2AA;}
	.st85{fill-rule:evenodd;clip-rule:evenodd;fill:#B7B3AA;}
	.st86{fill-rule:evenodd;clip-rule:evenodd;fill:#B8B3AB;}
	.st87{fill-rule:evenodd;clip-rule:evenodd;fill:#B8B4AC;}
	.st88{fill-rule:evenodd;clip-rule:evenodd;fill:#B9B5AC;}
	.st89{fill-rule:evenodd;clip-rule:evenodd;fill:#BAB5AD;}
	.st90{fill-rule:evenodd;clip-rule:evenodd;fill:#BAB6AE;}
	.st91{fill-rule:evenodd;clip-rule:evenodd;fill:#BBB7AE;}
	.st92{fill-rule:evenodd;clip-rule:evenodd;fill:#BCB7AF;}
	.st93{fill-rule:evenodd;clip-rule:evenodd;fill:#BDB8B0;}
	.st94{fill-rule:evenodd;clip-rule:evenodd;fill:#D05627;}
	.st95{fill-rule:evenodd;clip-rule:evenodd;fill:#F37932;}
	.st96{fill-rule:evenodd;clip-rule:evenodd;fill:#8D301E;}
	.st97{fill-rule:evenodd;clip-rule:evenodd;fill:#BB4E27;}
	.st98{fill-rule:evenodd;clip-rule:evenodd;fill:#872C1C;}
	.st99{fill-rule:evenodd;clip-rule:evenodd;fill:url(#SVGID_4_);}
	.st100{fill-rule:evenodd;clip-rule:evenodd;fill:#E7E2DE;}
	.st101{fill-rule:evenodd;clip-rule:evenodd;fill:url(#SVGID_5_);}
	.st102{fill-rule:evenodd;clip-rule:evenodd;fill:#DBD6CF;}
	.st103{fill-rule:evenodd;clip-rule:evenodd;fill:#8B8C88;}
	.st104{fill-rule:evenodd;clip-rule:evenodd;fill:url(#SVGID_6_);}
	.st105{fill-rule:evenodd;clip-rule:evenodd;fill:url(#SVGID_7_);}
	.st106{fill-rule:evenodd;clip-rule:evenodd;fill:url(#SVGID_8_);}
	.st107{fill-rule:evenodd;clip-rule:evenodd;fill:url(#SVGID_9_);}
	.st108{fill-rule:evenodd;clip-rule:evenodd;fill:url(#SVGID_10_);}
	.st109{fill-rule:evenodd;clip-rule:evenodd;fill:url(#SVGID_11_);}
	.st110{fill-rule:evenodd;clip-rule:evenodd;fill:#CDC6C1;}
	.st111{fill-rule:evenodd;clip-rule:evenodd;fill:#CCC5C0;}
	.st112{fill-rule:evenodd;clip-rule:evenodd;fill:#CAC4BF;}
	.st113{fill-rule:evenodd;clip-rule:evenodd;fill:#C9C2BD;}
	.st114{fill-rule:evenodd;clip-rule:evenodd;fill:#C7C1BC;}
	.st115{fill-rule:evenodd;clip-rule:evenodd;fill:#C6C0BB;}
	.st116{fill-rule:evenodd;clip-rule:evenodd;fill:#C4BFBA;}
	.st117{fill-rule:evenodd;clip-rule:evenodd;fill:#C3BDB8;}
	.st118{fill-rule:evenodd;clip-rule:evenodd;fill:#C1BCB7;}
	.st119{fill-rule:evenodd;clip-rule:evenodd;fill:#C0BBB6;}
	.st120{fill-rule:evenodd;clip-rule:evenodd;fill:#BEBAB5;}
	.st121{fill-rule:evenodd;clip-rule:evenodd;fill:#BDB8B3;}
	.st122{fill-rule:evenodd;clip-rule:evenodd;fill:#BBB7B2;}
	.st123{fill-rule:evenodd;clip-rule:evenodd;fill:#BAB6B1;}
	.st124{fill-rule:evenodd;clip-rule:evenodd;fill:#B8B5B0;}
	.st125{fill-rule:evenodd;clip-rule:evenodd;fill:#B7B3AE;}
	.st126{fill-rule:evenodd;clip-rule:evenodd;fill:#B5B2AD;}
	.st127{fill-rule:evenodd;clip-rule:evenodd;fill:#B4B1AC;}
	.st128{fill-rule:evenodd;clip-rule:evenodd;fill:#B2B0AB;}
	.st129{fill-rule:evenodd;clip-rule:evenodd;fill:#B1AEA9;}
	.st130{fill-rule:evenodd;clip-rule:evenodd;fill:#AFADA8;}
	.st131{fill-rule:evenodd;clip-rule:evenodd;fill:#AEACA7;}
	.st132{fill-rule:evenodd;clip-rule:evenodd;fill:url(#SVGID_12_);}
</style>
<g>
	<polygon class="st0" points="0.2,585.6 491.8,301.8 670.8,405.1 177.6,688.8 	"/>
	<polygon class="st1" points="0.2,585.6 0.2,603.2 179,705.1 177.6,688.8 	"/>
	<polygon class="st1" points="177.6,688.8 670.8,405.1 670.6,422.7 179,705.1 	"/>
	<polygon class="st1" points="179,705.1 177.6,910.7 0.2,807.9 0.2,603.2 	"/>
	<polygon class="st0" points="526.3,505.6 660.3,428.6 660.3,634.6 524.9,711.3 	"/>
	<polygon class="st2" points="524.9,711.3 345.7,608.6 526.3,505.6 	"/>
	<polygon class="st1" points="107.5,666.1 122.6,657.5 122.6,863.8 106.2,871.8 	"/>
	<polygon class="st1" points="526.3,547.2 660.3,472.9 660.3,475.6 525.4,550.3 	"/>
	<polygon class="st1" points="526.3,600.2 660.3,525.8 660.3,528.6 525.4,603.2 	"/>
	<polygon class="st1" points="526.3,655.6 660.3,581.2 660.3,583.9 525.4,658.6 	"/>
	<polygon class="st1" points="581.2,519.4 581.2,524.5 614.4,506.5 614.4,501 	"/>
	<polygon class="st2" points="581.2,519.4 614.4,501 614.4,503.1 581.2,521 	"/>
	<polygon class="st1" points="585,569.8 584.9,574.8 618.2,556.9 618.2,551.4 	"/>
	<polygon class="st2" points="584.9,569.8 618.1,551.4 618.1,553.5 584.9,571.4 	"/>
	<polygon class="st1" points="586.7,625 586.7,630 619.9,612 619.9,606.6 	"/>
	<polygon class="st2" points="586.7,623.9 619.9,605.5 619.9,607.6 586.7,625.5 	"/>
	<g>
		<polygon class="st3" points="444.8,159.4 284.9,243.1 219.9,212.4 382.3,126.9 		"/>
		<polygon class="st4" points="444.8,159.4 445.1,171.9 285.2,255.3 284.9,243.1 		"/>
		<polygon class="st5" points="284.9,243.1 219.9,212.4 220.1,224.7 285.2,255.3 		"/>
		<path class="st0" d="M239.3,233.6c0,0-4.6,5-4.5,9.5l-3.4,50.2l-1.6-64.3L239.3,233.6z"/>
		<path class="st1" d="M243.4,235.6c0,0-1.6,2.4-1.8,8.9l-2.8,44.9l-7.5,3.9l3.4-50.2c0,0-0.2-3.8,4.5-9.5L243.4,235.6z"/>
		<polygon class="st0" points="369.3,211.4 368.6,220.5 368.3,220.5 367.9,212.2 		"/>
		<polygon class="st1" points="376.3,207.8 376,216.5 368.6,220.5 369.3,211.4 		"/>
		<g>
			<g>
				<path class="st6" d="M407.1,158.5l-59.6,33.1l0.8-86.5c0,0,2.9-0.2,6-1.4s53.6-29.4,53.6-29.4L407.1,158.5z"/>
				<path class="st7" d="M348.3,105.2c0,0-10.9-0.2-13.2-6.6l-0.8,85.5c0,0,5.3,7.3,13.2,7.6L348.3,105.2z"/>
				<path class="st8" d="M407.9,74.5l-1.5-1l-50.8,28.8c0,0-14.1,5.4-19.3-4.2c0,0-0.4-1.4,0.4-3.7c0.8-2.3,53.2-30.9,53.2-30.9
					l-1.3-0.8l-51.9,29.8c0,0-2.9,3.2-1.6,6.1c1.3,2.9,4.1,6.5,13.2,6.6c0,0,3.8-0.1,7.5-2.1C359.5,101.1,407.9,74.5,407.9,74.5z"/>
				<path class="st9" d="M406.4,73.5c0,0-14,1.1-16.9-9.9c0,0-50.8,28-52.2,30.1c-1.4,2.2-1.6,4.8,0.7,6.6c2.3,1.8,6.9,5.5,17.6,1.9
					L406.4,73.5z"/>
				<path class="st10" d="M404.1,73.5c-0.4,0-55.7,30.3-55.7,30.3l-1.6,0l55.8-30.4L404.1,73.5z"/>
				<polygon class="st10" points="398.7,72.6 343.3,103.3 342.3,103 397.4,72.1 				"/>
				<polygon class="st10" points="394.5,70.7 339.6,101.6 338.7,101 393.8,70.2 				"/>
				<polygon class="st10" points="391.6,68 391,67.1 336.3,98.1 336.8,99.1 				"/>
				<path class="st10" d="M389.8,64.7l-53.3,30.5l0.7-1.4c0,0,0.6-0.6,1.5-1.2c0.9-0.6,8.1-5,8.1-5l42.5-24L389.8,64.7z"/>
			</g>
			<path class="st11" d="M347.7,167c0,0-9.6,0.8-13.2-8.6l0,3c0,0,3.2,7.4,13.2,7.5L347.7,167z"/>
		</g>
		<g>
			<polygon class="st12" points="369.3,209.2 369.3,209.6 307.9,213.4 307.9,213 			"/>
			<path class="st11" d="M307.9,213l61.4-3.8l-30.7-17.3L307.9,213z M352.3,206.3l-27.7,1.7l13.9-9.6L352.3,206.3z"/>
			<path class="st12" d="M351.7,206.3c0,0-13.7-7.5-13.6-7.6s0.4-0.4,0.4-0.4l13.8,7.8L351.7,206.3z"/>
			<polygon class="st12" points="338.9,198.7 325.5,207.9 324.6,208 338.5,198.4 			"/>
			<polygon class="st13" points="338.3,195.5 335.4,194 335,194.3 337.9,195.7 			"/>
			<polygon class="st13" points="334.7,198 331.8,196.5 331.4,196.8 334.3,198.2 			"/>
			<polygon class="st13" points="331.7,200 328.8,198.6 328.4,198.9 331.3,200.3 			"/>
			<polygon class="st13" points="328.8,202 325.9,200.6 325.5,200.8 328.4,202.2 			"/>
			<polygon class="st13" points="325.8,204.1 323,202.6 322.6,202.9 325.5,204.3 			"/>
			<polygon class="st13" points="322.8,206.1 320,204.7 319.6,204.9 322.4,206.3 			"/>
			<polygon class="st13" points="319.9,208.1 317,206.7 316.6,206.9 319.5,208.3 			"/>
		</g>
		<g>
			<path class="st14" d="M407.4,170.2c0,0,3.5-4.4,3.4-4.4c-0.1,0-5.8,0.6-5.8,0.6L407.4,170.2z"/>
			<path class="st15" d="M407.4,170.2c0,0,0.7-3.1-2.4-3.8l-26.6,15.3c0,0,3.5,1.1,1.9,4.2L407.4,170.2z"/>
			<path class="st16" d="M380.3,185.9c0,0,1.7-3.2-1.9-4.2l-1.9,1.2l2,4L380.3,185.9z"/>
			
				<ellipse transform="matrix(0.8486 -0.529 0.529 0.8486 -40.6372 227.6937)" class="st17" cx="377.6" cy="184.9" rx="1.5" ry="2.2"/>
			<path class="st18" d="M407.1,167.8c0,0-26.8,15-26.8,15s-0.5-0.9-1.9-1.1l26.6-15.3C405,166.4,406.7,166.9,407.1,167.8z"/>
			<polygon class="st19" points="410.8,165.8 410,166.9 409.8,166.6 409.7,166.5 409.5,166.2 409,166 409.9,165.9 			"/>
		</g>
		<g>
			<path class="st20" d="M430.2,154.5c-0.1,0.1-5,3-5,3l-7.5-4.2l4.9-2.9L430.2,154.5z"/>
			<polygon class="st21" points="430.3,160.3 425.2,163.2 425.1,157.5 430.2,154.5 			"/>
			<polygon class="st10" points="417.6,153.4 417.7,159.1 425.2,163.2 425.1,157.5 			"/>
			<path class="st22" d="M428.4,153.5c0,0-4.9,3.1-4.9,3.1l0.1,5.7l-5.8-3.2l-0.1-5.7l4.9-2.9L428.4,153.5z"/>
			<polygon class="st23" points="423.5,156.6 417.6,153.4 417.7,159.1 423.6,162.3 			"/>
		</g>
		<g>
			<path class="st16" d="M333.1,198.6l-39.1,21.3c0,0-35.4-22.2-36.4-21.9c-1,0.3-1,0.3-1,0.3l-0.2,6.1c0,0,0.1,1.7,2,3
				c1.9,1.4,35.5,22.5,35.5,22.5l39-21.9l0-1.5l-38.9,21.7l-35.1-21.7c0,0-1.8-2-1.4-2.8l0.2-4c0,0,0.1-0.7,1.1-0.1
				c1,0.6,35.3,21.9,35.3,21.9l38.9-21.6L333.1,198.6z"/>
			<polygon class="st24" points="333.1,198.6 293.9,219.9 294.1,221.6 333,200.1 			"/>
			<path class="st17" d="M293.9,219.9c0,0-35.4-22.2-36.4-21.9c-1,0.3-1,0.3-1,0.3l38.7-20.5c0,0,0.3-0.5,1.9,0.1
				c1.6,0.6,35.9,20.6,35.9,20.6L293.9,219.9z"/>
			<polygon class="st9" points="331.2,201 331,207.1 293.9,227.2 294.1,221.6 			"/>
			<path class="st21" d="M293.9,227.2l-36.5-22.7c0,0,0,0,0.1-2.7c0.1-2.7,0.1-2,1.2-2.2c1.1-0.1,35.3,21.9,35.3,21.9L293.9,227.2z"
				/>
			<polygon class="st24" points="332.8,206.7 331.1,205.6 331,207.1 293.9,227.2 293.9,228.4 			"/>
			<path class="st24" d="M293.9,227.2l-36.5-22.7c0,0-0.1,1.3,1.4,2.1c1.4,0.9,35.1,21.7,35.1,21.7L293.9,227.2z"/>
			<path class="st24" d="M294.1,221.6l-0.1-1.7l-29.6-18.1c0,0-0.9,0.5,0.6,1.4"/>
			<path class="st16" d="M297.2,177.9l-38.3,20.7c0,0-1.3-1-2.3-0.2l38.7-20.5C295.2,177.9,295.8,177.3,297.2,177.9z"/>
		</g>
		<g>
			<g>
				<path class="st25" d="M295.3,207.6c-15,1.2-19.7-9.4-19.7-9.4l-0.1-8.4l20.3,11.5l0.1,6.3L295.3,207.6z"/>
				<path class="st25" d="M295.7,207.6c15.1,0.7,19.3-10.1,19.3-10.1l-0.1-8.4l-19.9,12.2l0.2,6.3L295.7,207.6z"/>
				<polygon class="st25" points="325.8,181.1 295,199.7 263.4,182.2 293.7,163.8 				"/>
				<polygon class="st26" points="325.8,183.4 294.9,202 295,199.7 325.8,181.1 				"/>
				<path class="st27" d="M295,199.7l-31.6-17.5c0,0-0.5,1.6,0,2c0.5,0.5,31.5,17.8,31.5,17.8L295,199.7z"/>
			</g>
			<path class="st11" d="M309.1,185.9l-9.6-5.5l-1,0.7l9.2,5.2l0.3,10.2l-1.6,5.2c0,0,0.7,1.1,2.4,1c1.7,0,2.3-1.2,2.3-1.2l-1.6-5.1
				L309.1,185.9z"/>
			<path class="st13" d="M308.8,202.8l-0.5-16.6l0.8-0.3l0.4,10.6l1.6,5.1C311.1,201.7,310.5,202.8,308.8,202.8z"/>
		</g>
	</g>
	<g>
		<polygon class="st3" points="247.7,336.5 87.8,420.2 22.7,389.5 185.2,304 		"/>
		<polygon class="st4" points="247.7,336.5 247.9,349 88,432.4 87.8,420.2 		"/>
		<polygon class="st5" points="87.8,420.2 22.7,389.5 23,401.8 88,432.4 		"/>
		<path class="st0" d="M42.1,410.7c0,0-4.6,5-4.5,9.5l-3.4,50.2l-1.6-64.3L42.1,410.7z"/>
		<path class="st1" d="M46.3,412.7c0,0-1.6,2.4-1.8,8.9l-2.8,44.9l-7.5,3.9l3.4-50.2c0,0-0.2-3.8,4.5-9.5L46.3,412.7z"/>
		<polygon class="st0" points="172.1,388.5 171.5,397.6 171.1,397.6 170.7,389.3 		"/>
		<polygon class="st1" points="179.1,384.9 178.8,393.6 171.5,397.6 172.1,388.5 		"/>
		<polygon class="st28" points="139.9,327.9 203.8,359.5 218.8,351.6 157.1,318.8 		"/>
		<polygon class="st29" points="203.8,359.5 204.2,383.8 219.3,376.2 218.8,351.6 		"/>
		<g>
			<path class="st29" d="M179.8,341.8c0,0,2.8-0.4,7.4,3.8c0,0,3.4,0.5,4.3,0c0,0-0.7,1.4-1.9,1.6c0,0-0.4,0.9,0.3,1.8
				c0,0-2.2-1.1-2.8-2.6c0,0-2.5,0.1-4.5-1.4C180.5,343.5,179.8,342.7,179.8,341.8z"/>
			<path class="st29" d="M182.5,342.4c0,0,1.4-0.3,2.1,0.1c0,0-1.3,0.3-0.9,0.6"/>
			<path class="st29" d="M181.2,343.9c0,0-0.2,0.8,0.2,1.2c0,0,0.2-0.9,0.4-0.7C182,344.6,181.2,343.9,181.2,343.9z"/>
			<path class="st29" d="M182.9,345.2c0,0,0.5,0.5,0.9,0.8l0-0.3L182.9,345.2z"/>
		</g>
		<g>
			<path class="st29" d="M165.6,330.6c0,0,1.9-0.3,5.1,2.6c0,0,2.3,0.3,2.9,0c0,0-0.5,0.9-1.3,1.1c0,0-0.3,0.6,0.2,1.2
				c0,0-1.5-0.8-1.9-1.8c0,0-1.7,0.1-3.1-1S165.6,331.2,165.6,330.6z"/>
			<path class="st29" d="M167.5,331c0,0,1-0.2,1.4,0.1c0,0-0.9,0.2-0.6,0.4"/>
			<path class="st29" d="M166.6,332.1c0,0-0.1,0.6,0.1,0.8c0,0,0.1-0.6,0.3-0.5C167.2,332.5,166.6,332.1,166.6,332.1z"/>
			<path class="st29" d="M167.8,333c0,0,0.3,0.3,0.6,0.5l0-0.2L167.8,333z"/>
		</g>
		<g>
			<path class="st30" d="M169.6,317.6L169.6,317.6c0.1,0,0.2,0.1,0.2,0.2l0.1,4c0,0.1-0.1,0.2-0.2,0.2h0c-0.1,0-0.2-0.1-0.2-0.2
				l-0.1-4C169.4,317.6,169.5,317.6,169.6,317.6L169.6,317.6z"/>
			<path class="st31" d="M170.8,315.5c1.2-0.5,2.4-0.1,2.6,0.4c0.2,0.5-0.7,0.9-1.9,1.4c-1.2,0.5-2.1,0.9-2.3,0.4
				C169.1,317.3,169.7,316,170.8,315.5L170.8,315.5z"/>
			<path class="st31" d="M170.8,315.7c0.7-0.3,1.5-0.1,1.6,0.2c0.1,0.3-0.5,0.5-1.2,0.8c-0.7,0.3-1.3,0.6-1.4,0.3
				C169.8,316.8,170.1,316,170.8,315.7L170.8,315.7z"/>
			<path class="st31" d="M166.6,317.8c1.2-0.9,2.8-0.8,3.2-0.4c0.4,0.5-0.6,1.2-1.7,2.1c-1.2,0.9-2.1,1.7-2.5,1.2
				C165.1,320.3,165.4,318.7,166.6,317.8L166.6,317.8z"/>
			<path class="st31" d="M166.6,318c0.7-0.6,1.7-0.5,1.9-0.2c0.2,0.3-0.4,0.7-1.1,1.3c-0.7,0.6-1.3,1-1.5,0.7
				C165.7,319.6,165.9,318.6,166.6,318L166.6,318z"/>
		</g>
		<g>
			<path class="st32" d="M41.6,382.9l0.1,6.2c0,0.2-0.2,0.4-0.4,0.4l-0.6,0c-0.2,0-0.4-0.2-0.4-0.4l-0.1-6.2L41.6,382.9L41.6,382.9
				L41.6,382.9z"/>
			<path class="st33" d="M41.1,382.9l0.1,6.1c0,0.1-0.1,0.2-0.2,0.2l-0.3,0c-0.1,0-0.2-0.1-0.2-0.2l-0.1-6.1L41.1,382.9L41.1,382.9
				L41.1,382.9z"/>
			<path class="st34" d="M40.7,382.9l0.1,5.9c0,0,0,0.1-0.1,0.1l0,0c0,0-0.1,0-0.1-0.1l-0.1-5.9L40.7,382.9L40.7,382.9L40.7,382.9z"
				/>
			<polygon class="st35" points="41,387.5 35.3,384.7 40.7,370.1 46.7,384.5 41,387.5 			"/>
			<polygon class="st35" points="40.6,386.1 36.2,384 40.4,373 44.9,383.9 40.6,386.1 			"/>
			<polygon class="st35" points="40.5,384.7 37.4,383.2 40.3,375.5 43.5,383.1 40.5,384.7 			"/>
		</g>
		<g>
			<path class="st32" d="M144,332.6l0.1,6.2c0,0.2-0.2,0.4-0.4,0.4l-0.6,0c-0.2,0-0.4-0.2-0.4-0.4l-0.1-6.2L144,332.6L144,332.6
				L144,332.6z"/>
			<path class="st33" d="M143.5,332.6l0.1,6.1c0,0.1-0.1,0.2-0.2,0.2l-0.3,0c-0.1,0-0.2-0.1-0.2-0.2l-0.1-6.1L143.5,332.6
				L143.5,332.6L143.5,332.6z"/>
			<path class="st34" d="M143.1,332.7l0.1,5.9c0,0,0,0.1-0.1,0.1l0,0c0,0-0.1,0-0.1-0.1l-0.1-5.9L143.1,332.7L143.1,332.7
				L143.1,332.7z"/>
			<polygon class="st35" points="143.4,337.2 137.7,334.4 143.1,319.8 149.1,334.2 143.4,337.2 			"/>
			<polygon class="st35" points="143,335.8 138.6,333.7 142.8,322.8 147.3,333.6 143,335.8 			"/>
			<polygon class="st35" points="142.9,334.4 139.8,332.9 142.7,325.2 145.9,332.8 142.9,334.4 			"/>
		</g>
		<g>
			<path class="st36" d="M151.7,341l-1,16.4c0,0,1.4,2.4,4.4-0.1l-1.6-14.7L151.7,341z"/>
			<path class="st36" d="M155.7,340.1l6,1.1c0,0,0.3,0.3,0,0.6c-0.3,0.3-2.2,1.4-3.3,1.3s-2.4-1-3.2-1.5L155.7,340.1z"/>
			<path class="st37" d="M153.6,342.4c0,0-4.4-3.1-4.2-4.7c0,0,0.7-1.1,5.8,1.2L153.6,342.4z"/>
			
				<ellipse transform="matrix(0.3533 -0.9355 0.9355 0.3533 -218.7745 364.871)" class="st36" cx="154.5" cy="340.7" rx="1.9" ry="1"/>
			<path class="st36" d="M153.9,339.6l-0.2-9.6c0,0,0.2-0.5,0.4-0.3c0.1,0.2,1.4,2.1,1.3,4.6s-0.5,4.5-0.5,4.5L153.9,339.6z"/>
			<path class="st38" d="M151.7,341l1,0.8l0.5,16.5c0,0-2,0.3-2.4-1L151.7,341z"/>
			<path class="st36" d="M147.6,350.6c0,0,0.8-4.1,3.2-6.7l2.6-2.5l0.3,0.8C153.8,342.3,148.1,350.9,147.6,350.6z"/>
			
				<ellipse transform="matrix(0.3533 -0.9355 0.9355 0.3533 -218.7286 364.935)" class="st38" cx="154.6" cy="340.7" rx="0.6" ry="0.3"/>
		</g>
		<g>
			<path class="st36" d="M172.6,345.7l-1,16.4c0,0,1.4,2.4,4.4-0.1l-1.6-14.7L172.6,345.7z"/>
			<path class="st36" d="M176.6,344.9l6,1.1c0,0,0.3,0.3,0,0.6c-0.3,0.3-2.2,1.4-3.3,1.3c-1.1,0-2.4-1-3.2-1.5L176.6,344.9z"/>
			<path class="st37" d="M174.5,347.2c0,0-4.4-3.1-4.2-4.7c0,0,0.7-1.1,5.8,1.2L174.5,347.2z"/>
			
				<ellipse transform="matrix(0.3533 -0.9355 0.9355 0.3533 -209.7016 387.4722)" class="st36" cx="175.4" cy="345.4" rx="1.9" ry="1"/>
			<path class="st36" d="M174.8,344.3l-0.2-9.6c0,0,0.2-0.5,0.4-0.3s1.4,2.1,1.3,4.6c-0.1,2.5-0.5,4.5-0.5,4.5L174.8,344.3z"/>
			<path class="st38" d="M172.6,345.7l1,0.8l0.5,16.5c0,0-2,0.3-2.4-1L172.6,345.7z"/>
			<path class="st36" d="M168.5,355.4c0,0,0.8-4.1,3.2-6.7l2.6-2.5l0.3,0.8C174.6,347,169,355.6,168.5,355.4z"/>
			
				<ellipse transform="matrix(0.3533 -0.9355 0.9355 0.3533 -209.6557 387.5362)" class="st38" cx="175.5" cy="345.4" rx="0.6" ry="0.3"/>
		</g>
		<g>
			<path class="st36" d="M158.1,353.7l-1,16.4c0,0,1.4,2.4,4.4-0.1l-1.6-14.7L158.1,353.7z"/>
			<path class="st36" d="M162,352.9l6,1.1c0,0,0.3,0.3,0,0.6c-0.3,0.3-2.2,1.4-3.3,1.3c-1.1,0-2.4-1-3.2-1.5L162,352.9z"/>
			<path class="st37" d="M159.9,355.2c0,0-4.4-3.1-4.2-4.7c0,0,0.7-1.1,5.8,1.2L159.9,355.2z"/>
			
				<ellipse transform="matrix(0.3533 -0.9355 0.9355 0.3533 -226.5752 379.0602)" class="st36" cx="160.9" cy="353.4" rx="1.9" ry="1"/>
			<path class="st36" d="M160.3,352.3l-0.2-9.6c0,0,0.2-0.5,0.4-0.3c0.1,0.2,1.4,2.1,1.3,4.6c-0.1,2.5-0.5,4.5-0.5,4.5L160.3,352.3z
				"/>
			<path class="st38" d="M158.1,353.7l1,0.8l0.5,16.5c0,0-2,0.3-2.4-1L158.1,353.7z"/>
			<path class="st36" d="M154,363.4c0,0,0.8-4.1,3.2-6.7l2.6-2.5l0.3,0.8C160.1,355,154.4,363.6,154,363.4z"/>
			
				<ellipse transform="matrix(0.3533 -0.9355 0.9355 0.3533 -226.5293 379.1243)" class="st38" cx="161" cy="353.4" rx="0.6" ry="0.3"/>
		</g>
		<g>
			<path class="st32" d="M217.4,337.5l0.1,6.2c0,0.2-0.2,0.4-0.4,0.4l-0.6,0c-0.2,0-0.4-0.2-0.4-0.4l-0.1-6.2L217.4,337.5
				L217.4,337.5L217.4,337.5z"/>
			<path class="st33" d="M216.9,337.5l0.1,6.1c0,0.1-0.1,0.2-0.2,0.2l-0.3,0c-0.1,0-0.2-0.1-0.2-0.2l-0.1-6.1L216.9,337.5
				L216.9,337.5L216.9,337.5z"/>
			<path class="st34" d="M216.5,337.5l0.1,5.9c0,0,0,0.1-0.1,0.1l0,0c0,0-0.1,0-0.1-0.1l-0.1-5.9L216.5,337.5L216.5,337.5
				L216.5,337.5z"/>
			<polygon class="st35" points="216.8,342 211,339.2 216.5,324.7 222.4,339 216.8,342 			"/>
			<polygon class="st35" points="216.4,340.7 212,338.6 216.1,327.6 220.6,338.4 216.4,340.7 			"/>
			<polygon class="st35" points="216.2,339.2 213.2,337.8 216.1,330 219.2,337.7 216.2,339.2 			"/>
		</g>
		<g>
			<path class="st32" d="M226.9,331.5l0.1,6.2c0,0.2-0.2,0.4-0.4,0.4l-0.6,0c-0.2,0-0.4-0.2-0.4-0.4l-0.1-6.2L226.9,331.5
				L226.9,331.5L226.9,331.5z"/>
			<path class="st33" d="M226.4,331.5l0.1,6.1c0,0.1-0.1,0.2-0.2,0.2l-0.3,0c-0.1,0-0.2-0.1-0.2-0.2l-0.1-6.1L226.4,331.5
				L226.4,331.5L226.4,331.5z"/>
			<path class="st34" d="M226,331.5l0.1,5.9c0,0,0,0.1-0.1,0.1l0,0c0,0-0.1,0-0.1-0.1l-0.1-5.9L226,331.5L226,331.5L226,331.5z"/>
			<polygon class="st35" points="226.3,336 220.6,333.2 226,318.7 232,333 226.3,336 			"/>
			<polygon class="st35" points="225.9,334.7 221.5,332.6 225.7,321.6 230.2,332.4 225.9,334.7 			"/>
			<polygon class="st35" points="225.8,333.2 222.7,331.7 225.6,324 228.8,331.6 225.8,333.2 			"/>
		</g>
		<g>
			<path class="st32" d="M205.3,330.9l0.1,6.2c0,0.2-0.2,0.4-0.4,0.4l-0.6,0c-0.2,0-0.4-0.2-0.4-0.4l-0.1-6.2L205.3,330.9
				L205.3,330.9L205.3,330.9z"/>
			<path class="st33" d="M204.8,330.9l0.1,6.1c0,0.1-0.1,0.2-0.2,0.2l-0.3,0c-0.1,0-0.2-0.1-0.2-0.2l-0.1-6.1L204.8,330.9
				L204.8,330.9L204.8,330.9z"/>
			<path class="st34" d="M204.4,330.9l0.1,5.9c0,0,0,0.1-0.1,0.1l0,0c0,0-0.1,0-0.1-0.1l-0.1-5.9L204.4,330.9L204.4,330.9
				L204.4,330.9z"/>
			<polygon class="st35" points="204.7,335.4 199,332.6 204.4,318.1 210.4,332.4 204.7,335.4 			"/>
			<polygon class="st35" points="204.3,334.1 200,332 204.1,321 208.6,331.9 204.3,334.1 			"/>
			<polygon class="st35" points="204.2,332.7 201.1,331.2 204,323.5 207.2,331.1 204.2,332.7 			"/>
		</g>
		<g>
			<path class="st32" d="M140,371.1l0.1,6.2c0,0.2-0.2,0.4-0.4,0.4l-0.6,0c-0.2,0-0.4-0.2-0.4-0.4l-0.1-6.2L140,371.1L140,371.1
				L140,371.1z"/>
			<path class="st33" d="M139.5,371.1l0.1,6.1c0,0.1-0.1,0.2-0.2,0.2l-0.3,0c-0.1,0-0.2-0.1-0.2-0.2l-0.1-6.1L139.5,371.1
				L139.5,371.1L139.5,371.1z"/>
			<path class="st34" d="M139.1,371.1l0.1,5.9c0,0,0,0.1-0.1,0.1l0,0c0,0-0.1,0-0.1-0.1l-0.1-5.9L139.1,371.1L139.1,371.1
				L139.1,371.1z"/>
			<polygon class="st35" points="139.4,375.6 133.6,372.8 139.1,358.3 145,372.6 139.4,375.6 			"/>
			<polygon class="st35" points="139,374.3 134.6,372.2 138.7,361.2 143.2,372 139,374.3 			"/>
			<polygon class="st35" points="138.8,372.8 135.8,371.3 138.7,363.6 141.8,371.2 138.8,372.8 			"/>
		</g>
	</g>
	<g>
		<polygon class="st39" points="145.2,564.6 225.7,613.1 337.3,549.6 254.3,501.7 		"/>
		<polygon class="st40" points="145.2,564.6 145.2,569.2 225.7,617.3 225.7,613.1 		"/>
		<polygon class="st41" points="225.7,613.1 337.3,549.6 337.3,554.1 225.7,617.3 		"/>
		<polygon class="st40" points="144.2,564.9 115.9,466.4 226.7,408.2 254.3,501.7 145.2,564.6 		"/>
		<polygon class="st22" points="148,555.5 123.5,467.7 222.1,415.9 246.6,499.1 149.6,555.1 		"/>
		<polygon class="st41" points="231.7,574.4 255.9,588.9 289.3,569.9 264.4,555.5 		"/>
		<polygon class="st41" points="157.8,563.1 198.9,587.8 297.9,533.6 254.3,507.4 		"/>
	</g>
	<polygon class="st6" points="123.5,467.7 124.7,472.1 223.4,420.3 222.1,415.9 	"/>
	<polygon class="st10" points="124.7,472.1 137,516.2 235.6,461.6 223.4,420.3 	"/>
	<polygon class="st6" points="152.8,516.2 153.4,518.2 180.3,503.5 179.5,501.4 	"/>
	<polygon class="st39" points="327.3,497.6 374.9,525 403.4,508.5 355.8,481.1 	"/>
	<polygon class="st40" points="327.3,497.6 327.3,499.9 374.9,527.5 374.9,525 	"/>
	<polygon class="st41" points="374.9,525 403.4,508.5 403.4,511.3 374.9,527.5 	"/>
	<polygon class="st10" points="332.5,497.6 371.9,520.4 395.2,506.7 356.6,484.2 	"/>
	<polygon class="st41" points="379.7,516.7 383.3,518.7 391.4,514.1 388,512.1 	"/>
	<polygon class="st6" points="332.5,497.6 336.1,499.7 360.3,486.3 356.6,484.2 	"/>
	<polygon class="st22" points="354.1,510.1 377.8,496.5 395.2,506.7 371.9,520.4 	"/>
	<g>
		<polygon class="st39" points="345.1,395.7 368.6,463.6 407,441.3 385.1,372.6 		"/>
		<polygon class="st41" points="368.6,463.6 365.7,461.9 343.5,396.6 345.1,395.7 		"/>
		<polygon class="st41" points="356.6,435 344.7,449.8 346.4,450.8 357.2,436.9 		"/>
		<polygon class="st40" points="346.4,450.8 359.2,442.9 357.2,436.9 		"/>
		<polygon class="st41" points="343.5,396.6 342.7,394.4 384.4,370.8 385.1,372.6 		"/>
	</g>
	<polygon class="st22" points="348.8,396.6 369.7,458.7 403.2,438.7 383.2,376.8 	"/>
	<polygon class="st22" points="383.2,376.8 369.7,458.7 403.2,438.7 	"/>
	<polygon class="st42" points="415.9,404.9 482.1,443.1 526.3,417.6 460,379.4 	"/>
	<polygon class="st43" points="415.9,404.9 415.9,417.6 415.9,422.8 482.1,461.1 482.1,443.1 	"/>
	<polygon class="st10" points="482.1,443.1 526.3,417.6 526.3,435.6 482.1,461.1 	"/>
	<polygon class="st43" points="482.1,443.1 526.3,417.6 526.3,418.9 482.1,444.4 	"/>
	<polygon class="st43" points="482.1,446.1 526.3,420.6 526.3,421.9 482.1,447.4 	"/>
	<polygon class="st43" points="482.1,448.9 526.3,423.4 526.3,424.8 482.1,450.3 	"/>
	<polygon class="st43" points="482.1,451.8 526.3,426.3 526.3,427.6 482.1,453.1 	"/>
	<polygon class="st43" points="482.1,454.8 526.3,429.3 526.3,430.6 482.1,456.1 	"/>
	<polygon class="st43" points="482.1,457.6 526.3,432.1 526.3,433.4 482.1,458.9 	"/>
	<polygon class="st43" points="482.1,459.8 526.3,434.3 526.3,435.6 482.1,461.1 	"/>
	<polygon class="st43" points="436.1,404.4 439.8,406.5 463.9,392.5 460.2,390.4 	"/>
	<polygon class="st43" points="449,405.2 451.2,406.5 465.2,398.3 463.1,397.1 	"/>
	<g>
		<path class="st44" d="M124.9,336.8c-2.3,1.4-6,1.4-8.3,0.1c-2.3-1.3-2.4-3.4-0.1-4.8c2.3-1.4,6-1.4,8.3-0.1
			C127.1,333.3,127.2,335.5,124.9,336.8z"/>
		<path class="st45" d="M121.3,335.3c-1.4,0.7-3.7,1-5.2,0.4c-1.5-0.6-1.6-1.9-0.1-2.6c1.4-0.7,3.8-0.7,5.3-0.1
			C122.8,333.6,122.8,334.7,121.3,335.3z"/>
		<path class="st46" d="M118.3,334.9c-0.6,0.4-1.5,0.4-2,0c-0.6-0.3-0.6-0.9,0-1.3c0.6-0.4,1.5-0.4,2,0
			C118.8,333.9,118.8,334.5,118.3,334.9z"/>
		<polygon class="st47" points="115.6,344.6 140.8,358.6 120,371.1 94.8,357.1 		"/>
		<polygon class="st48" points="127,350.9 140.8,358.6 121.5,370.2 120,370.2 119.6,351.1 		"/>
		
			<linearGradient id="SVGID_1_" gradientUnits="userSpaceOnUse" x1="109.1812" y1="344.8586" x2="110.7568" y2="342.1295" gradientTransform="matrix(0.9998 -1.743586e-02 1.743586e-02 0.9998 -5.244 7.3496)">
			<stop  offset="0" style="stop-color:#E4DFD8"/>
			<stop  offset="0.54" style="stop-color:#D9D3CD"/>
			<stop  offset="1" style="stop-color:#BEB9B1"/>
		</linearGradient>
		<polygon class="st49" points="95.2,338.8 119.7,352.3 120,370.2 95.5,356.6 		"/>
		<polygon class="st50" points="139,340 129.1,335.5 119.6,351.6 120,370 139.3,358.4 		"/>
		<polygon class="st51" points="105,317.2 101.8,319.1 102,328.8 105.2,326.9 		"/>
		<polygon class="st52" points="98.5,317.3 101.8,319.1 102.1,333.9 98.8,332.1 		"/>
		<polygon class="st47" points="98.5,317.3 101.8,319.1 105,317.2 101.7,315.4 		"/>
		
			<linearGradient id="SVGID_2_" gradientUnits="userSpaceOnUse" x1="100.792" y1="310.668" x2="102.1327" y2="312.3841" gradientTransform="matrix(0.9998 -1.743586e-02 1.743586e-02 0.9998 -5.244 7.3496)">
			<stop  offset="0" style="stop-color:#CFCAC3"/>
			<stop  offset="1" style="stop-color:#A19B8E"/>
		</linearGradient>
		<polygon class="st53" points="99.9,317.3 101.8,318.3 103.7,317.2 101.8,316.1 		"/>
		<polygon class="st52" points="101.8,318.3 103.7,317.2 101.8,316.1 		"/>
		
			<linearGradient id="SVGID_3_" gradientUnits="userSpaceOnUse" x1="102.1519" y1="310.9486" x2="101.5039" y2="315.0395" gradientTransform="matrix(0.9998 -1.743586e-02 1.743586e-02 0.9998 -5.244 7.3496)">
			<stop  offset="0" style="stop-color:#CFCAC3"/>
			<stop  offset="1" style="stop-color:#A19B8E"/>
		</linearGradient>
		<polygon class="st54" points="101.8,318.3 102.7,317.8 101.8,316.1 		"/>
		<g>
			<path class="st50" d="M139,340l-9.5-4.3c-0.2-0.1-0.5,0-0.6,0.2l-9.3,15.7l0.3,16.1l19.3-11.6L139,340z"/>
			<path class="st55" d="M139,340.1c-0.1-0.1-9.3-4.3-9.4-4.3c-0.2-0.1-0.5,0-0.6,0.2c-0.1,0.2-9.1,15.5-9.2,15.7
				c0,0.5,0.3,15.3,0.3,15.8c0.3-0.2,19-11.4,19.3-11.6C139.2,355.4,139,340.6,139,340.1z"/>
			<path class="st56" d="M139,340.1c-0.3-0.1-9.1-4.2-9.4-4.3c-0.2-0.1-0.5,0-0.7,0.2c-0.3,0.5-8.9,15.2-9.2,15.7
				c0,1,0.3,14.5,0.3,15.6c0.6-0.4,18.7-11.2,19.3-11.6C139.2,354.7,139,341.2,139,340.1z"/>
			<path class="st57" d="M139,340.2c-0.4-0.2-9-4.1-9.4-4.3c-0.3-0.1-0.6,0-0.7,0.2c-0.4,0.7-8.8,15-9.2,15.7
				c0,1.6,0.2,13.7,0.3,15.3c0.9-0.6,18.4-11,19.3-11.6C139.2,354,139,341.8,139,340.2z"/>
			<path class="st58" d="M139,340.3c-0.6-0.3-8.8-4-9.4-4.3c-0.3-0.1-0.6,0-0.7,0.2c-0.6,1-8.6,14.7-9.2,15.7c0,2.1,0.2,12.9,0.3,15
				c1.2-0.7,18.1-10.9,19.3-11.6C139.2,353.3,139,342.4,139,340.3z"/>
			<path class="st59" d="M139,340.4c-0.7-0.3-8.6-4-9.3-4.3c-0.3-0.1-0.6,0-0.8,0.2c-0.7,1.2-8.5,14.4-9.2,15.6
				c0,2.6,0.2,12.2,0.3,14.7c1.5-0.9,17.8-10.7,19.3-11.6C139.2,352.6,139,343,139,340.4z"/>
			<path class="st60" d="M139,340.5c-0.9-0.4-8.5-3.9-9.3-4.3c-0.3-0.1-0.7,0-0.8,0.3c-0.9,1.5-8.3,14.2-9.2,15.6
				c0.1,3.1,0.2,11.4,0.3,14.5c1.8-1.1,17.5-10.5,19.3-11.6C139.2,351.9,139,343.6,139,340.5z"/>
			<path class="st61" d="M139,340.6c-1-0.5-8.3-3.8-9.3-4.3c-0.3-0.1-0.7,0-0.9,0.3c-1,1.7-8.2,13.9-9.2,15.6
				c0.1,3.6,0.2,10.6,0.2,14.2c2.1-1.3,17.2-10.3,19.3-11.6C139.2,351.2,139,344.2,139,340.6z"/>
			<path class="st62" d="M139,340.7c-1.1-0.5-8.1-3.7-9.3-4.2c-0.3-0.2-0.7,0-0.9,0.3c-1.1,1.9-8,13.6-9.2,15.6
				c0.1,4.1,0.2,9.8,0.2,13.9c2.5-1.5,16.9-10.1,19.3-11.6C139.1,350.5,139,344.8,139,340.7z"/>
			<path class="st63" d="M139,340.8c-1.3-0.6-8-3.6-9.2-4.2c-0.3-0.2-0.7,0-0.9,0.3c-1.3,2.2-7.9,13.4-9.1,15.5
				c0.1,4.7,0.2,9,0.2,13.7c2.8-1.7,16.5-9.9,19.3-11.6C139.1,349.8,139.1,345.4,139,340.8z"/>
			<path class="st64" d="M139,340.9c-1.4-0.7-7.8-3.6-9.2-4.2c-0.4-0.2-0.8,0-1,0.3c-1.4,2.4-7.7,13.1-9.1,15.5
				c0.1,5.2,0.1,8.2,0.2,13.4c3.1-1.8,16.2-9.8,19.3-11.6C139.1,349.1,139.1,346,139,340.9z"/>
			<path class="st65" d="M139,341c-1.6-0.7-7.6-3.5-9.2-4.2c-0.4-0.2-0.8,0-1,0.3c-1.6,2.7-7.5,12.8-9.1,15.5
				c0.1,5.7,0.1,7.4,0.2,13.1c3.4-2,15.9-9.6,19.3-11.6C139.1,348.4,139.1,346.6,139,341z"/>
			<path class="st66" d="M139,341c-1.7-0.8-7.5-3.4-9.2-4.2c-0.4-0.2-0.8,0-1,0.3c-1.7,2.9-7.4,12.6-9.1,15.5
				c0.1,6.2,0.1,6.6,0.2,12.9c3.7-2.2,15.6-9.4,19.3-11.6C139.1,347.7,139.1,347.3,139,341z"/>
			<path class="st67" d="M139,341.1c-1.8-0.8-7.3-3.3-9.1-4.2c-0.4-0.2-0.9,0-1.1,0.3c-1.9,3.2-7.2,12.3-9.1,15.4
				c0.1,6.7,0.1,5.9,0.2,12.6c4-2.4,15.3-9.2,19.3-11.6C139.1,347,139.1,347.9,139,341.1z"/>
			<path class="st68" d="M139,341.2c-2-0.9-7.1-3.3-9.1-4.2c-0.4-0.2-0.9,0-1.1,0.4c-2,3.4-7.1,12-9.1,15.4
				c0.1,7.2,0.1,5.1,0.2,12.3c4.3-2.6,15-9,19.3-11.6C139.1,346.3,139.1,348.5,139,341.2z"/>
			<path class="st69" d="M139,341.3c-2.1-1-7-3.2-9.1-4.2c-0.4-0.2-0.9,0-1.2,0.4c-2.1,3.6-6.9,11.8-9.1,15.4
				c0.1,7.8,0.1,4.3,0.2,12c4.6-2.8,14.7-8.8,19.3-11.6C139.1,345.6,139.1,349.1,139,341.3z"/>
			<path class="st70" d="M139,341.4c-2.3-1-6.8-3.1-9.1-4.2c-0.4-0.2-1,0-1.2,0.4c-2.3,3.9-6.8,11.5-9,15.4
				c0.1,8.3,0.1,3.5,0.2,11.8c4.9-2.9,14.4-8.7,19.3-11.6C139,344.9,139.1,349.7,139,341.4z"/>
			<path class="st71" d="M139,341.5c-2.4-1.1-6.6-3-9-4.1c-0.5-0.2-1,0-1.2,0.4c-2.4,4.1-6.6,11.2-9,15.4c0.2,8.8,0,2.7,0.2,11.5
				c5.2-3.1,14.1-8.5,19.3-11.6C139,344.2,139.1,350.3,139,341.5z"/>
			<path class="st72" d="M139,341.6c-2.6-1.2-6.5-3-9-4.1c-0.5-0.2-1,0-1.3,0.4c-2.6,4.4-6.5,11-9,15.3c0.2,9.3,0,1.9,0.2,11.2
				c5.5-3.3,13.8-8.3,19.3-11.6C139,343.5,139.1,350.9,139,341.6z"/>
			<path class="st73" d="M139,341.7c-2.7-1.2-6.3-2.9-9-4.1c-0.5-0.2-1,0-1.3,0.4c-2.7,4.6-6.3,10.7-9,15.3c0.2,9.8,0,1.1,0.2,11
				c5.8-3.5,13.5-8.1,19.3-11.6C139,342.8,139.2,351.5,139,341.7z"/>
			<path class="st74" d="M139,341.8c-2.8-1.3-6.1-2.8-9-4.1c-0.5-0.2-1.1,0-1.3,0.4c-2.9,4.8-6.1,10.4-9,15.3
				c0.2,10.4,0,0.3,0.2,10.7c6.1-3.7,13.2-7.9,19.3-11.6C139,342.1,139.2,352.1,139,341.8z"/>
			<path class="st75" d="M139,341.9c-3-1.4-6-2.7-8.9-4.1c-0.5-0.2-1.1,0-1.4,0.4c-3,5.1-6,10.2-9,15.3c0.2,10.9,0-0.4,0.2,10.4
				c6.4-3.9,12.9-7.7,19.3-11.6C139,341.4,139.2,352.7,139,341.9z"/>
			<path class="st76" d="M139,342c-2.8-1.3-6.1-2.8-8.9-4.1c-0.5-0.2-1.2,0-1.5,0.5c-2.9,4.8-6.1,10.4-9,15.2
				c0.2,10.4,0,0.2,0.2,10.5c6.1-3.7,13.2-7.9,19.3-11.6C139,342.2,139.2,352.4,139,342z"/>
			<path class="st76" d="M139,342.2c-2.7-1.2-6.2-2.8-8.8-4.1c-0.6-0.3-1.2-0.1-1.5,0.5c-2.7,4.6-6.2,10.6-8.9,15.2
				c0.2,9.8,0,0.8,0.2,10.7c5.8-3.5,13.5-8.1,19.3-11.6C139,343,139.2,352,139,342.2z"/>
			<path class="st77" d="M139,342.4c-2.6-1.2-6.2-2.9-8.8-4c-0.6-0.3-1.3-0.1-1.6,0.5c-2.6,4.4-6.3,10.8-8.9,15.1
				c0.2,9.3,0,1.5,0.2,10.8c5.5-3.3,13.8-8.3,19.3-11.6C139,343.9,139.2,351.7,139,342.4z"/>
			<path class="st78" d="M139,342.6c-2.4-1.1-6.3-2.9-8.8-4c-0.6-0.3-1.3-0.1-1.7,0.5c-2.4,4.1-6.4,11-8.9,15.1
				c0.2,8.8,0,2.1,0.2,10.9c5.2-3.1,14.1-8.5,19.3-11.6C139,344.7,139.2,351.4,139,342.6z"/>
			<path class="st79" d="M139,342.7c-2.3-1-6.4-2.9-8.7-4c-0.6-0.3-1.4-0.1-1.8,0.6c-2.3,3.9-6.6,11.2-8.8,15
				c0.1,8.3,0,2.8,0.2,11.1c4.9-2.9,14.4-8.7,19.3-11.6C139.1,345.5,139.1,351,139,342.7z"/>
			<path class="st80" d="M139,342.9c-2.1-1-6.5-3-8.7-4c-0.7-0.3-1.5-0.1-1.8,0.6c-2.1,3.6-6.7,11.4-8.8,15
				c0.1,7.8,0.1,3.4,0.2,11.2c4.6-2.8,14.7-8.8,19.3-11.6C139.1,346.3,139.1,350.7,139,342.9z"/>
			<path class="st81" d="M139,343.1c-2-0.9-6.6-3-8.6-3.9c-0.7-0.3-1.5-0.1-1.9,0.6c-2,3.4-6.8,11.6-8.8,14.9
				c0.1,7.2,0.1,4.1,0.2,11.3c4.3-2.6,15-9,19.3-11.6C139.1,347.1,139.1,350.3,139,343.1z"/>
			<path class="st82" d="M139,343.2c-1.8-0.8-6.7-3.1-8.6-3.9c-0.7-0.3-1.6-0.1-2,0.6c-1.9,3.2-6.9,11.7-8.8,14.9
				c0.1,6.7,0.1,4.7,0.2,11.4c4-2.4,15.3-9.2,19.3-11.6C139.1,348,139.1,350,139,343.2z"/>
			<path class="st83" d="M139,343.4c-1.7-0.8-6.8-3.1-8.5-3.9c-0.8-0.3-1.6-0.1-2.1,0.6c-1.7,2.9-7,11.9-8.7,14.9
				c0.1,6.2,0.1,5.4,0.2,11.6c3.7-2.2,15.6-9.4,19.3-11.6C139.1,348.8,139.1,349.6,139,343.4z"/>
			<path class="st84" d="M139,343.6c-1.6-0.7-6.9-3.2-8.5-3.9c-0.8-0.4-1.7-0.1-2.1,0.7c-1.6,2.7-7.1,12.1-8.7,14.8
				c0.1,5.7,0.1,6,0.2,11.7c3.4-2,15.9-9.6,19.3-11.6C139.1,349.6,139.1,349.3,139,343.6z"/>
			<path class="st85" d="M139,343.8c-1.4-0.7-7-3.2-8.4-3.9c-0.8-0.4-1.8-0.1-2.2,0.7c-1.4,2.4-7.3,12.3-8.7,14.8
				c0.1,5.2,0.1,6.6,0.2,11.8c3.1-1.8,16.2-9.8,19.3-11.6C139.1,350.4,139.1,348.9,139,343.8z"/>
			<path class="st86" d="M139,343.9c-1.3-0.6-7.1-3.2-8.4-3.8c-0.8-0.4-1.8-0.1-2.3,0.7c-1.3,2.2-7.4,12.5-8.7,14.7
				c0.1,4.7,0.1,7.3,0.2,11.9c2.8-1.7,16.5-9.9,19.3-11.6C139.2,351.2,139.1,348.6,139,343.9z"/>
			<path class="st87" d="M139,344.1c-1.1-0.5-7.2-3.3-8.3-3.8c-0.9-0.4-1.9-0.1-2.4,0.7c-1.1,1.9-7.5,12.7-8.6,14.7
				c0.1,4.1,0.1,7.9,0.2,12.1c2.5-1.5,16.9-10.1,19.3-11.6C139.2,352,139.1,348.3,139,344.1z"/>
			<path class="st88" d="M139,344.3c-1-0.5-7.3-3.3-8.3-3.8c-0.9-0.4-1.9-0.1-2.4,0.8c-1,1.7-7.6,12.9-8.6,14.6
				c0.1,3.6,0.1,8.6,0.2,12.2c2.1-1.3,17.2-10.3,19.3-11.6C139.2,352.9,139.1,347.9,139,344.3z"/>
			<path class="st89" d="M139,344.5c-0.9-0.4-7.4-3.4-8.2-3.8c-0.9-0.4-2-0.1-2.5,0.8c-0.9,1.5-7.7,13.1-8.6,14.6
				c0.1,3.1,0.2,9.2,0.2,12.3c1.8-1.1,17.5-10.5,19.3-11.6C139.2,353.7,139.1,347.6,139,344.5z"/>
			<path class="st90" d="M139,344.6c-0.7-0.3-7.5-3.4-8.2-3.7c-0.9-0.4-2.1-0.1-2.6,0.8c-0.7,1.2-7.8,13.3-8.5,14.5
				c0,2.6,0.2,9.9,0.2,12.5c1.5-0.9,17.8-10.7,19.3-11.6C139.2,354.5,139.1,347.2,139,344.6z"/>
			<path class="st91" d="M139,344.8c-0.6-0.3-7.6-3.5-8.1-3.7c-1-0.4-2.1-0.1-2.7,0.8c-0.6,1-7.9,13.5-8.5,14.5
				c0,2.1,0.2,10.5,0.2,12.6c1.2-0.7,18.1-10.9,19.3-11.6C139.2,355.3,139.1,346.9,139,344.8z"/>
			<path class="st92" d="M139,345c-0.4-0.2-7.6-3.5-8.1-3.7c-1-0.5-2.2-0.1-2.7,0.9c-0.4,0.7-8.1,13.7-8.5,14.4
				c0,1.6,0.2,11.2,0.2,12.7c0.9-0.6,18.4-11,19.3-11.6C139.2,356.1,139.1,346.5,139,345z"/>
			<path class="st93" d="M139,345.2c-0.3-0.1-7.7-3.5-8-3.7c-1-0.5-2.2-0.1-2.8,0.9c-0.3,0.5-8.2,13.9-8.5,14.4
				c0,1,0.2,11.8,0.2,12.8c0.6-0.4,18.7-11.2,19.3-11.6C139.3,357,139.1,346.2,139,345.2z"/>
			<path class="st93" d="M139,345.3c-0.1-0.1-7.8-3.6-8-3.7c-1.1-0.5-2.3-0.1-2.9,0.9c-0.1,0.2-8.3,14.1-8.4,14.3
				c0,0.5,0.2,12.4,0.2,13c0.3-0.2,19-11.4,19.3-11.6C139.3,357.8,139.1,345.9,139,345.3z"/>
			<path class="st51" d="M139.1,345.5l-7.9-3.6c-1.1-0.5-2.4-0.1-3,0.9l-8.4,14.3l0.2,13.1l19.3-11.6L139.1,345.5z"/>
		</g>
		<polygon class="st94" points="140.5,340.2 130,335.3 119.8,352.6 106.7,345.3 93.7,338.1 103.8,320.8 114.3,325.7 127.4,332.9 		
			"/>
		<polygon class="st95" points="130,335.3 119.8,352.6 106.7,345.3 93.7,338.1 103.8,320.8 		"/>
		<polygon class="st96" points="140.5,340.2 130,335.3 130,335.9 140.5,340.8 		"/>
		<polygon class="st96" points="119.8,352.6 130,335.3 130,335.9 119.8,353.2 		"/>
		<path class="st96" d="M130,335.2c0.2-0.1,0.4-0.1,0.5-0.1c0.1,0.1,0.2,0.2,0.2,0.5l-0.7,0.4l-0.7,0.4c0-0.2,0.1-0.5,0.2-0.7
			C129.6,335.5,129.8,335.3,130,335.2z"/>
		<polygon class="st97" points="119.8,352.6 93.7,338.1 93.7,338.7 119.8,353.2 		"/>
		<polygon class="st98" points="119.8,352.6 93.7,338.1 93.7,338.3 119.8,352.8 		"/>
		
			<linearGradient id="SVGID_4_" gradientUnits="userSpaceOnUse" x1="108.4697" y1="355.89" x2="109.1957" y2="354.6324" gradientTransform="matrix(0.9998 -1.743586e-02 1.743586e-02 0.9998 -5.244 7.3496)">
			<stop  offset="0" style="stop-color:#E4DFD8"/>
			<stop  offset="0.54" style="stop-color:#D9D3CD"/>
			<stop  offset="1" style="stop-color:#BEB9B1"/>
		</linearGradient>
		<polygon class="st99" points="94.8,357.1 120,371.1 120,372.8 94.8,358.8 		"/>
		<polygon class="st51" points="140.8,358.6 120,371.1 120,372.8 140.9,360.3 		"/>
		<polygon class="st100" points="108.9,350.3 109.1,361 115.2,364.4 115,353.7 		"/>
		
			<linearGradient id="SVGID_5_" gradientUnits="userSpaceOnUse" x1="108.9917" y1="357.6103" x2="108.9917" y2="342.14" gradientTransform="matrix(0.9998 -1.743586e-02 1.743586e-02 0.9998 -5.244 7.3496)">
			<stop  offset="0" style="stop-color:#DBD6CF"/>
			<stop  offset="1" style="stop-color:#B3B0A2"/>
		</linearGradient>
		<polygon class="st101" points="109.5,351.4 109.7,360.7 110.2,360.4 110,351.7 		"/>
		<polygon class="st47" points="114.5,363.4 109.7,360.7 110.2,360.4 114.5,362.8 		"/>
		<polygon class="st102" points="109.7,360.7 110.2,360.4 110.7,360.6 		"/>
		<polygon class="st47" points="115.8,353.3 115,353.7 108.9,350.4 109.7,349.9 		"/>
		<polygon class="st102" points="115.8,353.3 115,353.7 115.2,364.4 116,363.9 		"/>
		<polygon class="st103" points="114.5,362.8 110.2,360.4 110,351.7 114.4,354.1 		"/>
		<polygon class="st47" points="114.4,357.6 109.8,355.1 109.8,355.1 110.1,354.9 114.4,357.3 		"/>
		<polygon class="st102" points="110.1,355.2 109.8,355.1 109.8,355.1 110,355 110.1,354.9 110.6,355.2 		"/>
		<polygon class="st48" points="109.8,355.1 109.8,355.6 114.4,358.1 114.4,357.6 		"/>
		<polygon class="st100" points="98,343.7 98.2,354.4 104.3,357.7 104.1,347 		"/>
		
			<linearGradient id="SVGID_6_" gradientUnits="userSpaceOnUse" x1="98.2398" y1="350.7632" x2="98.2398" y2="335.2929" gradientTransform="matrix(0.9998 -1.743586e-02 1.743586e-02 0.9998 -5.244 7.3496)">
			<stop  offset="0" style="stop-color:#DBD6CF"/>
			<stop  offset="1" style="stop-color:#B3B0A2"/>
		</linearGradient>
		<polygon class="st104" points="98.6,344.7 98.8,354 99.3,353.7 99.2,345 		"/>
		<polygon class="st47" points="103.7,356.7 98.8,354 99.3,353.7 103.7,356.1 		"/>
		<polygon class="st102" points="98.8,354 99.3,353.7 99.8,354 		"/>
		<polygon class="st47" points="104.9,346.6 104.1,347.1 98,343.7 98.8,343.2 		"/>
		<polygon class="st102" points="104.9,346.6 104.1,347.1 104.3,357.7 105.1,357.3 		"/>
		<polygon class="st103" points="103.7,356.1 99.3,353.7 99.2,345 103.5,347.4 		"/>
		<polygon class="st47" points="103.6,351 99,348.4 99,348.4 99.2,348.3 103.6,350.7 		"/>
		<polygon class="st102" points="99.2,348.6 99,348.4 99,348.4 99.1,348.3 99.2,348.3 99.7,348.6 		"/>
		<polygon class="st48" points="99,348.4 99,348.9 103.6,351.5 103.6,351 		"/>
	</g>
	<g>
		<path class="st44" d="M85.5,357.8c-2.3,1.4-6,1.4-8.3,0.1c-2.3-1.3-2.4-3.4-0.1-4.8c2.3-1.4,6-1.4,8.3-0.1
			C87.7,354.3,87.8,356.5,85.5,357.8z"/>
		<path class="st45" d="M81.9,356.3c-1.4,0.7-3.7,1-5.2,0.4c-1.5-0.6-1.6-1.9-0.1-2.6c1.4-0.7,3.8-0.7,5.3-0.1
			C83.3,354.6,83.4,355.7,81.9,356.3z"/>
		<path class="st46" d="M78.9,355.9c-0.6,0.4-1.5,0.4-2,0c-0.6-0.3-0.6-0.9,0-1.3c0.6-0.4,1.5-0.4,2,0
			C79.4,354.9,79.4,355.5,78.9,355.9z"/>
		<polygon class="st47" points="76.2,365.6 101.4,379.6 80.6,392.1 55.3,378.1 		"/>
		<polygon class="st48" points="87.6,371.9 101.4,379.6 82.1,391.2 80.6,391.2 80.2,372.1 		"/>
		
			<linearGradient id="SVGID_7_" gradientUnits="userSpaceOnUse" x1="69.4143" y1="365.1626" x2="70.9899" y2="362.4336" gradientTransform="matrix(0.9998 -1.743586e-02 1.743586e-02 0.9998 -5.244 7.3496)">
			<stop  offset="0" style="stop-color:#E4DFD8"/>
			<stop  offset="0.54" style="stop-color:#D9D3CD"/>
			<stop  offset="1" style="stop-color:#BEB9B1"/>
		</linearGradient>
		<polygon class="st105" points="55.8,359.8 80.3,373.3 80.6,391.2 56.1,377.6 		"/>
		<polygon class="st50" points="99.5,361 89.7,356.4 80.2,372.6 80.6,391 99.9,379.4 		"/>
		<polygon class="st51" points="65.6,338.2 62.4,340.1 62.6,349.8 65.8,347.9 		"/>
		<polygon class="st52" points="59.1,338.3 62.4,340.1 62.7,354.9 59.4,353.1 		"/>
		<polygon class="st47" points="59.1,338.3 62.4,340.1 65.6,338.2 62.3,336.4 		"/>
		
			<linearGradient id="SVGID_8_" gradientUnits="userSpaceOnUse" x1="61.025" y1="330.9721" x2="62.3658" y2="332.6882" gradientTransform="matrix(0.9998 -1.743586e-02 1.743586e-02 0.9998 -5.244 7.3496)">
			<stop  offset="0" style="stop-color:#CFCAC3"/>
			<stop  offset="1" style="stop-color:#A19B8E"/>
		</linearGradient>
		<polygon class="st106" points="60.5,338.3 62.4,339.3 64.3,338.2 62.4,337.1 		"/>
		<polygon class="st52" points="62.4,339.3 64.3,338.2 62.4,337.1 		"/>
		
			<linearGradient id="SVGID_9_" gradientUnits="userSpaceOnUse" x1="62.385" y1="331.2527" x2="61.737" y2="335.3436" gradientTransform="matrix(0.9998 -1.743586e-02 1.743586e-02 0.9998 -5.244 7.3496)">
			<stop  offset="0" style="stop-color:#CFCAC3"/>
			<stop  offset="1" style="stop-color:#A19B8E"/>
		</linearGradient>
		<polygon class="st107" points="62.4,339.3 63.3,338.8 62.4,337.1 		"/>
		<g>
			<path class="st50" d="M99.5,361l-9.5-4.3c-0.2-0.1-0.5,0-0.6,0.2l-9.3,15.7l0.3,16.1l19.3-11.6L99.5,361z"/>
			<path class="st55" d="M99.5,361c-0.1-0.1-9.3-4.3-9.4-4.3c-0.2-0.1-0.5,0-0.6,0.2c-0.1,0.2-9.1,15.5-9.2,15.7
				c0,0.5,0.3,15.3,0.3,15.8c0.3-0.2,19-11.4,19.3-11.6C99.8,376.4,99.6,361.6,99.5,361z"/>
			<path class="st56" d="M99.6,361.1c-0.3-0.1-9.1-4.2-9.4-4.3c-0.2-0.1-0.5,0-0.7,0.2c-0.3,0.5-8.9,15.2-9.2,15.7
				c0,1,0.3,14.5,0.3,15.6c0.6-0.4,18.7-11.2,19.3-11.6C99.8,375.7,99.6,362.2,99.6,361.1z"/>
			<path class="st57" d="M99.6,361.2c-0.4-0.2-9-4.1-9.4-4.3c-0.3-0.1-0.6,0-0.7,0.2c-0.4,0.7-8.8,15-9.2,15.7
				c0,1.6,0.2,13.7,0.3,15.3c0.9-0.6,18.4-11,19.3-11.6C99.8,375,99.6,362.8,99.6,361.2z"/>
			<path class="st58" d="M99.6,361.3c-0.6-0.3-8.8-4-9.4-4.3c-0.3-0.1-0.6,0-0.7,0.2c-0.6,1-8.6,14.7-9.2,15.7
				c0,2.1,0.2,12.9,0.3,15c1.2-0.7,18.1-10.9,19.3-11.6C99.8,374.3,99.6,363.4,99.6,361.3z"/>
			<path class="st59" d="M99.6,361.4c-0.7-0.3-8.6-4-9.3-4.3c-0.3-0.1-0.6,0-0.8,0.2c-0.7,1.2-8.5,14.4-9.2,15.6
				c0,2.6,0.2,12.2,0.3,14.7c1.5-0.9,17.8-10.7,19.3-11.6C99.8,373.6,99.6,364,99.6,361.4z"/>
			<path class="st60" d="M99.6,361.5c-0.9-0.4-8.5-3.9-9.3-4.3c-0.3-0.1-0.7,0-0.8,0.3c-0.9,1.5-8.3,14.2-9.2,15.6
				c0.1,3.1,0.2,11.4,0.3,14.5c1.8-1.1,17.5-10.5,19.3-11.6C99.8,372.9,99.6,364.6,99.6,361.5z"/>
			<path class="st61" d="M99.6,361.6c-1-0.5-8.3-3.8-9.3-4.3c-0.3-0.1-0.7,0-0.9,0.3c-1,1.7-8.2,13.9-9.2,15.6
				c0.1,3.6,0.2,10.6,0.2,14.2c2.1-1.3,17.2-10.3,19.3-11.6C99.7,372.2,99.6,365.2,99.6,361.6z"/>
			<path class="st62" d="M99.6,361.7c-1.1-0.5-8.1-3.7-9.3-4.2c-0.3-0.2-0.7,0-0.9,0.3c-1.1,1.9-8,13.6-9.2,15.6
				c0.1,4.1,0.2,9.8,0.2,13.9c2.5-1.5,16.9-10.1,19.3-11.6C99.7,371.5,99.6,365.8,99.6,361.7z"/>
			<path class="st63" d="M99.6,361.8c-1.3-0.6-8-3.6-9.2-4.2c-0.3-0.2-0.7,0-0.9,0.3c-1.3,2.2-7.9,13.4-9.1,15.5
				c0.1,4.7,0.2,9,0.2,13.7c2.8-1.7,16.5-9.9,19.3-11.6C99.7,370.8,99.6,366.4,99.6,361.8z"/>
			<path class="st64" d="M99.6,361.9c-1.4-0.7-7.8-3.6-9.2-4.2c-0.4-0.2-0.8,0-1,0.3c-1.4,2.4-7.7,13.1-9.1,15.5
				c0.1,5.2,0.1,8.2,0.2,13.4c3.1-1.8,16.2-9.8,19.3-11.6C99.7,370.1,99.7,367,99.6,361.9z"/>
			<path class="st65" d="M99.6,361.9c-1.6-0.7-7.6-3.5-9.2-4.2c-0.4-0.2-0.8,0-1,0.3c-1.6,2.7-7.5,12.8-9.1,15.5
				c0.1,5.7,0.1,7.4,0.2,13.1c3.4-2,15.9-9.6,19.3-11.6C99.7,369.4,99.7,367.6,99.6,361.9z"/>
			<path class="st66" d="M99.6,362c-1.7-0.8-7.5-3.4-9.2-4.2c-0.4-0.2-0.8,0-1,0.3c-1.7,2.9-7.4,12.6-9.1,15.5
				c0.1,6.2,0.1,6.6,0.2,12.9c3.7-2.2,15.6-9.4,19.3-11.6C99.7,368.7,99.7,368.3,99.6,362z"/>
			<path class="st67" d="M99.6,362.1c-1.8-0.8-7.3-3.3-9.1-4.2c-0.4-0.2-0.9,0-1.1,0.3c-1.9,3.2-7.2,12.3-9.1,15.4
				c0.1,6.7,0.1,5.9,0.2,12.6c4-2.4,15.3-9.2,19.3-11.6C99.7,368,99.7,368.9,99.6,362.1z"/>
			<path class="st68" d="M99.6,362.2c-2-0.9-7.1-3.3-9.1-4.2c-0.4-0.2-0.9,0-1.1,0.4c-2,3.4-7.1,12-9.1,15.4
				c0.1,7.2,0.1,5.1,0.2,12.3c4.3-2.6,15-9,19.3-11.6C99.7,367.3,99.7,369.5,99.6,362.2z"/>
			<path class="st69" d="M99.6,362.3c-2.1-1-7-3.2-9.1-4.2c-0.4-0.2-0.9,0-1.2,0.4c-2.1,3.6-6.9,11.8-9.1,15.4
				c0.1,7.8,0.1,4.3,0.2,12c4.6-2.8,14.7-8.8,19.3-11.6C99.6,366.6,99.7,370.1,99.6,362.3z"/>
			<path class="st70" d="M99.6,362.4c-2.3-1-6.8-3.1-9.1-4.2c-0.4-0.2-1,0-1.2,0.4c-2.3,3.9-6.8,11.5-9,15.4
				c0.1,8.3,0.1,3.5,0.2,11.8c4.9-2.9,14.4-8.7,19.3-11.6C99.6,365.9,99.7,370.7,99.6,362.4z"/>
			<path class="st71" d="M99.6,362.5c-2.4-1.1-6.6-3-9-4.1c-0.5-0.2-1,0-1.2,0.4c-2.4,4.1-6.6,11.2-9,15.4c0.2,8.8,0,2.7,0.2,11.5
				c5.2-3.1,14.1-8.5,19.3-11.6C99.6,365.2,99.7,371.3,99.6,362.5z"/>
			<path class="st72" d="M99.6,362.6c-2.6-1.2-6.5-3-9-4.1c-0.5-0.2-1,0-1.3,0.4c-2.6,4.4-6.5,11-9,15.3c0.2,9.3,0,1.9,0.2,11.2
				c5.5-3.3,13.8-8.3,19.3-11.6C99.6,364.5,99.7,371.9,99.6,362.6z"/>
			<path class="st73" d="M99.6,362.7c-2.7-1.2-6.3-2.9-9-4.1c-0.5-0.2-1,0-1.3,0.4c-2.7,4.6-6.3,10.7-9,15.3c0.2,9.8,0,1.1,0.2,11
				c5.8-3.5,13.5-8.1,19.3-11.6C99.6,363.8,99.7,372.5,99.6,362.7z"/>
			<path class="st74" d="M99.6,362.8c-2.8-1.3-6.1-2.8-9-4.1c-0.5-0.2-1.1,0-1.3,0.4c-2.9,4.8-6.1,10.4-9,15.3
				c0.2,10.4,0,0.3,0.2,10.7c6.1-3.7,13.2-7.9,19.3-11.6C99.6,363.1,99.8,373.1,99.6,362.8z"/>
			<path class="st75" d="M99.6,362.9c-3-1.4-6-2.7-8.9-4.1c-0.5-0.2-1.1,0-1.4,0.4c-3,5.1-6,10.2-9,15.3c0.2,10.9,0-0.4,0.2,10.4
				c6.4-3.9,12.9-7.7,19.3-11.6C99.6,362.4,99.8,373.7,99.6,362.9z"/>
			<path class="st76" d="M99.6,363c-2.8-1.3-6.1-2.8-8.9-4.1c-0.5-0.2-1.2,0-1.5,0.5c-2.9,4.8-6.1,10.4-9,15.2
				c0.2,10.4,0,0.2,0.2,10.5c6.1-3.7,13.2-7.9,19.3-11.6C99.6,363.2,99.8,373.4,99.6,363z"/>
			<path class="st76" d="M99.6,363.2c-2.7-1.2-6.2-2.8-8.8-4.1c-0.6-0.3-1.2-0.1-1.5,0.5c-2.7,4.6-6.2,10.6-8.9,15.2
				c0.2,9.8,0,0.8,0.2,10.7c5.8-3.5,13.5-8.1,19.3-11.6C99.6,364,99.8,373,99.6,363.2z"/>
			<path class="st77" d="M99.6,363.4c-2.6-1.2-6.2-2.9-8.8-4c-0.6-0.3-1.3-0.1-1.6,0.5c-2.6,4.4-6.3,10.8-8.9,15.1
				c0.2,9.3,0,1.5,0.2,10.8c5.5-3.3,13.8-8.3,19.3-11.6C99.6,364.9,99.8,372.7,99.6,363.4z"/>
			<path class="st78" d="M99.6,363.5c-2.4-1.1-6.3-2.9-8.8-4c-0.6-0.3-1.3-0.1-1.7,0.5c-2.4,4.1-6.4,11-8.9,15.1
				c0.2,8.8,0,2.1,0.2,10.9c5.2-3.1,14.1-8.5,19.3-11.6C99.6,365.7,99.7,372.3,99.6,363.5z"/>
			<path class="st79" d="M99.6,363.7c-2.3-1-6.4-2.9-8.7-4c-0.6-0.3-1.4-0.1-1.8,0.6c-2.3,3.9-6.6,11.2-8.8,15
				c0.1,8.3,0,2.8,0.2,11.1c4.9-2.9,14.4-8.7,19.3-11.6C99.6,366.5,99.7,372,99.6,363.7z"/>
			<path class="st80" d="M99.6,363.9c-2.1-1-6.5-3-8.7-4c-0.7-0.3-1.5-0.1-1.8,0.6c-2.1,3.6-6.7,11.4-8.8,15
				c0.1,7.8,0.1,3.4,0.2,11.2c4.6-2.8,14.7-8.8,19.3-11.6C99.7,367.3,99.7,371.7,99.6,363.9z"/>
			<path class="st81" d="M99.6,364.1c-2-0.9-6.6-3-8.6-3.9c-0.7-0.3-1.5-0.1-1.9,0.6c-2,3.4-6.8,11.6-8.8,14.9
				c0.1,7.2,0.1,4.1,0.2,11.3c4.3-2.6,15-9,19.3-11.6C99.7,368.1,99.7,371.3,99.6,364.1z"/>
			<path class="st82" d="M99.6,364.2c-1.8-0.8-6.7-3.1-8.6-3.9c-0.7-0.3-1.6-0.1-2,0.6c-1.9,3.2-6.9,11.7-8.8,14.9
				c0.1,6.7,0.1,4.7,0.2,11.4c4-2.4,15.3-9.2,19.3-11.6C99.7,368.9,99.7,371,99.6,364.2z"/>
			<path class="st83" d="M99.6,364.4c-1.7-0.8-6.8-3.1-8.5-3.9c-0.8-0.3-1.6-0.1-2.1,0.6c-1.7,2.9-7,11.9-8.7,14.9
				c0.1,6.2,0.1,5.4,0.2,11.6c3.7-2.2,15.6-9.4,19.3-11.6C99.7,369.8,99.7,370.6,99.6,364.4z"/>
			<path class="st84" d="M99.6,364.6c-1.6-0.7-6.9-3.2-8.5-3.9c-0.8-0.4-1.7-0.1-2.1,0.7c-1.6,2.7-7.1,12.1-8.7,14.8
				c0.1,5.7,0.1,6,0.2,11.7c3.4-2,15.9-9.6,19.3-11.6C99.7,370.6,99.7,370.3,99.6,364.6z"/>
			<path class="st85" d="M99.6,364.8c-1.4-0.7-7-3.2-8.4-3.9c-0.8-0.4-1.8-0.1-2.2,0.7c-1.4,2.4-7.3,12.3-8.7,14.8
				c0.1,5.2,0.1,6.6,0.2,11.8c3.1-1.8,16.2-9.8,19.3-11.6C99.7,371.4,99.7,369.9,99.6,364.8z"/>
			<path class="st86" d="M99.6,364.9c-1.3-0.6-7.1-3.2-8.4-3.8c-0.8-0.4-1.8-0.1-2.3,0.7c-1.3,2.2-7.4,12.5-8.7,14.7
				c0.1,4.7,0.1,7.3,0.2,11.9c2.8-1.7,16.5-9.9,19.3-11.6C99.7,372.2,99.7,369.6,99.6,364.9z"/>
			<path class="st87" d="M99.6,365.1c-1.1-0.5-7.2-3.3-8.3-3.8c-0.9-0.4-1.9-0.1-2.4,0.7c-1.1,1.9-7.5,12.7-8.6,14.7
				c0.1,4.1,0.1,7.9,0.2,12.1c2.5-1.5,16.9-10.1,19.3-11.6C99.8,373,99.7,369.3,99.6,365.1z"/>
			<path class="st88" d="M99.6,365.3c-1-0.5-7.3-3.3-8.3-3.8c-0.9-0.4-1.9-0.1-2.4,0.8c-1,1.7-7.6,12.9-8.6,14.6
				c0.1,3.6,0.1,8.6,0.2,12.2c2.1-1.3,17.2-10.3,19.3-11.6C99.8,373.9,99.7,368.9,99.6,365.3z"/>
			<path class="st89" d="M99.6,365.5c-0.9-0.4-7.4-3.4-8.2-3.8c-0.9-0.4-2-0.1-2.5,0.8c-0.9,1.5-7.7,13.1-8.6,14.6
				c0.1,3.1,0.2,9.2,0.2,12.3c1.8-1.1,17.5-10.5,19.3-11.6C99.8,374.7,99.7,368.6,99.6,365.5z"/>
			<path class="st90" d="M99.6,365.6c-0.7-0.3-7.5-3.4-8.2-3.7c-0.9-0.4-2.1-0.1-2.6,0.8c-0.7,1.2-7.8,13.3-8.5,14.5
				c0,2.6,0.2,9.9,0.2,12.5c1.5-0.9,17.8-10.7,19.3-11.6C99.8,375.5,99.7,368.2,99.6,365.6z"/>
			<path class="st91" d="M99.6,365.8c-0.6-0.3-7.6-3.5-8.1-3.7c-1-0.4-2.1-0.1-2.7,0.8c-0.6,1-7.9,13.5-8.5,14.5
				c0,2.1,0.2,10.5,0.2,12.6c1.2-0.7,18.1-10.9,19.3-11.6C99.8,376.3,99.7,367.9,99.6,365.8z"/>
			<path class="st92" d="M99.6,366c-0.4-0.2-7.6-3.5-8.1-3.7c-1-0.5-2.2-0.1-2.7,0.9c-0.4,0.7-8.1,13.7-8.5,14.4
				c0,1.6,0.2,11.2,0.2,12.7c0.9-0.6,18.4-11,19.3-11.6C99.8,377.1,99.7,367.5,99.6,366z"/>
			<path class="st93" d="M99.6,366.2c-0.3-0.1-7.7-3.5-8-3.7c-1-0.5-2.2-0.1-2.8,0.9c-0.3,0.5-8.2,13.9-8.5,14.4
				c0,1,0.2,11.8,0.2,12.8c0.6-0.4,18.7-11.2,19.3-11.6C99.8,378,99.7,367.2,99.6,366.2z"/>
			<path class="st93" d="M99.6,366.3c-0.1-0.1-7.8-3.6-8-3.7c-1.1-0.5-2.3-0.1-2.9,0.9c-0.1,0.2-8.3,14.1-8.4,14.3
				c0,0.5,0.2,12.4,0.2,13c0.3-0.2,19-11.4,19.3-11.6C99.9,378.8,99.7,366.8,99.6,366.3z"/>
			<path class="st51" d="M99.6,366.5l-7.9-3.6c-1.1-0.5-2.4-0.1-3,0.9l-8.4,14.3l0.2,13.1l19.3-11.6L99.6,366.5z"/>
		</g>
		<polygon class="st94" points="101.1,361.2 90.6,356.3 80.4,373.6 67.3,366.3 54.3,359.1 64.4,341.8 74.9,346.7 88,353.9 		"/>
		<polygon class="st95" points="90.6,356.3 80.4,373.6 67.3,366.3 54.3,359.1 64.4,341.8 		"/>
		<polygon class="st96" points="101.1,361.2 90.6,356.3 90.6,356.9 101.1,361.8 		"/>
		<polygon class="st96" points="80.4,373.6 90.6,356.3 90.6,356.9 80.4,374.2 		"/>
		<path class="st96" d="M90.6,356.2c0.2-0.1,0.4-0.1,0.5-0.1c0.1,0.1,0.2,0.2,0.2,0.5l-0.7,0.4l-0.7,0.4c0-0.2,0.1-0.5,0.2-0.7
			C90.2,356.5,90.4,356.3,90.6,356.2z"/>
		<polygon class="st97" points="80.4,373.6 54.3,359.1 54.3,359.7 80.4,374.2 		"/>
		<polygon class="st98" points="80.4,373.6 54.3,359.1 54.3,359.3 80.4,373.8 		"/>
		
			<linearGradient id="SVGID_10_" gradientUnits="userSpaceOnUse" x1="68.7027" y1="376.1941" x2="69.4288" y2="374.9365" gradientTransform="matrix(0.9998 -1.743586e-02 1.743586e-02 0.9998 -5.244 7.3496)">
			<stop  offset="0" style="stop-color:#E4DFD8"/>
			<stop  offset="0.54" style="stop-color:#D9D3CD"/>
			<stop  offset="1" style="stop-color:#BEB9B1"/>
		</linearGradient>
		<polygon class="st108" points="55.3,378.1 80.6,392.1 80.6,393.8 55.4,379.8 		"/>
		<polygon class="st51" points="101.4,379.6 80.6,392.1 80.6,393.8 101.4,381.3 		"/>
		<polygon class="st100" points="69.5,371.3 69.7,382 75.8,385.4 75.6,374.7 		"/>
		
			<linearGradient id="SVGID_11_" gradientUnits="userSpaceOnUse" x1="69.2248" y1="377.9144" x2="69.2248" y2="362.4441" gradientTransform="matrix(0.9998 -1.743586e-02 1.743586e-02 0.9998 -5.244 7.3496)">
			<stop  offset="0" style="stop-color:#DBD6CF"/>
			<stop  offset="1" style="stop-color:#B3B0A2"/>
		</linearGradient>
		<polygon class="st109" points="70.1,372.3 70.3,381.7 70.8,381.4 70.6,372.6 		"/>
		<polygon class="st47" points="75.1,384.4 70.3,381.7 70.8,381.4 75.1,383.8 		"/>
		<polygon class="st102" points="70.3,381.7 70.8,381.4 71.3,381.6 		"/>
		<polygon class="st47" points="76.4,374.2 75.6,374.7 69.5,371.3 70.3,370.9 		"/>
		<polygon class="st102" points="76.4,374.2 75.6,374.7 75.8,385.4 76.5,384.9 		"/>
		<polygon class="st103" points="75.1,383.8 70.8,381.4 70.6,372.6 75,375.1 		"/>
		<polygon class="st47" points="75,378.6 70.4,376.1 70.4,376.1 70.7,375.9 75,378.3 		"/>
		<polygon class="st102" points="70.7,376.2 70.4,376.1 70.4,376.1 70.6,376 70.7,375.9 71.2,376.2 		"/>
		<polygon class="st48" points="70.4,376.1 70.4,376.6 75,379.1 75,378.6 		"/>
		<g>
			<path class="st110" d="M59.2,364.5c0.1,3.6,0.1,7.2,0.2,10.9c0,0.1,0,0.2,0.1,0.2c2,1.1,4,2.2,6,3.3c0.1,0,0.2,0,0.2,0
				c0.1,0,0.1-0.1,0.1-0.2c-0.1-3.6-0.1-7.2-0.2-10.8c0-0.1,0-0.2-0.1-0.2c-2-1.1-4-2.2-6-3.3c-0.1,0-0.2,0-0.2,0
				C59.2,364.3,59.2,364.4,59.2,364.5z"/>
			<path class="st111" d="M59.2,364.5c0.1,3.5,0.1,7.3,0.2,10.8c0,0.1,0,0.2,0.1,0.2c1.9,1,4.1,2.2,6,3.3c0.1,0,0.2,0,0.2,0
				c0.1,0,0.1-0.1,0.1-0.2c-0.1-3.5-0.1-7.3-0.2-10.8c0-0.1,0-0.2-0.1-0.2c-1.9-1.1-4.1-2.3-6-3.3c-0.1,0-0.2,0-0.2,0
				C59.2,364.3,59.2,364.4,59.2,364.5z"/>
			<path class="st112" d="M59.2,364.5c0.1,3.3,0.1,7.5,0.2,10.8c0,0.1,0,0.2,0.1,0.2c1.8,1,4.1,2.3,5.9,3.3c0.1,0,0.2,0,0.2,0
				c0.1,0,0.1-0.1,0.1-0.2c-0.1-3.3-0.1-7.5-0.2-10.8c0-0.1,0-0.2-0.1-0.2c-1.8-1-4.1-2.3-5.9-3.3c-0.1,0-0.2,0-0.2,0
				C59.3,364.3,59.2,364.4,59.2,364.5z"/>
			<path class="st113" d="M59.2,364.5c0.1,3.1,0.1,7.6,0.2,10.7c0,0.1,0,0.2,0.1,0.2c1.7,0.9,4.2,2.3,5.9,3.3c0.1,0,0.2,0,0.2,0
				c0.1,0,0.1-0.1,0.1-0.2c-0.1-3.1-0.1-7.6-0.2-10.7c0-0.1,0-0.2-0.1-0.2c-1.7-0.9-4.2-2.3-5.9-3.3c-0.1,0-0.2,0-0.2,0
				C59.3,364.4,59.2,364.4,59.2,364.5z"/>
			<path class="st114" d="M59.2,364.6c0.1,3,0.1,7.7,0.2,10.7c0,0.1,0,0.2,0.1,0.2c1.6,0.9,4.3,2.4,5.9,3.3c0.1,0,0.2,0,0.2,0
				c0.1,0,0.1-0.1,0.1-0.2c-0.1-3-0.1-7.7-0.2-10.7c0-0.1,0-0.2-0.1-0.2c-1.6-0.9-4.3-2.4-5.9-3.3c-0.1,0-0.2,0-0.2,0
				C59.3,364.4,59.2,364.5,59.2,364.6z"/>
			<path class="st115" d="M59.2,364.6c0,2.8,0.1,7.9,0.2,10.6c0,0.1,0,0.2,0.1,0.2c1.5,0.8,4.4,2.4,5.9,3.3c0.1,0,0.2,0,0.2,0
				c0.1,0,0.1-0.1,0.1-0.2c0-2.8-0.1-7.8-0.2-10.6c0-0.1,0-0.2-0.1-0.2c-1.5-0.8-4.4-2.4-5.9-3.3c-0.1,0-0.2,0-0.2,0
				C59.3,364.4,59.2,364.5,59.2,364.6z"/>
			<path class="st116" d="M59.3,364.6c0,2.6,0.1,8,0.2,10.6c0,0.1,0,0.2,0.1,0.2c1.4,0.8,4.5,2.5,5.9,3.2c0.1,0,0.2,0,0.2,0
				c0.1,0,0.1-0.1,0.1-0.2c0-2.6-0.1-8-0.2-10.6c0-0.1,0-0.2-0.1-0.2c-1.4-0.8-4.5-2.5-5.9-3.3c-0.1,0-0.2,0-0.2,0
				C59.3,364.4,59.3,364.5,59.3,364.6z"/>
			<path class="st117" d="M59.3,364.6c0,2.4,0.1,8.1,0.2,10.5c0,0.1,0,0.2,0.1,0.2c1.3,0.7,4.5,2.5,5.9,3.2c0.1,0,0.2,0,0.2,0
				c0.1,0,0.1-0.1,0.1-0.2c0-2.4-0.1-8.1-0.2-10.5c0-0.1,0-0.2-0.1-0.2c-1.3-0.7-4.5-2.5-5.9-3.2c-0.1,0-0.2,0-0.2,0
				C59.3,364.4,59.3,364.5,59.3,364.6z"/>
			<path class="st118" d="M59.3,364.6c0,2.3,0.1,8.2,0.2,10.5c0,0.1,0,0.2,0.1,0.2c1.2,0.7,4.6,2.5,5.8,3.2c0.1,0,0.2,0,0.2,0
				c0.1,0,0.1-0.1,0.1-0.2c0-2.3-0.1-8.2-0.2-10.5c0-0.1,0-0.2-0.1-0.2c-1.2-0.7-4.6-2.6-5.8-3.2c-0.1,0-0.2,0-0.2,0
				C59.3,364.5,59.3,364.5,59.3,364.6z"/>
			<path class="st119" d="M59.3,364.6c0,2.1,0.1,8.4,0.2,10.5c0,0.1,0,0.2,0.1,0.2c1.1,0.6,4.7,2.6,5.8,3.2c0.1,0,0.2,0,0.2,0
				c0.1,0,0.1-0.1,0.1-0.2c0-2.1-0.1-8.4-0.2-10.4c0-0.1,0-0.2-0.1-0.2c-1.1-0.6-4.7-2.6-5.8-3.2c-0.1,0-0.2,0-0.2,0
				C59.3,364.5,59.3,364.5,59.3,364.6z"/>
			<path class="st120" d="M59.3,364.7c0,1.9,0.1,8.5,0.2,10.4c0,0.1,0,0.2,0.1,0.2c1,0.6,4.8,2.6,5.8,3.2c0.1,0,0.2,0,0.2,0
				c0.1,0,0.1-0.1,0.1-0.2c0-1.9-0.1-8.5-0.2-10.4c0-0.1,0-0.2-0.1-0.2c-1-0.6-4.8-2.6-5.8-3.2c-0.1,0-0.2,0-0.2,0
				C59.3,364.5,59.3,364.6,59.3,364.7z"/>
			<path class="st121" d="M59.3,364.7c0,1.7,0.2,8.6,0.2,10.4c0,0.1,0,0.2,0.1,0.2c0.9,0.5,4.8,2.7,5.8,3.2c0.1,0,0.2,0,0.2,0
				c0.1,0,0.1-0.1,0.1-0.2c0-1.7-0.2-8.6-0.2-10.4c0-0.1,0-0.2-0.1-0.2c-0.9-0.5-4.8-2.7-5.8-3.2c-0.1,0-0.2,0-0.2,0
				C59.3,364.5,59.3,364.6,59.3,364.7z"/>
			<path class="st122" d="M59.3,364.7c0,1.6,0.2,8.8,0.2,10.3c0,0.1,0,0.2,0.1,0.2c0.9,0.5,4.9,2.7,5.8,3.2c0.1,0,0.2,0,0.2,0
				c0.1,0,0.1-0.1,0.1-0.2c0-1.6-0.2-8.8-0.2-10.3c0-0.1,0-0.2-0.1-0.2c-0.9-0.5-4.9-2.7-5.8-3.2c-0.1,0-0.2,0-0.2,0
				C59.4,364.5,59.3,364.6,59.3,364.7z"/>
			<path class="st123" d="M59.3,364.7c0,1.4,0.2,8.9,0.2,10.3c0,0.1,0,0.2,0.1,0.2c0.8,0.4,5,2.8,5.8,3.2c0.1,0,0.2,0,0.2,0
				c0.1,0,0.1-0.1,0.1-0.2c0-1.4-0.2-8.9-0.2-10.3c0-0.1,0-0.2-0.1-0.2c-0.8-0.4-5-2.8-5.8-3.2c-0.1,0-0.2,0-0.2,0
				C59.4,364.5,59.3,364.6,59.3,364.7z"/>
			<path class="st124" d="M59.3,364.7c0,1.2,0.2,9,0.2,10.2c0,0.1,0,0.2,0.1,0.2c0.7,0.4,5.1,2.8,5.7,3.2c0.1,0,0.2,0,0.2,0
				c0.1,0,0.1-0.1,0.1-0.2c0-1.2-0.2-9-0.2-10.2c0-0.1,0-0.2-0.1-0.2c-0.7-0.4-5.1-2.8-5.7-3.2c-0.1,0-0.2,0-0.2,0
				C59.4,364.6,59.3,364.6,59.3,364.7z"/>
			<path class="st125" d="M59.3,364.7c0,1,0.2,9.2,0.2,10.2c0,0.1,0,0.2,0.1,0.2c0.6,0.3,5.2,2.8,5.7,3.2c0.1,0,0.2,0,0.2,0
				c0.1,0,0.1-0.1,0.1-0.2c0-1-0.2-9.1-0.2-10.2c0-0.1,0-0.2-0.1-0.2c-0.6-0.3-5.2-2.9-5.7-3.2c-0.1,0-0.2,0-0.2,0
				C59.4,364.6,59.3,364.7,59.3,364.7z"/>
			<path class="st126" d="M59.4,364.8c0,0.9,0.2,9.3,0.2,10.2c0,0.1,0,0.2,0.1,0.2c0.5,0.3,5.2,2.9,5.7,3.2c0.1,0,0.2,0,0.2,0
				c0.1,0,0.1-0.1,0.1-0.2c0-0.9-0.2-9.3-0.2-10.1c0-0.1,0-0.2-0.1-0.2c-0.5-0.3-5.2-2.9-5.7-3.2c-0.1,0-0.2,0-0.2,0
				C59.4,364.6,59.4,364.7,59.4,364.8z"/>
			<path class="st127" d="M59.4,364.8c0,0.7,0.2,9.4,0.2,10.1c0,0.1,0,0.2,0.1,0.2c0.4,0.2,5.3,2.9,5.7,3.1c0.1,0,0.2,0,0.2,0
				c0.1,0,0.1-0.1,0.1-0.2c0-0.7-0.2-9.4-0.2-10.1c0-0.1,0-0.2-0.1-0.2c-0.4-0.2-5.3-2.9-5.7-3.2c-0.1,0-0.2,0-0.2,0
				C59.4,364.6,59.4,364.7,59.4,364.8z"/>
			<path class="st128" d="M59.4,364.8c0,0.5,0.2,9.5,0.2,10.1c0,0.1,0,0.2,0.1,0.2c0.3,0.2,5.4,3,5.7,3.1c0.1,0,0.2,0,0.2,0
				c0.1,0,0.1-0.1,0.1-0.2c0-0.5-0.2-9.5-0.2-10.1c0-0.1,0-0.2-0.1-0.2c-0.3-0.2-5.4-3-5.7-3.1c-0.1,0-0.2,0-0.2,0
				C59.4,364.6,59.4,364.7,59.4,364.8z"/>
			<path class="st129" d="M59.4,364.8c0,0.3,0.2,9.7,0.2,10c0,0.1,0,0.2,0.1,0.2c0.2,0.1,5.5,3,5.7,3.1c0.1,0,0.2,0,0.2,0
				c0.1,0,0.1-0.1,0.1-0.2c0-0.3-0.2-9.7-0.2-10c0-0.1,0-0.2-0.1-0.2c-0.2-0.1-5.5-3-5.7-3.1c-0.1,0-0.2,0-0.2,0
				C59.4,364.6,59.4,364.7,59.4,364.8z"/>
			<path class="st130" d="M59.4,364.8c0,0.2,0.2,9.8,0.2,10c0,0.1,0,0.2,0.1,0.2c0.1,0.1,5.5,3.1,5.6,3.1c0.1,0,0.2,0,0.2,0
				c0.1,0,0.1-0.1,0.1-0.2c0-0.2-0.2-9.8-0.2-10c0-0.1,0-0.2-0.1-0.2c-0.1-0.1-5.5-3.1-5.6-3.1c-0.1,0-0.2,0-0.2,0
				C59.4,364.7,59.4,364.7,59.4,364.8z"/>
			<path class="st131" d="M59.4,364.8l0.2,9.9c0,0.1,0,0.2,0.1,0.2l5.6,3.1c0.1,0,0.2,0,0.2,0c0.1,0,0.1-0.1,0.1-0.2l-0.2-9.9
				c0-0.1,0-0.2-0.1-0.2l-5.6-3.1c-0.1,0-0.2,0-0.2,0C59.4,364.7,59.4,364.8,59.4,364.8z"/>
		</g>
		<polygon class="st100" points="58.6,364.7 58.8,375.4 64.9,378.7 64.7,368 		"/>
		
			<linearGradient id="SVGID_12_" gradientUnits="userSpaceOnUse" x1="58.4729" y1="371.0673" x2="58.4729" y2="355.597" gradientTransform="matrix(0.9998 -1.743586e-02 1.743586e-02 0.9998 -5.244 7.3496)">
			<stop  offset="0" style="stop-color:#DBD6CF"/>
			<stop  offset="1" style="stop-color:#B3B0A2"/>
		</linearGradient>
		<polygon class="st132" points="59.2,365.7 59.4,375 59.9,374.7 59.8,366 		"/>
		<polygon class="st47" points="64.3,377.7 59.4,375 59.9,374.7 64.3,377.1 		"/>
		<polygon class="st102" points="59.4,375 59.9,374.7 60.4,375 		"/>
		<polygon class="st47" points="65.5,367.6 64.7,368.1 58.6,364.7 59.4,364.2 		"/>
		<polygon class="st102" points="65.5,367.6 64.7,368.1 64.9,378.7 65.7,378.2 		"/>
		<polygon class="st103" points="64.3,377.1 59.9,374.7 59.8,366 64.1,368.4 		"/>
		<polygon class="st47" points="64.2,372 59.6,369.4 59.6,369.4 59.8,369.3 64.1,371.7 		"/>
		<polygon class="st102" points="59.8,369.6 59.6,369.4 59.6,369.4 59.7,369.3 59.8,369.3 60.3,369.5 		"/>
		<polygon class="st48" points="59.6,369.4 59.6,369.9 64.2,372.5 64.2,372 		"/>
	</g>
</g>
</svg>
