<?xml version="1.0" encoding="utf-8"?>
<!-- Generator: Adobe Illustrator 21.0.0, SVG Export Plug-In . SVG Version: 6.00 Build 0)  -->
<svg version="1.1" id="Layer_1" xmlns="http://www.w3.org/2000/svg" xmlns:xlink="http://www.w3.org/1999/xlink" x="0px" y="0px"
	 viewBox="0 0 1519.5 888.8" style="enable-background:new 0 0 1519.5 888.8;" xml:space="preserve">
<style type="text/css">
	.st0{fill:#0F4C81;}
	.st1{fill:#2D74B1;}
	.st2{fill:#EAC398;}
	.st3{fill:#CCA266;}
	.st4{fill:#BC9668;}
	.st5{fill:#B1CF79;}
	.st6{fill:#7E975D;}
	.st7{fill:#9DB964;}
	.st8{fill:#2156A7;}
	.st9{fill:#21366D;}
	.st10{fill:#165488;}
	.st11{fill:#F3F3F5;}
	.st12{fill:#E6E6E6;}
	.st13{fill:#ECAC20;}
	.st14{fill:#946C29;}
	.st15{fill:#D49A29;}
	.st16{fill:#F5D5AE;}
	.st17{fill:#0783C1;}
	.st18{fill:#E05959;}
	.st19{fill:#F16464;}
	.st20{fill:#1891D0;}
	.st21{fill:#4D4D4D;}
	.st22{fill:#F2F2F2;}
	.st23{fill:#CCCBD0;}
	.st24{fill:#FFFFFF;}
	.st25{fill:#F9F9F9;}
	.st26{fill:#CE5252;}
	.st27{fill:#545571;}
	.st28{fill:#353849;}
	.st29{fill:#44455A;}
	.st30{fill:#47C1B6;}
	.st31{fill:#139096;}
	.st32{fill:#397600;}
	.st33{fill:#48840A;}
	.st34{fill:#4F2400;}
	.st35{fill:#683D05;}
	.st36{fill:#855921;}
	.st37{fill:#559924;}
	.st38{fill:#EDE9E8;}
	.st39{fill:#DFD7D5;}
	.st40{fill:#D2C5C2;}
	.st41{fill:#F9F3BC;}
	.st42{fill:#D2C8A0;}
	.st43{fill:#E8E1AF;}
	.st44{fill:#EBF3FA;}
	.st45{fill:#D8D8D8;}
	.st46{fill:#C0CD5B;}
	.st47{fill:#A7B54A;}
	.st48{fill:#89993D;}
	.st49{fill:#CFCAC3;}
	.st50{fill:url(#SVGID_1_);}
	.st51{fill:#929087;}
	.st52{fill:#BEB9B1;}
	.st53{fill:#E4DFD8;}
	.st54{fill:url(#SVGID_2_);}
	.st55{fill:url(#SVGID_3_);}
	.st56{fill:#939188;}
	.st57{fill:#95938A;}
	.st58{fill:#96948B;}
	.st59{fill:#98958C;}
	.st60{fill:#99978E;}
	.st61{fill:#9A988F;}
	.st62{fill:#9C9990;}
	.st63{fill:#9D9B92;}
	.st64{fill:#9E9C93;}
	.st65{fill:#A09D94;}
	.st66{fill:#A19F96;}
	.st67{fill:#A3A097;}
	.st68{fill:#A4A198;}
	.st69{fill:#A5A39A;}
	.st70{fill:#A7A49B;}
	.st71{fill:#A8A59C;}
	.st72{fill:#A9A79E;}
	.st73{fill:#ABA89F;}
	.st74{fill:#ACA9A0;}
	.st75{fill:#AEABA2;}
	.st76{fill:#AFACA3;}
	.st77{fill:#B0ADA4;}
	.st78{fill:#B1AEA5;}
	.st79{fill:#B2AEA6;}
	.st80{fill:#B3AFA6;}
	.st81{fill:#B3B0A7;}
	.st82{fill:#B4B0A8;}
	.st83{fill:#B5B1A8;}
	.st84{fill:#B5B2A9;}
	.st85{fill:#B6B2AA;}
	.st86{fill:#B7B3AA;}
	.st87{fill:#B8B3AB;}
	.st88{fill:#B8B4AC;}
	.st89{fill:#B9B5AC;}
	.st90{fill:#BAB5AD;}
	.st91{fill:#BAB6AE;}
	.st92{fill:#BBB7AE;}
	.st93{fill:#BCB7AF;}
	.st94{fill:#BDB8B0;}
	.st95{fill:#D05627;}
	.st96{fill:#F37932;}
	.st97{fill:#8D301E;}
	.st98{fill:#BB4E27;}
	.st99{fill:#872C1C;}
	.st100{fill:url(#SVGID_4_);}
	.st101{fill:#E7E2DE;}
	.st102{fill:url(#SVGID_5_);}
	.st103{fill:#DBD6CF;}
	.st104{fill:#8B8C88;}
	.st105{fill:url(#SVGID_6_);}
	.st106{fill:url(#SVGID_7_);}
	.st107{fill:url(#SVGID_8_);}
	.st108{fill:url(#SVGID_9_);}
	.st109{fill:url(#SVGID_10_);}
	.st110{fill:url(#SVGID_11_);}
	.st111{fill:#CDC6C1;}
	.st112{fill:#CCC5C0;}
	.st113{fill:#CAC4BF;}
	.st114{fill:#C9C2BD;}
	.st115{fill:#C7C1BC;}
	.st116{fill:#C6C0BB;}
	.st117{fill:#C4BFBA;}
	.st118{fill:#C3BDB8;}
	.st119{fill:#C1BCB7;}
	.st120{fill:#C0BBB6;}
	.st121{fill:#BEBAB5;}
	.st122{fill:#BDB8B3;}
	.st123{fill:#BBB7B2;}
	.st124{fill:#BAB6B1;}
	.st125{fill:#B8B5B0;}
	.st126{fill:#B7B3AE;}
	.st127{fill:#B5B2AD;}
	.st128{fill:#B4B1AC;}
	.st129{fill:#B2B0AB;}
	.st130{fill:#B1AEA9;}
	.st131{fill:#AFADA8;}
	.st132{fill:#AEACA7;}
	.st133{fill:url(#SVGID_12_);}
</style>
<rect class="st0" width="1519.5" height="903.3"/>
<rect class="st1" width="490.5" height="903.3"/>
<g>
	<polygon class="st2" points="0.2,785.6 491.8,501.8 670.8,605.1 177.6,888.8 	"/>
	<polygon class="st3" points="0.2,785.6 0.2,803.2 175.8,903.3 179,903.3 177.6,888.8 	"/>
	<polygon class="st3" points="177.6,888.8 670.8,605.1 670.6,622.7 193.1,897 182.1,903.3 179,903.3 	"/>
	<polygon class="st3" points="178.3,903.3 179,903.3 0.2,903.3 0.2,803.2 	"/>
	<polygon class="st2" points="526.3,705.6 660.3,628.6 660.3,834.6 524.9,911.3 	"/>
	<polygon class="st4" points="524.9,911.3 345.7,808.6 526.3,705.6 	"/>
	<polygon class="st3" points="526.3,747.2 660.3,672.9 660.3,675.6 525.4,750.3 	"/>
	<polygon class="st3" points="526.3,800.2 660.3,725.8 660.3,728.6 525.4,803.2 	"/>
	<polygon class="st3" points="526.3,855.6 660.3,781.2 660.3,783.9 525.4,858.6 	"/>
	<polygon class="st3" points="581.2,719.4 581.2,724.5 614.4,706.5 614.4,701 	"/>
	<polygon class="st4" points="581.2,719.4 614.4,701 614.4,703.1 581.2,721 	"/>
	<polygon class="st3" points="585,769.8 584.9,774.8 618.2,756.9 618.2,751.4 	"/>
	<polygon class="st4" points="584.9,769.8 618.1,751.4 618.1,753.5 584.9,771.4 	"/>
	<polygon class="st3" points="586.7,825 586.7,830 619.9,812 619.9,806.6 	"/>
	<polygon class="st4" points="586.7,823.9 619.9,805.5 619.9,807.6 586.7,825.5 	"/>
	<g>
		<polygon class="st5" points="444.8,359.4 284.9,443.1 219.9,412.4 382.3,326.9 		"/>
		<polygon class="st6" points="444.8,359.4 445.1,371.9 285.2,455.3 284.9,443.1 		"/>
		<polygon class="st7" points="284.9,443.1 219.9,412.4 220.1,424.7 285.2,455.3 		"/>
		<path class="st2" d="M239.3,433.6c0,0-4.6,5-4.5,9.5l-3.4,50.2l-1.6-64.3L239.3,433.6z"/>
		<path class="st3" d="M243.4,435.6c0,0-1.6,2.4-1.8,8.9l-2.8,44.9l-7.5,3.9l3.4-50.2c0,0-0.2-3.8,4.5-9.5L243.4,435.6z"/>
		<polygon class="st2" points="369.3,411.4 368.6,420.5 368.3,420.5 367.9,412.2 		"/>
		<polygon class="st3" points="376.3,407.8 376,416.5 368.6,420.5 369.3,411.4 		"/>
		<g>
			<g>
				<path class="st8" d="M407.1,358.5l-59.6,33.1l0.8-86.5c0,0,2.9-0.2,6-1.4c3.1-1.2,53.6-29.4,53.6-29.4L407.1,358.5z"/>
				<path class="st9" d="M348.3,305.2c0,0-10.9-0.2-13.2-6.6l-0.8,85.5c0,0,5.3,7.3,13.2,7.6L348.3,305.2z"/>
				<path class="st10" d="M407.9,274.5l-1.5-1l-50.8,28.8c0,0-14.1,5.4-19.3-4.2c0,0-0.4-1.4,0.4-3.7s53.2-30.9,53.2-30.9l-1.3-0.8
					l-51.9,29.8c0,0-2.9,3.2-1.6,6.1c1.3,2.9,4.1,6.5,13.2,6.6c0,0,3.8-0.1,7.5-2.1C359.5,301.1,407.9,274.5,407.9,274.5z"/>
				<path class="st11" d="M406.4,273.5c0,0-14,1.1-16.9-9.9c0,0-50.8,28-52.2,30.1c-1.4,2.2-1.6,4.8,0.7,6.6
					c2.3,1.8,6.9,5.5,17.6,1.9L406.4,273.5z"/>
				<path class="st12" d="M404.1,273.5c-0.4,0-55.7,30.3-55.7,30.3h-1.6l55.8-30.4L404.1,273.5z"/>
				<polygon class="st12" points="398.7,272.6 343.3,303.3 342.3,303 397.4,272.1 				"/>
				<polygon class="st12" points="394.5,270.7 339.6,301.6 338.7,301 393.8,270.2 				"/>
				<polygon class="st12" points="391.6,268 391,267.1 336.3,298.1 336.8,299.1 				"/>
				<path class="st12" d="M389.8,264.7l-53.3,30.5l0.7-1.4c0,0,0.6-0.6,1.5-1.2c0.9-0.6,8.1-5,8.1-5l42.5-24L389.8,264.7z"/>
			</g>
			<path class="st13" d="M347.7,367c0,0-9.6,0.8-13.2-8.6v3c0,0,3.2,7.4,13.2,7.5V367z"/>
		</g>
		<g>
			<polygon class="st14" points="369.3,409.2 369.3,409.6 307.9,413.4 307.9,413 			"/>
			<path class="st13" d="M307.9,413l61.4-3.8l-30.7-17.3L307.9,413z M352.3,406.3l-27.7,1.7l13.9-9.6L352.3,406.3z"/>
			<path class="st14" d="M351.7,406.3c0,0-13.7-7.5-13.6-7.6s0.4-0.4,0.4-0.4l13.8,7.8L351.7,406.3z"/>
			<polygon class="st14" points="338.9,398.7 325.5,407.9 324.6,408 338.5,398.4 			"/>
			<polygon class="st15" points="338.3,395.5 335.4,394 335,394.3 337.9,395.7 			"/>
			<polygon class="st15" points="334.7,398 331.8,396.5 331.4,396.8 334.3,398.2 			"/>
			<polygon class="st15" points="331.7,400 328.8,398.6 328.4,398.9 331.3,400.3 			"/>
			<polygon class="st15" points="328.8,402 325.9,400.6 325.5,400.8 328.4,402.2 			"/>
			<polygon class="st15" points="325.8,404.1 323,402.6 322.6,402.9 325.5,404.3 			"/>
			<polygon class="st15" points="322.8,406.1 320,404.7 319.6,404.9 322.4,406.3 			"/>
			<polygon class="st15" points="319.9,408.1 317,406.7 316.6,406.9 319.5,408.3 			"/>
		</g>
		<g>
			<path class="st16" d="M407.4,370.2c0,0,3.5-4.4,3.4-4.4s-5.8,0.6-5.8,0.6L407.4,370.2z"/>
			<path class="st17" d="M407.4,370.2c0,0,0.7-3.1-2.4-3.8l-26.6,15.3c0,0,3.5,1.1,1.9,4.2L407.4,370.2z"/>
			<path class="st18" d="M380.3,385.9c0,0,1.7-3.2-1.9-4.2l-1.9,1.2l2,4L380.3,385.9z"/>
			
				<ellipse transform="matrix(0.8486 -0.529 0.529 0.8486 -146.4216 258.0164)" class="st19" cx="377.6" cy="384.8" rx="1.5" ry="2.2"/>
			<path class="st20" d="M407.1,367.8l-26.8,15c0,0-0.5-0.9-1.9-1.1l26.6-15.3C405,366.4,406.7,366.9,407.1,367.8z"/>
			<polygon class="st21" points="410.8,365.8 410,366.9 409.8,366.6 409.7,366.5 409.5,366.2 409,366 409.9,365.9 			"/>
		</g>
		<g>
			<path class="st22" d="M430.2,354.5c-0.1,0.1-5,3-5,3l-7.5-4.2l4.9-2.9L430.2,354.5z"/>
			<polygon class="st23" points="430.3,360.3 425.2,363.2 425.1,357.5 430.2,354.5 			"/>
			<polygon class="st12" points="417.6,353.4 417.7,359.1 425.2,363.2 425.1,357.5 			"/>
			<path class="st24" d="M428.4,353.5l-4.9,3.1l0.1,5.7l-5.8-3.2l-0.1-5.7l4.9-2.9L428.4,353.5z"/>
			<polygon class="st25" points="423.5,356.6 417.6,353.4 417.7,359.1 423.6,362.3 			"/>
		</g>
		<g>
			<path class="st18" d="M333.1,398.6L294,419.9c0,0-35.4-22.2-36.4-21.9c-1,0.3-1,0.3-1,0.3l-0.2,6.1c0,0,0.1,1.7,2,3
				c1.9,1.4,35.5,22.5,35.5,22.5l39-21.9v-1.5L294,428.2l-35.1-21.7c0,0-1.8-2-1.4-2.8l0.2-4c0,0,0.1-0.7,1.1-0.1
				c1,0.6,35.3,21.9,35.3,21.9l38.9-21.6L333.1,398.6z"/>
			<polygon class="st26" points="333.1,398.6 293.9,419.9 294.1,421.6 333,400.1 			"/>
			<path class="st19" d="M293.9,419.9c0,0-35.4-22.2-36.4-21.9c-1,0.3-1,0.3-1,0.3l38.7-20.5c0,0,0.3-0.5,1.9,0.1
				s35.9,20.6,35.9,20.6L293.9,419.9z"/>
			<polygon class="st11" points="331.2,401 331,407.1 293.9,427.2 294.1,421.6 			"/>
			<path class="st23" d="M293.9,427.2l-36.5-22.7c0,0,0,0,0.1-2.7c0.1-2.7,0.1-2,1.2-2.2c1.1-0.1,35.3,21.9,35.3,21.9L293.9,427.2z"
				/>
			<polygon class="st26" points="332.8,406.7 331.1,405.6 331,407.1 293.9,427.2 293.9,428.4 			"/>
			<path class="st26" d="M293.9,427.2l-36.5-22.7c0,0-0.1,1.3,1.4,2.1c1.4,0.9,35.1,21.7,35.1,21.7V427.2z"/>
			<path class="st26" d="M294.1,421.6l-0.1-1.7l-29.6-18.1c0,0-0.9,0.5,0.6,1.4"/>
			<path class="st18" d="M297.2,377.9l-38.3,20.7c0,0-1.3-1-2.3-0.2l38.7-20.5C295.2,377.9,295.8,377.3,297.2,377.9z"/>
		</g>
		<g>
			<g>
				<path class="st27" d="M295.3,407.6c-15,1.2-19.7-9.4-19.7-9.4l-0.1-8.4l20.3,11.5l0.1,6.3H295.3z"/>
				<path class="st27" d="M295.7,407.6c15.1,0.7,19.3-10.1,19.3-10.1l-0.1-8.4L295,401.3l0.2,6.3H295.7z"/>
				<polygon class="st27" points="325.8,381.1 295,399.7 263.4,382.2 293.7,363.8 				"/>
				<polygon class="st28" points="325.8,383.4 294.9,402 295,399.7 325.8,381.1 				"/>
				<path class="st29" d="M295,399.7l-31.6-17.5c0,0-0.5,1.6,0,2c0.5,0.5,31.5,17.8,31.5,17.8L295,399.7z"/>
			</g>
			<path class="st13" d="M309.1,385.9l-9.6-5.5l-1,0.7l9.2,5.2l0.3,10.2l-1.6,5.2c0,0,0.7,1.1,2.4,1c1.7,0,2.3-1.2,2.3-1.2l-1.6-5.1
				L309.1,385.9z"/>
			<path class="st15" d="M308.8,402.8l-0.5-16.6l0.8-0.3l0.4,10.6l1.6,5.1C311.1,401.7,310.5,402.8,308.8,402.8z"/>
		</g>
	</g>
	<g>
		<polygon class="st5" points="247.7,536.5 87.8,620.2 22.7,589.5 185.2,504 		"/>
		<polygon class="st6" points="247.7,536.5 247.9,549 88,632.4 87.8,620.2 		"/>
		<polygon class="st7" points="87.8,620.2 22.7,589.5 23,601.8 88,632.4 		"/>
		<path class="st2" d="M42.1,610.7c0,0-4.6,5-4.5,9.5l-3.4,50.2l-1.6-64.3L42.1,610.7z"/>
		<path class="st3" d="M46.3,612.7c0,0-1.6,2.4-1.8,8.9l-2.8,44.9l-7.5,3.9l3.4-50.2c0,0-0.2-3.8,4.5-9.5L46.3,612.7z"/>
		<polygon class="st2" points="172.1,588.5 171.5,597.6 171.1,597.6 170.7,589.3 		"/>
		<polygon class="st3" points="179.1,584.9 178.8,593.6 171.5,597.6 172.1,588.5 		"/>
		<polygon class="st30" points="139.9,527.9 203.8,559.5 218.8,551.6 157.1,518.8 		"/>
		<polygon class="st31" points="203.8,559.5 204.2,583.8 219.3,576.2 218.8,551.6 		"/>
		<g>
			<path class="st31" d="M179.8,541.8c0,0,2.8-0.4,7.4,3.8c0,0,3.4,0.5,4.3,0c0,0-0.7,1.4-1.9,1.6c0,0-0.4,0.9,0.3,1.8
				c0,0-2.2-1.1-2.8-2.6c0,0-2.5,0.1-4.5-1.4C180.5,543.5,179.8,542.7,179.8,541.8z"/>
			<path class="st31" d="M182.5,542.4c0,0,1.4-0.3,2.1,0.1c0,0-1.3,0.3-0.9,0.6"/>
			<path class="st31" d="M181.2,543.9c0,0-0.2,0.8,0.2,1.2c0,0,0.2-0.9,0.4-0.7C182,544.6,181.2,543.9,181.2,543.9z"/>
			<path class="st31" d="M182.9,545.2c0,0,0.5,0.5,0.9,0.8v-0.3L182.9,545.2z"/>
		</g>
		<g>
			<path class="st31" d="M165.6,530.6c0,0,1.9-0.3,5.1,2.6c0,0,2.3,0.3,2.9,0c0,0-0.5,0.9-1.3,1.1c0,0-0.3,0.6,0.2,1.2
				c0,0-1.5-0.8-1.9-1.8c0,0-1.7,0.1-3.1-1C166.1,531.6,165.6,531.2,165.6,530.6z"/>
			<path class="st31" d="M167.5,531c0,0,1-0.2,1.4,0.1c0,0-0.9,0.2-0.6,0.4"/>
			<path class="st31" d="M166.6,532.1c0,0-0.1,0.6,0.1,0.8c0,0,0.1-0.6,0.3-0.5C167.2,532.5,166.6,532.1,166.6,532.1z"/>
			<path class="st31" d="M167.8,533c0,0,0.3,0.3,0.6,0.5v-0.2L167.8,533z"/>
		</g>
		<g>
			<path class="st32" d="M169.6,517.6L169.6,517.6c0.1,0,0.2,0.1,0.2,0.2l0.1,4c0,0.1-0.1,0.2-0.2,0.2l0,0c-0.1,0-0.2-0.1-0.2-0.2
				l-0.1-4C169.4,517.6,169.5,517.6,169.6,517.6L169.6,517.6z"/>
			<path class="st33" d="M170.8,515.5c1.2-0.5,2.4-0.1,2.6,0.4c0.2,0.5-0.7,0.9-1.9,1.4s-2.1,0.9-2.3,0.4
				C169.1,517.3,169.7,516,170.8,515.5L170.8,515.5z"/>
			<path class="st33" d="M170.8,515.7c0.7-0.3,1.5-0.1,1.6,0.2s-0.5,0.5-1.2,0.8s-1.3,0.6-1.4,0.3
				C169.8,516.8,170.1,516,170.8,515.7L170.8,515.7z"/>
			<path class="st33" d="M166.6,517.8c1.2-0.9,2.8-0.8,3.2-0.4c0.4,0.5-0.6,1.2-1.7,2.1c-1.2,0.9-2.1,1.7-2.5,1.2
				C165.1,520.3,165.4,518.7,166.6,517.8L166.6,517.8z"/>
			<path class="st33" d="M166.6,518c0.7-0.6,1.7-0.5,1.9-0.2s-0.4,0.7-1.1,1.3c-0.7,0.6-1.3,1-1.5,0.7
				C165.7,519.6,165.9,518.6,166.6,518L166.6,518z"/>
		</g>
		<g>
			<path class="st34" d="M41.6,582.9l0.1,6.2c0,0.2-0.2,0.4-0.4,0.4h-0.6c-0.2,0-0.4-0.2-0.4-0.4l-0.1-6.2H41.6L41.6,582.9
				L41.6,582.9z"/>
			<path class="st35" d="M41.1,582.9l0.1,6.1c0,0.1-0.1,0.2-0.2,0.2h-0.3c-0.1,0-0.2-0.1-0.2-0.2l-0.1-6.1H41.1L41.1,582.9
				L41.1,582.9z"/>
			<path class="st36" d="M40.7,582.9l0.1,5.9c0,0,0,0.1-0.1,0.1l0,0c0,0-0.1,0-0.1-0.1l-0.1-5.9H40.7L40.7,582.9L40.7,582.9z"/>
			<polygon class="st37" points="41,587.5 35.3,584.7 40.7,570.1 46.7,584.5 			"/>
			<polygon class="st37" points="40.6,586.1 36.2,584 40.4,573 44.9,583.9 			"/>
			<polygon class="st37" points="40.5,584.7 37.4,583.2 40.3,575.5 43.5,583.1 			"/>
		</g>
		<g>
			<path class="st34" d="M144,532.6l0.1,6.2c0,0.2-0.2,0.4-0.4,0.4h-0.6c-0.2,0-0.4-0.2-0.4-0.4l-0.1-6.2H144L144,532.6L144,532.6z"
				/>
			<path class="st35" d="M143.5,532.6l0.1,6.1c0,0.1-0.1,0.2-0.2,0.2h-0.3c-0.1,0-0.2-0.1-0.2-0.2l-0.1-6.1H143.5L143.5,532.6
				L143.5,532.6z"/>
			<path class="st36" d="M143.1,532.7l0.1,5.9c0,0,0,0.1-0.1,0.1l0,0c0,0-0.1,0-0.1-0.1l-0.1-5.9H143.1L143.1,532.7L143.1,532.7z"/>
			<polygon class="st37" points="143.4,537.2 137.7,534.4 143.1,519.8 149.1,534.2 			"/>
			<polygon class="st37" points="143,535.8 138.6,533.7 142.8,522.8 147.3,533.6 			"/>
			<polygon class="st37" points="142.9,534.4 139.8,532.9 142.7,525.2 145.9,532.8 			"/>
		</g>
		<g>
			<path class="st38" d="M151.7,541l-1,16.4c0,0,1.4,2.4,4.4-0.1l-1.6-14.7L151.7,541z"/>
			<path class="st38" d="M155.7,540.1l6,1.1c0,0,0.3,0.3,0,0.6c-0.3,0.3-2.2,1.4-3.3,1.3c-1.1-0.1-2.4-1-3.2-1.5L155.7,540.1z"/>
			<path class="st39" d="M153.6,542.4c0,0-4.4-3.1-4.2-4.7c0,0,0.7-1.1,5.8,1.2L153.6,542.4z"/>
			
				<ellipse transform="matrix(0.3533 -0.9355 0.9355 0.3533 -405.8905 494.2368)" class="st38" cx="154.5" cy="540.7" rx="1.9" ry="1"/>
			<path class="st38" d="M153.9,539.6l-0.2-9.6c0,0,0.2-0.5,0.4-0.3c0.1,0.2,1.4,2.1,1.3,4.6s-0.5,4.5-0.5,4.5L153.9,539.6z"/>
			<path class="st40" d="M151.7,541l1,0.8l0.5,16.5c0,0-2,0.3-2.4-1L151.7,541z"/>
			<path class="st38" d="M147.6,550.6c0,0,0.8-4.1,3.2-6.7l2.6-2.5l0.3,0.8C153.8,542.3,148.1,550.9,147.6,550.6z"/>
			
				<ellipse transform="matrix(0.3533 -0.9355 0.9355 0.3533 -405.8103 494.2937)" class="st40" cx="154.6" cy="540.7" rx="0.6" ry="0.3"/>
		</g>
		<g>
			<path class="st38" d="M172.6,545.7l-1,16.4c0,0,1.4,2.4,4.4-0.1l-1.6-14.7L172.6,545.7z"/>
			<path class="st38" d="M176.6,544.9l6,1.1c0,0,0.3,0.3,0,0.6c-0.3,0.3-2.2,1.4-3.3,1.3c-1.1,0-2.4-1-3.2-1.5L176.6,544.9z"/>
			<path class="st39" d="M174.5,547.2c0,0-4.4-3.1-4.2-4.7c0,0,0.7-1.1,5.8,1.2L174.5,547.2z"/>
			
				<ellipse transform="matrix(0.3533 -0.9355 0.9355 0.3533 -396.8105 516.7914)" class="st38" cx="175.4" cy="545.4" rx="1.9" ry="1"/>
			<path class="st38" d="M174.8,544.3l-0.2-9.6c0,0,0.2-0.5,0.4-0.3s1.4,2.1,1.3,4.6c-0.1,2.5-0.5,4.5-0.5,4.5L174.8,544.3z"/>
			<path class="st40" d="M172.6,545.7l1,0.8l0.5,16.5c0,0-2,0.3-2.4-1L172.6,545.7z"/>
			<path class="st38" d="M168.5,555.4c0,0,0.8-4.1,3.2-6.7l2.6-2.5l0.3,0.8C174.6,547,169,555.6,168.5,555.4z"/>
			
				<ellipse transform="matrix(0.3533 -0.9355 0.9355 0.3533 -396.7303 516.8483)" class="st40" cx="175.5" cy="545.4" rx="0.6" ry="0.3"/>
		</g>
		<g>
			<path class="st38" d="M158.1,553.7l-1,16.4c0,0,1.4,2.4,4.4-0.1l-1.6-14.7L158.1,553.7z"/>
			<path class="st38" d="M162,552.9l6,1.1c0,0,0.3,0.3,0,0.6c-0.3,0.3-2.2,1.4-3.3,1.3c-1.1,0-2.4-1-3.2-1.5L162,552.9z"/>
			<path class="st39" d="M159.9,555.2c0,0-4.4-3.1-4.2-4.7c0,0,0.7-1.1,5.8,1.2L159.9,555.2z"/>
			
				<ellipse transform="matrix(0.3533 -0.9355 0.9355 0.3533 -413.6602 508.375)" class="st38" cx="160.9" cy="553.4" rx="1.9" ry="1"/>
			<path class="st38" d="M160.3,552.3l-0.2-9.6c0,0,0.2-0.5,0.4-0.3c0.1,0.2,1.4,2.1,1.3,4.6c-0.1,2.5-0.5,4.5-0.5,4.5L160.3,552.3z
				"/>
			<path class="st40" d="M158.1,553.7l1,0.8l0.5,16.5c0,0-2,0.3-2.4-1L158.1,553.7z"/>
			<path class="st38" d="M154,563.4c0,0,0.8-4.1,3.2-6.7l2.6-2.5l0.3,0.8C160.1,555,154.4,563.6,154,563.4z"/>
			
				<ellipse transform="matrix(0.3533 -0.9355 0.9355 0.3533 -413.5801 508.4319)" class="st40" cx="161" cy="553.4" rx="0.6" ry="0.3"/>
		</g>
		<g>
			<path class="st34" d="M217.4,537.5l0.1,6.2c0,0.2-0.2,0.4-0.4,0.4h-0.6c-0.2,0-0.4-0.2-0.4-0.4l-0.1-6.2H217.4L217.4,537.5
				L217.4,537.5z"/>
			<path class="st35" d="M216.9,537.5l0.1,6.1c0,0.1-0.1,0.2-0.2,0.2h-0.3c-0.1,0-0.2-0.1-0.2-0.2l-0.1-6.1H216.9L216.9,537.5
				L216.9,537.5z"/>
			<path class="st36" d="M216.5,537.5l0.1,5.9c0,0,0,0.1-0.1,0.1l0,0c0,0-0.1,0-0.1-0.1l-0.1-5.9H216.5L216.5,537.5L216.5,537.5z"/>
			<polygon class="st37" points="216.8,542 211,539.2 216.5,524.7 222.4,539 			"/>
			<polygon class="st37" points="216.4,540.7 212,538.6 216.1,527.6 220.6,538.4 			"/>
			<polygon class="st37" points="216.2,539.2 213.2,537.8 216.1,530 219.2,537.7 			"/>
		</g>
		<g>
			<path class="st34" d="M226.9,531.5l0.1,6.2c0,0.2-0.2,0.4-0.4,0.4H226c-0.2,0-0.4-0.2-0.4-0.4l-0.1-6.2H226.9L226.9,531.5
				L226.9,531.5z"/>
			<path class="st35" d="M226.4,531.5l0.1,6.1c0,0.1-0.1,0.2-0.2,0.2H226c-0.1,0-0.2-0.1-0.2-0.2l-0.1-6.1H226.4L226.4,531.5
				L226.4,531.5z"/>
			<path class="st36" d="M226,531.5l0.1,5.9c0,0,0,0.1-0.1,0.1l0,0c0,0-0.1,0-0.1-0.1l-0.1-5.9H226L226,531.5L226,531.5z"/>
			<polygon class="st37" points="226.3,536 220.6,533.2 226,518.7 232,533 			"/>
			<polygon class="st37" points="225.9,534.7 221.5,532.6 225.7,521.6 230.2,532.4 			"/>
			<polygon class="st37" points="225.8,533.2 222.7,531.7 225.6,524 228.8,531.6 			"/>
		</g>
		<g>
			<path class="st34" d="M205.3,530.9l0.1,6.2c0,0.2-0.2,0.4-0.4,0.4h-0.6c-0.2,0-0.4-0.2-0.4-0.4l-0.1-6.2H205.3L205.3,530.9
				L205.3,530.9z"/>
			<path class="st35" d="M204.8,530.9l0.1,6.1c0,0.1-0.1,0.2-0.2,0.2h-0.3c-0.1,0-0.2-0.1-0.2-0.2l-0.1-6.1H204.8L204.8,530.9
				L204.8,530.9z"/>
			<path class="st36" d="M204.4,530.9l0.1,5.9c0,0,0,0.1-0.1,0.1l0,0c0,0-0.1,0-0.1-0.1l-0.1-5.9H204.4L204.4,530.9L204.4,530.9z"/>
			<polygon class="st37" points="204.7,535.4 199,532.6 204.4,518.1 210.4,532.4 			"/>
			<polygon class="st37" points="204.3,534.1 200,532 204.1,521 208.6,531.9 			"/>
			<polygon class="st37" points="204.2,532.7 201.1,531.2 204,523.5 207.2,531.1 			"/>
		</g>
		<g>
			<path class="st34" d="M140,571.1l0.1,6.2c0,0.2-0.2,0.4-0.4,0.4h-0.6c-0.2,0-0.4-0.2-0.4-0.4l-0.1-6.2H140L140,571.1L140,571.1z"
				/>
			<path class="st35" d="M139.5,571.1l0.1,6.1c0,0.1-0.1,0.2-0.2,0.2h-0.3c-0.1,0-0.2-0.1-0.2-0.2l-0.1-6.1H139.5L139.5,571.1
				L139.5,571.1z"/>
			<path class="st36" d="M139.1,571.1l0.1,5.9c0,0,0,0.1-0.1,0.1l0,0c0,0-0.1,0-0.1-0.1l-0.1-5.9H139.1L139.1,571.1L139.1,571.1z"/>
			<polygon class="st37" points="139.4,575.6 133.6,572.8 139.1,558.3 145,572.6 			"/>
			<polygon class="st37" points="139,574.3 134.6,572.2 138.7,561.2 143.2,572 			"/>
			<polygon class="st37" points="138.8,572.8 135.8,571.3 138.7,563.6 141.8,571.2 			"/>
		</g>
	</g>
	<g>
		<polygon class="st41" points="145.2,764.6 225.7,813.1 337.3,749.6 254.3,701.7 		"/>
		<polygon class="st42" points="145.2,764.6 145.2,769.2 225.7,817.3 225.7,813.1 		"/>
		<polygon class="st43" points="225.7,813.1 337.3,749.6 337.3,754.1 225.7,817.3 		"/>
		<polygon class="st42" points="144.2,764.9 115.9,666.4 226.7,608.2 254.3,701.7 145.2,764.6 		"/>
		<polygon class="st24" points="148,755.5 123.5,667.7 222.1,615.9 246.6,699.1 149.6,755.1 		"/>
		<polygon class="st43" points="231.7,774.4 255.9,788.9 289.3,769.9 264.4,755.5 		"/>
		<polygon class="st43" points="157.8,763.1 198.9,787.8 297.9,733.6 254.3,707.4 		"/>
	</g>
	<polygon class="st8" points="123.5,667.7 124.7,672.1 223.4,620.3 222.1,615.9 	"/>
	<polygon class="st12" points="124.7,672.1 137,716.2 235.6,661.6 223.4,620.3 	"/>
	<polygon class="st8" points="152.8,716.2 153.4,718.2 180.3,703.5 179.5,701.4 	"/>
	<polygon class="st41" points="327.3,697.6 374.9,725 403.4,708.5 355.8,681.1 	"/>
	<polygon class="st42" points="327.3,697.6 327.3,699.9 374.9,727.5 374.9,725 	"/>
	<polygon class="st43" points="374.9,725 403.4,708.5 403.4,711.3 374.9,727.5 	"/>
	<polygon class="st12" points="332.5,697.6 371.9,720.4 395.2,706.7 356.6,684.2 	"/>
	<polygon class="st43" points="379.7,716.7 383.3,718.7 391.4,714.1 388,712.1 	"/>
	<polygon class="st8" points="332.5,697.6 336.1,699.7 360.3,686.3 356.6,684.2 	"/>
	<polygon class="st24" points="354.1,710.1 377.8,696.5 395.2,706.7 371.9,720.4 	"/>
	<g>
		<polygon class="st41" points="345.1,595.7 368.6,663.6 407,641.3 385.1,572.6 		"/>
		<polygon class="st43" points="368.6,663.6 365.7,661.9 343.5,596.6 345.1,595.7 		"/>
		<polygon class="st43" points="356.6,635 344.7,649.8 346.4,650.8 357.2,636.9 		"/>
		<polygon class="st42" points="346.4,650.8 359.2,642.9 357.2,636.9 		"/>
		<polygon class="st43" points="343.5,596.6 342.7,594.4 384.4,570.8 385.1,572.6 		"/>
	</g>
	<polygon class="st24" points="348.8,596.6 369.7,658.7 403.2,638.7 383.2,576.8 	"/>
	<polygon class="st24" points="383.2,576.8 369.7,658.7 403.2,638.7 	"/>
	<polygon class="st44" points="415.9,604.9 482.1,643.1 526.3,617.6 460,579.4 	"/>
	<polygon class="st45" points="415.9,604.9 415.9,617.6 415.9,622.8 482.1,661.1 482.1,643.1 	"/>
	<polygon class="st12" points="482.1,643.1 526.3,617.6 526.3,635.6 482.1,661.1 	"/>
	<polygon class="st45" points="482.1,643.1 526.3,617.6 526.3,618.9 482.1,644.4 	"/>
	<polygon class="st45" points="482.1,646.1 526.3,620.6 526.3,621.9 482.1,647.4 	"/>
	<polygon class="st45" points="482.1,648.9 526.3,623.4 526.3,624.8 482.1,650.3 	"/>
	<polygon class="st45" points="482.1,651.8 526.3,626.3 526.3,627.6 482.1,653.1 	"/>
	<polygon class="st45" points="482.1,654.8 526.3,629.3 526.3,630.6 482.1,656.1 	"/>
	<polygon class="st45" points="482.1,657.6 526.3,632.1 526.3,633.4 482.1,658.9 	"/>
	<polygon class="st45" points="482.1,659.8 526.3,634.3 526.3,635.6 482.1,661.1 	"/>
	<polygon class="st45" points="436.1,604.4 439.8,606.5 463.9,592.5 460.2,590.4 	"/>
	<polygon class="st45" points="449,605.2 451.2,606.5 465.2,598.3 463.1,597.1 	"/>
	<g>
		<path class="st46" d="M124.9,536.8c-2.3,1.4-6,1.4-8.3,0.1s-2.4-3.4-0.1-4.8c2.3-1.4,6-1.4,8.3-0.1
			C127.1,533.3,127.2,535.5,124.9,536.8z"/>
		<path class="st47" d="M121.3,535.3c-1.4,0.7-3.7,1-5.2,0.4c-1.5-0.6-1.6-1.9-0.1-2.6c1.4-0.7,3.8-0.7,5.3-0.1
			C122.8,533.6,122.8,534.7,121.3,535.3z"/>
		<path class="st48" d="M118.3,534.9c-0.6,0.4-1.5,0.4-2,0c-0.6-0.3-0.6-0.9,0-1.3c0.6-0.4,1.5-0.4,2,0
			C118.8,533.9,118.8,534.5,118.3,534.9z"/>
		<polygon class="st24" points="115.6,544.6 140.8,558.6 120,571.1 94.8,557.1 		"/>
		<polygon class="st49" points="127,550.9 140.8,558.6 121.5,570.2 120,570.2 119.6,551.1 		"/>
		
			<linearGradient id="SVGID_1_" gradientUnits="userSpaceOnUse" x1="108.0438" y1="487.6744" x2="109.6194" y2="490.4035" gradientTransform="matrix(0.9998 -1.743586e-02 -1.743586e-02 -0.9998 10.4363 1039.704)">
			<stop  offset="0" style="stop-color:#E4DFD8"/>
			<stop  offset="0.54" style="stop-color:#D9D3CD"/>
			<stop  offset="1" style="stop-color:#BEB9B1"/>
		</linearGradient>
		<polygon class="st50" points="95.2,538.8 119.7,552.3 120,570.2 95.5,556.6 		"/>
		<polygon class="st51" points="139,540 129.1,535.5 119.6,551.6 120,570 139.3,558.4 		"/>
		<polygon class="st52" points="105,517.2 101.8,519.1 102,528.8 105.2,526.9 		"/>
		<polygon class="st53" points="98.5,517.3 101.8,519.1 102.1,533.9 98.8,532.1 		"/>
		<polygon class="st24" points="98.5,517.3 101.8,519.1 105,517.2 101.7,515.4 		"/>
		
			<linearGradient id="SVGID_2_" gradientUnits="userSpaceOnUse" x1="99.6299" y1="521.8823" x2="100.9706" y2="520.1661" gradientTransform="matrix(0.9998 -1.743586e-02 -1.743586e-02 -0.9998 10.4363 1039.704)">
			<stop  offset="0" style="stop-color:#CFCAC3"/>
			<stop  offset="1" style="stop-color:#A19B8E"/>
		</linearGradient>
		<polygon class="st54" points="99.9,517.3 101.8,518.3 103.7,517.2 101.8,516.1 		"/>
		<polygon class="st53" points="101.8,518.3 103.7,517.2 101.8,516.1 		"/>
		
			<linearGradient id="SVGID_3_" gradientUnits="userSpaceOnUse" x1="100.9978" y1="521.5983" x2="100.3498" y2="517.5074" gradientTransform="matrix(0.9998 -1.743586e-02 -1.743586e-02 -0.9998 10.4363 1039.704)">
			<stop  offset="0" style="stop-color:#CFCAC3"/>
			<stop  offset="1" style="stop-color:#A19B8E"/>
		</linearGradient>
		<polygon class="st55" points="101.8,518.3 102.7,517.8 101.8,516.1 		"/>
		<g>
			<path class="st51" d="M139,540l-9.5-4.3c-0.2-0.1-0.5,0-0.6,0.2l-9.3,15.7l0.3,16.1l19.3-11.6L139,540z"/>
			<path class="st56" d="M139,540.1c-0.1-0.1-9.3-4.3-9.4-4.3c-0.2-0.1-0.5,0-0.6,0.2s-9.1,15.5-9.2,15.7c0,0.5,0.3,15.3,0.3,15.8
				c0.3-0.2,19-11.4,19.3-11.6C139.2,555.4,139,540.6,139,540.1z"/>
			<path class="st57" d="M139,540.1c-0.3-0.1-9.1-4.2-9.4-4.3c-0.2-0.1-0.5,0-0.7,0.2c-0.3,0.5-8.9,15.2-9.2,15.7
				c0,1,0.3,14.5,0.3,15.6c0.6-0.4,18.7-11.2,19.3-11.6C139.2,554.7,139,541.2,139,540.1z"/>
			<path class="st58" d="M139,540.2c-0.4-0.2-9-4.1-9.4-4.3c-0.3-0.1-0.6,0-0.7,0.2c-0.4,0.7-8.8,15-9.2,15.7
				c0,1.6,0.2,13.7,0.3,15.3c0.9-0.6,18.4-11,19.3-11.6C139.2,554,139,541.8,139,540.2z"/>
			<path class="st59" d="M139,540.3c-0.6-0.3-8.8-4-9.4-4.3c-0.3-0.1-0.6,0-0.7,0.2c-0.6,1-8.6,14.7-9.2,15.7c0,2.1,0.2,12.9,0.3,15
				c1.2-0.7,18.1-10.9,19.3-11.6C139.2,553.3,139,542.4,139,540.3z"/>
			<path class="st60" d="M139,540.4c-0.7-0.3-8.6-4-9.3-4.3c-0.3-0.1-0.6,0-0.8,0.2c-0.7,1.2-8.5,14.4-9.2,15.6
				c0,2.6,0.2,12.2,0.3,14.7c1.5-0.9,17.8-10.7,19.3-11.6C139.2,552.6,139,543,139,540.4z"/>
			<path class="st61" d="M139,540.5c-0.9-0.4-8.5-3.9-9.3-4.3c-0.3-0.1-0.7,0-0.8,0.3c-0.9,1.5-8.3,14.2-9.2,15.6
				c0.1,3.1,0.2,11.4,0.3,14.5c1.8-1.1,17.5-10.5,19.3-11.6C139.2,551.9,139,543.6,139,540.5z"/>
			<path class="st62" d="M139,540.6c-1-0.5-8.3-3.8-9.3-4.3c-0.3-0.1-0.7,0-0.9,0.3c-1,1.7-8.2,13.9-9.2,15.6
				c0.1,3.6,0.2,10.6,0.2,14.2c2.1-1.3,17.2-10.3,19.3-11.6C139.2,551.2,139,544.2,139,540.6z"/>
			<path class="st63" d="M139,540.7c-1.1-0.5-8.1-3.7-9.3-4.2c-0.3-0.2-0.7,0-0.9,0.3c-1.1,1.9-8,13.6-9.2,15.6
				c0.1,4.1,0.2,9.8,0.2,13.9c2.5-1.5,16.9-10.1,19.3-11.6C139.1,550.5,139,544.8,139,540.7z"/>
			<path class="st64" d="M139,540.8c-1.3-0.6-8-3.6-9.2-4.2c-0.3-0.2-0.7,0-0.9,0.3c-1.3,2.2-7.9,13.4-9.1,15.5
				c0.1,4.7,0.2,9,0.2,13.7c2.8-1.7,16.5-9.9,19.3-11.6C139.1,549.8,139.1,545.4,139,540.8z"/>
			<path class="st65" d="M139,540.9c-1.4-0.7-7.8-3.6-9.2-4.2c-0.4-0.2-0.8,0-1,0.3c-1.4,2.4-7.7,13.1-9.1,15.5
				c0.1,5.2,0.1,8.2,0.2,13.4c3.1-1.8,16.2-9.8,19.3-11.6C139.1,549.1,139.1,546,139,540.9z"/>
			<path class="st66" d="M139,541c-1.6-0.7-7.6-3.5-9.2-4.2c-0.4-0.2-0.8,0-1,0.3c-1.6,2.7-7.5,12.8-9.1,15.5
				c0.1,5.7,0.1,7.4,0.2,13.1c3.4-2,15.9-9.6,19.3-11.6C139.1,548.4,139.1,546.6,139,541z"/>
			<path class="st67" d="M139,541c-1.7-0.8-7.5-3.4-9.2-4.2c-0.4-0.2-0.8,0-1,0.3c-1.7,2.9-7.4,12.6-9.1,15.5
				c0.1,6.2,0.1,6.6,0.2,12.9c3.7-2.2,15.6-9.4,19.3-11.6C139.1,547.7,139.1,547.3,139,541z"/>
			<path class="st68" d="M139,541.1c-1.8-0.8-7.3-3.3-9.1-4.2c-0.4-0.2-0.9,0-1.1,0.3c-1.9,3.2-7.2,12.3-9.1,15.4
				c0.1,6.7,0.1,5.9,0.2,12.6c4-2.4,15.3-9.2,19.3-11.6C139.1,547,139.1,547.9,139,541.1z"/>
			<path class="st69" d="M139,541.2c-2-0.9-7.1-3.3-9.1-4.2c-0.4-0.2-0.9,0-1.1,0.4c-2,3.4-7.1,12-9.1,15.4
				c0.1,7.2,0.1,5.1,0.2,12.3c4.3-2.6,15-9,19.3-11.6C139.1,546.3,139.1,548.5,139,541.2z"/>
			<path class="st70" d="M139,541.3c-2.1-1-7-3.2-9.1-4.2c-0.4-0.2-0.9,0-1.2,0.4c-2.1,3.6-6.9,11.8-9.1,15.4
				c0.1,7.8,0.1,4.3,0.2,12c4.6-2.8,14.7-8.8,19.3-11.6C139.1,545.6,139.1,549.1,139,541.3z"/>
			<path class="st71" d="M139,541.4c-2.3-1-6.8-3.1-9.1-4.2c-0.4-0.2-1,0-1.2,0.4c-2.3,3.9-6.8,11.5-9,15.4
				c0.1,8.3,0.1,3.5,0.2,11.8c4.9-2.9,14.4-8.7,19.3-11.6C139,544.9,139.1,549.7,139,541.4z"/>
			<path class="st72" d="M139,541.5c-2.4-1.1-6.6-3-9-4.1c-0.5-0.2-1,0-1.2,0.4c-2.4,4.1-6.6,11.2-9,15.4c0.2,8.8,0,2.7,0.2,11.5
				c5.2-3.1,14.1-8.5,19.3-11.6C139,544.2,139.1,550.3,139,541.5z"/>
			<path class="st73" d="M139,541.6c-2.6-1.2-6.5-3-9-4.1c-0.5-0.2-1,0-1.3,0.4c-2.6,4.4-6.5,11-9,15.3c0.2,9.3,0,1.9,0.2,11.2
				c5.5-3.3,13.8-8.3,19.3-11.6C139,543.5,139.1,550.9,139,541.6z"/>
			<path class="st74" d="M139,541.7c-2.7-1.2-6.3-2.9-9-4.1c-0.5-0.2-1,0-1.3,0.4c-2.7,4.6-6.3,10.7-9,15.3c0.2,9.8,0,1.1,0.2,11
				c5.8-3.5,13.5-8.1,19.3-11.6C139,542.8,139.2,551.5,139,541.7z"/>
			<path class="st75" d="M139,541.8c-2.8-1.3-6.1-2.8-9-4.1c-0.5-0.2-1.1,0-1.3,0.4c-2.9,4.8-6.1,10.4-9,15.3
				c0.2,10.4,0,0.3,0.2,10.7c6.1-3.7,13.2-7.9,19.3-11.6C139,542.1,139.2,552.1,139,541.8z"/>
			<path class="st76" d="M139,541.9c-3-1.4-6-2.7-8.9-4.1c-0.5-0.2-1.1,0-1.4,0.4c-3,5.1-6,10.2-9,15.3c0.2,10.9,0-0.4,0.2,10.4
				c6.4-3.9,12.9-7.7,19.3-11.6C139,541.4,139.2,552.7,139,541.9z"/>
			<path class="st77" d="M139,542c-2.8-1.3-6.1-2.8-8.9-4.1c-0.5-0.2-1.2,0-1.5,0.5c-2.9,4.8-6.1,10.4-9,15.2
				c0.2,10.4,0,0.2,0.2,10.5c6.1-3.7,13.2-7.9,19.3-11.6C139,542.2,139.2,552.4,139,542z"/>
			<path class="st77" d="M139,542.2c-2.7-1.2-6.2-2.8-8.8-4.1c-0.6-0.3-1.2-0.1-1.5,0.5c-2.7,4.6-6.2,10.6-8.9,15.2
				c0.2,9.8,0,0.8,0.2,10.7c5.8-3.5,13.5-8.1,19.3-11.6C139,543,139.2,552,139,542.2z"/>
			<path class="st78" d="M139,542.4c-2.6-1.2-6.2-2.9-8.8-4c-0.6-0.3-1.3-0.1-1.6,0.5c-2.6,4.4-6.3,10.8-8.9,15.1
				c0.2,9.3,0,1.5,0.2,10.8c5.5-3.3,13.8-8.3,19.3-11.6C139,543.9,139.2,551.7,139,542.4z"/>
			<path class="st79" d="M139,542.6c-2.4-1.1-6.3-2.9-8.8-4c-0.6-0.3-1.3-0.1-1.7,0.5c-2.4,4.1-6.4,11-8.9,15.1
				c0.2,8.8,0,2.1,0.2,10.9c5.2-3.1,14.1-8.5,19.3-11.6C139,544.7,139.2,551.4,139,542.6z"/>
			<path class="st80" d="M139,542.7c-2.3-1-6.4-2.9-8.7-4c-0.6-0.3-1.4-0.1-1.8,0.6c-2.3,3.9-6.6,11.2-8.8,15
				c0.1,8.3,0,2.8,0.2,11.1c4.9-2.9,14.4-8.7,19.3-11.6C139.1,545.5,139.1,551,139,542.7z"/>
			<path class="st81" d="M139,542.9c-2.1-1-6.5-3-8.7-4c-0.7-0.3-1.5-0.1-1.8,0.6c-2.1,3.6-6.7,11.4-8.8,15
				c0.1,7.8,0.1,3.4,0.2,11.2c4.6-2.8,14.7-8.8,19.3-11.6C139.1,546.3,139.1,550.7,139,542.9z"/>
			<path class="st82" d="M139,543.1c-2-0.9-6.6-3-8.6-3.9c-0.7-0.3-1.5-0.1-1.9,0.6c-2,3.4-6.8,11.6-8.8,14.9
				c0.1,7.2,0.1,4.1,0.2,11.3c4.3-2.6,15-9,19.3-11.6C139.1,547.1,139.1,550.3,139,543.1z"/>
			<path class="st83" d="M139,543.2c-1.8-0.8-6.7-3.1-8.6-3.9c-0.7-0.3-1.6-0.1-2,0.6c-1.9,3.2-6.9,11.7-8.8,14.9
				c0.1,6.7,0.1,4.7,0.2,11.4c4-2.4,15.3-9.2,19.3-11.6C139.1,548,139.1,550,139,543.2z"/>
			<path class="st84" d="M139,543.4c-1.7-0.8-6.8-3.1-8.5-3.9c-0.8-0.3-1.6-0.1-2.1,0.6c-1.7,2.9-7,11.9-8.7,14.9
				c0.1,6.2,0.1,5.4,0.2,11.6c3.7-2.2,15.6-9.4,19.3-11.6C139.1,548.8,139.1,549.6,139,543.4z"/>
			<path class="st85" d="M139,543.6c-1.6-0.7-6.9-3.2-8.5-3.9c-0.8-0.4-1.7-0.1-2.1,0.7c-1.6,2.7-7.1,12.1-8.7,14.8
				c0.1,5.7,0.1,6,0.2,11.7c3.4-2,15.9-9.6,19.3-11.6C139.1,549.6,139.1,549.3,139,543.6z"/>
			<path class="st86" d="M139,543.8c-1.4-0.7-7-3.2-8.4-3.9c-0.8-0.4-1.8-0.1-2.2,0.7c-1.4,2.4-7.3,12.3-8.7,14.8
				c0.1,5.2,0.1,6.6,0.2,11.8c3.1-1.8,16.2-9.8,19.3-11.6C139.1,550.4,139.1,548.9,139,543.8z"/>
			<path class="st87" d="M139,543.9c-1.3-0.6-7.1-3.2-8.4-3.8c-0.8-0.4-1.8-0.1-2.3,0.7c-1.3,2.2-7.4,12.5-8.7,14.7
				c0.1,4.7,0.1,7.3,0.2,11.9c2.8-1.7,16.5-9.9,19.3-11.6C139.2,551.2,139.1,548.6,139,543.9z"/>
			<path class="st88" d="M139,544.1c-1.1-0.5-7.2-3.3-8.3-3.8c-0.9-0.4-1.9-0.1-2.4,0.7c-1.1,1.9-7.5,12.7-8.6,14.7
				c0.1,4.1,0.1,7.9,0.2,12.1c2.5-1.5,16.9-10.1,19.3-11.6C139.2,552,139.1,548.3,139,544.1z"/>
			<path class="st89" d="M139,544.3c-1-0.5-7.3-3.3-8.3-3.8c-0.9-0.4-1.9-0.1-2.4,0.8c-1,1.7-7.6,12.9-8.6,14.6
				c0.1,3.6,0.1,8.6,0.2,12.2c2.1-1.3,17.2-10.3,19.3-11.6C139.2,552.9,139.1,547.9,139,544.3z"/>
			<path class="st90" d="M139,544.5c-0.9-0.4-7.4-3.4-8.2-3.8c-0.9-0.4-2-0.1-2.5,0.8c-0.9,1.5-7.7,13.1-8.6,14.6
				c0.1,3.1,0.2,9.2,0.2,12.3c1.8-1.1,17.5-10.5,19.3-11.6C139.2,553.7,139.1,547.6,139,544.5z"/>
			<path class="st91" d="M139,544.6c-0.7-0.3-7.5-3.4-8.2-3.7c-0.9-0.4-2.1-0.1-2.6,0.8c-0.7,1.2-7.8,13.3-8.5,14.5
				c0,2.6,0.2,9.9,0.2,12.5c1.5-0.9,17.8-10.7,19.3-11.6C139.2,554.5,139.1,547.2,139,544.6z"/>
			<path class="st92" d="M139,544.8c-0.6-0.3-7.6-3.5-8.1-3.7c-1-0.4-2.1-0.1-2.7,0.8c-0.6,1-7.9,13.5-8.5,14.5
				c0,2.1,0.2,10.5,0.2,12.6c1.2-0.7,18.1-10.9,19.3-11.6C139.2,555.3,139.1,546.9,139,544.8z"/>
			<path class="st93" d="M139,545c-0.4-0.2-7.6-3.5-8.1-3.7c-1-0.5-2.2-0.1-2.7,0.9c-0.4,0.7-8.1,13.7-8.5,14.4
				c0,1.6,0.2,11.2,0.2,12.7c0.9-0.6,18.4-11,19.3-11.6C139.2,556.1,139.1,546.5,139,545z"/>
			<path class="st94" d="M139,545.2c-0.3-0.1-7.7-3.5-8-3.7c-1-0.5-2.2-0.1-2.8,0.9c-0.3,0.5-8.2,13.9-8.5,14.4
				c0,1,0.2,11.8,0.2,12.8c0.6-0.4,18.7-11.2,19.3-11.6C139.3,557,139.1,546.2,139,545.2z"/>
			<path class="st94" d="M139,545.3c-0.1-0.1-7.8-3.6-8-3.7c-1.1-0.5-2.3-0.1-2.9,0.9c-0.1,0.2-8.3,14.1-8.4,14.3
				c0,0.5,0.2,12.4,0.2,13c0.3-0.2,19-11.4,19.3-11.6C139.3,557.8,139.1,545.9,139,545.3z"/>
			<path class="st52" d="M139.1,545.5l-7.9-3.6c-1.1-0.5-2.4-0.1-3,0.9l-8.4,14.3l0.2,13.1l19.3-11.6L139.1,545.5z"/>
		</g>
		<polygon class="st95" points="140.5,540.2 130,535.3 119.8,552.6 106.7,545.3 93.7,538.1 103.8,520.8 114.3,525.7 127.4,532.9 		
			"/>
		<polygon class="st96" points="130,535.3 119.8,552.6 106.7,545.3 93.7,538.1 103.8,520.8 		"/>
		<polygon class="st97" points="140.5,540.2 130,535.3 130,535.9 140.5,540.8 		"/>
		<polygon class="st97" points="119.8,552.6 130,535.3 130,535.9 119.8,553.2 		"/>
		<path class="st97" d="M130,535.2c0.2-0.1,0.4-0.1,0.5-0.1c0.1,0.1,0.2,0.2,0.2,0.5L130,536l-0.7,0.4c0-0.2,0.1-0.5,0.2-0.7
			C129.6,535.5,129.8,535.3,130,535.2z"/>
		<polygon class="st98" points="119.8,552.6 93.7,538.1 93.7,538.7 119.8,553.2 		"/>
		<polygon class="st99" points="119.8,552.6 93.7,538.1 93.7,538.3 119.8,552.8 		"/>
		
			<linearGradient id="SVGID_4_" gradientUnits="userSpaceOnUse" x1="107.3254" y1="476.6469" x2="108.0514" y2="477.9046" gradientTransform="matrix(0.9998 -1.743586e-02 -1.743586e-02 -0.9998 10.4363 1039.704)">
			<stop  offset="0" style="stop-color:#E4DFD8"/>
			<stop  offset="0.54" style="stop-color:#D9D3CD"/>
			<stop  offset="1" style="stop-color:#BEB9B1"/>
		</linearGradient>
		<polygon class="st100" points="94.8,557.1 120,571.1 120,572.8 94.8,558.8 		"/>
		<polygon class="st52" points="140.8,558.6 120,571.1 120,572.8 140.9,560.3 		"/>
		<polygon class="st101" points="108.9,550.3 109.1,561 115.2,564.4 115,553.7 		"/>
		
			<linearGradient id="SVGID_5_" gradientUnits="userSpaceOnUse" x1="107.8398" y1="474.9382" x2="107.8398" y2="490.4085" gradientTransform="matrix(0.9998 -1.743586e-02 -1.743586e-02 -0.9998 10.4363 1039.704)">
			<stop  offset="0" style="stop-color:#DBD6CF"/>
			<stop  offset="1" style="stop-color:#B3B0A2"/>
		</linearGradient>
		<polygon class="st102" points="109.5,551.4 109.7,560.7 110.2,560.4 110,551.7 		"/>
		<polygon class="st24" points="114.5,563.4 109.7,560.7 110.2,560.4 114.5,562.8 		"/>
		<polygon class="st103" points="109.7,560.7 110.2,560.4 110.7,560.6 		"/>
		<polygon class="st24" points="115.8,553.3 115,553.7 108.9,550.4 109.7,549.9 		"/>
		<polygon class="st103" points="115.8,553.3 115,553.7 115.2,564.4 116,563.9 		"/>
		<polygon class="st104" points="114.5,562.8 110.2,560.4 110,551.7 114.4,554.1 		"/>
		<polygon class="st24" points="114.4,557.6 109.8,555.1 109.8,555.1 110.1,554.9 114.4,557.3 		"/>
		<polygon class="st103" points="110.1,555.2 109.8,555.1 109.8,555.1 110,555 110.1,554.9 110.6,555.2 		"/>
		<polygon class="st49" points="109.8,555.1 109.8,555.6 114.4,558.1 114.4,557.6 		"/>
		<polygon class="st101" points="98,543.7 98.2,554.4 104.3,557.7 104.1,547 		"/>
		
			<linearGradient id="SVGID_6_" gradientUnits="userSpaceOnUse" x1="97.0837" y1="481.7853" x2="97.0837" y2="497.2556" gradientTransform="matrix(0.9998 -1.743586e-02 -1.743586e-02 -0.9998 10.4363 1039.704)">
			<stop  offset="0" style="stop-color:#DBD6CF"/>
			<stop  offset="1" style="stop-color:#B3B0A2"/>
		</linearGradient>
		<polygon class="st105" points="98.6,544.7 98.8,554 99.3,553.7 99.2,545 		"/>
		<polygon class="st24" points="103.7,556.7 98.8,554 99.3,553.7 103.7,556.1 		"/>
		<polygon class="st103" points="98.8,554 99.3,553.7 99.8,554 		"/>
		<polygon class="st24" points="104.9,546.6 104.1,547.1 98,543.7 98.8,543.2 		"/>
		<polygon class="st103" points="104.9,546.6 104.1,547.1 104.3,557.7 105.1,557.3 		"/>
		<polygon class="st104" points="103.7,556.1 99.3,553.7 99.2,545 103.5,547.4 		"/>
		<polygon class="st24" points="103.6,551 99,548.4 99,548.4 99.2,548.3 103.6,550.7 		"/>
		<polygon class="st103" points="99.2,548.6 99,548.4 99,548.4 99.1,548.3 99.2,548.3 99.7,548.6 		"/>
		<polygon class="st49" points="99,548.4 99,548.9 103.6,551.5 103.6,551 		"/>
	</g>
	<g>
		<path class="st46" d="M85.5,557.8c-2.3,1.4-6,1.4-8.3,0.1s-2.4-3.4-0.1-4.8c2.3-1.4,6-1.4,8.3-0.1
			C87.7,554.3,87.8,556.5,85.5,557.8z"/>
		<path class="st47" d="M81.9,556.3c-1.4,0.7-3.7,1-5.2,0.4c-1.5-0.6-1.6-1.9-0.1-2.6c1.4-0.7,3.8-0.7,5.3-0.1
			C83.3,554.6,83.4,555.7,81.9,556.3z"/>
		<path class="st48" d="M78.9,555.9c-0.6,0.4-1.5,0.4-2,0c-0.6-0.3-0.6-0.9,0-1.3c0.6-0.4,1.5-0.4,2,0
			C79.4,554.9,79.4,555.5,78.9,555.9z"/>
		<polygon class="st24" points="76.2,565.6 101.4,579.6 80.6,592.1 55.3,578.1 		"/>
		<polygon class="st49" points="87.6,571.9 101.4,579.6 82.1,591.2 80.6,591.2 80.2,572.1 		"/>
		
			<linearGradient id="SVGID_7_" gradientUnits="userSpaceOnUse" x1="68.2835" y1="467.3665" x2="69.8591" y2="470.0956" gradientTransform="matrix(0.9998 -1.743586e-02 -1.743586e-02 -0.9998 10.4363 1039.704)">
			<stop  offset="0" style="stop-color:#E4DFD8"/>
			<stop  offset="0.54" style="stop-color:#D9D3CD"/>
			<stop  offset="1" style="stop-color:#BEB9B1"/>
		</linearGradient>
		<polygon class="st106" points="55.8,559.8 80.3,573.3 80.6,591.2 56.1,577.6 		"/>
		<polygon class="st51" points="99.5,561 89.7,556.4 80.2,572.6 80.6,591 99.9,579.4 		"/>
		<polygon class="st52" points="65.6,538.2 62.4,540.1 62.6,549.8 65.8,547.9 		"/>
		<polygon class="st53" points="59.1,538.3 62.4,540.1 62.7,554.9 59.4,553.1 		"/>
		<polygon class="st24" points="59.1,538.3 62.4,540.1 65.6,538.2 62.3,536.4 		"/>
		
			<linearGradient id="SVGID_8_" gradientUnits="userSpaceOnUse" x1="59.8627" y1="501.578" x2="61.2035" y2="499.8619" gradientTransform="matrix(0.9998 -1.743586e-02 -1.743586e-02 -0.9998 10.4363 1039.704)">
			<stop  offset="0" style="stop-color:#CFCAC3"/>
			<stop  offset="1" style="stop-color:#A19B8E"/>
		</linearGradient>
		<polygon class="st107" points="60.5,538.3 62.4,539.3 64.3,538.2 62.4,537.1 		"/>
		<polygon class="st53" points="62.4,539.3 64.3,538.2 62.4,537.1 		"/>
		
			<linearGradient id="SVGID_9_" gradientUnits="userSpaceOnUse" x1="61.2366" y1="501.2933" x2="60.5886" y2="497.2024" gradientTransform="matrix(0.9998 -1.743586e-02 -1.743586e-02 -0.9998 10.4363 1039.704)">
			<stop  offset="0" style="stop-color:#CFCAC3"/>
			<stop  offset="1" style="stop-color:#A19B8E"/>
		</linearGradient>
		<polygon class="st108" points="62.4,539.3 63.3,538.8 62.4,537.1 		"/>
		<g>
			<path class="st51" d="M99.5,561l-9.5-4.3c-0.2-0.1-0.5,0-0.6,0.2l-9.3,15.7l0.3,16.1l19.3-11.6L99.5,561z"/>
			<path class="st56" d="M99.5,561c-0.1-0.1-9.3-4.3-9.4-4.3c-0.2-0.1-0.5,0-0.6,0.2s-9.1,15.5-9.2,15.7c0,0.5,0.3,15.3,0.3,15.8
				c0.3-0.2,19-11.4,19.3-11.6C99.8,576.4,99.6,561.6,99.5,561z"/>
			<path class="st57" d="M99.6,561.1c-0.3-0.1-9.1-4.2-9.4-4.3c-0.2-0.1-0.5,0-0.7,0.2c-0.3,0.5-8.9,15.2-9.2,15.7
				c0,1,0.3,14.5,0.3,15.6c0.6-0.4,18.7-11.2,19.3-11.6C99.8,575.7,99.6,562.2,99.6,561.1z"/>
			<path class="st58" d="M99.6,561.2c-0.4-0.2-9-4.1-9.4-4.3c-0.3-0.1-0.6,0-0.7,0.2c-0.4,0.7-8.8,15-9.2,15.7
				c0,1.6,0.2,13.7,0.3,15.3c0.9-0.6,18.4-11,19.3-11.6C99.8,575,99.6,562.8,99.6,561.2z"/>
			<path class="st59" d="M99.6,561.3c-0.6-0.3-8.8-4-9.4-4.3c-0.3-0.1-0.6,0-0.7,0.2c-0.6,1-8.6,14.7-9.2,15.7
				c0,2.1,0.2,12.9,0.3,15c1.2-0.7,18.1-10.9,19.3-11.6C99.8,574.3,99.6,563.4,99.6,561.3z"/>
			<path class="st60" d="M99.6,561.4c-0.7-0.3-8.6-4-9.3-4.3c-0.3-0.1-0.6,0-0.8,0.2c-0.7,1.2-8.5,14.4-9.2,15.6
				c0,2.6,0.2,12.2,0.3,14.7c1.5-0.9,17.8-10.7,19.3-11.6C99.8,573.6,99.6,564,99.6,561.4z"/>
			<path class="st61" d="M99.6,561.5c-0.9-0.4-8.5-3.9-9.3-4.3c-0.3-0.1-0.7,0-0.8,0.3c-0.9,1.5-8.3,14.2-9.2,15.6
				c0.1,3.1,0.2,11.4,0.3,14.5c1.8-1.1,17.5-10.5,19.3-11.6C99.8,572.9,99.6,564.6,99.6,561.5z"/>
			<path class="st62" d="M99.6,561.6c-1-0.5-8.3-3.8-9.3-4.3c-0.3-0.1-0.7,0-0.9,0.3c-1,1.7-8.2,13.9-9.2,15.6
				c0.1,3.6,0.2,10.6,0.2,14.2c2.1-1.3,17.2-10.3,19.3-11.6C99.7,572.2,99.6,565.2,99.6,561.6z"/>
			<path class="st63" d="M99.6,561.7c-1.1-0.5-8.1-3.7-9.3-4.2c-0.3-0.2-0.7,0-0.9,0.3c-1.1,1.9-8,13.6-9.2,15.6
				c0.1,4.1,0.2,9.8,0.2,13.9c2.5-1.5,16.9-10.1,19.3-11.6C99.7,571.5,99.6,565.8,99.6,561.7z"/>
			<path class="st64" d="M99.6,561.8c-1.3-0.6-8-3.6-9.2-4.2c-0.3-0.2-0.7,0-0.9,0.3c-1.3,2.2-7.9,13.4-9.1,15.5
				c0.1,4.7,0.2,9,0.2,13.7c2.8-1.7,16.5-9.9,19.3-11.6C99.7,570.8,99.6,566.4,99.6,561.8z"/>
			<path class="st65" d="M99.6,561.9c-1.4-0.7-7.8-3.6-9.2-4.2c-0.4-0.2-0.8,0-1,0.3c-1.4,2.4-7.7,13.1-9.1,15.5
				c0.1,5.2,0.1,8.2,0.2,13.4c3.1-1.8,16.2-9.8,19.3-11.6C99.7,570.1,99.7,567,99.6,561.9z"/>
			<path class="st66" d="M99.6,561.9c-1.6-0.7-7.6-3.5-9.2-4.2c-0.4-0.2-0.8,0-1,0.3c-1.6,2.7-7.5,12.8-9.1,15.5
				c0.1,5.7,0.1,7.4,0.2,13.1c3.4-2,15.9-9.6,19.3-11.6C99.7,569.4,99.7,567.6,99.6,561.9z"/>
			<path class="st67" d="M99.6,562c-1.7-0.8-7.5-3.4-9.2-4.2c-0.4-0.2-0.8,0-1,0.3c-1.7,2.9-7.4,12.6-9.1,15.5
				c0.1,6.2,0.1,6.6,0.2,12.9c3.7-2.2,15.6-9.4,19.3-11.6C99.7,568.7,99.7,568.3,99.6,562z"/>
			<path class="st68" d="M99.6,562.1c-1.8-0.8-7.3-3.3-9.1-4.2c-0.4-0.2-0.9,0-1.1,0.3c-1.9,3.2-7.2,12.3-9.1,15.4
				c0.1,6.7,0.1,5.9,0.2,12.6c4-2.4,15.3-9.2,19.3-11.6C99.7,568,99.7,568.9,99.6,562.1z"/>
			<path class="st69" d="M99.6,562.2c-2-0.9-7.1-3.3-9.1-4.2c-0.4-0.2-0.9,0-1.1,0.4c-2,3.4-7.1,12-9.1,15.4
				c0.1,7.2,0.1,5.1,0.2,12.3c4.3-2.6,15-9,19.3-11.6C99.7,567.3,99.7,569.5,99.6,562.2z"/>
			<path class="st70" d="M99.6,562.3c-2.1-1-7-3.2-9.1-4.2c-0.4-0.2-0.9,0-1.2,0.4c-2.1,3.6-6.9,11.8-9.1,15.4
				c0.1,7.8,0.1,4.3,0.2,12c4.6-2.8,14.7-8.8,19.3-11.6C99.6,566.6,99.7,570.1,99.6,562.3z"/>
			<path class="st71" d="M99.6,562.4c-2.3-1-6.8-3.1-9.1-4.2c-0.4-0.2-1,0-1.2,0.4c-2.3,3.9-6.8,11.5-9,15.4
				c0.1,8.3,0.1,3.5,0.2,11.8c4.9-2.9,14.4-8.7,19.3-11.6C99.6,565.9,99.7,570.7,99.6,562.4z"/>
			<path class="st72" d="M99.6,562.5c-2.4-1.1-6.6-3-9-4.1c-0.5-0.2-1,0-1.2,0.4c-2.4,4.1-6.6,11.2-9,15.4c0.2,8.8,0,2.7,0.2,11.5
				c5.2-3.1,14.1-8.5,19.3-11.6C99.6,565.2,99.7,571.3,99.6,562.5z"/>
			<path class="st73" d="M99.6,562.6c-2.6-1.2-6.5-3-9-4.1c-0.5-0.2-1,0-1.3,0.4c-2.6,4.4-6.5,11-9,15.3c0.2,9.3,0,1.9,0.2,11.2
				c5.5-3.3,13.8-8.3,19.3-11.6C99.6,564.5,99.7,571.9,99.6,562.6z"/>
			<path class="st74" d="M99.6,562.7c-2.7-1.2-6.3-2.9-9-4.1c-0.5-0.2-1,0-1.3,0.4c-2.7,4.6-6.3,10.7-9,15.3c0.2,9.8,0,1.1,0.2,11
				c5.8-3.5,13.5-8.1,19.3-11.6C99.6,563.8,99.7,572.5,99.6,562.7z"/>
			<path class="st75" d="M99.6,562.8c-2.8-1.3-6.1-2.8-9-4.1c-0.5-0.2-1.1,0-1.3,0.4c-2.9,4.8-6.1,10.4-9,15.3
				c0.2,10.4,0,0.3,0.2,10.7c6.1-3.7,13.2-7.9,19.3-11.6C99.6,563.1,99.8,573.1,99.6,562.8z"/>
			<path class="st76" d="M99.6,562.9c-3-1.4-6-2.7-8.9-4.1c-0.5-0.2-1.1,0-1.4,0.4c-3,5.1-6,10.2-9,15.3c0.2,10.9,0-0.4,0.2,10.4
				c6.4-3.9,12.9-7.7,19.3-11.6C99.6,562.4,99.8,573.7,99.6,562.9z"/>
			<path class="st77" d="M99.6,563c-2.8-1.3-6.1-2.8-8.9-4.1c-0.5-0.2-1.2,0-1.5,0.5c-2.9,4.8-6.1,10.4-9,15.2
				c0.2,10.4,0,0.2,0.2,10.5c6.1-3.7,13.2-7.9,19.3-11.6C99.6,563.2,99.8,573.4,99.6,563z"/>
			<path class="st77" d="M99.6,563.2c-2.7-1.2-6.2-2.8-8.8-4.1c-0.6-0.3-1.2-0.1-1.5,0.5c-2.7,4.6-6.2,10.6-8.9,15.2
				c0.2,9.8,0,0.8,0.2,10.7c5.8-3.5,13.5-8.1,19.3-11.6C99.6,564,99.8,573,99.6,563.2z"/>
			<path class="st78" d="M99.6,563.4c-2.6-1.2-6.2-2.9-8.8-4c-0.6-0.3-1.3-0.1-1.6,0.5c-2.6,4.4-6.3,10.8-8.9,15.1
				c0.2,9.3,0,1.5,0.2,10.8c5.5-3.3,13.8-8.3,19.3-11.6C99.6,564.9,99.8,572.7,99.6,563.4z"/>
			<path class="st79" d="M99.6,563.5c-2.4-1.1-6.3-2.9-8.8-4c-0.6-0.3-1.3-0.1-1.7,0.5c-2.4,4.1-6.4,11-8.9,15.1
				c0.2,8.8,0,2.1,0.2,10.9c5.2-3.1,14.1-8.5,19.3-11.6C99.6,565.7,99.7,572.3,99.6,563.5z"/>
			<path class="st80" d="M99.6,563.7c-2.3-1-6.4-2.9-8.7-4c-0.6-0.3-1.4-0.1-1.8,0.6c-2.3,3.9-6.6,11.2-8.8,15
				c0.1,8.3,0,2.8,0.2,11.1c4.9-2.9,14.4-8.7,19.3-11.6C99.6,566.5,99.7,572,99.6,563.7z"/>
			<path class="st81" d="M99.6,563.9c-2.1-1-6.5-3-8.7-4c-0.7-0.3-1.5-0.1-1.8,0.6c-2.1,3.6-6.7,11.4-8.8,15
				c0.1,7.8,0.1,3.4,0.2,11.2c4.6-2.8,14.7-8.8,19.3-11.6C99.7,567.3,99.7,571.7,99.6,563.9z"/>
			<path class="st82" d="M99.6,564.1c-2-0.9-6.6-3-8.6-3.9c-0.7-0.3-1.5-0.1-1.9,0.6c-2,3.4-6.8,11.6-8.8,14.9
				c0.1,7.2,0.1,4.1,0.2,11.3c4.3-2.6,15-9,19.3-11.6C99.7,568.1,99.7,571.3,99.6,564.1z"/>
			<path class="st83" d="M99.6,564.2c-1.8-0.8-6.7-3.1-8.6-3.9c-0.7-0.3-1.6-0.1-2,0.6c-1.9,3.2-6.9,11.7-8.8,14.9
				c0.1,6.7,0.1,4.7,0.2,11.4c4-2.4,15.3-9.2,19.3-11.6C99.7,568.9,99.7,571,99.6,564.2z"/>
			<path class="st84" d="M99.6,564.4c-1.7-0.8-6.8-3.1-8.5-3.9c-0.8-0.3-1.6-0.1-2.1,0.6c-1.7,2.9-7,11.9-8.7,14.9
				c0.1,6.2,0.1,5.4,0.2,11.6c3.7-2.2,15.6-9.4,19.3-11.6C99.7,569.8,99.7,570.6,99.6,564.4z"/>
			<path class="st85" d="M99.6,564.6c-1.6-0.7-6.9-3.2-8.5-3.9c-0.8-0.4-1.7-0.1-2.1,0.7c-1.6,2.7-7.1,12.1-8.7,14.8
				c0.1,5.7,0.1,6,0.2,11.7c3.4-2,15.9-9.6,19.3-11.6C99.7,570.6,99.7,570.3,99.6,564.6z"/>
			<path class="st86" d="M99.6,564.8c-1.4-0.7-7-3.2-8.4-3.9c-0.8-0.4-1.8-0.1-2.2,0.7c-1.4,2.4-7.3,12.3-8.7,14.8
				c0.1,5.2,0.1,6.6,0.2,11.8c3.1-1.8,16.2-9.8,19.3-11.6C99.7,571.4,99.7,569.9,99.6,564.8z"/>
			<path class="st87" d="M99.6,564.9c-1.3-0.6-7.1-3.2-8.4-3.8c-0.8-0.4-1.8-0.1-2.3,0.7c-1.3,2.2-7.4,12.5-8.7,14.7
				c0.1,4.7,0.1,7.3,0.2,11.9c2.8-1.7,16.5-9.9,19.3-11.6C99.7,572.2,99.7,569.6,99.6,564.9z"/>
			<path class="st88" d="M99.6,565.1c-1.1-0.5-7.2-3.3-8.3-3.8c-0.9-0.4-1.9-0.1-2.4,0.7c-1.1,1.9-7.5,12.7-8.6,14.7
				c0.1,4.1,0.1,7.9,0.2,12.1c2.5-1.5,16.9-10.1,19.3-11.6C99.8,573,99.7,569.3,99.6,565.1z"/>
			<path class="st89" d="M99.6,565.3c-1-0.5-7.3-3.3-8.3-3.8c-0.9-0.4-1.9-0.1-2.4,0.8c-1,1.7-7.6,12.9-8.6,14.6
				c0.1,3.6,0.1,8.6,0.2,12.2c2.1-1.3,17.2-10.3,19.3-11.6C99.8,573.9,99.7,568.9,99.6,565.3z"/>
			<path class="st90" d="M99.6,565.5c-0.9-0.4-7.4-3.4-8.2-3.8c-0.9-0.4-2-0.1-2.5,0.8c-0.9,1.5-7.7,13.1-8.6,14.6
				c0.1,3.1,0.2,9.2,0.2,12.3c1.8-1.1,17.5-10.5,19.3-11.6C99.8,574.7,99.7,568.6,99.6,565.5z"/>
			<path class="st91" d="M99.6,565.6c-0.7-0.3-7.5-3.4-8.2-3.7c-0.9-0.4-2.1-0.1-2.6,0.8c-0.7,1.2-7.8,13.3-8.5,14.5
				c0,2.6,0.2,9.9,0.2,12.5c1.5-0.9,17.8-10.7,19.3-11.6C99.8,575.5,99.7,568.2,99.6,565.6z"/>
			<path class="st92" d="M99.6,565.8c-0.6-0.3-7.6-3.5-8.1-3.7c-1-0.4-2.1-0.1-2.7,0.8c-0.6,1-7.9,13.5-8.5,14.5
				c0,2.1,0.2,10.5,0.2,12.6c1.2-0.7,18.1-10.9,19.3-11.6C99.8,576.3,99.7,567.9,99.6,565.8z"/>
			<path class="st93" d="M99.6,566c-0.4-0.2-7.6-3.5-8.1-3.7c-1-0.5-2.2-0.1-2.7,0.9c-0.4,0.7-8.1,13.7-8.5,14.4
				c0,1.6,0.2,11.2,0.2,12.7c0.9-0.6,18.4-11,19.3-11.6C99.8,577.1,99.7,567.5,99.6,566z"/>
			<path class="st94" d="M99.6,566.2c-0.3-0.1-7.7-3.5-8-3.7c-1-0.5-2.2-0.1-2.8,0.9c-0.3,0.5-8.2,13.9-8.5,14.4
				c0,1,0.2,11.8,0.2,12.8c0.6-0.4,18.7-11.2,19.3-11.6C99.8,578,99.7,567.2,99.6,566.2z"/>
			<path class="st94" d="M99.6,566.3c-0.1-0.1-7.8-3.6-8-3.7c-1.1-0.5-2.3-0.1-2.9,0.9c-0.1,0.2-8.3,14.1-8.4,14.3
				c0,0.5,0.2,12.4,0.2,13c0.3-0.2,19-11.4,19.3-11.6C99.9,578.8,99.7,566.8,99.6,566.3z"/>
			<path class="st52" d="M99.6,566.5l-7.9-3.6c-1.1-0.5-2.4-0.1-3,0.9l-8.4,14.3l0.2,13.1l19.3-11.6L99.6,566.5z"/>
		</g>
		<polygon class="st95" points="101.1,561.2 90.6,556.3 80.4,573.6 67.3,566.3 54.3,559.1 64.4,541.8 74.9,546.7 88,553.9 		"/>
		<polygon class="st96" points="90.6,556.3 80.4,573.6 67.3,566.3 54.3,559.1 64.4,541.8 		"/>
		<polygon class="st97" points="101.1,561.2 90.6,556.3 90.6,556.9 101.1,561.8 		"/>
		<polygon class="st97" points="80.4,573.6 90.6,556.3 90.6,556.9 80.4,574.2 		"/>
		<path class="st97" d="M90.6,556.2c0.2-0.1,0.4-0.1,0.5-0.1c0.1,0.1,0.2,0.2,0.2,0.5l-0.7,0.4l-0.7,0.4c0-0.2,0.1-0.5,0.2-0.7
			S90.4,556.3,90.6,556.2z"/>
		<polygon class="st98" points="80.4,573.6 54.3,559.1 54.3,559.7 80.4,574.2 		"/>
		<polygon class="st99" points="80.4,573.6 54.3,559.1 54.3,559.3 80.4,573.8 		"/>
		
			<linearGradient id="SVGID_10_" gradientUnits="userSpaceOnUse" x1="67.5274" y1="456.3608" x2="68.2535" y2="457.6184" gradientTransform="matrix(0.9998 -1.743586e-02 -1.743586e-02 -0.9998 10.4363 1039.704)">
			<stop  offset="0" style="stop-color:#E4DFD8"/>
			<stop  offset="0.54" style="stop-color:#D9D3CD"/>
			<stop  offset="1" style="stop-color:#BEB9B1"/>
		</linearGradient>
		<polygon class="st109" points="55.3,578.1 80.6,592.1 80.6,593.8 55.4,579.8 		"/>
		<polygon class="st52" points="101.4,579.6 80.6,592.1 80.6,593.8 101.4,581.3 		"/>
		<polygon class="st101" points="69.5,571.3 69.7,582 75.8,585.4 75.6,574.7 		"/>
		
			<linearGradient id="SVGID_11_" gradientUnits="userSpaceOnUse" x1="68.0786" y1="454.6341" x2="68.0786" y2="470.1044" gradientTransform="matrix(0.9998 -1.743586e-02 -1.743586e-02 -0.9998 10.4363 1039.704)">
			<stop  offset="0" style="stop-color:#DBD6CF"/>
			<stop  offset="1" style="stop-color:#B3B0A2"/>
		</linearGradient>
		<polygon class="st110" points="70.1,572.3 70.3,581.7 70.8,581.4 70.6,572.6 		"/>
		<polygon class="st24" points="75.1,584.4 70.3,581.7 70.8,581.4 75.1,583.8 		"/>
		<polygon class="st103" points="70.3,581.7 70.8,581.4 71.3,581.6 		"/>
		<polygon class="st24" points="76.4,574.2 75.6,574.7 69.5,571.3 70.3,570.9 		"/>
		<polygon class="st103" points="76.4,574.2 75.6,574.7 75.8,585.4 76.5,584.9 		"/>
		<polygon class="st104" points="75.1,583.8 70.8,581.4 70.6,572.6 75,575.1 		"/>
		<polygon class="st24" points="75,578.6 70.4,576.1 70.4,576.1 70.7,575.9 75,578.3 		"/>
		<polygon class="st103" points="70.7,576.2 70.4,576.1 70.4,576.1 70.6,576 70.7,575.9 71.2,576.2 		"/>
		<polygon class="st49" points="70.4,576.1 70.4,576.6 75,579.1 75,578.6 		"/>
		<g>
			<path class="st111" d="M59.2,564.5c0.1,3.6,0.1,7.2,0.2,10.9c0,0.1,0,0.2,0.1,0.2c2,1.1,4,2.2,6,3.3c0.1,0,0.2,0,0.2,0
				c0.1,0,0.1-0.1,0.1-0.2c-0.1-3.6-0.1-7.2-0.2-10.8c0-0.1,0-0.2-0.1-0.2c-2-1.1-4-2.2-6-3.3C59.4,564.4,59.3,564.4,59.2,564.5
				C59.2,564.3,59.2,564.4,59.2,564.5z"/>
			<path class="st112" d="M59.2,564.5c0.1,3.5,0.1,7.3,0.2,10.8c0,0.1,0,0.2,0.1,0.2c1.9,1,4.1,2.2,6,3.3c0.1,0,0.2,0,0.2,0
				c0.1,0,0.1-0.1,0.1-0.2c-0.1-3.5-0.1-7.3-0.2-10.8c0-0.1,0-0.2-0.1-0.2c-1.9-1.1-4.1-2.3-6-3.3c-0.1,0-0.2,0-0.2,0
				C59.2,564.3,59.2,564.4,59.2,564.5z"/>
			<path class="st113" d="M59.2,564.5c0.1,3.3,0.1,7.5,0.2,10.8c0,0.1,0,0.2,0.1,0.2c1.8,1,4.1,2.3,5.9,3.3c0.1,0,0.2,0,0.2,0
				c0.1,0,0.1-0.1,0.1-0.2c-0.1-3.3-0.1-7.5-0.2-10.8c0-0.1,0-0.2-0.1-0.2c-1.8-1-4.1-2.3-5.9-3.3c-0.1,0-0.2,0-0.2,0
				S59.2,564.4,59.2,564.5z"/>
			<path class="st114" d="M59.2,564.5c0.1,3.1,0.1,7.6,0.2,10.7c0,0.1,0,0.2,0.1,0.2c1.7,0.9,4.2,2.3,5.9,3.3c0.1,0,0.2,0,0.2,0
				c0.1,0,0.1-0.1,0.1-0.2c-0.1-3.1-0.1-7.6-0.2-10.7c0-0.1,0-0.2-0.1-0.2c-1.7-0.9-4.2-2.3-5.9-3.3c-0.1,0-0.2,0-0.2,0
				C59.3,564.4,59.2,564.4,59.2,564.5z"/>
			<path class="st115" d="M59.2,564.6c0.1,3,0.1,7.7,0.2,10.7c0,0.1,0,0.2,0.1,0.2c1.6,0.9,4.3,2.4,5.9,3.3c0.1,0,0.2,0,0.2,0
				c0.1,0,0.1-0.1,0.1-0.2c-0.1-3-0.1-7.7-0.2-10.7c0-0.1,0-0.2-0.1-0.2c-1.6-0.9-4.3-2.4-5.9-3.3c-0.1,0-0.2,0-0.2,0
				S59.2,564.5,59.2,564.6z"/>
			<path class="st116" d="M59.2,564.6c0,2.8,0.1,7.9,0.2,10.6c0,0.1,0,0.2,0.1,0.2c1.5,0.8,4.4,2.4,5.9,3.3c0.1,0,0.2,0,0.2,0
				c0.1,0,0.1-0.1,0.1-0.2c0-2.8-0.1-7.8-0.2-10.6c0-0.1,0-0.2-0.1-0.2c-1.5-0.8-4.4-2.4-5.9-3.3c-0.1,0-0.2,0-0.2,0
				S59.2,564.5,59.2,564.6z"/>
			<path class="st117" d="M59.3,564.6c0,2.6,0.1,8,0.2,10.6c0,0.1,0,0.2,0.1,0.2c1.4,0.8,4.5,2.5,5.9,3.2c0.1,0,0.2,0,0.2,0
				c0.1,0,0.1-0.1,0.1-0.2c0-2.6-0.1-8-0.2-10.6c0-0.1,0-0.2-0.1-0.2c-1.4-0.8-4.5-2.5-5.9-3.3c-0.1,0-0.2,0-0.2,0
				C59.3,564.4,59.3,564.5,59.3,564.6z"/>
			<path class="st118" d="M59.3,564.6c0,2.4,0.1,8.1,0.2,10.5c0,0.1,0,0.2,0.1,0.2c1.3,0.7,4.5,2.5,5.9,3.2c0.1,0,0.2,0,0.2,0
				c0.1,0,0.1-0.1,0.1-0.2c0-2.4-0.1-8.1-0.2-10.5c0-0.1,0-0.2-0.1-0.2c-1.3-0.7-4.5-2.5-5.9-3.2c-0.1,0-0.2,0-0.2,0
				C59.3,564.4,59.3,564.5,59.3,564.6z"/>
			<path class="st119" d="M59.3,564.6c0,2.3,0.1,8.2,0.2,10.5c0,0.1,0,0.2,0.1,0.2c1.2,0.7,4.6,2.5,5.8,3.2c0.1,0,0.2,0,0.2,0
				c0.1,0,0.1-0.1,0.1-0.2c0-2.3-0.1-8.2-0.2-10.5c0-0.1,0-0.2-0.1-0.2c-1.2-0.7-4.6-2.6-5.8-3.2c-0.1,0-0.2,0-0.2,0
				C59.3,564.5,59.3,564.5,59.3,564.6z"/>
			<path class="st120" d="M59.3,564.6c0,2.1,0.1,8.4,0.2,10.5c0,0.1,0,0.2,0.1,0.2c1.1,0.6,4.7,2.6,5.8,3.2c0.1,0,0.2,0,0.2,0
				c0.1,0,0.1-0.1,0.1-0.2c0-2.1-0.1-8.4-0.2-10.4c0-0.1,0-0.2-0.1-0.2c-1.1-0.6-4.7-2.6-5.8-3.2c-0.1,0-0.2,0-0.2,0
				C59.3,564.5,59.3,564.5,59.3,564.6z"/>
			<path class="st121" d="M59.3,564.7c0,1.9,0.1,8.5,0.2,10.4c0,0.1,0,0.2,0.1,0.2c1,0.6,4.8,2.6,5.8,3.2c0.1,0,0.2,0,0.2,0
				c0.1,0,0.1-0.1,0.1-0.2c0-1.9-0.1-8.5-0.2-10.4c0-0.1,0-0.2-0.1-0.2c-1-0.6-4.8-2.6-5.8-3.2c-0.1,0-0.2,0-0.2,0
				C59.3,564.5,59.3,564.6,59.3,564.7z"/>
			<path class="st122" d="M59.3,564.7c0,1.7,0.2,8.6,0.2,10.4c0,0.1,0,0.2,0.1,0.2c0.9,0.5,4.8,2.7,5.8,3.2c0.1,0,0.2,0,0.2,0
				c0.1,0,0.1-0.1,0.1-0.2c0-1.7-0.2-8.6-0.2-10.4c0-0.1,0-0.2-0.1-0.2c-0.9-0.5-4.8-2.7-5.8-3.2c-0.1,0-0.2,0-0.2,0
				C59.3,564.5,59.3,564.6,59.3,564.7z"/>
			<path class="st123" d="M59.3,564.7c0,1.6,0.2,8.8,0.2,10.3c0,0.1,0,0.2,0.1,0.2c0.9,0.5,4.9,2.7,5.8,3.2c0.1,0,0.2,0,0.2,0
				c0.1,0,0.1-0.1,0.1-0.2c0-1.6-0.2-8.8-0.2-10.3c0-0.1,0-0.2-0.1-0.2c-0.9-0.5-4.9-2.7-5.8-3.2c-0.1,0-0.2,0-0.2,0
				S59.3,564.6,59.3,564.7z"/>
			<path class="st124" d="M59.3,564.7c0,1.4,0.2,8.9,0.2,10.3c0,0.1,0,0.2,0.1,0.2c0.8,0.4,5,2.8,5.8,3.2c0.1,0,0.2,0,0.2,0
				c0.1,0,0.1-0.1,0.1-0.2c0-1.4-0.2-8.9-0.2-10.3c0-0.1,0-0.2-0.1-0.2c-0.8-0.4-5-2.8-5.8-3.2c-0.1,0-0.2,0-0.2,0
				S59.3,564.6,59.3,564.7z"/>
			<path class="st125" d="M59.3,564.7c0,1.2,0.2,9,0.2,10.2c0,0.1,0,0.2,0.1,0.2c0.7,0.4,5.1,2.8,5.7,3.2c0.1,0,0.2,0,0.2,0
				c0.1,0,0.1-0.1,0.1-0.2c0-1.2-0.2-9-0.2-10.2c0-0.1,0-0.2-0.1-0.2c-0.7-0.4-5.1-2.8-5.7-3.2c-0.1,0-0.2,0-0.2,0
				C59.4,564.6,59.3,564.6,59.3,564.7z"/>
			<path class="st126" d="M59.3,564.7c0,1,0.2,9.2,0.2,10.2c0,0.1,0,0.2,0.1,0.2c0.6,0.3,5.2,2.8,5.7,3.2c0.1,0,0.2,0,0.2,0
				c0.1,0,0.1-0.1,0.1-0.2c0-1-0.2-9.1-0.2-10.2c0-0.1,0-0.2-0.1-0.2c-0.6-0.3-5.2-2.9-5.7-3.2c-0.1,0-0.2,0-0.2,0
				C59.4,564.6,59.3,564.7,59.3,564.7z"/>
			<path class="st127" d="M59.4,564.8c0,0.9,0.2,9.3,0.2,10.2c0,0.1,0,0.2,0.1,0.2c0.5,0.3,5.2,2.9,5.7,3.2c0.1,0,0.2,0,0.2,0
				c0.1,0,0.1-0.1,0.1-0.2c0-0.9-0.2-9.3-0.2-10.1c0-0.1,0-0.2-0.1-0.2c-0.5-0.3-5.2-2.9-5.7-3.2C59.6,564.7,59.5,564.7,59.4,564.8
				C59.4,564.6,59.4,564.7,59.4,564.8z"/>
			<path class="st128" d="M59.4,564.8c0,0.7,0.2,9.4,0.2,10.1c0,0.1,0,0.2,0.1,0.2c0.4,0.2,5.3,2.9,5.7,3.1c0.1,0,0.2,0,0.2,0
				c0.1,0,0.1-0.1,0.1-0.2c0-0.7-0.2-9.4-0.2-10.1c0-0.1,0-0.2-0.1-0.2c-0.4-0.2-5.3-2.9-5.7-3.2c-0.1,0-0.2,0-0.2,0
				C59.4,564.6,59.4,564.7,59.4,564.8z"/>
			<path class="st129" d="M59.4,564.8c0,0.5,0.2,9.5,0.2,10.1c0,0.1,0,0.2,0.1,0.2c0.3,0.2,5.4,3,5.7,3.1c0.1,0,0.2,0,0.2,0
				c0.1,0,0.1-0.1,0.1-0.2c0-0.5-0.2-9.5-0.2-10.1c0-0.1,0-0.2-0.1-0.2c-0.3-0.2-5.4-3-5.7-3.1c-0.1,0-0.2,0-0.2,0
				C59.4,564.6,59.4,564.7,59.4,564.8z"/>
			<path class="st130" d="M59.4,564.8c0,0.3,0.2,9.7,0.2,10c0,0.1,0,0.2,0.1,0.2c0.2,0.1,5.5,3,5.7,3.1c0.1,0,0.2,0,0.2,0
				c0.1,0,0.1-0.1,0.1-0.2c0-0.3-0.2-9.7-0.2-10c0-0.1,0-0.2-0.1-0.2c-0.2-0.1-5.5-3-5.7-3.1c-0.1,0-0.2,0-0.2,0
				C59.4,564.6,59.4,564.7,59.4,564.8z"/>
			<path class="st131" d="M59.4,564.8c0,0.2,0.2,9.8,0.2,10c0,0.1,0,0.2,0.1,0.2c0.1,0.1,5.5,3.1,5.6,3.1c0.1,0,0.2,0,0.2,0
				c0.1,0,0.1-0.1,0.1-0.2c0-0.2-0.2-9.8-0.2-10c0-0.1,0-0.2-0.1-0.2c-0.1-0.1-5.5-3.1-5.6-3.1s-0.2,0-0.2,0
				C59.4,564.7,59.4,564.7,59.4,564.8z"/>
			<path class="st132" d="M59.4,564.8l0.2,9.9c0,0.1,0,0.2,0.1,0.2l5.6,3.1c0.1,0,0.2,0,0.2,0c0.1,0,0.1-0.1,0.1-0.2l-0.2-9.9
				c0-0.1,0-0.2-0.1-0.2l-5.6-3.1c-0.1,0-0.2,0-0.2,0C59.4,564.7,59.4,564.8,59.4,564.8z"/>
		</g>
		<polygon class="st101" points="58.6,564.7 58.8,575.4 64.9,578.7 64.7,568 		"/>
		
			<linearGradient id="SVGID_12_" gradientUnits="userSpaceOnUse" x1="57.3216" y1="461.4812" x2="57.3216" y2="476.9515" gradientTransform="matrix(0.9998 -1.743586e-02 -1.743586e-02 -0.9998 10.4363 1039.704)">
			<stop  offset="0" style="stop-color:#DBD6CF"/>
			<stop  offset="1" style="stop-color:#B3B0A2"/>
		</linearGradient>
		<polygon class="st133" points="59.2,565.7 59.4,575 59.9,574.7 59.8,566 		"/>
		<polygon class="st24" points="64.3,577.7 59.4,575 59.9,574.7 64.3,577.1 		"/>
		<polygon class="st103" points="59.4,575 59.9,574.7 60.4,575 		"/>
		<polygon class="st24" points="65.5,567.6 64.7,568.1 58.6,564.7 59.4,564.2 		"/>
		<polygon class="st103" points="65.5,567.6 64.7,568.1 64.9,578.7 65.7,578.2 		"/>
		<polygon class="st104" points="64.3,577.1 59.9,574.7 59.8,566 64.1,568.4 		"/>
		<polygon class="st24" points="64.2,572 59.6,569.4 59.6,569.4 59.8,569.3 64.1,571.7 		"/>
		<polygon class="st103" points="59.8,569.6 59.6,569.4 59.6,569.4 59.7,569.3 59.8,569.3 60.3,569.5 		"/>
		<polygon class="st49" points="59.6,569.4 59.6,569.9 64.2,572.5 64.2,572 		"/>
	</g>
</g>
<polygon class="st2" points="194,903.3 194,896.5 182.1,903.3 "/>
</svg>
