<?xml version="1.0" encoding="utf-8"?>
<!-- Generator: Adobe Illustrator 21.0.0, SVG Export Plug-In . SVG Version: 6.00 Build 0)  -->
<svg version="1.1" id="Layer_1" xmlns="http://www.w3.org/2000/svg" xmlns:xlink="http://www.w3.org/1999/xlink" x="0px" y="0px"
	 viewBox="0 0 2005 817.8" style="enable-background:new 0 0 2005 817.8;" xml:space="preserve">
<style type="text/css">
	.st0{fill:#0F4C81;}
	.st1{fill:#2D74B1;}
	.st2{fill:#EAC398;}
	.st3{fill:#CCA266;}
	.st4{fill:#BC9668;}
	.st5{fill:#B1CF79;}
	.st6{fill:#7E975D;}
	.st7{fill:#9DB964;}
	.st8{fill:#2156A7;}
	.st9{fill:#21366D;}
	.st10{fill:#165488;}
	.st11{fill:#F3F3F5;}
	.st12{fill:#E6E6E6;}
	.st13{fill:#ECAC20;}
	.st14{fill:#946C29;}
	.st15{fill:#D49A29;}
	.st16{fill:#F5D5AE;}
	.st17{fill:#0783C1;}
	.st18{fill:#E05959;}
	.st19{fill:#F16464;}
	.st20{fill:#1891D0;}
	.st21{fill:#4D4D4D;}
	.st22{fill:#F2F2F2;}
	.st23{fill:#CCCBD0;}
	.st24{fill:#FFFFFF;}
	.st25{fill:#F9F9F9;}
	.st26{fill:#CE5252;}
	.st27{fill:#545571;}
	.st28{fill:#353849;}
	.st29{fill:#44455A;}
	.st30{fill:#47C1B6;}
	.st31{fill:#139096;}
	.st32{fill:#397600;}
	.st33{fill:#48840A;}
	.st34{fill:#4F2400;}
	.st35{fill:#683D05;}
	.st36{fill:#855921;}
	.st37{fill:#559924;}
	.st38{fill:#EDE9E8;}
	.st39{fill:#DFD7D5;}
	.st40{fill:#D2C5C2;}
	.st41{fill:#F9F3BC;}
	.st42{fill:#D2C8A0;}
	.st43{fill:#E8E1AF;}
	.st44{fill:#EBF3FA;}
	.st45{fill:#D8D8D8;}
	.st46{fill:#C0CD5B;}
	.st47{fill:#A7B54A;}
	.st48{fill:#89993D;}
	.st49{fill:#CFCAC3;}
	.st50{fill:url(#SVGID_1_);}
	.st51{fill:#929087;}
	.st52{fill:#BEB9B1;}
	.st53{fill:#E4DFD8;}
	.st54{fill:url(#SVGID_2_);}
	.st55{fill:url(#SVGID_3_);}
	.st56{fill:#939188;}
	.st57{fill:#95938A;}
	.st58{fill:#96948B;}
	.st59{fill:#98958C;}
	.st60{fill:#99978E;}
	.st61{fill:#9A988F;}
	.st62{fill:#9C9990;}
	.st63{fill:#9D9B92;}
	.st64{fill:#9E9C93;}
	.st65{fill:#A09D94;}
	.st66{fill:#A19F96;}
	.st67{fill:#A3A097;}
	.st68{fill:#A4A198;}
	.st69{fill:#A5A39A;}
	.st70{fill:#A7A49B;}
	.st71{fill:#A8A59C;}
	.st72{fill:#A9A79E;}
	.st73{fill:#ABA89F;}
	.st74{fill:#ACA9A0;}
	.st75{fill:#AEABA2;}
	.st76{fill:#AFACA3;}
	.st77{fill:#B0ADA4;}
	.st78{fill:#B1AEA5;}
	.st79{fill:#B2AEA6;}
	.st80{fill:#B3AFA6;}
	.st81{fill:#B3B0A7;}
	.st82{fill:#B4B0A8;}
	.st83{fill:#B5B1A8;}
	.st84{fill:#B5B2A9;}
	.st85{fill:#B6B2AA;}
	.st86{fill:#B7B3AA;}
	.st87{fill:#B8B3AB;}
	.st88{fill:#B8B4AC;}
	.st89{fill:#B9B5AC;}
	.st90{fill:#BAB5AD;}
	.st91{fill:#BAB6AE;}
	.st92{fill:#BBB7AE;}
	.st93{fill:#BCB7AF;}
	.st94{fill:#BDB8B0;}
	.st95{fill:#D05627;}
	.st96{fill:#F37932;}
	.st97{fill:#8D301E;}
	.st98{fill:#BB4E27;}
	.st99{fill:#872C1C;}
	.st100{fill:url(#SVGID_4_);}
	.st101{fill:#E7E2DE;}
	.st102{fill:url(#SVGID_5_);}
	.st103{fill:#DBD6CF;}
	.st104{fill:#8B8C88;}
	.st105{fill:url(#SVGID_6_);}
	.st106{fill:url(#SVGID_7_);}
	.st107{fill:url(#SVGID_8_);}
	.st108{fill:url(#SVGID_9_);}
	.st109{fill:url(#SVGID_10_);}
	.st110{fill:url(#SVGID_11_);}
	.st111{fill:#CDC6C1;}
	.st112{fill:#CCC5C0;}
	.st113{fill:#CAC4BF;}
	.st114{fill:#C9C2BD;}
	.st115{fill:#C7C1BC;}
	.st116{fill:#C6C0BB;}
	.st117{fill:#C4BFBA;}
	.st118{fill:#C3BDB8;}
	.st119{fill:#C1BCB7;}
	.st120{fill:#C0BBB6;}
	.st121{fill:#BEBAB5;}
	.st122{fill:#BDB8B3;}
	.st123{fill:#BBB7B2;}
	.st124{fill:#BAB6B1;}
	.st125{fill:#B8B5B0;}
	.st126{fill:#B7B3AE;}
	.st127{fill:#B5B2AD;}
	.st128{fill:#B4B1AC;}
	.st129{fill:#B2B0AB;}
	.st130{fill:#B1AEA9;}
	.st131{fill:#AFADA8;}
	.st132{fill:#AEACA7;}
	.st133{fill:url(#SVGID_12_);}
</style>
<rect class="st0" width="2005" height="832.3"/>
<rect class="st1" width="490.5" height="832.3"/>
<g>
	<polygon class="st2" points="0.2,714.6 491.8,430.8 670.8,534.1 177.6,817.8 	"/>
	<polygon class="st3" points="0.2,714.6 0.2,732.2 175.8,832.3 179,832.3 177.6,817.8 	"/>
	<polygon class="st3" points="177.6,817.8 670.8,534.1 670.6,551.7 193.1,826 182.1,832.3 179,832.3 	"/>
	<polygon class="st3" points="178.3,832.3 179,832.3 0.2,832.3 0.2,732.2 	"/>
	<polygon class="st2" points="526.3,634.6 660.3,557.6 660.3,763.6 524.9,840.3 	"/>
	<polygon class="st4" points="524.9,840.3 345.7,737.6 526.3,634.6 	"/>
	<polygon class="st3" points="526.3,676.2 660.3,601.9 660.3,604.6 525.4,679.3 	"/>
	<polygon class="st3" points="526.3,729.2 660.3,654.8 660.3,657.6 525.4,732.2 	"/>
	<polygon class="st3" points="526.3,784.6 660.3,710.2 660.3,712.9 525.4,787.6 	"/>
	<polygon class="st3" points="581.2,648.4 581.2,653.5 614.4,635.5 614.4,630 	"/>
	<polygon class="st4" points="581.2,648.4 614.4,630 614.4,632.1 581.2,650 	"/>
	<polygon class="st3" points="585,698.8 584.9,703.8 618.2,685.9 618.2,680.4 	"/>
	<polygon class="st4" points="584.9,698.8 618.1,680.4 618.1,682.5 584.9,700.4 	"/>
	<polygon class="st3" points="586.7,754 586.7,759 619.9,741 619.9,735.6 	"/>
	<polygon class="st4" points="586.7,752.9 619.9,734.5 619.9,736.6 586.7,754.5 	"/>
	<g>
		<polygon class="st5" points="444.8,288.4 284.9,372.1 219.9,341.4 382.3,255.9 		"/>
		<polygon class="st6" points="444.8,288.4 445.1,300.9 285.2,384.3 284.9,372.1 		"/>
		<polygon class="st7" points="284.9,372.1 219.9,341.4 220.1,353.7 285.2,384.3 		"/>
		<path class="st2" d="M239.3,362.6c0,0-4.6,5-4.5,9.5l-3.4,50.2l-1.6-64.3L239.3,362.6z"/>
		<path class="st3" d="M243.4,364.6c0,0-1.6,2.4-1.8,8.9l-2.8,44.9l-7.5,3.9l3.4-50.2c0,0-0.2-3.8,4.5-9.5L243.4,364.6z"/>
		<polygon class="st2" points="369.3,340.4 368.6,349.5 368.3,349.5 367.9,341.2 		"/>
		<polygon class="st3" points="376.3,336.8 376,345.5 368.6,349.5 369.3,340.4 		"/>
		<g>
			<g>
				<path class="st8" d="M407.1,287.5l-59.6,33.1l0.8-86.5c0,0,2.9-0.2,6-1.4c3.1-1.2,53.6-29.4,53.6-29.4L407.1,287.5z"/>
				<path class="st9" d="M348.3,234.2c0,0-10.9-0.2-13.2-6.6l-0.8,85.5c0,0,5.3,7.3,13.2,7.6L348.3,234.2z"/>
				<path class="st10" d="M407.9,203.5l-1.5-1l-50.8,28.8c0,0-14.1,5.4-19.3-4.2c0,0-0.4-1.4,0.4-3.7s53.2-30.9,53.2-30.9l-1.3-0.8
					l-51.9,29.8c0,0-2.9,3.2-1.6,6.1s4.1,6.5,13.2,6.6c0,0,3.8-0.1,7.5-2.1C359.5,230.1,407.9,203.5,407.9,203.5z"/>
				<path class="st11" d="M406.4,202.5c0,0-14,1.1-16.9-9.9c0,0-50.8,28-52.2,30.1c-1.4,2.2-1.6,4.8,0.7,6.6
					c2.3,1.8,6.9,5.5,17.6,1.9L406.4,202.5z"/>
				<path class="st12" d="M404.1,202.5c-0.4,0-55.7,30.3-55.7,30.3h-1.6l55.8-30.4L404.1,202.5z"/>
				<polygon class="st12" points="398.7,201.6 343.3,232.3 342.3,232 397.4,201.1 				"/>
				<polygon class="st12" points="394.5,199.7 339.6,230.6 338.7,230 393.8,199.2 				"/>
				<polygon class="st12" points="391.6,197 391,196.1 336.3,227.1 336.8,228.1 				"/>
				<path class="st12" d="M389.8,193.7l-53.3,30.5l0.7-1.4c0,0,0.6-0.6,1.5-1.2s8.1-5,8.1-5l42.5-24L389.8,193.7z"/>
			</g>
			<path class="st13" d="M347.7,296c0,0-9.6,0.8-13.2-8.6v3c0,0,3.2,7.4,13.2,7.5V296z"/>
		</g>
		<g>
			<polygon class="st14" points="369.3,338.2 369.3,338.6 307.9,342.4 307.9,342 			"/>
			<path class="st13" d="M307.9,342l61.4-3.8l-30.7-17.3L307.9,342z M352.3,335.3l-27.7,1.7l13.9-9.6L352.3,335.3z"/>
			<path class="st14" d="M351.7,335.3c0,0-13.7-7.5-13.6-7.6s0.4-0.4,0.4-0.4l13.8,7.8L351.7,335.3z"/>
			<polygon class="st14" points="338.9,327.7 325.5,336.9 324.6,337 338.5,327.4 			"/>
			<polygon class="st15" points="338.3,324.5 335.4,323 335,323.3 337.9,324.7 			"/>
			<polygon class="st15" points="334.7,327 331.8,325.5 331.4,325.8 334.3,327.2 			"/>
			<polygon class="st15" points="331.7,329 328.8,327.6 328.4,327.9 331.3,329.3 			"/>
			<polygon class="st15" points="328.8,331 325.9,329.6 325.5,329.8 328.4,331.2 			"/>
			<polygon class="st15" points="325.8,333.1 323,331.6 322.6,331.9 325.5,333.3 			"/>
			<polygon class="st15" points="322.8,335.1 320,333.7 319.6,333.9 322.4,335.3 			"/>
			<polygon class="st15" points="319.9,337.1 317,335.7 316.6,335.9 319.5,337.3 			"/>
		</g>
		<g>
			<path class="st16" d="M407.4,299.2c0,0,3.5-4.4,3.4-4.4s-5.8,0.6-5.8,0.6L407.4,299.2z"/>
			<path class="st17" d="M407.4,299.2c0,0,0.7-3.1-2.4-3.8l-26.6,15.3c0,0,3.5,1.1,1.9,4.2L407.4,299.2z"/>
			<path class="st18" d="M380.3,314.9c0,0,1.7-3.2-1.9-4.2l-1.9,1.2l2,4L380.3,314.9z"/>
			
				<ellipse transform="matrix(0.8486 -0.529 0.529 0.8486 -108.8491 247.2431)" class="st19" cx="377.6" cy="313.8" rx="1.5" ry="2.2"/>
			<path class="st20" d="M407.1,296.8l-26.8,15c0,0-0.5-0.9-1.9-1.1l26.6-15.3C405,295.4,406.7,295.9,407.1,296.8z"/>
			<polygon class="st21" points="410.8,294.8 410,295.9 409.8,295.6 409.7,295.5 409.5,295.2 409,295 409.9,294.9 			"/>
		</g>
		<g>
			<path class="st22" d="M430.2,283.5c-0.1,0.1-5,3-5,3l-7.5-4.2l4.9-2.9L430.2,283.5z"/>
			<polygon class="st23" points="430.3,289.3 425.2,292.2 425.1,286.5 430.2,283.5 			"/>
			<polygon class="st12" points="417.6,282.4 417.7,288.1 425.2,292.2 425.1,286.5 			"/>
			<path class="st24" d="M428.4,282.5l-4.9,3.1l0.1,5.7l-5.8-3.2l-0.1-5.7l4.9-2.9L428.4,282.5z"/>
			<polygon class="st25" points="423.5,285.6 417.6,282.4 417.7,288.1 423.6,291.3 			"/>
		</g>
		<g>
			<path class="st18" d="M333.1,327.6L294,348.9c0,0-35.4-22.2-36.4-21.9c-1,0.3-1,0.3-1,0.3l-0.2,6.1c0,0,0.1,1.7,2,3
				c1.9,1.4,35.5,22.5,35.5,22.5l39-21.9v-1.5L294,357.2l-35.1-21.7c0,0-1.8-2-1.4-2.8l0.2-4c0,0,0.1-0.7,1.1-0.1
				s35.3,21.9,35.3,21.9l38.9-21.6L333.1,327.6z"/>
			<polygon class="st26" points="333.1,327.6 293.9,348.9 294.1,350.6 333,329.1 			"/>
			<path class="st19" d="M293.9,348.9c0,0-35.4-22.2-36.4-21.9c-1,0.3-1,0.3-1,0.3l38.7-20.5c0,0,0.3-0.5,1.9,0.1
				s35.9,20.6,35.9,20.6L293.9,348.9z"/>
			<polygon class="st11" points="331.2,330 331,336.1 293.9,356.2 294.1,350.6 			"/>
			<path class="st23" d="M293.9,356.2l-36.5-22.7c0,0,0,0,0.1-2.7s0.1-2,1.2-2.2c1.1-0.1,35.3,21.9,35.3,21.9L293.9,356.2z"/>
			<polygon class="st26" points="332.8,335.7 331.1,334.6 331,336.1 293.9,356.2 293.9,357.4 			"/>
			<path class="st26" d="M293.9,356.2l-36.5-22.7c0,0-0.1,1.3,1.4,2.1c1.4,0.9,35.1,21.7,35.1,21.7V356.2z"/>
			<path class="st26" d="M294.1,350.6l-0.1-1.7l-29.6-18.1c0,0-0.9,0.5,0.6,1.4"/>
			<path class="st18" d="M297.2,306.9l-38.3,20.7c0,0-1.3-1-2.3-0.2l38.7-20.5C295.2,306.9,295.8,306.3,297.2,306.9z"/>
		</g>
		<g>
			<g>
				<path class="st27" d="M295.3,336.6c-15,1.2-19.7-9.4-19.7-9.4l-0.1-8.4l20.3,11.5l0.1,6.3H295.3z"/>
				<path class="st27" d="M295.7,336.6c15.1,0.7,19.3-10.1,19.3-10.1l-0.1-8.4L295,330.3l0.2,6.3L295.7,336.6L295.7,336.6z"/>
				<polygon class="st27" points="325.8,310.1 295,328.7 263.4,311.2 293.7,292.8 				"/>
				<polygon class="st28" points="325.8,312.4 294.9,331 295,328.7 325.8,310.1 				"/>
				<path class="st29" d="M295,328.7l-31.6-17.5c0,0-0.5,1.6,0,2c0.5,0.5,31.5,17.8,31.5,17.8L295,328.7z"/>
			</g>
			<path class="st13" d="M309.1,314.9l-9.6-5.5l-1,0.7l9.2,5.2l0.3,10.2l-1.6,5.2c0,0,0.7,1.1,2.4,1c1.7,0,2.3-1.2,2.3-1.2l-1.6-5.1
				L309.1,314.9z"/>
			<path class="st15" d="M308.8,331.8l-0.5-16.6l0.8-0.3l0.4,10.6l1.6,5.1C311.1,330.7,310.5,331.8,308.8,331.8z"/>
		</g>
	</g>
	<g>
		<polygon class="st5" points="247.7,465.5 87.8,549.2 22.7,518.5 185.2,433 		"/>
		<polygon class="st6" points="247.7,465.5 247.9,478 88,561.4 87.8,549.2 		"/>
		<polygon class="st7" points="87.8,549.2 22.7,518.5 23,530.8 88,561.4 		"/>
		<path class="st2" d="M42.1,539.7c0,0-4.6,5-4.5,9.5l-3.4,50.2l-1.6-64.3L42.1,539.7z"/>
		<path class="st3" d="M46.3,541.7c0,0-1.6,2.4-1.8,8.9l-2.8,44.9l-7.5,3.9l3.4-50.2c0,0-0.2-3.8,4.5-9.5L46.3,541.7z"/>
		<polygon class="st2" points="172.1,517.5 171.5,526.6 171.1,526.6 170.7,518.3 		"/>
		<polygon class="st3" points="179.1,513.9 178.8,522.6 171.5,526.6 172.1,517.5 		"/>
		<polygon class="st30" points="139.9,456.9 203.8,488.5 218.8,480.6 157.1,447.8 		"/>
		<polygon class="st31" points="203.8,488.5 204.2,512.8 219.3,505.2 218.8,480.6 		"/>
		<g>
			<path class="st31" d="M179.8,470.8c0,0,2.8-0.4,7.4,3.8c0,0,3.4,0.5,4.3,0c0,0-0.7,1.4-1.9,1.6c0,0-0.4,0.9,0.3,1.8
				c0,0-2.2-1.1-2.8-2.6c0,0-2.5,0.1-4.5-1.4C180.5,472.5,179.8,471.7,179.8,470.8z"/>
			<path class="st31" d="M182.5,471.4c0,0,1.4-0.3,2.1,0.1c0,0-1.3,0.3-0.9,0.6"/>
			<path class="st31" d="M181.2,472.9c0,0-0.2,0.8,0.2,1.2c0,0,0.2-0.9,0.4-0.7C182,473.6,181.2,472.9,181.2,472.9z"/>
			<path class="st31" d="M182.9,474.2c0,0,0.5,0.5,0.9,0.8v-0.3L182.9,474.2z"/>
		</g>
		<g>
			<path class="st31" d="M165.6,459.6c0,0,1.9-0.3,5.1,2.6c0,0,2.3,0.3,2.9,0c0,0-0.5,0.9-1.3,1.1c0,0-0.3,0.6,0.2,1.2
				c0,0-1.5-0.8-1.9-1.8c0,0-1.7,0.1-3.1-1C166.1,460.6,165.6,460.2,165.6,459.6z"/>
			<path class="st31" d="M167.5,460c0,0,1-0.2,1.4,0.1c0,0-0.9,0.2-0.6,0.4"/>
			<path class="st31" d="M166.6,461.1c0,0-0.1,0.6,0.1,0.8c0,0,0.1-0.6,0.3-0.5C167.2,461.5,166.6,461.1,166.6,461.1z"/>
			<path class="st31" d="M167.8,462c0,0,0.3,0.3,0.6,0.5v-0.2L167.8,462z"/>
		</g>
		<g>
			<path class="st32" d="M169.6,446.6L169.6,446.6c0.1,0,0.2,0.1,0.2,0.2l0.1,4c0,0.1-0.1,0.2-0.2,0.2l0,0c-0.1,0-0.2-0.1-0.2-0.2
				l-0.1-4C169.4,446.6,169.5,446.6,169.6,446.6L169.6,446.6z"/>
			<path class="st33" d="M170.8,444.5c1.2-0.5,2.4-0.1,2.6,0.4c0.2,0.5-0.7,0.9-1.9,1.4s-2.1,0.9-2.3,0.4
				C169.1,446.3,169.7,445,170.8,444.5L170.8,444.5z"/>
			<path class="st33" d="M170.8,444.7c0.7-0.3,1.5-0.1,1.6,0.2s-0.5,0.5-1.2,0.8s-1.3,0.6-1.4,0.3
				C169.8,445.8,170.1,445,170.8,444.7L170.8,444.7z"/>
			<path class="st33" d="M166.6,446.8c1.2-0.9,2.8-0.8,3.2-0.4c0.4,0.5-0.6,1.2-1.7,2.1c-1.2,0.9-2.1,1.7-2.5,1.2
				C165.1,449.3,165.4,447.7,166.6,446.8L166.6,446.8z"/>
			<path class="st33" d="M166.6,447c0.7-0.6,1.7-0.5,1.9-0.2s-0.4,0.7-1.1,1.3c-0.7,0.6-1.3,1-1.5,0.7
				C165.7,448.6,165.9,447.6,166.6,447L166.6,447z"/>
		</g>
		<g>
			<path class="st34" d="M41.6,511.9l0.1,6.2c0,0.2-0.2,0.4-0.4,0.4h-0.6c-0.2,0-0.4-0.2-0.4-0.4l-0.1-6.2H41.6L41.6,511.9
				L41.6,511.9z"/>
			<path class="st35" d="M41.1,511.9l0.1,6.1c0,0.1-0.1,0.2-0.2,0.2h-0.3c-0.1,0-0.2-0.1-0.2-0.2l-0.1-6.1H41.1L41.1,511.9
				L41.1,511.9z"/>
			<path class="st36" d="M40.7,511.9l0.1,5.9c0,0,0,0.1-0.1,0.1l0,0c0,0-0.1,0-0.1-0.1l-0.1-5.9H40.7L40.7,511.9L40.7,511.9z"/>
			<polygon class="st37" points="41,516.5 35.3,513.7 40.7,499.1 46.7,513.5 			"/>
			<polygon class="st37" points="40.6,515.1 36.2,513 40.4,502 44.9,512.9 			"/>
			<polygon class="st37" points="40.5,513.7 37.4,512.2 40.3,504.5 43.5,512.1 			"/>
		</g>
		<g>
			<path class="st34" d="M144,461.6l0.1,6.2c0,0.2-0.2,0.4-0.4,0.4h-0.6c-0.2,0-0.4-0.2-0.4-0.4l-0.1-6.2H144L144,461.6L144,461.6z"
				/>
			<path class="st35" d="M143.5,461.6l0.1,6.1c0,0.1-0.1,0.2-0.2,0.2h-0.3c-0.1,0-0.2-0.1-0.2-0.2l-0.1-6.1H143.5L143.5,461.6
				L143.5,461.6z"/>
			<path class="st36" d="M143.1,461.7l0.1,5.9c0,0,0,0.1-0.1,0.1l0,0c0,0-0.1,0-0.1-0.1l-0.1-5.9H143.1L143.1,461.7L143.1,461.7z"/>
			<polygon class="st37" points="143.4,466.2 137.7,463.4 143.1,448.8 149.1,463.2 			"/>
			<polygon class="st37" points="143,464.8 138.6,462.7 142.8,451.8 147.3,462.6 			"/>
			<polygon class="st37" points="142.9,463.4 139.8,461.9 142.7,454.2 145.9,461.8 			"/>
		</g>
		<g>
			<path class="st38" d="M151.7,470l-1,16.4c0,0,1.4,2.4,4.4-0.1l-1.6-14.7L151.7,470z"/>
			<path class="st38" d="M155.7,469.1l6,1.1c0,0,0.3,0.3,0,0.6s-2.2,1.4-3.3,1.3c-1.1-0.1-2.4-1-3.2-1.5L155.7,469.1z"/>
			<path class="st39" d="M153.6,471.4c0,0-4.4-3.1-4.2-4.7c0,0,0.7-1.1,5.8,1.2L153.6,471.4z"/>
			
				<ellipse transform="matrix(0.3533 -0.9355 0.9355 0.3533 -339.5107 448.3278)" class="st38" cx="154.5" cy="469.7" rx="1.9" ry="1"/>
			<path class="st38" d="M153.9,468.6l-0.2-9.6c0,0,0.2-0.5,0.4-0.3c0.1,0.2,1.4,2.1,1.3,4.6s-0.5,4.5-0.5,4.5L153.9,468.6z"/>
			<path class="st40" d="M151.7,470l1,0.8l0.5,16.5c0,0-2,0.3-2.4-1L151.7,470z"/>
			<path class="st38" d="M147.6,479.6c0,0,0.8-4.1,3.2-6.7l2.6-2.5l0.3,0.8C153.8,471.3,148.1,479.9,147.6,479.6z"/>
			
				<ellipse transform="matrix(0.3533 -0.9355 0.9355 0.3533 -339.4018 448.4122)" class="st40" cx="154.6" cy="469.7" rx="0.6" ry="0.3"/>
		</g>
		<g>
			<path class="st38" d="M172.6,474.7l-1,16.4c0,0,1.4,2.4,4.4-0.1l-1.6-14.7L172.6,474.7z"/>
			<path class="st38" d="M176.6,473.9l6,1.1c0,0,0.3,0.3,0,0.6s-2.2,1.4-3.3,1.3c-1.1,0-2.4-1-3.2-1.5L176.6,473.9z"/>
			<path class="st39" d="M174.5,476.2c0,0-4.4-3.1-4.2-4.7c0,0,0.7-1.1,5.8,1.2L174.5,476.2z"/>
			
				<ellipse transform="matrix(0.3533 -0.9355 0.9355 0.3533 -330.3825 470.8589)" class="st38" cx="175.4" cy="474.4" rx="1.9" ry="1"/>
			<path class="st38" d="M174.8,473.3l-0.2-9.6c0,0,0.2-0.5,0.4-0.3s1.4,2.1,1.3,4.6c-0.1,2.5-0.5,4.5-0.5,4.5L174.8,473.3z"/>
			<path class="st40" d="M172.6,474.7l1,0.8l0.5,16.5c0,0-2,0.3-2.4-1L172.6,474.7z"/>
			<path class="st38" d="M168.5,484.4c0,0,0.8-4.1,3.2-6.7l2.6-2.5l0.3,0.8C174.6,476,169,484.6,168.5,484.4z"/>
			
				<ellipse transform="matrix(0.3533 -0.9355 0.9355 0.3533 -330.2736 470.9434)" class="st40" cx="175.5" cy="474.4" rx="0.6" ry="0.3"/>
		</g>
		<g>
			<path class="st38" d="M158.1,482.7l-1,16.4c0,0,1.4,2.4,4.4-0.1l-1.6-14.7L158.1,482.7z"/>
			<path class="st38" d="M162,481.9l6,1.1c0,0,0.3,0.3,0,0.6s-2.2,1.4-3.3,1.3c-1.1,0-2.4-1-3.2-1.5L162,481.9z"/>
			<path class="st39" d="M159.9,484.2c0,0-4.4-3.1-4.2-4.7c0,0,0.7-1.1,5.8,1.2L159.9,484.2z"/>
			
				<ellipse transform="matrix(0.3533 -0.9355 0.9355 0.3533 -347.2127 462.462)" class="st38" cx="160.9" cy="482.4" rx="1.9" ry="1"/>
			<path class="st38" d="M160.3,481.3l-0.2-9.6c0,0,0.2-0.5,0.4-0.3c0.1,0.2,1.4,2.1,1.3,4.6c-0.1,2.5-0.5,4.5-0.5,4.5L160.3,481.3z
				"/>
			<path class="st40" d="M158.1,482.7l1,0.8l0.5,16.5c0,0-2,0.3-2.4-1L158.1,482.7z"/>
			<path class="st38" d="M154,492.4c0,0,0.8-4.1,3.2-6.7l2.6-2.5l0.3,0.8C160.1,484,154.4,492.6,154,492.4z"/>
			
				<ellipse transform="matrix(0.3533 -0.9355 0.9355 0.3533 -347.1038 462.5463)" class="st40" cx="161" cy="482.3" rx="0.6" ry="0.3"/>
		</g>
		<g>
			<path class="st34" d="M217.4,466.5l0.1,6.2c0,0.2-0.2,0.4-0.4,0.4h-0.6c-0.2,0-0.4-0.2-0.4-0.4l-0.1-6.2H217.4L217.4,466.5
				L217.4,466.5z"/>
			<path class="st35" d="M216.9,466.5l0.1,6.1c0,0.1-0.1,0.2-0.2,0.2h-0.3c-0.1,0-0.2-0.1-0.2-0.2l-0.1-6.1H216.9L216.9,466.5
				L216.9,466.5z"/>
			<path class="st36" d="M216.5,466.5l0.1,5.9c0,0,0,0.1-0.1,0.1l0,0c0,0-0.1,0-0.1-0.1l-0.1-5.9H216.5L216.5,466.5L216.5,466.5z"/>
			<polygon class="st37" points="216.8,471 211,468.2 216.5,453.7 222.4,468 			"/>
			<polygon class="st37" points="216.4,469.7 212,467.6 216.1,456.6 220.6,467.4 			"/>
			<polygon class="st37" points="216.2,468.2 213.2,466.8 216.1,459 219.2,466.7 			"/>
		</g>
		<g>
			<path class="st34" d="M226.9,460.5l0.1,6.2c0,0.2-0.2,0.4-0.4,0.4H226c-0.2,0-0.4-0.2-0.4-0.4l-0.1-6.2H226.9L226.9,460.5
				L226.9,460.5z"/>
			<path class="st35" d="M226.4,460.5l0.1,6.1c0,0.1-0.1,0.2-0.2,0.2H226c-0.1,0-0.2-0.1-0.2-0.2l-0.1-6.1H226.4L226.4,460.5
				L226.4,460.5z"/>
			<path class="st36" d="M226,460.5l0.1,5.9c0,0,0,0.1-0.1,0.1l0,0c0,0-0.1,0-0.1-0.1l-0.1-5.9H226L226,460.5L226,460.5z"/>
			<polygon class="st37" points="226.3,465 220.6,462.2 226,447.7 232,462 			"/>
			<polygon class="st37" points="225.9,463.7 221.5,461.6 225.7,450.6 230.2,461.4 			"/>
			<polygon class="st37" points="225.8,462.2 222.7,460.7 225.6,453 228.8,460.6 			"/>
		</g>
		<g>
			<path class="st34" d="M205.3,459.9l0.1,6.2c0,0.2-0.2,0.4-0.4,0.4h-0.6c-0.2,0-0.4-0.2-0.4-0.4l-0.1-6.2H205.3L205.3,459.9
				L205.3,459.9z"/>
			<path class="st35" d="M204.8,459.9l0.1,6.1c0,0.1-0.1,0.2-0.2,0.2h-0.3c-0.1,0-0.2-0.1-0.2-0.2l-0.1-6.1H204.8L204.8,459.9
				L204.8,459.9z"/>
			<path class="st36" d="M204.4,459.9l0.1,5.9c0,0,0,0.1-0.1,0.1l0,0c0,0-0.1,0-0.1-0.1l-0.1-5.9H204.4L204.4,459.9L204.4,459.9z"/>
			<polygon class="st37" points="204.7,464.4 199,461.6 204.4,447.1 210.4,461.4 			"/>
			<polygon class="st37" points="204.3,463.1 200,461 204.1,450 208.6,460.9 			"/>
			<polygon class="st37" points="204.2,461.7 201.1,460.2 204,452.5 207.2,460.1 			"/>
		</g>
		<g>
			<path class="st34" d="M140,500.1l0.1,6.2c0,0.2-0.2,0.4-0.4,0.4h-0.6c-0.2,0-0.4-0.2-0.4-0.4l-0.1-6.2H140L140,500.1L140,500.1z"
				/>
			<path class="st35" d="M139.5,500.1l0.1,6.1c0,0.1-0.1,0.2-0.2,0.2h-0.3c-0.1,0-0.2-0.1-0.2-0.2l-0.1-6.1H139.5L139.5,500.1
				L139.5,500.1z"/>
			<path class="st36" d="M139.1,500.1l0.1,5.9c0,0,0,0.1-0.1,0.1l0,0c0,0-0.1,0-0.1-0.1l-0.1-5.9H139.1L139.1,500.1L139.1,500.1z"/>
			<polygon class="st37" points="139.4,504.6 133.6,501.8 139.1,487.3 145,501.6 			"/>
			<polygon class="st37" points="139,503.3 134.6,501.2 138.7,490.2 143.2,501 			"/>
			<polygon class="st37" points="138.8,501.8 135.8,500.3 138.7,492.6 141.8,500.2 			"/>
		</g>
	</g>
	<g>
		<polygon class="st41" points="145.2,693.6 225.7,742.1 337.3,678.6 254.3,630.7 		"/>
		<polygon class="st42" points="145.2,693.6 145.2,698.2 225.7,746.3 225.7,742.1 		"/>
		<polygon class="st43" points="225.7,742.1 337.3,678.6 337.3,683.1 225.7,746.3 		"/>
		<polygon class="st42" points="144.2,693.9 115.9,595.4 226.7,537.2 254.3,630.7 145.2,693.6 		"/>
		<polygon class="st24" points="148,684.5 123.5,596.7 222.1,544.9 246.6,628.1 149.6,684.1 		"/>
		<polygon class="st43" points="231.7,703.4 255.9,717.9 289.3,698.9 264.4,684.5 		"/>
		<polygon class="st43" points="157.8,692.1 198.9,716.8 297.9,662.6 254.3,636.4 		"/>
	</g>
	<polygon class="st8" points="123.5,596.7 124.7,601.1 223.4,549.3 222.1,544.9 	"/>
	<polygon class="st12" points="124.7,601.1 137,645.2 235.6,590.6 223.4,549.3 	"/>
	<polygon class="st8" points="152.8,645.2 153.4,647.2 180.3,632.5 179.5,630.4 	"/>
	<polygon class="st41" points="327.3,626.6 374.9,654 403.4,637.5 355.8,610.1 	"/>
	<polygon class="st42" points="327.3,626.6 327.3,628.9 374.9,656.5 374.9,654 	"/>
	<polygon class="st43" points="374.9,654 403.4,637.5 403.4,640.3 374.9,656.5 	"/>
	<polygon class="st12" points="332.5,626.6 371.9,649.4 395.2,635.7 356.6,613.2 	"/>
	<polygon class="st43" points="379.7,645.7 383.3,647.7 391.4,643.1 388,641.1 	"/>
	<polygon class="st8" points="332.5,626.6 336.1,628.7 360.3,615.3 356.6,613.2 	"/>
	<polygon class="st24" points="354.1,639.1 377.8,625.5 395.2,635.7 371.9,649.4 	"/>
	<g>
		<polygon class="st41" points="345.1,524.7 368.6,592.6 407,570.3 385.1,501.6 		"/>
		<polygon class="st43" points="368.6,592.6 365.7,590.9 343.5,525.6 345.1,524.7 		"/>
		<polygon class="st43" points="356.6,564 344.7,578.8 346.4,579.8 357.2,565.9 		"/>
		<polygon class="st42" points="346.4,579.8 359.2,571.9 357.2,565.9 		"/>
		<polygon class="st43" points="343.5,525.6 342.7,523.4 384.4,499.8 385.1,501.6 		"/>
	</g>
	<polygon class="st24" points="348.8,525.6 369.7,587.7 403.2,567.7 383.2,505.8 	"/>
	<polygon class="st24" points="383.2,505.8 369.7,587.7 403.2,567.7 	"/>
	<polygon class="st44" points="415.9,533.9 482.1,572.1 526.3,546.6 460,508.4 	"/>
	<polygon class="st45" points="415.9,533.9 415.9,546.6 415.9,551.8 482.1,590.1 482.1,572.1 	"/>
	<polygon class="st12" points="482.1,572.1 526.3,546.6 526.3,564.6 482.1,590.1 	"/>
	<polygon class="st45" points="482.1,572.1 526.3,546.6 526.3,547.9 482.1,573.4 	"/>
	<polygon class="st45" points="482.1,575.1 526.3,549.6 526.3,550.9 482.1,576.4 	"/>
	<polygon class="st45" points="482.1,577.9 526.3,552.4 526.3,553.8 482.1,579.3 	"/>
	<polygon class="st45" points="482.1,580.8 526.3,555.3 526.3,556.6 482.1,582.1 	"/>
	<polygon class="st45" points="482.1,583.8 526.3,558.3 526.3,559.6 482.1,585.1 	"/>
	<polygon class="st45" points="482.1,586.6 526.3,561.1 526.3,562.4 482.1,587.9 	"/>
	<polygon class="st45" points="482.1,588.8 526.3,563.3 526.3,564.6 482.1,590.1 	"/>
	<polygon class="st45" points="436.1,533.4 439.8,535.5 463.9,521.5 460.2,519.4 	"/>
	<polygon class="st45" points="449,534.2 451.2,535.5 465.2,527.3 463.1,526.1 	"/>
	<g>
		<path class="st46" d="M124.9,465.8c-2.3,1.4-6,1.4-8.3,0.1s-2.4-3.4-0.1-4.8c2.3-1.4,6-1.4,8.3-0.1
			C127.1,462.3,127.2,464.5,124.9,465.8z"/>
		<path class="st47" d="M121.3,464.3c-1.4,0.7-3.7,1-5.2,0.4s-1.6-1.9-0.1-2.6c1.4-0.7,3.8-0.7,5.3-0.1
			C122.8,462.6,122.8,463.7,121.3,464.3z"/>
		<path class="st48" d="M118.3,463.9c-0.6,0.4-1.5,0.4-2,0c-0.6-0.3-0.6-0.9,0-1.3c0.6-0.4,1.5-0.4,2,0
			C118.8,462.9,118.8,463.5,118.3,463.9z"/>
		<polygon class="st24" points="115.6,473.6 140.8,487.6 120,500.1 94.8,486.1 		"/>
		<polygon class="st49" points="127,479.9 140.8,487.6 121.5,499.2 120,499.2 119.6,480.1 		"/>
		
			<linearGradient id="SVGID_1_" gradientUnits="userSpaceOnUse" x1="109.1012" y1="207.9909" x2="110.6768" y2="205.2618" gradientTransform="matrix(0.9998 -1.743586e-02 1.743586e-02 0.9998 -2.7472 273.1979)">
			<stop  offset="0" style="stop-color:#E4DFD8"/>
			<stop  offset="0.54" style="stop-color:#D9D3CD"/>
			<stop  offset="1" style="stop-color:#BEB9B1"/>
		</linearGradient>
		<polygon class="st50" points="95.2,467.8 119.7,481.3 120,499.2 95.5,485.6 		"/>
		<polygon class="st51" points="139,469 129.1,464.5 119.6,480.6 120,499 139.3,487.4 		"/>
		<polygon class="st52" points="105,446.2 101.8,448.1 102,457.8 105.2,455.9 		"/>
		<polygon class="st53" points="98.5,446.3 101.8,448.1 102.1,462.9 98.8,461.1 		"/>
		<polygon class="st24" points="98.5,446.3 101.8,448.1 105,446.2 101.7,444.4 		"/>
		
			<linearGradient id="SVGID_2_" gradientUnits="userSpaceOnUse" x1="100.6805" y1="173.7841" x2="102.0212" y2="175.5003" gradientTransform="matrix(0.9998 -1.743586e-02 1.743586e-02 0.9998 -2.7472 273.1979)">
			<stop  offset="0" style="stop-color:#CFCAC3"/>
			<stop  offset="1" style="stop-color:#A19B8E"/>
		</linearGradient>
		<polygon class="st54" points="99.9,446.3 101.8,447.3 103.7,446.2 101.8,445.1 		"/>
		<polygon class="st53" points="101.8,447.3 103.7,446.2 101.8,445.1 		"/>
		
			<linearGradient id="SVGID_3_" gradientUnits="userSpaceOnUse" x1="102.0531" y1="174.0654" x2="101.4051" y2="178.1563" gradientTransform="matrix(0.9998 -1.743586e-02 1.743586e-02 0.9998 -2.7472 273.1979)">
			<stop  offset="0" style="stop-color:#CFCAC3"/>
			<stop  offset="1" style="stop-color:#A19B8E"/>
		</linearGradient>
		<polygon class="st55" points="101.8,447.3 102.7,446.8 101.8,445.1 		"/>
		<g>
			<path class="st51" d="M139,469l-9.5-4.3c-0.2-0.1-0.5,0-0.6,0.2l-9.3,15.7l0.3,16.1l19.3-11.6L139,469z"/>
			<path class="st56" d="M139,469.1c-0.1-0.1-9.3-4.3-9.4-4.3c-0.2-0.1-0.5,0-0.6,0.2s-9.1,15.5-9.2,15.7c0,0.5,0.3,15.3,0.3,15.8
				c0.3-0.2,19-11.4,19.3-11.6C139.2,484.4,139,469.6,139,469.1z"/>
			<path class="st57" d="M139,469.1c-0.3-0.1-9.1-4.2-9.4-4.3c-0.2-0.1-0.5,0-0.7,0.2c-0.3,0.5-8.9,15.2-9.2,15.7
				c0,1,0.3,14.5,0.3,15.6c0.6-0.4,18.7-11.2,19.3-11.6C139.2,483.7,139,470.2,139,469.1z"/>
			<path class="st58" d="M139,469.2c-0.4-0.2-9-4.1-9.4-4.3c-0.3-0.1-0.6,0-0.7,0.2c-0.4,0.7-8.8,15-9.2,15.7
				c0,1.6,0.2,13.7,0.3,15.3c0.9-0.6,18.4-11,19.3-11.6C139.2,483,139,470.8,139,469.2z"/>
			<path class="st59" d="M139,469.3c-0.6-0.3-8.8-4-9.4-4.3c-0.3-0.1-0.6,0-0.7,0.2c-0.6,1-8.6,14.7-9.2,15.7c0,2.1,0.2,12.9,0.3,15
				c1.2-0.7,18.1-10.9,19.3-11.6C139.2,482.3,139,471.4,139,469.3z"/>
			<path class="st60" d="M139,469.4c-0.7-0.3-8.6-4-9.3-4.3c-0.3-0.1-0.6,0-0.8,0.2c-0.7,1.2-8.5,14.4-9.2,15.6
				c0,2.6,0.2,12.2,0.3,14.7c1.5-0.9,17.8-10.7,19.3-11.6C139.2,481.6,139,472,139,469.4z"/>
			<path class="st61" d="M139,469.5c-0.9-0.4-8.5-3.9-9.3-4.3c-0.3-0.1-0.7,0-0.8,0.3c-0.9,1.5-8.3,14.2-9.2,15.6
				c0.1,3.1,0.2,11.4,0.3,14.5c1.8-1.1,17.5-10.5,19.3-11.6C139.2,480.9,139,472.6,139,469.5z"/>
			<path class="st62" d="M139,469.6c-1-0.5-8.3-3.8-9.3-4.3c-0.3-0.1-0.7,0-0.9,0.3c-1,1.7-8.2,13.9-9.2,15.6
				c0.1,3.6,0.2,10.6,0.2,14.2c2.1-1.3,17.2-10.3,19.3-11.6C139.2,480.2,139,473.2,139,469.6z"/>
			<path class="st63" d="M139,469.7c-1.1-0.5-8.1-3.7-9.3-4.2c-0.3-0.2-0.7,0-0.9,0.3c-1.1,1.9-8,13.6-9.2,15.6
				c0.1,4.1,0.2,9.8,0.2,13.9c2.5-1.5,16.9-10.1,19.3-11.6C139.1,479.5,139,473.8,139,469.7z"/>
			<path class="st64" d="M139,469.8c-1.3-0.6-8-3.6-9.2-4.2c-0.3-0.2-0.7,0-0.9,0.3c-1.3,2.2-7.9,13.4-9.1,15.5
				c0.1,4.7,0.2,9,0.2,13.7c2.8-1.7,16.5-9.9,19.3-11.6C139.1,478.8,139.1,474.4,139,469.8z"/>
			<path class="st65" d="M139,469.9c-1.4-0.7-7.8-3.6-9.2-4.2c-0.4-0.2-0.8,0-1,0.3c-1.4,2.4-7.7,13.1-9.1,15.5
				c0.1,5.2,0.1,8.2,0.2,13.4c3.1-1.8,16.2-9.8,19.3-11.6C139.1,478.1,139.1,475,139,469.9z"/>
			<path class="st66" d="M139,470c-1.6-0.7-7.6-3.5-9.2-4.2c-0.4-0.2-0.8,0-1,0.3c-1.6,2.7-7.5,12.8-9.1,15.5
				c0.1,5.7,0.1,7.4,0.2,13.1c3.4-2,15.9-9.6,19.3-11.6C139.1,477.4,139.1,475.6,139,470z"/>
			<path class="st67" d="M139,470c-1.7-0.8-7.5-3.4-9.2-4.2c-0.4-0.2-0.8,0-1,0.3c-1.7,2.9-7.4,12.6-9.1,15.5
				c0.1,6.2,0.1,6.6,0.2,12.9c3.7-2.2,15.6-9.4,19.3-11.6C139.1,476.7,139.1,476.3,139,470z"/>
			<path class="st68" d="M139,470.1c-1.8-0.8-7.3-3.3-9.1-4.2c-0.4-0.2-0.9,0-1.1,0.3c-1.9,3.2-7.2,12.3-9.1,15.4
				c0.1,6.7,0.1,5.9,0.2,12.6c4-2.4,15.3-9.2,19.3-11.6C139.1,476,139.1,476.9,139,470.1z"/>
			<path class="st69" d="M139,470.2c-2-0.9-7.1-3.3-9.1-4.2c-0.4-0.2-0.9,0-1.1,0.4c-2,3.4-7.1,12-9.1,15.4
				c0.1,7.2,0.1,5.1,0.2,12.3c4.3-2.6,15-9,19.3-11.6C139.1,475.3,139.1,477.5,139,470.2z"/>
			<path class="st70" d="M139,470.3c-2.1-1-7-3.2-9.1-4.2c-0.4-0.2-0.9,0-1.2,0.4c-2.1,3.6-6.9,11.8-9.1,15.4
				c0.1,7.8,0.1,4.3,0.2,12c4.6-2.8,14.7-8.8,19.3-11.6C139.1,474.6,139.1,478.1,139,470.3z"/>
			<path class="st71" d="M139,470.4c-2.3-1-6.8-3.1-9.1-4.2c-0.4-0.2-1,0-1.2,0.4c-2.3,3.9-6.8,11.5-9,15.4
				c0.1,8.3,0.1,3.5,0.2,11.8c4.9-2.9,14.4-8.7,19.3-11.6C139,473.9,139.1,478.7,139,470.4z"/>
			<path class="st72" d="M139,470.5c-2.4-1.1-6.6-3-9-4.1c-0.5-0.2-1,0-1.2,0.4c-2.4,4.1-6.6,11.2-9,15.4c0.2,8.8,0,2.7,0.2,11.5
				c5.2-3.1,14.1-8.5,19.3-11.6C139,473.2,139.1,479.3,139,470.5z"/>
			<path class="st73" d="M139,470.6c-2.6-1.2-6.5-3-9-4.1c-0.5-0.2-1,0-1.3,0.4c-2.6,4.4-6.5,11-9,15.3c0.2,9.3,0,1.9,0.2,11.2
				c5.5-3.3,13.8-8.3,19.3-11.6C139,472.5,139.1,479.9,139,470.6z"/>
			<path class="st74" d="M139,470.7c-2.7-1.2-6.3-2.9-9-4.1c-0.5-0.2-1,0-1.3,0.4c-2.7,4.6-6.3,10.7-9,15.3c0.2,9.8,0,1.1,0.2,11
				c5.8-3.5,13.5-8.1,19.3-11.6C139,471.8,139.2,480.5,139,470.7z"/>
			<path class="st75" d="M139,470.8c-2.8-1.3-6.1-2.8-9-4.1c-0.5-0.2-1.1,0-1.3,0.4c-2.9,4.8-6.1,10.4-9,15.3
				c0.2,10.4,0,0.3,0.2,10.7c6.1-3.7,13.2-7.9,19.3-11.6C139,471.1,139.2,481.1,139,470.8z"/>
			<path class="st76" d="M139,470.9c-3-1.4-6-2.7-8.9-4.1c-0.5-0.2-1.1,0-1.4,0.4c-3,5.1-6,10.2-9,15.3c0.2,10.9,0-0.4,0.2,10.4
				c6.4-3.9,12.9-7.7,19.3-11.6C139,470.4,139.2,481.7,139,470.9z"/>
			<path class="st77" d="M139,471c-2.8-1.3-6.1-2.8-8.9-4.1c-0.5-0.2-1.2,0-1.5,0.5c-2.9,4.8-6.1,10.4-9,15.2
				c0.2,10.4,0,0.2,0.2,10.5c6.1-3.7,13.2-7.9,19.3-11.6C139,471.2,139.2,481.4,139,471z"/>
			<path class="st77" d="M139,471.2c-2.7-1.2-6.2-2.8-8.8-4.1c-0.6-0.3-1.2-0.1-1.5,0.5c-2.7,4.6-6.2,10.6-8.9,15.2
				c0.2,9.8,0,0.8,0.2,10.7c5.8-3.5,13.5-8.1,19.3-11.6C139,472,139.2,481,139,471.2z"/>
			<path class="st78" d="M139,471.4c-2.6-1.2-6.2-2.9-8.8-4c-0.6-0.3-1.3-0.1-1.6,0.5c-2.6,4.4-6.3,10.8-8.9,15.1
				c0.2,9.3,0,1.5,0.2,10.8c5.5-3.3,13.8-8.3,19.3-11.6C139,472.9,139.2,480.7,139,471.4z"/>
			<path class="st79" d="M139,471.6c-2.4-1.1-6.3-2.9-8.8-4c-0.6-0.3-1.3-0.1-1.7,0.5c-2.4,4.1-6.4,11-8.9,15.1
				c0.2,8.8,0,2.1,0.2,10.9c5.2-3.1,14.1-8.5,19.3-11.6C139,473.7,139.2,480.4,139,471.6z"/>
			<path class="st80" d="M139,471.7c-2.3-1-6.4-2.9-8.7-4c-0.6-0.3-1.4-0.1-1.8,0.6c-2.3,3.9-6.6,11.2-8.8,15
				c0.1,8.3,0,2.8,0.2,11.1c4.9-2.9,14.4-8.7,19.3-11.6C139.1,474.5,139.1,480,139,471.7z"/>
			<path class="st81" d="M139,471.9c-2.1-1-6.5-3-8.7-4c-0.7-0.3-1.5-0.1-1.8,0.6c-2.1,3.6-6.7,11.4-8.8,15
				c0.1,7.8,0.1,3.4,0.2,11.2c4.6-2.8,14.7-8.8,19.3-11.6C139.1,475.3,139.1,479.7,139,471.9z"/>
			<path class="st82" d="M139,472.1c-2-0.9-6.6-3-8.6-3.9c-0.7-0.3-1.5-0.1-1.9,0.6c-2,3.4-6.8,11.6-8.8,14.9
				c0.1,7.2,0.1,4.1,0.2,11.3c4.3-2.6,15-9,19.3-11.6C139.1,476.1,139.1,479.3,139,472.1z"/>
			<path class="st83" d="M139,472.2c-1.8-0.8-6.7-3.1-8.6-3.9c-0.7-0.3-1.6-0.1-2,0.6c-1.9,3.2-6.9,11.7-8.8,14.9
				c0.1,6.7,0.1,4.7,0.2,11.4c4-2.4,15.3-9.2,19.3-11.6C139.1,477,139.1,479,139,472.2z"/>
			<path class="st84" d="M139,472.4c-1.7-0.8-6.8-3.1-8.5-3.9c-0.8-0.3-1.6-0.1-2.1,0.6c-1.7,2.9-7,11.9-8.7,14.9
				c0.1,6.2,0.1,5.4,0.2,11.6c3.7-2.2,15.6-9.4,19.3-11.6C139.1,477.8,139.1,478.6,139,472.4z"/>
			<path class="st85" d="M139,472.6c-1.6-0.7-6.9-3.2-8.5-3.9c-0.8-0.4-1.7-0.1-2.1,0.7c-1.6,2.7-7.1,12.1-8.7,14.8
				c0.1,5.7,0.1,6,0.2,11.7c3.4-2,15.9-9.6,19.3-11.6C139.1,478.6,139.1,478.3,139,472.6z"/>
			<path class="st86" d="M139,472.8c-1.4-0.7-7-3.2-8.4-3.9c-0.8-0.4-1.8-0.1-2.2,0.7c-1.4,2.4-7.3,12.3-8.7,14.8
				c0.1,5.2,0.1,6.6,0.2,11.8c3.1-1.8,16.2-9.8,19.3-11.6C139.1,479.4,139.1,477.9,139,472.8z"/>
			<path class="st87" d="M139,472.9c-1.3-0.6-7.1-3.2-8.4-3.8c-0.8-0.4-1.8-0.1-2.3,0.7c-1.3,2.2-7.4,12.5-8.7,14.7
				c0.1,4.7,0.1,7.3,0.2,11.9c2.8-1.7,16.5-9.9,19.3-11.6C139.2,480.2,139.1,477.6,139,472.9z"/>
			<path class="st88" d="M139,473.1c-1.1-0.5-7.2-3.3-8.3-3.8c-0.9-0.4-1.9-0.1-2.4,0.7c-1.1,1.9-7.5,12.7-8.6,14.7
				c0.1,4.1,0.1,7.9,0.2,12.1c2.5-1.5,16.9-10.1,19.3-11.6C139.2,481,139.1,477.3,139,473.1z"/>
			<path class="st89" d="M139,473.3c-1-0.5-7.3-3.3-8.3-3.8c-0.9-0.4-1.9-0.1-2.4,0.8c-1,1.7-7.6,12.9-8.6,14.6
				c0.1,3.6,0.1,8.6,0.2,12.2c2.1-1.3,17.2-10.3,19.3-11.6C139.2,481.9,139.1,476.9,139,473.3z"/>
			<path class="st90" d="M139,473.5c-0.9-0.4-7.4-3.4-8.2-3.8c-0.9-0.4-2-0.1-2.5,0.8c-0.9,1.5-7.7,13.1-8.6,14.6
				c0.1,3.1,0.2,9.2,0.2,12.3c1.8-1.1,17.5-10.5,19.3-11.6C139.2,482.7,139.1,476.6,139,473.5z"/>
			<path class="st91" d="M139,473.6c-0.7-0.3-7.5-3.4-8.2-3.7c-0.9-0.4-2.1-0.1-2.6,0.8c-0.7,1.2-7.8,13.3-8.5,14.5
				c0,2.6,0.2,9.9,0.2,12.5c1.5-0.9,17.8-10.7,19.3-11.6C139.2,483.5,139.1,476.2,139,473.6z"/>
			<path class="st92" d="M139,473.8c-0.6-0.3-7.6-3.5-8.1-3.7c-1-0.4-2.1-0.1-2.7,0.8c-0.6,1-7.9,13.5-8.5,14.5
				c0,2.1,0.2,10.5,0.2,12.6c1.2-0.7,18.1-10.9,19.3-11.6C139.2,484.3,139.1,475.9,139,473.8z"/>
			<path class="st93" d="M139,474c-0.4-0.2-7.6-3.5-8.1-3.7c-1-0.5-2.2-0.1-2.7,0.9c-0.4,0.7-8.1,13.7-8.5,14.4
				c0,1.6,0.2,11.2,0.2,12.7c0.9-0.6,18.4-11,19.3-11.6C139.2,485.1,139.1,475.5,139,474z"/>
			<path class="st94" d="M139,474.2c-0.3-0.1-7.7-3.5-8-3.7c-1-0.5-2.2-0.1-2.8,0.9c-0.3,0.5-8.2,13.9-8.5,14.4
				c0,1,0.2,11.8,0.2,12.8c0.6-0.4,18.7-11.2,19.3-11.6C139.3,486,139.1,475.2,139,474.2z"/>
			<path class="st94" d="M139,474.3c-0.1-0.1-7.8-3.6-8-3.7c-1.1-0.5-2.3-0.1-2.9,0.9c-0.1,0.2-8.3,14.1-8.4,14.3
				c0,0.5,0.2,12.4,0.2,13c0.3-0.2,19-11.4,19.3-11.6C139.3,486.8,139.1,474.9,139,474.3z"/>
			<path class="st52" d="M139.1,474.5l-7.9-3.6c-1.1-0.5-2.4-0.1-3,0.9l-8.4,14.3l0.2,13.1l19.3-11.6L139.1,474.5z"/>
		</g>
		<polygon class="st95" points="140.5,469.2 130,464.3 119.8,481.6 106.7,474.3 93.7,467.1 103.8,449.8 114.3,454.7 127.4,461.9 		
			"/>
		<polygon class="st96" points="130,464.3 119.8,481.6 106.7,474.3 93.7,467.1 103.8,449.8 		"/>
		<polygon class="st97" points="140.5,469.2 130,464.3 130,464.9 140.5,469.8 		"/>
		<polygon class="st97" points="119.8,481.6 130,464.3 130,464.9 119.8,482.2 		"/>
		<path class="st97" d="M130,464.2c0.2-0.1,0.4-0.1,0.5-0.1c0.1,0.1,0.2,0.2,0.2,0.5L130,465l-0.7,0.4c0-0.2,0.1-0.5,0.2-0.7
			C129.6,464.5,129.8,464.3,130,464.2z"/>
		<polygon class="st98" points="119.8,481.6 93.7,467.1 93.7,467.7 119.8,482.2 		"/>
		<polygon class="st99" points="119.8,481.6 93.7,467.1 93.7,467.3 119.8,481.8 		"/>
		
			<linearGradient id="SVGID_4_" gradientUnits="userSpaceOnUse" x1="108.3826" y1="219.0184" x2="109.1086" y2="217.7607" gradientTransform="matrix(0.9998 -1.743586e-02 1.743586e-02 0.9998 -2.7472 273.1979)">
			<stop  offset="0" style="stop-color:#E4DFD8"/>
			<stop  offset="0.54" style="stop-color:#D9D3CD"/>
			<stop  offset="1" style="stop-color:#BEB9B1"/>
		</linearGradient>
		<polygon class="st100" points="94.8,486.1 120,500.1 120,501.8 94.8,487.8 		"/>
		<polygon class="st52" points="140.8,487.6 120,500.1 120,501.8 140.9,489.3 		"/>
		<polygon class="st101" points="108.9,479.3 109.1,490 115.2,493.4 115,482.7 		"/>
		
			<linearGradient id="SVGID_5_" gradientUnits="userSpaceOnUse" x1="108.894" y1="220.7254" x2="108.894" y2="205.2551" gradientTransform="matrix(0.9998 -1.743586e-02 1.743586e-02 0.9998 -2.7472 273.1979)">
			<stop  offset="0" style="stop-color:#DBD6CF"/>
			<stop  offset="1" style="stop-color:#B3B0A2"/>
		</linearGradient>
		<polygon class="st102" points="109.5,480.4 109.7,489.7 110.2,489.4 110,480.7 		"/>
		<polygon class="st24" points="114.5,492.4 109.7,489.7 110.2,489.4 114.5,491.8 		"/>
		<polygon class="st103" points="109.7,489.7 110.2,489.4 110.7,489.6 		"/>
		<polygon class="st24" points="115.8,482.3 115,482.7 108.9,479.4 109.7,478.9 		"/>
		<polygon class="st103" points="115.8,482.3 115,482.7 115.2,493.4 116,492.9 		"/>
		<polygon class="st104" points="114.5,491.8 110.2,489.4 110,480.7 114.4,483.1 		"/>
		<polygon class="st24" points="114.4,486.6 109.8,484.1 109.8,484.1 110.1,483.9 114.4,486.3 		"/>
		<polygon class="st103" points="110.1,484.2 109.8,484.1 109.8,484.1 110,484 110.1,483.9 110.6,484.2 		"/>
		<polygon class="st49" points="109.8,484.1 109.8,484.6 114.4,487.1 114.4,486.6 		"/>
		<polygon class="st101" points="98,472.7 98.2,483.4 104.3,486.7 104.1,476 		"/>
		
			<linearGradient id="SVGID_6_" gradientUnits="userSpaceOnUse" x1="98.1378" y1="213.8783" x2="98.1378" y2="198.4079" gradientTransform="matrix(0.9998 -1.743586e-02 1.743586e-02 0.9998 -2.7472 273.1979)">
			<stop  offset="0" style="stop-color:#DBD6CF"/>
			<stop  offset="1" style="stop-color:#B3B0A2"/>
		</linearGradient>
		<polygon class="st105" points="98.6,473.7 98.8,483 99.3,482.7 99.2,474 		"/>
		<polygon class="st24" points="103.7,485.7 98.8,483 99.3,482.7 103.7,485.1 		"/>
		<polygon class="st103" points="98.8,483 99.3,482.7 99.8,483 		"/>
		<polygon class="st24" points="104.9,475.6 104.1,476.1 98,472.7 98.8,472.2 		"/>
		<polygon class="st103" points="104.9,475.6 104.1,476.1 104.3,486.7 105.1,486.3 		"/>
		<polygon class="st104" points="103.7,485.1 99.3,482.7 99.2,474 103.5,476.4 		"/>
		<polygon class="st24" points="103.6,480 99,477.4 99,477.4 99.2,477.3 103.6,479.7 		"/>
		<polygon class="st103" points="99.2,477.6 99,477.4 99,477.4 99.1,477.3 99.2,477.3 99.7,477.6 		"/>
		<polygon class="st49" points="99,477.4 99,477.9 103.6,480.5 103.6,480 		"/>
	</g>
	<g>
		<path class="st46" d="M85.5,486.8c-2.3,1.4-6,1.4-8.3,0.1s-2.4-3.4-0.1-4.8c2.3-1.4,6-1.4,8.3-0.1
			C87.7,483.3,87.8,485.5,85.5,486.8z"/>
		<path class="st47" d="M81.9,485.3c-1.4,0.7-3.7,1-5.2,0.4s-1.6-1.9-0.1-2.6c1.4-0.7,3.8-0.7,5.3-0.1
			C83.3,483.6,83.4,484.7,81.9,485.3z"/>
		<path class="st48" d="M78.9,484.9c-0.6,0.4-1.5,0.4-2,0c-0.6-0.3-0.6-0.9,0-1.3c0.6-0.4,1.5-0.4,2,0
			C79.4,483.9,79.4,484.5,78.9,484.9z"/>
		<polygon class="st24" points="76.2,494.6 101.4,508.6 80.6,521.1 55.3,507.1 		"/>
		<polygon class="st49" points="87.6,500.9 101.4,508.6 82.1,520.2 80.6,520.2 80.2,501.1 		"/>
		
			<linearGradient id="SVGID_7_" gradientUnits="userSpaceOnUse" x1="69.3407" y1="228.2988" x2="70.9163" y2="225.5697" gradientTransform="matrix(0.9998 -1.743586e-02 1.743586e-02 0.9998 -2.7472 273.1979)">
			<stop  offset="0" style="stop-color:#E4DFD8"/>
			<stop  offset="0.54" style="stop-color:#D9D3CD"/>
			<stop  offset="1" style="stop-color:#BEB9B1"/>
		</linearGradient>
		<polygon class="st106" points="55.8,488.8 80.3,502.3 80.6,520.2 56.1,506.6 		"/>
		<polygon class="st51" points="99.5,490 89.7,485.4 80.2,501.6 80.6,520 99.9,508.4 		"/>
		<polygon class="st52" points="65.6,467.2 62.4,469.1 62.6,478.8 65.8,476.9 		"/>
		<polygon class="st53" points="59.1,467.3 62.4,469.1 62.7,483.9 59.4,482.1 		"/>
		<polygon class="st24" points="59.1,467.3 62.4,469.1 65.6,467.2 62.3,465.4 		"/>
		
			<linearGradient id="SVGID_8_" gradientUnits="userSpaceOnUse" x1="60.9133" y1="194.0884" x2="62.2541" y2="195.8045" gradientTransform="matrix(0.9998 -1.743586e-02 1.743586e-02 0.9998 -2.7472 273.1979)">
			<stop  offset="0" style="stop-color:#CFCAC3"/>
			<stop  offset="1" style="stop-color:#A19B8E"/>
		</linearGradient>
		<polygon class="st107" points="60.5,467.3 62.4,468.3 64.3,467.2 62.4,466.1 		"/>
		<polygon class="st53" points="62.4,468.3 64.3,467.2 62.4,466.1 		"/>
		
			<linearGradient id="SVGID_9_" gradientUnits="userSpaceOnUse" x1="62.2919" y1="194.3704" x2="61.6439" y2="198.4613" gradientTransform="matrix(0.9998 -1.743586e-02 1.743586e-02 0.9998 -2.7472 273.1979)">
			<stop  offset="0" style="stop-color:#CFCAC3"/>
			<stop  offset="1" style="stop-color:#A19B8E"/>
		</linearGradient>
		<polygon class="st108" points="62.4,468.3 63.3,467.8 62.4,466.1 		"/>
		<g>
			<path class="st51" d="M99.5,490l-9.5-4.3c-0.2-0.1-0.5,0-0.6,0.2l-9.3,15.7l0.3,16.1l19.3-11.6L99.5,490z"/>
			<path class="st56" d="M99.5,490c-0.1-0.1-9.3-4.3-9.4-4.3c-0.2-0.1-0.5,0-0.6,0.2s-9.1,15.5-9.2,15.7c0,0.5,0.3,15.3,0.3,15.8
				c0.3-0.2,19-11.4,19.3-11.6C99.8,505.4,99.6,490.6,99.5,490z"/>
			<path class="st57" d="M99.6,490.1c-0.3-0.1-9.1-4.2-9.4-4.3c-0.2-0.1-0.5,0-0.7,0.2c-0.3,0.5-8.9,15.2-9.2,15.7
				c0,1,0.3,14.5,0.3,15.6c0.6-0.4,18.7-11.2,19.3-11.6C99.8,504.7,99.6,491.2,99.6,490.1z"/>
			<path class="st58" d="M99.6,490.2c-0.4-0.2-9-4.1-9.4-4.3c-0.3-0.1-0.6,0-0.7,0.2c-0.4,0.7-8.8,15-9.2,15.7
				c0,1.6,0.2,13.7,0.3,15.3c0.9-0.6,18.4-11,19.3-11.6C99.8,504,99.6,491.8,99.6,490.2z"/>
			<path class="st59" d="M99.6,490.3c-0.6-0.3-8.8-4-9.4-4.3c-0.3-0.1-0.6,0-0.7,0.2c-0.6,1-8.6,14.7-9.2,15.7
				c0,2.1,0.2,12.9,0.3,15c1.2-0.7,18.1-10.9,19.3-11.6C99.8,503.3,99.6,492.4,99.6,490.3z"/>
			<path class="st60" d="M99.6,490.4c-0.7-0.3-8.6-4-9.3-4.3c-0.3-0.1-0.6,0-0.8,0.2c-0.7,1.2-8.5,14.4-9.2,15.6
				c0,2.6,0.2,12.2,0.3,14.7c1.5-0.9,17.8-10.7,19.3-11.6C99.8,502.6,99.6,493,99.6,490.4z"/>
			<path class="st61" d="M99.6,490.5c-0.9-0.4-8.5-3.9-9.3-4.3c-0.3-0.1-0.7,0-0.8,0.3c-0.9,1.5-8.3,14.2-9.2,15.6
				c0.1,3.1,0.2,11.4,0.3,14.5c1.8-1.1,17.5-10.5,19.3-11.6C99.8,501.9,99.6,493.6,99.6,490.5z"/>
			<path class="st62" d="M99.6,490.6c-1-0.5-8.3-3.8-9.3-4.3c-0.3-0.1-0.7,0-0.9,0.3c-1,1.7-8.2,13.9-9.2,15.6
				c0.1,3.6,0.2,10.6,0.2,14.2c2.1-1.3,17.2-10.3,19.3-11.6C99.7,501.2,99.6,494.2,99.6,490.6z"/>
			<path class="st63" d="M99.6,490.7c-1.1-0.5-8.1-3.7-9.3-4.2c-0.3-0.2-0.7,0-0.9,0.3c-1.1,1.9-8,13.6-9.2,15.6
				c0.1,4.1,0.2,9.8,0.2,13.9c2.5-1.5,16.9-10.1,19.3-11.6C99.7,500.5,99.6,494.8,99.6,490.7z"/>
			<path class="st64" d="M99.6,490.8c-1.3-0.6-8-3.6-9.2-4.2c-0.3-0.2-0.7,0-0.9,0.3c-1.3,2.2-7.9,13.4-9.1,15.5
				c0.1,4.7,0.2,9,0.2,13.7c2.8-1.7,16.5-9.9,19.3-11.6C99.7,499.8,99.6,495.4,99.6,490.8z"/>
			<path class="st65" d="M99.6,490.9c-1.4-0.7-7.8-3.6-9.2-4.2c-0.4-0.2-0.8,0-1,0.3c-1.4,2.4-7.7,13.1-9.1,15.5
				c0.1,5.2,0.1,8.2,0.2,13.4c3.1-1.8,16.2-9.8,19.3-11.6C99.7,499.1,99.7,496,99.6,490.9z"/>
			<path class="st66" d="M99.6,490.9c-1.6-0.7-7.6-3.5-9.2-4.2c-0.4-0.2-0.8,0-1,0.3c-1.6,2.7-7.5,12.8-9.1,15.5
				c0.1,5.7,0.1,7.4,0.2,13.1c3.4-2,15.9-9.6,19.3-11.6C99.7,498.4,99.7,496.6,99.6,490.9z"/>
			<path class="st67" d="M99.6,491c-1.7-0.8-7.5-3.4-9.2-4.2c-0.4-0.2-0.8,0-1,0.3c-1.7,2.9-7.4,12.6-9.1,15.5
				c0.1,6.2,0.1,6.6,0.2,12.9c3.7-2.2,15.6-9.4,19.3-11.6C99.7,497.7,99.7,497.3,99.6,491z"/>
			<path class="st68" d="M99.6,491.1c-1.8-0.8-7.3-3.3-9.1-4.2c-0.4-0.2-0.9,0-1.1,0.3c-1.9,3.2-7.2,12.3-9.1,15.4
				c0.1,6.7,0.1,5.9,0.2,12.6c4-2.4,15.3-9.2,19.3-11.6C99.7,497,99.7,497.9,99.6,491.1z"/>
			<path class="st69" d="M99.6,491.2c-2-0.9-7.1-3.3-9.1-4.2c-0.4-0.2-0.9,0-1.1,0.4c-2,3.4-7.1,12-9.1,15.4
				c0.1,7.2,0.1,5.1,0.2,12.3c4.3-2.6,15-9,19.3-11.6C99.7,496.3,99.7,498.5,99.6,491.2z"/>
			<path class="st70" d="M99.6,491.3c-2.1-1-7-3.2-9.1-4.2c-0.4-0.2-0.9,0-1.2,0.4c-2.1,3.6-6.9,11.8-9.1,15.4
				c0.1,7.8,0.1,4.3,0.2,12c4.6-2.8,14.7-8.8,19.3-11.6C99.6,495.6,99.7,499.1,99.6,491.3z"/>
			<path class="st71" d="M99.6,491.4c-2.3-1-6.8-3.1-9.1-4.2c-0.4-0.2-1,0-1.2,0.4c-2.3,3.9-6.8,11.5-9,15.4
				c0.1,8.3,0.1,3.5,0.2,11.8c4.9-2.9,14.4-8.7,19.3-11.6C99.6,494.9,99.7,499.7,99.6,491.4z"/>
			<path class="st72" d="M99.6,491.5c-2.4-1.1-6.6-3-9-4.1c-0.5-0.2-1,0-1.2,0.4c-2.4,4.1-6.6,11.2-9,15.4c0.2,8.8,0,2.7,0.2,11.5
				c5.2-3.1,14.1-8.5,19.3-11.6C99.6,494.2,99.7,500.3,99.6,491.5z"/>
			<path class="st73" d="M99.6,491.6c-2.6-1.2-6.5-3-9-4.1c-0.5-0.2-1,0-1.3,0.4c-2.6,4.4-6.5,11-9,15.3c0.2,9.3,0,1.9,0.2,11.2
				c5.5-3.3,13.8-8.3,19.3-11.6C99.6,493.5,99.7,500.9,99.6,491.6z"/>
			<path class="st74" d="M99.6,491.7c-2.7-1.2-6.3-2.9-9-4.1c-0.5-0.2-1,0-1.3,0.4c-2.7,4.6-6.3,10.7-9,15.3c0.2,9.8,0,1.1,0.2,11
				c5.8-3.5,13.5-8.1,19.3-11.6C99.6,492.8,99.7,501.5,99.6,491.7z"/>
			<path class="st75" d="M99.6,491.8c-2.8-1.3-6.1-2.8-9-4.1c-0.5-0.2-1.1,0-1.3,0.4c-2.9,4.8-6.1,10.4-9,15.3
				c0.2,10.4,0,0.3,0.2,10.7c6.1-3.7,13.2-7.9,19.3-11.6C99.6,492.1,99.8,502.1,99.6,491.8z"/>
			<path class="st76" d="M99.6,491.9c-3-1.4-6-2.7-8.9-4.1c-0.5-0.2-1.1,0-1.4,0.4c-3,5.1-6,10.2-9,15.3c0.2,10.9,0-0.4,0.2,10.4
				c6.4-3.9,12.9-7.7,19.3-11.6C99.6,491.4,99.8,502.7,99.6,491.9z"/>
			<path class="st77" d="M99.6,492c-2.8-1.3-6.1-2.8-8.9-4.1c-0.5-0.2-1.2,0-1.5,0.5c-2.9,4.8-6.1,10.4-9,15.2
				c0.2,10.4,0,0.2,0.2,10.5c6.1-3.7,13.2-7.9,19.3-11.6C99.6,492.2,99.8,502.4,99.6,492z"/>
			<path class="st77" d="M99.6,492.2c-2.7-1.2-6.2-2.8-8.8-4.1c-0.6-0.3-1.2-0.1-1.5,0.5c-2.7,4.6-6.2,10.6-8.9,15.2
				c0.2,9.8,0,0.8,0.2,10.7c5.8-3.5,13.5-8.1,19.3-11.6C99.6,493,99.8,502,99.6,492.2z"/>
			<path class="st78" d="M99.6,492.4c-2.6-1.2-6.2-2.9-8.8-4c-0.6-0.3-1.3-0.1-1.6,0.5c-2.6,4.4-6.3,10.8-8.9,15.1
				c0.2,9.3,0,1.5,0.2,10.8c5.5-3.3,13.8-8.3,19.3-11.6C99.6,493.9,99.8,501.7,99.6,492.4z"/>
			<path class="st79" d="M99.6,492.5c-2.4-1.1-6.3-2.9-8.8-4c-0.6-0.3-1.3-0.1-1.7,0.5c-2.4,4.1-6.4,11-8.9,15.1
				c0.2,8.8,0,2.1,0.2,10.9c5.2-3.1,14.1-8.5,19.3-11.6C99.6,494.7,99.7,501.3,99.6,492.5z"/>
			<path class="st80" d="M99.6,492.7c-2.3-1-6.4-2.9-8.7-4c-0.6-0.3-1.4-0.1-1.8,0.6c-2.3,3.9-6.6,11.2-8.8,15
				c0.1,8.3,0,2.8,0.2,11.1c4.9-2.9,14.4-8.7,19.3-11.6C99.6,495.5,99.7,501,99.6,492.7z"/>
			<path class="st81" d="M99.6,492.9c-2.1-1-6.5-3-8.7-4c-0.7-0.3-1.5-0.1-1.8,0.6c-2.1,3.6-6.7,11.4-8.8,15
				c0.1,7.8,0.1,3.4,0.2,11.2c4.6-2.8,14.7-8.8,19.3-11.6C99.7,496.3,99.7,500.7,99.6,492.9z"/>
			<path class="st82" d="M99.6,493.1c-2-0.9-6.6-3-8.6-3.9c-0.7-0.3-1.5-0.1-1.9,0.6c-2,3.4-6.8,11.6-8.8,14.9
				c0.1,7.2,0.1,4.1,0.2,11.3c4.3-2.6,15-9,19.3-11.6C99.7,497.1,99.7,500.3,99.6,493.1z"/>
			<path class="st83" d="M99.6,493.2c-1.8-0.8-6.7-3.1-8.6-3.9c-0.7-0.3-1.6-0.1-2,0.6c-1.9,3.2-6.9,11.7-8.8,14.9
				c0.1,6.7,0.1,4.7,0.2,11.4c4-2.4,15.3-9.2,19.3-11.6C99.7,497.9,99.7,500,99.6,493.2z"/>
			<path class="st84" d="M99.6,493.4c-1.7-0.8-6.8-3.1-8.5-3.9c-0.8-0.3-1.6-0.1-2.1,0.6c-1.7,2.9-7,11.9-8.7,14.9
				c0.1,6.2,0.1,5.4,0.2,11.6c3.7-2.2,15.6-9.4,19.3-11.6C99.7,498.8,99.7,499.6,99.6,493.4z"/>
			<path class="st85" d="M99.6,493.6c-1.6-0.7-6.9-3.2-8.5-3.9c-0.8-0.4-1.7-0.1-2.1,0.7c-1.6,2.7-7.1,12.1-8.7,14.8
				c0.1,5.7,0.1,6,0.2,11.7c3.4-2,15.9-9.6,19.3-11.6C99.7,499.6,99.7,499.3,99.6,493.6z"/>
			<path class="st86" d="M99.6,493.8c-1.4-0.7-7-3.2-8.4-3.9c-0.8-0.4-1.8-0.1-2.2,0.7c-1.4,2.4-7.3,12.3-8.7,14.8
				c0.1,5.2,0.1,6.6,0.2,11.8c3.1-1.8,16.2-9.8,19.3-11.6C99.7,500.4,99.7,498.9,99.6,493.8z"/>
			<path class="st87" d="M99.6,493.9c-1.3-0.6-7.1-3.2-8.4-3.8c-0.8-0.4-1.8-0.1-2.3,0.7c-1.3,2.2-7.4,12.5-8.7,14.7
				c0.1,4.7,0.1,7.3,0.2,11.9c2.8-1.7,16.5-9.9,19.3-11.6C99.7,501.2,99.7,498.6,99.6,493.9z"/>
			<path class="st88" d="M99.6,494.1c-1.1-0.5-7.2-3.3-8.3-3.8c-0.9-0.4-1.9-0.1-2.4,0.7c-1.1,1.9-7.5,12.7-8.6,14.7
				c0.1,4.1,0.1,7.9,0.2,12.1c2.5-1.5,16.9-10.1,19.3-11.6C99.8,502,99.7,498.3,99.6,494.1z"/>
			<path class="st89" d="M99.6,494.3c-1-0.5-7.3-3.3-8.3-3.8c-0.9-0.4-1.9-0.1-2.4,0.8c-1,1.7-7.6,12.9-8.6,14.6
				c0.1,3.6,0.1,8.6,0.2,12.2c2.1-1.3,17.2-10.3,19.3-11.6C99.8,502.9,99.7,497.9,99.6,494.3z"/>
			<path class="st90" d="M99.6,494.5c-0.9-0.4-7.4-3.4-8.2-3.8c-0.9-0.4-2-0.1-2.5,0.8c-0.9,1.5-7.7,13.1-8.6,14.6
				c0.1,3.1,0.2,9.2,0.2,12.3c1.8-1.1,17.5-10.5,19.3-11.6C99.8,503.7,99.7,497.6,99.6,494.5z"/>
			<path class="st91" d="M99.6,494.6c-0.7-0.3-7.5-3.4-8.2-3.7c-0.9-0.4-2.1-0.1-2.6,0.8c-0.7,1.2-7.8,13.3-8.5,14.5
				c0,2.6,0.2,9.9,0.2,12.5c1.5-0.9,17.8-10.7,19.3-11.6C99.8,504.5,99.7,497.2,99.6,494.6z"/>
			<path class="st92" d="M99.6,494.8c-0.6-0.3-7.6-3.5-8.1-3.7c-1-0.4-2.1-0.1-2.7,0.8c-0.6,1-7.9,13.5-8.5,14.5
				c0,2.1,0.2,10.5,0.2,12.6c1.2-0.7,18.1-10.9,19.3-11.6C99.8,505.3,99.7,496.9,99.6,494.8z"/>
			<path class="st93" d="M99.6,495c-0.4-0.2-7.6-3.5-8.1-3.7c-1-0.5-2.2-0.1-2.7,0.9c-0.4,0.7-8.1,13.7-8.5,14.4
				c0,1.6,0.2,11.2,0.2,12.7c0.9-0.6,18.4-11,19.3-11.6C99.8,506.1,99.7,496.5,99.6,495z"/>
			<path class="st94" d="M99.6,495.2c-0.3-0.1-7.7-3.5-8-3.7c-1-0.5-2.2-0.1-2.8,0.9c-0.3,0.5-8.2,13.9-8.5,14.4
				c0,1,0.2,11.8,0.2,12.8c0.6-0.4,18.7-11.2,19.3-11.6C99.8,507,99.7,496.2,99.6,495.2z"/>
			<path class="st94" d="M99.6,495.3c-0.1-0.1-7.8-3.6-8-3.7c-1.1-0.5-2.3-0.1-2.9,0.9c-0.1,0.2-8.3,14.1-8.4,14.3
				c0,0.5,0.2,12.4,0.2,13c0.3-0.2,19-11.4,19.3-11.6C99.9,507.8,99.7,495.8,99.6,495.3z"/>
			<path class="st52" d="M99.6,495.5l-7.9-3.6c-1.1-0.5-2.4-0.1-3,0.9l-8.4,14.3l0.2,13.1l19.3-11.6L99.6,495.5z"/>
		</g>
		<polygon class="st95" points="101.1,490.2 90.6,485.3 80.4,502.6 67.3,495.3 54.3,488.1 64.4,470.8 74.9,475.7 88,482.9 		"/>
		<polygon class="st96" points="90.6,485.3 80.4,502.6 67.3,495.3 54.3,488.1 64.4,470.8 		"/>
		<polygon class="st97" points="101.1,490.2 90.6,485.3 90.6,485.9 101.1,490.8 		"/>
		<polygon class="st97" points="80.4,502.6 90.6,485.3 90.6,485.9 80.4,503.2 		"/>
		<path class="st97" d="M90.6,485.2c0.2-0.1,0.4-0.1,0.5-0.1c0.1,0.1,0.2,0.2,0.2,0.5l-0.7,0.4l-0.7,0.4c0-0.2,0.1-0.5,0.2-0.7
			S90.4,485.3,90.6,485.2z"/>
		<polygon class="st98" points="80.4,502.6 54.3,488.1 54.3,488.7 80.4,503.2 		"/>
		<polygon class="st99" points="80.4,502.6 54.3,488.1 54.3,488.3 80.4,502.8 		"/>
		
			<linearGradient id="SVGID_10_" gradientUnits="userSpaceOnUse" x1="68.5847" y1="239.3045" x2="69.3108" y2="238.0469" gradientTransform="matrix(0.9998 -1.743586e-02 1.743586e-02 0.9998 -2.7472 273.1979)">
			<stop  offset="0" style="stop-color:#E4DFD8"/>
			<stop  offset="0.54" style="stop-color:#D9D3CD"/>
			<stop  offset="1" style="stop-color:#BEB9B1"/>
		</linearGradient>
		<polygon class="st109" points="55.3,507.1 80.6,521.1 80.6,522.8 55.4,508.8 		"/>
		<polygon class="st52" points="101.4,508.6 80.6,521.1 80.6,522.8 101.4,510.3 		"/>
		<polygon class="st101" points="69.5,500.3 69.7,511 75.8,514.4 75.6,503.7 		"/>
		
			<linearGradient id="SVGID_11_" gradientUnits="userSpaceOnUse" x1="69.1328" y1="241.0295" x2="69.1328" y2="225.5592" gradientTransform="matrix(0.9998 -1.743586e-02 1.743586e-02 0.9998 -2.7472 273.1979)">
			<stop  offset="0" style="stop-color:#DBD6CF"/>
			<stop  offset="1" style="stop-color:#B3B0A2"/>
		</linearGradient>
		<polygon class="st110" points="70.1,501.3 70.3,510.7 70.8,510.4 70.6,501.6 		"/>
		<polygon class="st24" points="75.1,513.4 70.3,510.7 70.8,510.4 75.1,512.8 		"/>
		<polygon class="st103" points="70.3,510.7 70.8,510.4 71.3,510.6 		"/>
		<polygon class="st24" points="76.4,503.2 75.6,503.7 69.5,500.3 70.3,499.9 		"/>
		<polygon class="st103" points="76.4,503.2 75.6,503.7 75.8,514.4 76.5,513.9 		"/>
		<polygon class="st104" points="75.1,512.8 70.8,510.4 70.6,501.6 75,504.1 		"/>
		<polygon class="st24" points="75,507.6 70.4,505.1 70.4,505.1 70.7,504.9 75,507.3 		"/>
		<polygon class="st103" points="70.7,505.2 70.4,505.1 70.4,505.1 70.6,505 70.7,504.9 71.2,505.2 		"/>
		<polygon class="st49" points="70.4,505.1 70.4,505.6 75,508.1 75,507.6 		"/>
		<g>
			<path class="st111" d="M59.2,493.5c0.1,3.6,0.1,7.2,0.2,10.9c0,0.1,0,0.2,0.1,0.2c2,1.1,4,2.2,6,3.3c0.1,0,0.2,0,0.2,0
				c0.1,0,0.1-0.1,0.1-0.2c-0.1-3.6-0.1-7.2-0.2-10.8c0-0.1,0-0.2-0.1-0.2c-2-1.1-4-2.2-6-3.3C59.4,493.4,59.3,493.4,59.2,493.5
				C59.2,493.3,59.2,493.4,59.2,493.5z"/>
			<path class="st112" d="M59.2,493.5c0.1,3.5,0.1,7.3,0.2,10.8c0,0.1,0,0.2,0.1,0.2c1.9,1,4.1,2.2,6,3.3c0.1,0,0.2,0,0.2,0
				c0.1,0,0.1-0.1,0.1-0.2c-0.1-3.5-0.1-7.3-0.2-10.8c0-0.1,0-0.2-0.1-0.2c-1.9-1.1-4.1-2.3-6-3.3c-0.1,0-0.2,0-0.2,0
				C59.2,493.3,59.2,493.4,59.2,493.5z"/>
			<path class="st113" d="M59.2,493.5c0.1,3.3,0.1,7.5,0.2,10.8c0,0.1,0,0.2,0.1,0.2c1.8,1,4.1,2.3,5.9,3.3c0.1,0,0.2,0,0.2,0
				c0.1,0,0.1-0.1,0.1-0.2c-0.1-3.3-0.1-7.5-0.2-10.8c0-0.1,0-0.2-0.1-0.2c-1.8-1-4.1-2.3-5.9-3.3c-0.1,0-0.2,0-0.2,0
				S59.2,493.4,59.2,493.5z"/>
			<path class="st114" d="M59.2,493.5c0.1,3.1,0.1,7.6,0.2,10.7c0,0.1,0,0.2,0.1,0.2c1.7,0.9,4.2,2.3,5.9,3.3c0.1,0,0.2,0,0.2,0
				c0.1,0,0.1-0.1,0.1-0.2c-0.1-3.1-0.1-7.6-0.2-10.7c0-0.1,0-0.2-0.1-0.2c-1.7-0.9-4.2-2.3-5.9-3.3c-0.1,0-0.2,0-0.2,0
				C59.3,493.4,59.2,493.4,59.2,493.5z"/>
			<path class="st115" d="M59.2,493.6c0.1,3,0.1,7.7,0.2,10.7c0,0.1,0,0.2,0.1,0.2c1.6,0.9,4.3,2.4,5.9,3.3c0.1,0,0.2,0,0.2,0
				c0.1,0,0.1-0.1,0.1-0.2c-0.1-3-0.1-7.7-0.2-10.7c0-0.1,0-0.2-0.1-0.2c-1.6-0.9-4.3-2.4-5.9-3.3c-0.1,0-0.2,0-0.2,0
				S59.2,493.5,59.2,493.6z"/>
			<path class="st116" d="M59.2,493.6c0,2.8,0.1,7.9,0.2,10.6c0,0.1,0,0.2,0.1,0.2c1.5,0.8,4.4,2.4,5.9,3.3c0.1,0,0.2,0,0.2,0
				c0.1,0,0.1-0.1,0.1-0.2c0-2.8-0.1-7.8-0.2-10.6c0-0.1,0-0.2-0.1-0.2c-1.5-0.8-4.4-2.4-5.9-3.3c-0.1,0-0.2,0-0.2,0
				S59.2,493.5,59.2,493.6z"/>
			<path class="st117" d="M59.3,493.6c0,2.6,0.1,8,0.2,10.6c0,0.1,0,0.2,0.1,0.2c1.4,0.8,4.5,2.5,5.9,3.2c0.1,0,0.2,0,0.2,0
				c0.1,0,0.1-0.1,0.1-0.2c0-2.6-0.1-8-0.2-10.6c0-0.1,0-0.2-0.1-0.2c-1.4-0.8-4.5-2.5-5.9-3.3c-0.1,0-0.2,0-0.2,0
				C59.3,493.4,59.3,493.5,59.3,493.6z"/>
			<path class="st118" d="M59.3,493.6c0,2.4,0.1,8.1,0.2,10.5c0,0.1,0,0.2,0.1,0.2c1.3,0.7,4.5,2.5,5.9,3.2c0.1,0,0.2,0,0.2,0
				c0.1,0,0.1-0.1,0.1-0.2c0-2.4-0.1-8.1-0.2-10.5c0-0.1,0-0.2-0.1-0.2c-1.3-0.7-4.5-2.5-5.9-3.2c-0.1,0-0.2,0-0.2,0
				C59.3,493.4,59.3,493.5,59.3,493.6z"/>
			<path class="st119" d="M59.3,493.6c0,2.3,0.1,8.2,0.2,10.5c0,0.1,0,0.2,0.1,0.2c1.2,0.7,4.6,2.5,5.8,3.2c0.1,0,0.2,0,0.2,0
				c0.1,0,0.1-0.1,0.1-0.2c0-2.3-0.1-8.2-0.2-10.5c0-0.1,0-0.2-0.1-0.2c-1.2-0.7-4.6-2.6-5.8-3.2c-0.1,0-0.2,0-0.2,0
				C59.3,493.5,59.3,493.5,59.3,493.6z"/>
			<path class="st120" d="M59.3,493.6c0,2.1,0.1,8.4,0.2,10.5c0,0.1,0,0.2,0.1,0.2c1.1,0.6,4.7,2.6,5.8,3.2c0.1,0,0.2,0,0.2,0
				c0.1,0,0.1-0.1,0.1-0.2c0-2.1-0.1-8.4-0.2-10.4c0-0.1,0-0.2-0.1-0.2c-1.1-0.6-4.7-2.6-5.8-3.2c-0.1,0-0.2,0-0.2,0
				C59.3,493.5,59.3,493.5,59.3,493.6z"/>
			<path class="st121" d="M59.3,493.7c0,1.9,0.1,8.5,0.2,10.4c0,0.1,0,0.2,0.1,0.2c1,0.6,4.8,2.6,5.8,3.2c0.1,0,0.2,0,0.2,0
				c0.1,0,0.1-0.1,0.1-0.2c0-1.9-0.1-8.5-0.2-10.4c0-0.1,0-0.2-0.1-0.2c-1-0.6-4.8-2.6-5.8-3.2c-0.1,0-0.2,0-0.2,0
				C59.3,493.5,59.3,493.6,59.3,493.7z"/>
			<path class="st122" d="M59.3,493.7c0,1.7,0.2,8.6,0.2,10.4c0,0.1,0,0.2,0.1,0.2c0.9,0.5,4.8,2.7,5.8,3.2c0.1,0,0.2,0,0.2,0
				c0.1,0,0.1-0.1,0.1-0.2c0-1.7-0.2-8.6-0.2-10.4c0-0.1,0-0.2-0.1-0.2c-0.9-0.5-4.8-2.7-5.8-3.2c-0.1,0-0.2,0-0.2,0
				C59.3,493.5,59.3,493.6,59.3,493.7z"/>
			<path class="st123" d="M59.3,493.7c0,1.6,0.2,8.8,0.2,10.3c0,0.1,0,0.2,0.1,0.2c0.9,0.5,4.9,2.7,5.8,3.2c0.1,0,0.2,0,0.2,0
				c0.1,0,0.1-0.1,0.1-0.2c0-1.6-0.2-8.8-0.2-10.3c0-0.1,0-0.2-0.1-0.2c-0.9-0.5-4.9-2.7-5.8-3.2c-0.1,0-0.2,0-0.2,0
				S59.3,493.6,59.3,493.7z"/>
			<path class="st124" d="M59.3,493.7c0,1.4,0.2,8.9,0.2,10.3c0,0.1,0,0.2,0.1,0.2c0.8,0.4,5,2.8,5.8,3.2c0.1,0,0.2,0,0.2,0
				c0.1,0,0.1-0.1,0.1-0.2c0-1.4-0.2-8.9-0.2-10.3c0-0.1,0-0.2-0.1-0.2c-0.8-0.4-5-2.8-5.8-3.2c-0.1,0-0.2,0-0.2,0
				S59.3,493.6,59.3,493.7z"/>
			<path class="st125" d="M59.3,493.7c0,1.2,0.2,9,0.2,10.2c0,0.1,0,0.2,0.1,0.2c0.7,0.4,5.1,2.8,5.7,3.2c0.1,0,0.2,0,0.2,0
				c0.1,0,0.1-0.1,0.1-0.2c0-1.2-0.2-9-0.2-10.2c0-0.1,0-0.2-0.1-0.2c-0.7-0.4-5.1-2.8-5.7-3.2c-0.1,0-0.2,0-0.2,0
				C59.4,493.6,59.3,493.6,59.3,493.7z"/>
			<path class="st126" d="M59.3,493.7c0,1,0.2,9.2,0.2,10.2c0,0.1,0,0.2,0.1,0.2c0.6,0.3,5.2,2.8,5.7,3.2c0.1,0,0.2,0,0.2,0
				c0.1,0,0.1-0.1,0.1-0.2c0-1-0.2-9.1-0.2-10.2c0-0.1,0-0.2-0.1-0.2c-0.6-0.3-5.2-2.9-5.7-3.2c-0.1,0-0.2,0-0.2,0
				C59.4,493.6,59.3,493.7,59.3,493.7z"/>
			<path class="st127" d="M59.4,493.8c0,0.9,0.2,9.3,0.2,10.2c0,0.1,0,0.2,0.1,0.2c0.5,0.3,5.2,2.9,5.7,3.2c0.1,0,0.2,0,0.2,0
				c0.1,0,0.1-0.1,0.1-0.2c0-0.9-0.2-9.3-0.2-10.1c0-0.1,0-0.2-0.1-0.2c-0.5-0.3-5.2-2.9-5.7-3.2C59.6,493.7,59.5,493.7,59.4,493.8
				C59.4,493.6,59.4,493.7,59.4,493.8z"/>
			<path class="st128" d="M59.4,493.8c0,0.7,0.2,9.4,0.2,10.1c0,0.1,0,0.2,0.1,0.2c0.4,0.2,5.3,2.9,5.7,3.1c0.1,0,0.2,0,0.2,0
				c0.1,0,0.1-0.1,0.1-0.2c0-0.7-0.2-9.4-0.2-10.1c0-0.1,0-0.2-0.1-0.2c-0.4-0.2-5.3-2.9-5.7-3.2c-0.1,0-0.2,0-0.2,0
				C59.4,493.6,59.4,493.7,59.4,493.8z"/>
			<path class="st129" d="M59.4,493.8c0,0.5,0.2,9.5,0.2,10.1c0,0.1,0,0.2,0.1,0.2c0.3,0.2,5.4,3,5.7,3.1c0.1,0,0.2,0,0.2,0
				c0.1,0,0.1-0.1,0.1-0.2c0-0.5-0.2-9.5-0.2-10.1c0-0.1,0-0.2-0.1-0.2c-0.3-0.2-5.4-3-5.7-3.1c-0.1,0-0.2,0-0.2,0
				C59.4,493.6,59.4,493.7,59.4,493.8z"/>
			<path class="st130" d="M59.4,493.8c0,0.3,0.2,9.7,0.2,10c0,0.1,0,0.2,0.1,0.2c0.2,0.1,5.5,3,5.7,3.1c0.1,0,0.2,0,0.2,0
				c0.1,0,0.1-0.1,0.1-0.2c0-0.3-0.2-9.7-0.2-10c0-0.1,0-0.2-0.1-0.2c-0.2-0.1-5.5-3-5.7-3.1c-0.1,0-0.2,0-0.2,0
				C59.4,493.6,59.4,493.7,59.4,493.8z"/>
			<path class="st131" d="M59.4,493.8c0,0.2,0.2,9.8,0.2,10c0,0.1,0,0.2,0.1,0.2c0.1,0.1,5.5,3.1,5.6,3.1c0.1,0,0.2,0,0.2,0
				c0.1,0,0.1-0.1,0.1-0.2c0-0.2-0.2-9.8-0.2-10c0-0.1,0-0.2-0.1-0.2c-0.1-0.1-5.5-3.1-5.6-3.1s-0.2,0-0.2,0
				C59.4,493.7,59.4,493.7,59.4,493.8z"/>
			<path class="st132" d="M59.4,493.8l0.2,9.9c0,0.1,0,0.2,0.1,0.2l5.6,3.1c0.1,0,0.2,0,0.2,0c0.1,0,0.1-0.1,0.1-0.2l-0.2-9.9
				c0-0.1,0-0.2-0.1-0.2l-5.6-3.1c-0.1,0-0.2,0-0.2,0C59.4,493.7,59.4,493.8,59.4,493.8z"/>
		</g>
		<polygon class="st101" points="58.6,493.7 58.8,504.4 64.9,507.7 64.7,497 		"/>
		
			<linearGradient id="SVGID_12_" gradientUnits="userSpaceOnUse" x1="58.3757" y1="234.1824" x2="58.3757" y2="218.7121" gradientTransform="matrix(0.9998 -1.743586e-02 1.743586e-02 0.9998 -2.7472 273.1979)">
			<stop  offset="0" style="stop-color:#DBD6CF"/>
			<stop  offset="1" style="stop-color:#B3B0A2"/>
		</linearGradient>
		<polygon class="st133" points="59.2,494.7 59.4,504 59.9,503.7 59.8,495 		"/>
		<polygon class="st24" points="64.3,506.7 59.4,504 59.9,503.7 64.3,506.1 		"/>
		<polygon class="st103" points="59.4,504 59.9,503.7 60.4,504 		"/>
		<polygon class="st24" points="65.5,496.6 64.7,497.1 58.6,493.7 59.4,493.2 		"/>
		<polygon class="st103" points="65.5,496.6 64.7,497.1 64.9,507.7 65.7,507.2 		"/>
		<polygon class="st104" points="64.3,506.1 59.9,503.7 59.8,495 64.1,497.4 		"/>
		<polygon class="st24" points="64.2,501 59.6,498.4 59.6,498.4 59.8,498.3 64.1,500.7 		"/>
		<polygon class="st103" points="59.8,498.6 59.6,498.4 59.6,498.4 59.7,498.3 59.8,498.3 60.3,498.5 		"/>
		<polygon class="st49" points="59.6,498.4 59.6,498.9 64.2,501.5 64.2,501 		"/>
	</g>
</g>
<polygon class="st2" points="194,832.3 194,825.5 182.1,832.3 "/>
</svg>
