<?xml version="1.0" encoding="utf-8"?>
<!-- Generator: Adobe Illustrator 21.0.0, SVG Export Plug-In . SVG Version: 6.00 Build 0)  -->
<svg version="1.1" id="Layer_1" xmlns="http://www.w3.org/2000/svg" xmlns:xlink="http://www.w3.org/1999/xlink" x="0px" y="0px"
	 viewBox="0 0 788 768" style="enable-background:new 0 0 788 768;" xml:space="preserve">
<style type="text/css">
	.st0{fill:#0F4C81;}
	.st1{fill:#0D3B63;}
	.st2{fill:#2D74B1;}
	.st3{fill:#A7E1E3;}
	.st4{fill:#FFFFFF;}
	.st5{fill:#FBECCD;}
	.st6{fill:#FFFCFE;}
	.st7{enable-background:new    ;}
</style>
<g>
	<path class="st0" d="M601.7,448.2H168.6c-5.2,0-9.4-4.2-9.4-9.4V161.6c0-5.2,4.2-9.4,9.4-9.4h433.3c5.2,0,9.4,4.2,9.4,9.4v277.3
		C611.2,444,607,448.2,601.7,448.2z"/>
	<path class="st1" d="M230.2,152.2H168c-4.8,0-8.8,4.2-8.8,9.4v277.3c0,5.2,3.9,9.4,8.8,9.4h62.2V152.2z"/>
</g>
<path class="st2" d="M196.7,231.2h-67.6c-2.5,0-4.5-3.7-4.5-8.2v-8.7c0-4.5,2-8.2,4.5-8.2h67.7c2.5,0,4.6,3.7,4.6,8.2v8.7
	C201.3,227.5,199.2,231.2,196.7,231.2z"/>
<path class="st3" d="M193.3,280.2H44.9c-4.4,0-7.9-3.7-7.9-8.2v-8.7c0-4.5,3.5-8.2,7.9-8.2h148.6c4.4,0,7.9,3.7,7.9,8.2v8.7
	C201.2,276.5,197.7,280.2,193.3,280.2z"/>
<path class="st4" d="M496.8,303.2H264.6c-0.8,0-1.4-0.6-1.4-1.4v-4.3c0-0.8,0.6-1.4,1.4-1.4h232.3c0.8,0,1.4,0.6,1.4,1.4v4.3
	C498.2,302.6,497.6,303.2,496.8,303.2z"/>
<path class="st5" d="M494.1,323.2H265.3c-1.2,0-2-0.6-2-1.4v-4.3c0-0.8,0.9-1.4,2-1.4h229c1.2,0,2,0.6,2,1.4v4.3
	C496.1,322.6,495.3,323.2,494.1,323.2z"/>
<path class="st3" d="M424.6,342.2h-158c-2,0-3.4-0.6-3.4-1.4v-4.3c0-0.8,1.5-1.4,3.4-1.4h158c2,0,3.4,0.6,3.4,1.4v4.3
	C428,341.6,426.5,342.2,424.6,342.2z"/>
<path class="st2" d="M486.2,363.2h-221c-1.1,0-2-0.6-2-1.4v-4.3c0-0.8,0.8-1.4,2-1.4h221.1c1.1,0,2,0.6,2,1.4v4.3
	C488.1,362.6,487.3,363.2,486.2,363.2z"/>
<path class="st5" d="M382.8,387.5H265.7c-1.5,0-2.5-0.6-2.5-1.4v-4.3c0-0.8,1.1-1.4,2.5-1.4h117.1c1.5,0,2.5,0.6,2.5,1.4v4.3
	C385.4,386.9,384.3,387.5,382.8,387.5z"/>
<path class="st5" d="M194.5,332.2H94.7c-3.7,0-6.7-3.7-6.7-8.2v-8.7c0-4.5,3-8.2,6.7-8.2h99.8c3.7,0,6.7,3.7,6.7,8.2v8.7
	C201.2,328.5,198.2,332.2,194.5,332.2z"/>
<g>
	<g>
		<path class="st2" d="M466.1,484.9c0,0-23.6,0-33.9-25s-30.9-64.8-29.4-81s0-29.4,8.8-44.2c0,0-14.7,0-36.8,28
			c-22.1,28-72.1,51.5-100.1,41.2s-30.9-41.2-10.3-66.3s45.6-14.7,50.1-7.4c0,0,6.6,8.1,2.2,15.5s-10.3,7.4-16.2,0
			c-5.9-7.4-19.1-4.4-26.5,8.8c-7.4,13.3-10.3,39.8,29.4,32.4c39.8-7.4,73.6-48.6,75.1-51.5s25-23.6,39.8-13.3
			c0,0,10.3-35.3,70.7-30.9s69.2,10.3,75.1,10.3c5.9,0,32.4-1.5,36.8-8.8c4.4-7.4,4.4-14.7,4.4-17.7c0,0-2.9-2.9-1.5-4.4
			c1.5-1.5,4.4,1.5,4.4,1.5s-1.5-2.9-2.9-4.4c-1.5-1.5,0-2.9,0-2.9l5.9,2.9c0,0,7.4-4.4,7.4-7.4c0,0,8.8-41.2,14.7-36.8
			s13.3,22.1,14.7,23.6c0,0,5.9,4.4,7.4,4.4s2.9-1.5,2.9-1.5s1.5-4.4,2.9-4.4s-1.5,2.9-1.5,4.4s30.9,16.2,38.3,20.6
			c0,0,29.4-5.9,29.4-1.5s-14.7,28-16.2,30.9s-1.5,17.7-1.5,17.7s7.4,2.9,7.4,4.4s1.5,2.9-1.5,1.5c-2.9-1.5-4.4-2.9-5.9-2.9
			s-1.5,2.9-1.5,2.9s5.9,1.5,5.9,2.9s0,2.9-1.5,1.5s-2.9-2.9-4.4-1.5s-8.8,14.7-23.6,19.1c-14.7,4.4-19.1,0-20.6,1.5
			s-69.2,53-73.6,57.4c0,0-8.8,2.9-20.6,32.4s-10.3,42.7-8.8,42.7s-16.2,4.4-14.7-13.3c0,0,0-5.9-2.9,0s0,7.4-1.5,7.4
			s-10.3,2.9-11.8-8.8c-1.5-11.8-1.5-33.9,1.5-48.6c0,0-28,2.9-29.4,0c-1.5-2.9-7.4,36.8,0,57.4c0,0-11.8,5.9-22.1-11.8
			c-10.3-17.7-13.3-41.2-13.3-42.7s-2.9-2.9-5.9,2.9c-2.9,5.9-4.4,28,0,42.7C465.4,479.8,469.8,481.2,466.1,484.9z"/>
	</g>
	<g>
		<path class="st6" d="M656.1,298.4c0,0,5.6-1,6.1,1.1s-1.6,4-3,3.9S655.9,302.5,656.1,298.4z"/>
		<path class="st6" d="M677.9,291.6c0,0-4.7,7.9-2.2,12.2c2.5,4.3,6.4,7.3,10.6,6.2s7.8-2.9,8.7-6.3s0.7-9.6-2.6-11.9
			C689.1,289.6,683,287.1,677.9,291.6"/>
		<path class="st6" d="M631.9,271.3c0,0,11.4-6.1,16.4,1.1s-0.3,14.4-1,15.1c-0.7,0.6-12.1,5.4-16.4-1.1
			C626.5,279.8,628.9,273.8,631.9,271.3z"/>
		<path class="st2" d="M633.8,273.5c0,0,9.2-5.3,12.3,0.8c1.8,3.6,2.2,8.4,0,10.3c-2.9,2.6-10,2-11.8,1.3
			C632.3,285,628.7,277.9,633.8,273.5z"/>
		<path class="st2" d="M679.7,293.9c0,0-3.5,6-1.7,9.2s4.8,5.5,7.9,4.7c3.2-0.8,5.8-2.2,6.5-4.7s0.5-7.2-2-8.9
			C688,292.4,683.5,290.6,679.7,293.9"/>
		<path class="st6" d="M638.3,277.5c0.3-0.4,0.9-0.5,1.3-0.2c0.7,0.4,1.5,0.9,0.8,2.1c-0.9,1.6-2.6,0.3-2.5-0.7
			C638,277.9,638,277.9,638.3,277.5z"/>
		<path class="st6" d="M683.5,298.5c0.5-0.5,1.2-0.5,1.8-0.1s1.2,1.1,0.6,2c-1.1,1.5-2.6,0.3-2.5-0.7
			C683.4,299,683.3,298.8,683.5,298.5z"/>
	</g>
</g>
<g class="st7">
	<path class="st4" d="M265.8,249.1h7.7c4.6,0,8.3,1.7,8.3,6.8c0,3.3-1.7,5.4-4.2,6.4l5.2,9.1h-4.9l-4.6-8.4h-3.1v8.4h-4.4V249.1z
		 M273.1,259.4c2.8,0,4.4-1.2,4.4-3.6c0-2.4-1.6-3.2-4.4-3.2h-2.9v6.8H273.1z"/>
	<path class="st4" d="M285.9,254.5h3.6l0.3,1.7h0.1c1.4-1.2,3.1-2.2,4.9-2.2c4.1,0,6.6,3.4,6.6,8.5c0,5.8-3.5,9.1-7.1,9.1
		c-1.5,0-2.9-0.7-4.2-1.8l0.1,2.8v5.1h-4.4V254.5z M297,262.7c0-3.2-1-5-3.3-5c-1.1,0-2.2,0.6-3.3,1.7v7.4c1,0.9,2.1,1.3,3,1.3
		C295.4,268.1,297,266.4,297,262.7z"/>
	<path class="st4" d="M312.1,267.8h4.8v-13.5h-4v-2.7c2.2-0.4,3.7-1,5.2-1.9h3.3v18.1h4.2v3.6h-13.3V267.8z"/>
	<path class="st4" d="M329.8,267.8h4.8v-13.5h-4v-2.7c2.2-0.4,3.8-1,5.2-1.9h3.3v18.1h4.2v3.6h-13.3V267.8z"/>
	<path class="st4" d="M346.5,261.1c0-8.3,4.1-11.8,8.6-11.8c2.7,0,4.7,1.1,6,2.5l-2.3,2.6c-0.8-0.9-2.1-1.6-3.4-1.6
		c-2.5,0-4.6,1.9-4.8,7.5c1.2-1.5,3.1-2.4,4.6-2.4c3.7,0,6.4,2.1,6.4,6.7c0,4.4-3.2,7.2-7,7.2C350.3,271.8,346.5,268.5,346.5,261.1z
		 M350.6,263.4c0.4,3.7,1.9,5,3.7,5c1.7,0,3-1.3,3-3.9c0-2.4-1.3-3.5-3.2-3.5C353.1,261,351.7,261.6,350.6,263.4z"/>
	<path class="st4" d="M364.8,268.9c0-1.6,1.2-2.9,2.7-2.9c1.6,0,2.8,1.2,2.8,2.9c0,1.6-1.2,2.9-2.8,2.9
		C366,271.8,364.8,270.5,364.8,268.9z"/>
	<path class="st4" d="M383.9,253.4h-10v-3.7h14.8v2.7c-5,6.2-5.8,10.5-6.2,18.9H378C378.4,263.9,379.8,259.2,383.9,253.4z"/>
	<path class="st4" d="M391.6,261.1c0-8.3,4.1-11.8,8.6-11.8c2.7,0,4.7,1.1,6,2.5l-2.3,2.6c-0.8-0.9-2.1-1.6-3.4-1.6
		c-2.5,0-4.6,1.9-4.8,7.5c1.2-1.5,3.1-2.4,4.6-2.4c3.7,0,6.4,2.1,6.4,6.7c0,4.4-3.2,7.2-7,7.2C395.4,271.8,391.6,268.5,391.6,261.1z
		 M395.7,263.4c0.4,3.7,1.9,5,3.8,5c1.7,0,3-1.3,3-3.9c0-2.4-1.3-3.5-3.2-3.5C398.2,261,396.8,261.6,395.7,263.4z"/>
	<path class="st4" d="M409.1,260.4c0-7.3,3-11.1,7.5-11.1c4.6,0,7.5,3.8,7.5,11.1c0,7.3-2.9,11.3-7.5,11.3
		C412.1,271.8,409.1,267.8,409.1,260.4z M420,260.4c0-6-1.4-7.7-3.3-7.7s-3.4,1.7-3.4,7.7c0,6,1.4,7.9,3.4,7.9S420,266.4,420,260.4z
		"/>
	<path class="st4" d="M427.6,268.9c0-1.6,1.2-2.9,2.7-2.9c1.6,0,2.8,1.2,2.8,2.9c0,1.6-1.2,2.9-2.8,2.9
		C428.8,271.8,427.6,270.5,427.6,268.9z"/>
	<path class="st4" d="M436.5,268.8c5.8-5.5,9.6-9.3,9.6-12.5c0-2.2-1.2-3.5-3.3-3.5c-1.6,0-2.9,1.1-4.1,2.3l-2.4-2.4
		c2-2.2,4-3.4,7-3.4c4.2,0,7,2.7,7,6.7c0,3.8-3.5,7.7-7.4,11.8c1.1-0.1,2.6-0.2,3.6-0.2h4.9v3.7h-14.9V268.8z"/>
	<path class="st4" d="M453.7,268.7l2-2.8c1.3,1.2,2.8,2.3,4.9,2.3c2.3,0,3.9-1.4,3.9-3.8c0-2.4-1.5-3.8-3.8-3.8
		c-1.3,0-2,0.3-3.3,1.2l-2-1.3l0.6-10.8h11.9v3.7h-8.1l-0.4,4.7c0.9-0.4,1.7-0.6,2.7-0.6c3.7,0,6.8,2.1,6.8,6.7
		c0,4.8-3.7,7.5-7.8,7.5C457.6,271.8,455.3,270.4,453.7,268.7z"/>
	<path class="st4" d="M482,253.4h-10v-3.7h14.8v2.7c-5,6.2-5.8,10.5-6.2,18.9h-4.5C476.5,263.9,477.9,259.2,482,253.4z"/>
	<path class="st4" d="M490.3,268.9c0-1.6,1.2-2.9,2.7-2.9c1.6,0,2.8,1.2,2.8,2.9c0,1.6-1.2,2.9-2.8,2.9
		C491.5,271.8,490.3,270.5,490.3,268.9z"/>
	<path class="st4" d="M499.3,260.4c0-7.3,3-11.1,7.5-11.1c4.6,0,7.5,3.8,7.5,11.1c0,7.3-2.9,11.3-7.5,11.3
		C502.3,271.8,499.3,267.8,499.3,260.4z M510.1,260.4c0-6-1.4-7.7-3.3-7.7s-3.4,1.7-3.4,7.7c0,6,1.4,7.9,3.4,7.9
		S510.1,266.4,510.1,260.4z"/>
	<path class="st4" d="M517,260.4c0-7.3,3-11.1,7.5-11.1s7.5,3.8,7.5,11.1c0,7.3-2.9,11.3-7.5,11.3S517,267.8,517,260.4z
		 M527.8,260.4c0-6-1.4-7.7-3.3-7.7s-3.4,1.7-3.4,7.7c0,6,1.4,7.9,3.4,7.9S527.8,266.4,527.8,260.4z"/>
	<path class="st4" d="M534.6,260.4c0-7.3,3-11.1,7.5-11.1s7.5,3.8,7.5,11.1c0,7.3-2.9,11.3-7.5,11.3S534.6,267.8,534.6,260.4z
		 M545.5,260.4c0-6-1.4-7.7-3.3-7.7s-3.4,1.7-3.4,7.7c0,6,1.4,7.9,3.4,7.9S545.5,266.4,545.5,260.4z"/>
</g>
</svg>
