<?xml version="1.0" encoding="utf-8"?>
<!-- Generator: Adobe Illustrator 21.0.0, SVG Export Plug-In . SVG Version: 6.00 Build 0)  -->
<svg version="1.1" id="Layer_1" xmlns="http://www.w3.org/2000/svg" xmlns:xlink="http://www.w3.org/1999/xlink" x="0px" y="0px"
	 viewBox="0 0 878 768" style="enable-background:new 0 0 878 768;" xml:space="preserve">
<style type="text/css">
	.st0{fill:#0F4C81;}
	.st1{fill:#0D3B63;}
	.st2{enable-background:new    ;}
	.st3{fill:#FFFFFF;}
	.st4{fill:#A7E1E3;}
	.st5{fill:#FBECCD;}
	.st6{fill:#2D74B1;}
	.st7{fill:none;stroke:#FFFFFF;stroke-width:1.5;stroke-miterlimit:10;}
	.st8{fill:#FFFCFE;}
</style>
<g>
	<path class="st0" d="M611.6,538H178.4c-5.2,0-9.4-4.2-9.4-9.4V251.4c0-5.2,4.2-9.4,9.4-9.4h433.3c5.2,0,9.4,4.2,9.4,9.4v277.3
		C621,533.8,616.8,538,611.6,538z"/>
	<path class="st1" d="M240,242h-62.2c-4.8,0-8.8,4.2-8.8,9.4v277.3c0,5.2,3.9,9.4,8.8,9.4H240V242z"/>
</g>
<g class="st2">
	<path class="st3" d="M272.7,330.8h7.7c4.6,0,8.3,1.7,8.3,6.8c0,3.3-1.7,5.4-4.2,6.4l5.2,9.1h-5l-4.6-8.4H277v8.4h-4.4L272.7,330.8
		L272.7,330.8z M280,341.1c2.8,0,4.4-1.2,4.4-3.6s-1.6-3.2-4.4-3.2h-2.9v6.8L280,341.1L280,341.1z"/>
	<path class="st3" d="M292.8,336.2h3.6l0.3,1.7h0.1c1.4-1.2,3.2-2.2,4.9-2.2c4.1,0,6.6,3.4,6.6,8.5c0,5.8-3.5,9.1-7.1,9.1
		c-1.5,0-2.9-0.7-4.2-1.8l0.2,2.8v5.1h-4.4L292.8,336.2L292.8,336.2z M303.9,344.4c0-3.2-1-5-3.3-5c-1.1,0-2.2,0.6-3.3,1.7v7.4
		c1,0.9,2.1,1.3,3,1.3C302.3,349.8,303.9,348,303.9,344.4z"/>
	<path class="st3" d="M317.9,350.5c5.8-5.5,9.6-9.3,9.6-12.5c0-2.2-1.2-3.5-3.3-3.5c-1.6,0-2.9,1.1-4.1,2.3l-2.4-2.4
		c2-2.2,4-3.4,7-3.4c4.2,0,7,2.7,7,6.7c0,3.8-3.5,7.7-7.4,11.8c1.1-0.1,2.6-0.2,3.6-0.2h4.9v3.7h-14.9L317.9,350.5L317.9,350.5z"/>
	<path class="st3" d="M335.6,342.1c0-7.3,3-11.1,7.5-11.1s7.5,3.8,7.5,11.1c0,7.3-2.9,11.3-7.5,11.3S335.6,349.4,335.6,342.1z
		 M346.4,342.1c0-6-1.4-7.7-3.3-7.7s-3.4,1.7-3.4,7.7s1.4,7.9,3.4,7.9S346.4,348.1,346.4,342.1z"/>
	<path class="st3" d="M353.2,350.5c5.8-5.5,9.6-9.3,9.6-12.5c0-2.2-1.2-3.5-3.3-3.5c-1.6,0-2.9,1.1-4.1,2.3l-2.4-2.4
		c2-2.2,4-3.4,7-3.4c4.2,0,7,2.7,7,6.7c0,3.8-3.5,7.7-7.4,11.8c1.1-0.1,2.6-0.2,3.6-0.2h4.9v3.7h-14.9L353.2,350.5L353.2,350.5z"/>
	<path class="st3" d="M371.7,350.5c0-1.6,1.2-2.9,2.7-2.9c1.6,0,2.8,1.2,2.8,2.9c0,1.6-1.2,2.9-2.8,2.9
		C372.9,353.4,371.7,352.2,371.7,350.5z"/>
	<path class="st3" d="M380.6,350.5c5.8-5.5,9.6-9.3,9.6-12.5c0-2.2-1.2-3.5-3.3-3.5c-1.6,0-2.9,1.1-4.1,2.3l-2.4-2.4
		c2-2.2,4-3.4,7.1-3.4c4.2,0,7,2.7,7,6.7c0,3.8-3.5,7.7-7.4,11.8c1.1-0.1,2.6-0.2,3.6-0.2h4.9v3.7h-14.9L380.6,350.5L380.6,350.5z"
		/>
	<path class="st3" d="M398.4,347.5c0-2.7,1.8-4.4,3.8-5.5v-0.1c-1.7-1.2-2.9-2.8-2.9-5.1c0-3.6,2.9-5.8,6.7-5.8
		c3.9,0,6.4,2.3,6.4,5.9c0,2.1-1.4,3.9-2.8,4.9v0.2c2,1.1,3.7,2.7,3.7,5.6c0,3.4-3,5.9-7.5,5.9C401.6,353.4,398.4,351,398.4,347.5z
		 M409.2,347.3c0-2.2-2.1-2.9-4.9-4.1c-1.2,0.9-2,2.3-2,3.8c0,2,1.6,3.3,3.7,3.3C407.8,350.3,409.2,349.3,409.2,347.3z M408.8,337.1
		c0-1.8-1.1-3.1-2.9-3.1c-1.5,0-2.7,1-2.7,2.7c0,2,1.7,2.9,4.1,3.8C408.3,339.5,408.8,338.4,408.8,337.1z"/>
	<path class="st3" d="M416,350.5c5.8-5.5,9.6-9.3,9.6-12.5c0-2.2-1.2-3.5-3.3-3.5c-1.6,0-2.9,1.1-4.1,2.3l-2.4-2.4
		c2-2.2,4-3.4,7-3.4c4.2,0,7,2.7,7,6.7c0,3.8-3.5,7.7-7.4,11.8c1.1-0.1,2.6-0.2,3.6-0.2h4.9v3.7H416V350.5z"/>
	<path class="st3" d="M434.5,350.5c0-1.6,1.2-2.9,2.7-2.9c1.6,0,2.8,1.2,2.8,2.9c0,1.6-1.2,2.9-2.8,2.9
		C435.7,353.4,434.5,352.2,434.5,350.5z"/>
	<path class="st3" d="M453.6,335.1h-10v-3.7h14.8v2.7c-5,6.2-5.8,10.5-6.2,18.9h-4.5C448.1,345.5,449.5,340.8,453.6,335.1z"/>
	<path class="st3" d="M471.3,335.1h-10v-3.7H476v2.7c-5,6.2-5.8,10.5-6.2,18.9h-4.5C465.7,345.5,467.1,340.8,471.3,335.1z"/>
	<path class="st3" d="M478.7,350.5c5.8-5.5,9.6-9.3,9.6-12.5c0-2.2-1.2-3.5-3.3-3.5c-1.6,0-2.9,1.1-4.1,2.3l-2.4-2.4
		c2-2.2,4-3.4,7-3.4c4.2,0,7,2.7,7,6.7c0,3.8-3.5,7.7-7.4,11.8c1.1-0.1,2.6-0.2,3.6-0.2h4.9v3.7h-14.9L478.7,350.5L478.7,350.5z"/>
	<path class="st3" d="M497.2,350.5c0-1.6,1.2-2.9,2.7-2.9c1.6,0,2.8,1.2,2.8,2.9c0,1.6-1.2,2.9-2.8,2.9
		C498.4,353.4,497.2,352.2,497.2,350.5z"/>
	<path class="st3" d="M506.2,342.1c0-7.3,3-11.1,7.5-11.1s7.5,3.8,7.5,11.1c0,7.3-2.9,11.3-7.5,11.3S506.2,349.4,506.2,342.1z
		 M517,342.1c0-6-1.4-7.7-3.3-7.7s-3.4,1.7-3.4,7.7s1.4,7.9,3.4,7.9S517,348.1,517,342.1z"/>
	<path class="st3" d="M523.9,342.1c0-7.3,3-11.1,7.5-11.1c4.6,0,7.5,3.8,7.5,11.1c0,7.3-2.9,11.3-7.5,11.3
		C526.8,353.4,523.9,349.4,523.9,342.1z M534.7,342.1c0-6-1.4-7.7-3.3-7.7s-3.4,1.7-3.4,7.7s1.4,7.9,3.4,7.9
		S534.7,348.1,534.7,342.1z"/>
	<path class="st3" d="M541.5,342.1c0-7.3,3-11.1,7.5-11.1c4.6,0,7.5,3.8,7.5,11.1c0,7.3-2.9,11.3-7.5,11.3
		C544.5,353.4,541.5,349.4,541.5,342.1z M552.4,342.1c0-6-1.4-7.7-3.3-7.7s-3.4,1.7-3.4,7.7s1.4,7.9,3.4,7.9
		S552.4,348.1,552.4,342.1z"/>
</g>
<path class="st4" d="M202.8,321H81.2c-4.5,0-8.2-3.7-8.2-8.2v-8.7c0-4.5,3.7-8.2,8.2-8.2h121.7c4.5,0,8.2,3.7,8.2,8.2v8.7
	C211,317.3,207.3,321,202.8,321z"/>
<path class="st5" d="M202.8,370H48.2c-4.5,0-8.2-3.7-8.2-8.2v-8.7c0-4.5,3.7-8.2,8.2-8.2h154.7c4.5,0,8.2,3.7,8.2,8.2v8.7
	C211,366.3,207.3,370,202.8,370z"/>
<path class="st3" d="M506.6,393H274.4c-0.8,0-1.4-0.6-1.4-1.4v-4.3c0-0.8,0.6-1.4,1.4-1.4h232.3c0.8,0,1.4,0.6,1.4,1.4v4.3
	C508,392.4,507.4,393,506.6,393z"/>
<path class="st5" d="M432.6,413H274.4c-0.8,0-1.4-0.6-1.4-1.4v-4.3c0-0.8,0.6-1.4,1.4-1.4h158.3c0.8,0,1.4,0.6,1.4,1.4v4.3
	C434,412.4,433.4,413,432.6,413z"/>
<path class="st4" d="M338.6,432h-64.3c-0.8,0-1.4-0.6-1.4-1.4v-4.3c0-0.8,0.6-1.4,1.4-1.4h64.3c0.8,0,1.4,0.6,1.4,1.4v4.3
	C340,431.4,339.4,432,338.6,432z"/>
<path class="st3" d="M412.6,432h-64.3c-0.8,0-1.4-0.6-1.4-1.4v-4.3c0-0.8,0.6-1.4,1.4-1.4h64.3c0.8,0,1.4,0.6,1.4,1.4v4.3
	C414,431.4,413.4,432,412.6,432z"/>
<path class="st5" d="M432.6,453H274.4c-0.8,0-1.4-0.6-1.4-1.4v-4.3c0-0.8,0.6-1.4,1.4-1.4h158.3c0.8,0,1.4,0.6,1.4,1.4v4.3
	C434,452.4,433.4,453,432.6,453z"/>
<g>
	<path class="st6" d="M371,481v-12c0,0-17-22-18-34l30,5l8-5c0,0-4-3-3-5s5,4,5,4l1-1l2-3h2v2c0,0,33-15,35-15s14-23,17-22
		s12,32,14,33s10,15,12,8s38-50,88-34s54,70,57,96c0,0,24-19,50-15s48,21,61,26s28,2,25-8s1-26,15-18s12,28,9,31
		s-11.5,25.5-39.5,20.5c-13.8-2.5-62-51-125,3h-126h-52c0,0-5-5-5-4s-1,4-1,4h-28c0,0-7-12,1-16s10-3,10-4s-5-4-6-5s-5-4-6-4
		s-18-4-21-4s-6-6-9-15c0,0-2.3,1.2-3.9-0.1c-0.5-0.4-0.9-1-1.1-1.9c0,0,0-1,4-1c0,0,1-4-2-3s-1.4,2.6-3,1c-1-1-0.3-0.9,0-1.2
		C369.5,481.5,371,481,371,481z"/>
	<path class="st7" d="M538.5,459.5c0,0-10,23-6,33c6.5,16.2,15,23,16,23s-25,0-27,1s-7,2-6,7"/>
	<path class="st7" d="M520.5,527.5c0,0-3-3,2-5"/>
	<path class="st7" d="M476,524c0,0-3-11,7-12c0,0,5-1,7,0"/>
	<path class="st7" d="M481,525c0,0-1-5,2-5"/>
	<path class="st7" d="M488,525c0,0-2-3,2-5"/>
	<path class="st8" d="M421.5,464.5c0,0,3-5,5-4s2,4,1,5S424.5,467.5,421.5,464.5z"/>
	<path class="st8" d="M431,443c0,0,3,9,8,10s10,0,12-4s3-8,1-11s-7-7-11-6S431,436,431,443"/>
	<path class="st8" d="M384,465c0,0,3-13,12-12s11,10,11,11s-4,13-12,12S384,469,384,465z"/>
	<path class="st6" d="M387,465c0,0,2.1-10.7,9-9c4,1,8,4,8,7c0,4-5.2,9.1-7,10C395,474,387,472,387,465z"/>
	<path class="st6" d="M434,443.2c0,0,2.3,6.8,6,7.5c3.8,0.8,7.5,0,9-3s2.3-6,0.8-8.3s-5.3-5.3-8.3-4.5S434,438,434,443.2"/>
	<path class="st8" d="M393.3,464.2c-0.1-0.5,0.3-1,0.7-1.2c0.8-0.3,1.7-0.6,2.2,0.7c0.6,1.8-1.5,2.3-2.3,1.5
		C393.4,464.7,393.3,464.7,393.3,464.2z"/>
	<path class="st8" d="M440.2,443.3c0-0.7,0.5-1.3,1.1-1.4c0.7-0.2,1.7-0.2,1.9,0.9c0.4,1.9-1.5,2.3-2.3,1.5
		C440.4,443.8,440.2,443.7,440.2,443.3z"/>
</g>
<path class="st0" d="M202.8,419h-64.7c-4.5,0-8.2-3.7-8.2-8.2v-8.7c0-4.5,3.7-8.2,8.2-8.2h64.7c4.5,0,8.2,3.7,8.2,8.2v8.7
	C211,415.3,207.3,419,202.8,419z"/>
</svg>
