<?xml version="1.0" encoding="utf-8"?>
<!-- Generator: Adobe Illustrator 21.0.0, SVG Export Plug-In . SVG Version: 6.00 Build 0)  -->
<svg version="1.1" id="Layer_1" xmlns="http://www.w3.org/2000/svg" xmlns:xlink="http://www.w3.org/1999/xlink" x="0px" y="0px"
	 viewBox="0 0 788 768" style="enable-background:new 0 0 788 768;" xml:space="preserve">
<style type="text/css">
	.st0{fill:#0F4C81;}
	.st1{fill:#0D3B63;}
	.st2{fill:#2D74B1;}
	.st3{fill:#A7E1E3;}
	.st4{fill:#FFFFFF;}
	.st5{fill:#FBECCD;}
	.st6{fill:none;stroke:#FFFFFF;stroke-width:1.5;stroke-miterlimit:10;}
	.st7{fill:#FFFCFE;}
</style>
<g>
	<path class="st0" d="M601.7,448.2H168.6c-5.2,0-9.4-4.2-9.4-9.4V161.6c0-5.2,4.2-9.4,9.4-9.4h433.3c5.2,0,9.4,4.2,9.4,9.4v277.3
		C611.2,444,607,448.2,601.7,448.2z"/>
	<path class="st1" d="M230.2,152.2H168c-4.8,0-8.8,4.2-8.8,9.4v277.3c0,5.2,3.9,9.4,8.8,9.4h62.2V152.2z"/>
</g>
<path class="st2" d="M192.1,231.2H56.9c-5,0-9.1-3.7-9.1-8.2v-8.7c0-4.5,4.1-8.2,9.1-8.2h135.3c5,0,9.1,3.7,9.1,8.2v8.7
	C201.2,227.5,197.1,231.2,192.1,231.2z"/>
<path class="st3" d="M196.6,280.2h-88c-2.6,0-4.7-3.7-4.7-8.2v-8.7c0-4.5,2.1-8.2,4.7-8.2h88.1c2.6,0,4.7,3.7,4.7,8.2v8.7
	C201.3,276.5,199.2,280.2,196.6,280.2z"/>
<path class="st4" d="M496.8,303.2H264.6c-0.8,0-1.4-0.6-1.4-1.4v-4.3c0-0.8,0.6-1.4,1.4-1.4h232.3c0.8,0,1.4,0.6,1.4,1.4v4.3
	C498.2,302.6,497.6,303.2,496.8,303.2z"/>
<path class="st5" d="M494.1,323.2H265.3c-1.2,0-2-0.6-2-1.4v-4.3c0-0.8,0.9-1.4,2-1.4h229c1.2,0,2,0.6,2,1.4v4.3
	C496.1,322.6,495.3,323.2,494.1,323.2z"/>
<path class="st3" d="M328.8,342.2h-64.3c-0.8,0-1.4-0.6-1.4-1.4v-4.3c0-0.8,0.6-1.4,1.4-1.4h64.3c0.8,0,1.4,0.6,1.4,1.4v4.3
	C330.2,341.6,329.6,342.2,328.8,342.2z"/>
<path class="st4" d="M490.3,342.2H340.4c-1.9,0-3.3-0.6-3.3-1.4v-4.3c0-0.8,1.4-1.4,3.3-1.4h149.9c1.9,0,3.3,0.6,3.3,1.4v4.3
	C493.6,341.6,492.2,342.2,490.3,342.2z"/>
<path class="st5" d="M486.2,363.2h-221c-1.1,0-2-0.6-2-1.4v-4.3c0-0.8,0.8-1.4,2-1.4h221.1c1.1,0,2,0.6,2,1.4v4.3
	C488.1,362.6,487.3,363.2,486.2,363.2z"/>
<g>
	<path class="st4" d="M266,243.2h7.7c4.6,0,8.3,1.7,8.3,6.8c0,3.3-1.7,5.4-4.2,6.4l5.2,9.1h-4.9l-4.6-8.4h-3.1v8.4H266V243.2z
		 M273.3,253.5c2.8,0,4.4-1.2,4.4-3.6c0-2.4-1.6-3.2-4.4-3.2h-2.9v6.8H273.3z"/>
	<path class="st4" d="M286.1,248.6h3.6l0.3,1.7h0.1c1.4-1.2,3.1-2.2,4.9-2.2c4.1,0,6.6,3.4,6.6,8.5c0,5.8-3.5,9.1-7.1,9.1
		c-1.5,0-2.9-0.7-4.2-1.8l0.1,2.8v5.1h-4.4V248.6z M297.1,256.8c0-3.2-1-5-3.3-5c-1.1,0-2.2,0.6-3.3,1.7v7.4c1,0.9,2.1,1.3,3,1.3
		C295.5,262.2,297.1,260.5,297.1,256.8z"/>
	<path class="st4" d="M311.2,259.9c0-2.7,1.8-4.4,3.8-5.5v-0.1c-1.7-1.2-2.9-2.8-2.9-5.1c0-3.6,2.9-5.8,6.7-5.8
		c3.9,0,6.4,2.3,6.4,5.9c0,2.1-1.4,3.9-2.9,4.9v0.2c2,1.1,3.7,2.7,3.7,5.6c0,3.4-3,5.9-7.5,5.9C314.4,265.9,311.2,263.4,311.2,259.9
		z M322,259.8c0-2.2-2.1-2.9-4.9-4.1c-1.2,0.9-2,2.3-2,3.8c0,2,1.6,3.3,3.7,3.3C320.7,262.7,322,261.7,322,259.8z M321.6,249.6
		c0-1.8-1.1-3.1-2.9-3.1c-1.5,0-2.7,1-2.7,2.7c0,2,1.7,2.9,4,3.8C321.1,252,321.6,250.8,321.6,249.6z"/>
	<path class="st4" d="M328.3,262.8l2-2.8c1.3,1.2,2.8,2.3,4.9,2.3c2.3,0,3.9-1.4,3.9-3.8c0-2.4-1.5-3.8-3.8-3.8
		c-1.3,0-2,0.3-3.3,1.2l-2-1.3l0.6-10.8h11.9v3.7h-8.1l-0.4,4.7c0.9-0.4,1.6-0.6,2.7-0.6c3.7,0,6.8,2.1,6.8,6.7
		c0,4.8-3.7,7.5-7.8,7.5C332.3,265.9,329.9,264.5,328.3,262.8z"/>
	<path class="st4" d="M347.3,263c0-1.6,1.2-2.9,2.7-2.9c1.6,0,2.8,1.2,2.8,2.9c0,1.6-1.2,2.9-2.8,2.9
		C348.5,265.9,347.3,264.6,347.3,263z"/>
	<path class="st4" d="M355.7,262.8l2-2.8c1.3,1.2,2.8,2.3,4.9,2.3c2.3,0,3.9-1.4,3.9-3.8c0-2.4-1.5-3.8-3.8-3.8
		c-1.3,0-2,0.3-3.3,1.2l-2-1.3l0.6-10.8h11.9v3.7h-8.1l-0.4,4.7c0.9-0.4,1.6-0.6,2.7-0.6c3.7,0,6.8,2.1,6.8,6.7
		c0,4.8-3.7,7.5-7.8,7.5C359.7,265.9,357.3,264.5,355.7,262.8z"/>
	<path class="st4" d="M373.9,262.9c5.8-5.5,9.6-9.3,9.6-12.5c0-2.2-1.2-3.5-3.3-3.5c-1.6,0-2.9,1.1-4.1,2.3l-2.4-2.4
		c2-2.2,4-3.4,7-3.4c4.2,0,7,2.7,7,6.7c0,3.8-3.5,7.7-7.4,11.8c1.1-0.1,2.6-0.2,3.6-0.2h4.9v3.7h-14.9V262.9z"/>
	<path class="st4" d="M391.5,262.9c5.8-5.5,9.6-9.3,9.6-12.5c0-2.2-1.2-3.5-3.3-3.5c-1.6,0-2.9,1.1-4.1,2.3l-2.4-2.4
		c2-2.2,4-3.4,7-3.4c4.2,0,7,2.7,7,6.7c0,3.8-3.5,7.7-7.4,11.8c1.1-0.1,2.6-0.2,3.6-0.2h4.9v3.7h-14.9V262.9z"/>
	<path class="st4" d="M410.1,263c0-1.6,1.2-2.9,2.7-2.9c1.6,0,2.8,1.2,2.8,2.9c0,1.6-1.2,2.9-2.8,2.9
		C411.2,265.9,410.1,264.6,410.1,263z"/>
	<path class="st4" d="M418.5,262.8l2-2.8c1.3,1.2,2.8,2.3,4.9,2.3c2.3,0,3.9-1.4,3.9-3.8c0-2.4-1.5-3.8-3.8-3.8
		c-1.3,0-2,0.3-3.3,1.2l-2-1.3l0.6-10.8h11.9v3.7h-8.1l-0.4,4.7c0.9-0.4,1.7-0.6,2.7-0.6c3.7,0,6.8,2.1,6.8,6.7
		c0,4.8-3.7,7.5-7.8,7.5C422.4,265.9,420.1,264.5,418.5,262.8z"/>
	<path class="st4" d="M437.8,261.9h4.8v-13.5h-4v-2.7c2.2-0.4,3.8-1,5.2-1.9h3.3v18.1h4.2v3.6h-13.3V261.9z"/>
	<path class="st4" d="M453.8,262.8l2-2.8c1.3,1.2,2.8,2.3,4.9,2.3c2.3,0,3.9-1.4,3.9-3.8c0-2.4-1.5-3.8-3.8-3.8
		c-1.3,0-2,0.3-3.3,1.2l-2-1.3l0.6-10.8H468v3.7H460l-0.4,4.7c0.9-0.4,1.6-0.6,2.7-0.6c3.7,0,6.8,2.1,6.8,6.7c0,4.8-3.7,7.5-7.8,7.5
		C457.8,265.9,455.4,264.5,453.8,262.8z"/>
	<path class="st4" d="M472.8,263c0-1.6,1.2-2.9,2.7-2.9c1.6,0,2.8,1.2,2.8,2.9c0,1.6-1.2,2.9-2.8,2.9
		C474,265.9,472.8,264.6,472.8,263z"/>
	<path class="st4" d="M481.7,254.5c0-7.3,3-11.1,7.5-11.1s7.5,3.8,7.5,11.1c0,7.3-2.9,11.3-7.5,11.3S481.7,261.9,481.7,254.5z
		 M492.6,254.5c0-6-1.4-7.7-3.3-7.7s-3.4,1.7-3.4,7.7c0,6,1.4,7.9,3.4,7.9S492.6,260.5,492.6,254.5z"/>
	<path class="st4" d="M499.4,254.5c0-7.3,3-11.1,7.5-11.1s7.5,3.8,7.5,11.1c0,7.3-2.9,11.3-7.5,11.3S499.4,261.9,499.4,254.5z
		 M510.3,254.5c0-6-1.4-7.7-3.3-7.7s-3.4,1.7-3.4,7.7c0,6,1.4,7.9,3.4,7.9S510.3,260.5,510.3,254.5z"/>
	<path class="st4" d="M517.1,254.5c0-7.3,3-11.1,7.5-11.1c4.6,0,7.5,3.8,7.5,11.1c0,7.3-2.9,11.3-7.5,11.3
		C520.1,265.9,517.1,261.9,517.1,254.5z M527.9,254.5c0-6-1.4-7.7-3.3-7.7s-3.4,1.7-3.4,7.7c0,6,1.4,7.9,3.4,7.9
		S527.9,260.5,527.9,254.5z"/>
</g>
<path class="st5" d="M349.8,387.5H265c-1.1,0-1.8-0.6-1.8-1.4v-4.3c0-0.8,0.8-1.4,1.8-1.4h84.8c1.1,0,1.8,0.6,1.8,1.4v4.3
	C351.7,386.9,350.9,387.5,349.8,387.5z"/>
<g>
	<path class="st2" d="M478.5,411.2c0-0.3-0.1-0.6-0.1-0.9c-0.4-1.5-1.6-6.1-2.8-9.8c-1.5-4.4-13.2-29.3,4.4-67.5
		c17.6-38.1,13.2-32.3,22-41.1c12.1-12.1,48.4-30.8,60.1-32.3c0,0,2.9,0,0-4.4c-2.9-4.4-4.4-11.7,2.9-19.1c0,0,2.9-2.9,1.5-5.9
		c-0.2-0.4-0.5-0.6-0.7-0.7c-1.8-1.2,0.7-2.2,0.7-2.2s1.5,1.9,2.9,1.5c2.2-0.7-4.4-5.9-4.4-5.9s-0.7-0.7,1.5-1.5
		c0.7-0.2,1.4,0.3,2,0.7c2,1.6,4.9,1.6,6.8-0.1c2.2-2,4.5-4.3,4.5-5c0-1,5.2-18.6,9.8-28.5c1.7-3.7,6.7-4.1,9-0.7
		c3,4.6,6.9,10.9,8.5,15.4c0.5,1.3,1.5,2.4,2.8,3l3.6,1.5c2.5,1.1,5.4,0,6.6-2.4l0.8-1.5c0,0,2.9-1.5,1.5,1.5s-1.5,5.9-1.5,5.9h1.5
		c0,0,2.9-1.5,2.9,0s0,1.5,0,1.5s24.5,11,32.1,16.3c1.2,0.8,2.6,1.1,4,0.8c6.2-1.4,22.9-4.8,24.1-2.4c1.5,2.9-13.2,26.4-14.7,30.8
		s-1.5,14.7-2.9,17.6v1.5c0,0,7.3,1.5,7.3,2.9c0,1.5-7.3,0-7.3,0v1.5l4.4,2.9c0,0,0,2.9-2.9,1.5c0,0-0.1,0-0.1,0
		c-2.2-1.1-4.9-0.4-6.3,1.6c-3.6,4.9-12,14.4-23.4,16c-0.7,0.1-1.4,0.3-2,0.7c-2.9,1.7-11.3,7.5-15.2,17
		c-5.8,14.5-4.4,39.1-4.4,45.3c0,0.1,0,0.3,0,0.4c-0.2,3.1-3,38.2-4.4,43.8c-1.5,5.9-2.9,20.5-1.5,22c1.5,1.5,5.9,4.4,2.9,8.8
		c-2.9,4.4-4.4,8.8-30.8,10.3c-25.7,1.4-91.7,5.6-100.6-7.7c-0.4-0.6-0.6-1.3-0.7-2C482.1,437.6,478.8,415.3,478.5,411.2z"/>
	<path class="st6" d="M550.6,437.2c0,0,30.8-29.3,30.8-63.1c0-16.1-17.6-30.8-23.5-33.7c0,0-4.4-1.5-7.3,0"/>
	<g>
		<path class="st7" d="M609,257.6c0,0,5.6-1,6.1,1.1s-1.6,4-3,3.9S608.7,261.7,609,257.6z"/>
		<path class="st7" d="M630.7,250.9c0,0-4.7,7.9-2.2,12.2c2.4,4.3,6.4,7.3,10.5,6.2s7.7-2.9,8.7-6.3c0.9-3.4,0.7-9.6-2.6-11.8
			C641.8,248.9,635.8,246.4,630.7,250.9"/>
		<path class="st7" d="M584.8,230.6c0,0,11.4-6.1,16.4,1.1c5,7.2-0.3,14.4-1,15c-0.7,0.6-12,5.3-16.4-1.1
			C579.4,239.1,581.9,233.1,584.8,230.6z"/>
		<path class="st2" d="M586.7,232.8c0,0,9.2-5.3,12.3,0.8c1.8,3.6,2.2,8.4,0,10.3c-2.9,2.5-9.9,2-11.7,1.3
			C585.2,244.3,581.6,237.2,586.7,232.8z"/>
		<path class="st2" d="M632.4,253.2c0,0-3.5,5.9-1.7,9.1c1.8,3.2,4.8,5.5,7.9,4.7c3.1-0.8,5.8-2.2,6.5-4.7s0.5-7.2-2-8.9
			C640.8,251.7,636.3,249.9,632.4,253.2"/>
		<path class="st7" d="M591.3,236.9c0.3-0.4,0.9-0.5,1.3-0.2c0.7,0.4,1.5,0.9,0.8,2.1c-0.9,1.6-2.6,0.3-2.5-0.7
			C591,237.3,590.9,237.2,591.3,236.9z"/>
		<path class="st7" d="M636.3,257.7c0.5-0.5,1.2-0.5,1.8-0.1c0.6,0.4,1.2,1.1,0.6,2c-1.1,1.4-2.6,0.3-2.5-0.7
			C636.1,258.3,636,258,636.3,257.7z"/>
	</g>
</g>
<g>
	<path class="st4" d="M358.3,387.1c0-2,1.3-3.2,2.8-4V383c-1.2-0.9-2.2-2.1-2.2-3.7c0-2.6,2.1-4.3,4.9-4.3c2.9,0,4.7,1.7,4.7,4.3
		c0,1.6-1.1,2.8-2.1,3.6v0.1c1.5,0.8,2.7,2,2.7,4.1c0,2.5-2.2,4.4-5.5,4.4C360.6,391.4,358.3,389.6,358.3,387.1z M366.2,387
		c0-1.6-1.5-2.2-3.6-3c-0.9,0.7-1.5,1.7-1.5,2.8c0,1.5,1.2,2.4,2.7,2.4C365.2,389.1,366.2,388.4,366.2,387z M365.9,379.5
		c0-1.3-0.8-2.2-2.2-2.2c-1.1,0-2,0.7-2,2c0,1.5,1.3,2.1,3,2.8C365.5,381.2,365.9,380.4,365.9,379.5z"/>
	<path class="st4" d="M372,388.5h3.5v-9.9h-2.9v-2c1.6-0.3,2.8-0.7,3.8-1.4h2.4v13.2h3.1v2.6H372V388.5z"/>
	<path class="st4" d="M390.1,374.8h4.5c5,0,8.1,2.6,8.1,8.1c0,5.5-3.1,8.2-7.9,8.2h-4.6V374.8z M394.4,388.5c3,0,4.9-1.6,4.9-5.6
		c0-4-1.9-5.5-4.9-5.5h-1v11.1H394.4z"/>
	<path class="st4" d="M404.8,385c0-4,2.8-6.5,5.7-6.5c3.4,0,5.1,2.5,5.1,5.9c0,0.6-0.1,1.2-0.2,1.5H408c0.3,2,1.6,3.1,3.4,3.1
		c1,0,1.9-0.3,2.8-0.9l1.1,2c-1.2,0.8-2.8,1.4-4.3,1.4C407.5,391.4,404.8,389,404.8,385z M412.9,383.7c0-1.7-0.7-2.7-2.3-2.7
		c-1.3,0-2.4,0.9-2.7,2.7H412.9z"/>
	<path class="st4" d="M417.2,389.7l1.5-2c1.1,0.9,2.2,1.3,3.3,1.3c1.2,0,1.8-0.5,1.8-1.3c0-0.9-1.3-1.3-2.6-1.8
		c-1.6-0.6-3.3-1.5-3.3-3.6c0-2.2,1.8-3.8,4.6-3.8c1.8,0,3.2,0.7,4.2,1.5l-1.5,2c-0.9-0.6-1.7-1.1-2.6-1.1c-1.1,0-1.7,0.5-1.7,1.2
		c0,0.9,1.1,1.2,2.4,1.7c1.6,0.6,3.4,1.4,3.4,3.7c0,2.2-1.7,3.9-4.9,3.9C420.2,391.4,418.4,390.7,417.2,389.7z"/>
	<path class="st4" d="M428.6,387.8c0-2.6,2.1-4,7.1-4.6c-0.1-1.2-0.6-2.1-2.1-2.1c-1.1,0-2.2,0.5-3.4,1.2l-1.2-2.1
		c1.5-0.9,3.2-1.6,5.1-1.6c3.1,0,4.7,1.9,4.7,5.4v7.2h-2.6l-0.2-1.3H436c-1.1,0.9-2.3,1.6-3.7,1.6
		C430.1,391.4,428.6,389.9,428.6,387.8z M435.8,387.7v-2.5c-3,0.4-4,1.2-4,2.3c0,1,0.7,1.4,1.6,1.4
		C434.3,388.9,435,388.5,435.8,387.7z"/>
</g>
<path class="st5" d="M193,332.2H71.4c-4.5,0-8.2-3.7-8.2-8.2v-8.7c0-4.5,3.7-8.2,8.2-8.2h121.7c4.5,0,8.2,3.7,8.2,8.2v8.7
	C201.2,328.5,197.5,332.2,193,332.2z"/>
</svg>
