<?xml version="1.0" encoding="utf-8"?>
<!-- Generator: Adobe Illustrator 21.0.0, SVG Export Plug-In . SVG Version: 6.00 Build 0)  -->
<svg version="1.1" id="Layer_1" xmlns="http://www.w3.org/2000/svg" xmlns:xlink="http://www.w3.org/1999/xlink" x="0px" y="0px"
	 viewBox="0 0 295 163.9" style="enable-background:new 0 0 295 163.9;" xml:space="preserve">
<style type="text/css">
	.st0{enable-background:new    ;}
	.st1{clip-path:url(#SVGID_2_);enable-background:new    ;}
	.st2{fill:#587147;}
	.st3{clip-path:url(#SVGID_4_);enable-background:new    ;}
	.st4{fill:#627E4F;}
	.st5{fill:#658352;}
	.st6{fill:#698754;}
	.st7{fill:#6C8C57;}
	.st8{fill:#70905A;}
	.st9{fill:#73945C;}
	.st10{fill:#76995F;}
	.st11{fill:#7A9D62;}
	.st12{clip-path:url(#SVGID_6_);enable-background:new    ;}
	.st13{fill:#5F7A4C;}
	.st14{fill:#5B7649;}
	.st15{fill:#92BC75;}
	.st16{clip-path:url(#SVGID_8_);enable-background:new    ;}
	.st17{clip-path:url(#SVGID_10_);enable-background:new    ;}
	.st18{clip-path:url(#SVGID_12_);enable-background:new    ;}
	.st19{fill:#82A869;}
	.st20{clip-path:url(#SVGID_14_);enable-background:new    ;}
	.st21{clip-path:url(#SVGID_16_);enable-background:new    ;}
	.st22{fill:#7EA265;}
	.st23{clip-path:url(#SVGID_18_);enable-background:new    ;}
	.st24{clip-path:url(#SVGID_20_);enable-background:new    ;}
	.st25{clip-path:url(#SVGID_22_);enable-background:new    ;}
	.st26{clip-path:url(#SVGID_24_);enable-background:new    ;}
	.st27{fill:#5B7549;}
	.st28{clip-path:url(#SVGID_26_);enable-background:new    ;}
	.st29{clip-path:url(#SVGID_28_);enable-background:new    ;}
	.st30{fill:#7CA064;}
	.st31{clip-path:url(#SVGID_30_);enable-background:new    ;}
	.st32{fill:#6D8D58;}
	.st33{fill:#7DA265;}
	.st34{clip-path:url(#SVGID_32_);enable-background:new    ;}
	.st35{clip-path:url(#SVGID_34_);enable-background:new    ;}
	.st36{fill:#7FA366;}
	.st37{fill:#7B9E63;}
	.st38{fill:#556E45;}
	.st39{fill:#799C61;}
	.st40{clip-path:url(#SVGID_36_);enable-background:new    ;}
	.st41{clip-path:url(#SVGID_38_);enable-background:new    ;}
	.st42{clip-path:url(#SVGID_40_);enable-background:new    ;}
	.st43{clip-path:url(#SVGID_42_);enable-background:new    ;}
	.st44{fill:#556D44;}
	.st45{clip-path:url(#SVGID_44_);enable-background:new    ;}
	.st46{clip-path:url(#SVGID_46_);enable-background:new    ;}
	.st47{fill:#6A8855;}
	.st48{clip-path:url(#SVGID_48_);enable-background:new    ;}
	.st49{clip-path:url(#SVGID_50_);enable-background:new    ;}
	.st50{fill:#7DA165;}
	.st51{clip-path:url(#SVGID_52_);enable-background:new    ;}
	.st52{fill:#688654;}
	.st53{fill:#83A869;}
	.st54{fill:#81A768;}
	.st55{fill:#6C8B57;}
	.st56{fill:#83A969;}
	.st57{fill:#75975E;}
	.st58{fill:#72935C;}
	.st59{fill:#7EA366;}
	.st60{fill:#82A768;}
	.st61{clip-path:url(#SVGID_54_);enable-background:new    ;}
	.st62{fill:#81A668;}
</style>
<g>
	<g>
		<g class="st0">
			<g class="st0">
				<defs>
					<path id="SVGID_1_" class="st0" d="M244.7,34.1l0,8.2c0-0.5-0.6-1.3-0.6-1.4l0-8.2C244.1,32.8,244.7,33.6,244.7,34.1z"/>
				</defs>
				<clipPath id="SVGID_2_">
					<use xlink:href="#SVGID_1_"  style="overflow:visible;"/>
				</clipPath>
				<g class="st1">
					<path class="st2" d="M244.7,34.1l0,8.2c0-0.5-0.6-1.3-0.6-1.4l0-8.2C244.1,32.8,244.7,33.6,244.7,34.1"/>
				</g>
			</g>
			<g class="st0">
				<defs>
					<path id="SVGID_3_" class="st0" d="M249.8,33.6l0,8.2c0,0.2-0.1,0.4-0.5,0.6c-0.7,0.4-1.3,0.4-1.3,0.7l0-8.2
						c0-0.3,0.6-0.3,1.3-0.7C249.7,34,249.8,33.8,249.8,33.6z"/>
				</defs>
				<clipPath id="SVGID_4_">
					<use xlink:href="#SVGID_3_"  style="overflow:visible;"/>
				</clipPath>
				<g class="st3">
					<path class="st4" d="M249.8,33.6l0,8.2c0,0,0,0,0,0L249.8,33.6C249.8,33.6,249.8,33.6,249.8,33.6"/>
					<path class="st5" d="M249.8,33.6l0,8.2c0,0,0,0.1,0,0.1L249.8,33.6C249.8,33.7,249.8,33.7,249.8,33.6"/>
					<path class="st6" d="M249.8,33.7l0,8.2c0,0,0,0,0,0.1L249.8,33.7C249.7,33.8,249.7,33.7,249.8,33.7"/>
					<path class="st7" d="M249.7,33.8l0,8.2c0,0,0,0,0,0.1L249.7,33.8C249.7,33.8,249.7,33.8,249.7,33.8"/>
					<path class="st8" d="M249.7,33.9l0,8.2c0,0,0,0-0.1,0.1L249.7,33.9C249.7,33.9,249.7,33.9,249.7,33.9"/>
					<path class="st9" d="M249.7,33.9l0,8.2c0,0-0.1,0.1-0.1,0.1L249.7,33.9C249.6,34,249.6,34,249.7,33.9"/>
					<path class="st10" d="M249.6,34l0,8.2c-0.1,0.1-0.1,0.1-0.2,0.2l0-8.2C249.4,34.2,249.5,34.1,249.6,34"/>
					<path class="st11" d="M249.3,34.2l0,8.2c0,0,0,0,0,0c-0.5,0.3-0.9,0.4-1.1,0.5l0-8.2C248.4,34.6,248.8,34.5,249.3,34.2
						C249.3,34.2,249.3,34.2,249.3,34.2"/>
					<path class="st10" d="M248.1,34.7l0,8.2c0,0-0.1,0-0.1,0.1L248.1,34.7C248.1,34.8,248.1,34.8,248.1,34.7"/>
					<path class="st9" d="M248.1,34.8l0,8.2c0,0,0,0,0,0L248.1,34.8C248.1,34.8,248.1,34.8,248.1,34.8"/>
					<path class="st8" d="M248.1,34.8l0,8.2c0,0,0,0,0,0L248.1,34.8C248,34.8,248,34.8,248.1,34.8"/>
					<path class="st7" d="M248,34.8l0,8.2c0,0,0,0,0,0L248,34.8C248,34.9,248,34.9,248,34.8"/>
					<path class="st6" d="M248,34.9l0,8.2c0,0,0,0,0,0L248,34.9C248,34.9,248,34.9,248,34.9"/>
					<path class="st5" d="M248,34.9l0,8.2c0,0,0,0,0,0L248,34.9C248,34.9,248,34.9,248,34.9"/>
					<polyline class="st4" points="248,34.9 248,43.1 248,43.1 248,34.9 248,34.9 					"/>
				</g>
			</g>
			<g class="st0">
				<defs>
					<path id="SVGID_5_" class="st0" d="M248,35l0,8.2c0,0.3-0.8,0.4-1.2,0.1c-0.4-0.2-0.6,0.1-1.1-0.2c-0.3-0.2-0.8-0.2-1-0.3
						c-0.1,0-0.1-0.1-0.1-0.1l0-8.2c0,0.1,0,0.1,0.1,0.1c0.2,0.1,0.7,0.1,1,0.3c0.5,0.3,0.7,0,1.1,0.2C247.2,35.4,248,35.3,248,35z"
						/>
				</defs>
				<clipPath id="SVGID_6_">
					<use xlink:href="#SVGID_5_"  style="overflow:visible;"/>
				</clipPath>
				<g class="st12">
					<polyline class="st4" points="248,35 248,43.1 248,43.2 248,35 248,35 					"/>
					<path class="st5" d="M248,35l0,8.2c0,0,0,0,0,0L248,35C248,35,248,35,248,35"/>
					<path class="st6" d="M248,35l0,8.2c0,0,0,0,0,0L248,35C248,35,248,35,248,35"/>
					<path class="st7" d="M248,35l0,8.2c0,0,0,0,0,0L248,35C248,35.1,248,35.1,248,35"/>
					<path class="st8" d="M248,35.1l0,8.2c0,0,0,0,0,0L248,35.1C248,35.1,248,35.1,248,35.1"/>
					<path class="st9" d="M248,35.1l0,8.2c0,0,0,0,0,0L248,35.1C248,35.1,248,35.1,248,35.1"/>
					<path class="st10" d="M248,35.1l0,8.2c0,0,0,0-0.1,0L248,35.1C247.9,35.1,247.9,35.1,248,35.1"/>
					<path class="st11" d="M247.9,35.2l0,8.2c0,0-0.1,0-0.1,0.1l0-8.2C247.8,35.2,247.9,35.2,247.9,35.2"/>
					<path class="st10" d="M247.8,35.2l0,8.2c0,0-0.1,0-0.1,0l0-8.2C247.7,35.2,247.7,35.2,247.8,35.2"/>
					<path class="st9" d="M247.7,35.2l0,8.2c0,0-0.1,0-0.1,0l0-8.2C247.6,35.3,247.6,35.2,247.7,35.2"/>
					<path class="st8" d="M247.5,35.3l0,8.2c0,0-0.1,0-0.1,0L247.5,35.3C247.5,35.3,247.5,35.3,247.5,35.3"/>
					<path class="st7" d="M247.4,35.3l0,8.2c0,0-0.1,0-0.1,0L247.4,35.3C247.4,35.3,247.4,35.3,247.4,35.3"/>
					<path class="st6" d="M247.4,35.3l0,8.2c0,0-0.1,0-0.1,0L247.4,35.3C247.3,35.3,247.3,35.3,247.4,35.3"/>
					<path class="st5" d="M247.3,35.3l0,8.2c0,0-0.1,0-0.1,0L247.3,35.3C247.2,35.3,247.2,35.3,247.3,35.3"/>
					<path class="st4" d="M247.2,35.2l0,8.2c0,0-0.1,0-0.1,0L247.2,35.2C247.1,35.2,247.1,35.2,247.2,35.2"/>
					<path class="st13" d="M247.1,35.2l0,8.2c0,0-0.1,0-0.1,0L247.1,35.2C247,35.2,247.1,35.2,247.1,35.2"/>
					<path class="st14" d="M247,35.2l0,8.2c0,0-0.1,0-0.1,0L247,35.2C246.9,35.2,247,35.2,247,35.2"/>
					<path class="st2" d="M246.9,35.2l0,8.2c0,0-0.1,0-0.1,0c0,0-0.1,0-0.1-0.1l0-8.2C246.7,35.1,246.8,35.1,246.9,35.2
						C246.8,35.2,246.9,35.2,246.9,35.2"/>
					<path class="st14" d="M246.7,35.1l0,8.2c0,0,0,0-0.1,0L246.7,35.1C246.7,35.1,246.7,35.1,246.7,35.1"/>
					<path class="st13" d="M246.6,35.1l0,8.2c0,0,0,0,0,0L246.6,35.1C246.6,35.1,246.6,35.1,246.6,35.1"/>
					<path class="st4" d="M246.6,35.1l0,8.2c0,0,0,0,0,0L246.6,35.1C246.6,35,246.6,35,246.6,35.1"/>
					<path class="st5" d="M246.6,35l0,8.2c0,0,0,0,0,0L246.6,35C246.5,35,246.6,35,246.6,35"/>
					<path class="st6" d="M246.5,35l0,8.2c0,0,0,0,0,0L246.5,35C246.5,35,246.5,35,246.5,35"/>
					<path class="st7" d="M246.5,35l0,8.2c0,0,0,0-0.1,0L246.5,35C246.4,35,246.5,35,246.5,35"/>
					<path class="st8" d="M246.4,35l0,8.2c0,0-0.1,0-0.1,0l0-8.2C246.3,35,246.4,35,246.4,35"/>
					<path class="st7" d="M246.3,35l0,8.2c0,0,0,0-0.1,0L246.3,35C246.2,35,246.2,35,246.3,35"/>
					<path class="st6" d="M246.2,35l0,8.2c0,0,0,0-0.1,0L246.2,35C246.2,35,246.2,35,246.2,35"/>
					<path class="st5" d="M246.1,35l0,8.2c0,0,0,0,0,0L246.1,35C246.1,35,246.1,35,246.1,35"/>
					<path class="st4" d="M246.1,35l0,8.2c0,0,0,0-0.1,0L246.1,35C246.1,35,246.1,35,246.1,35"/>
					<path class="st13" d="M246,35l0,8.2c0,0,0,0-0.1,0L246,35C246,35,246,35,246,35"/>
					<path class="st14" d="M246,35l0,8.2c0,0-0.1,0-0.1,0L246,35C245.9,35,246,35,246,35"/>
					<path class="st2" d="M245.9,35l0,8.2c-0.1,0-0.1,0-0.2-0.1c-0.1,0-0.1-0.1-0.2-0.1l0-8.2c0.1,0,0.1,0,0.2,0.1
						C245.8,34.9,245.8,35,245.9,35"/>
					<path class="st14" d="M245.6,34.8l0,8.2c-0.1,0-0.1,0-0.2-0.1l0-8.2C245.4,34.8,245.5,34.8,245.6,34.8"/>
					<path class="st13" d="M245.4,34.8l0,8.2c-0.2-0.1-0.4-0.1-0.5-0.1l0-8.2C245,34.7,245.2,34.7,245.4,34.8"/>
					<path class="st14" d="M244.9,34.6l0,8.2c0,0-0.1,0-0.1,0L244.9,34.6C244.8,34.6,244.8,34.6,244.9,34.6"/>
					<path class="st2" d="M244.8,34.6l0,8.2c0,0,0,0-0.1,0c-0.1,0-0.1-0.1-0.1-0.1l0-8.2C244.6,34.5,244.7,34.6,244.8,34.6
						C244.7,34.6,244.7,34.6,244.8,34.6"/>
				</g>
			</g>
			<g>
				<path class="st15" d="M249.1,32.7c0.3,0.2,0.6,0.4,0.6,0.5c0,0.3,0.4,0.7-0.4,1.1S248,34.7,248,35c0.1,0.3-0.8,0.4-1.2,0.2
					c-0.4-0.2-0.6,0.1-1.1-0.2c-0.3-0.2-0.8-0.2-1-0.3c-0.1-0.1-0.1-0.1,0-0.3c0.3-0.4-0.5-1.5-0.6-1.6c0.3-0.4,1.4-0.6,1.7-0.7
					c0.3-0.1,1.6-0.2,1.7-0.2C247.5,31.9,248.5,32.3,249.1,32.7z"/>
			</g>
		</g>
		<g class="st0">
			<g class="st0">
				<defs>
					<path id="SVGID_7_" class="st0" d="M245.1,38.4l0,8.2c0,1.3-2.7,3.6-3.1,4.3c-0.5,0.7-3,0.5-4.4,0.9c-1.4,0.4-3.3,6.2-3.4,6.5
						l0-8.2c0.1-0.3,2-6.1,3.4-6.5c1.5-0.4,4-0.2,4.4-0.9C242.4,42,245.1,39.7,245.1,38.4z"/>
				</defs>
				<clipPath id="SVGID_8_">
					<use xlink:href="#SVGID_7_"  style="overflow:visible;"/>
				</clipPath>
				<g class="st16">
					<path class="st4" d="M245.1,38.4l0,8.2c0,0,0,0,0,0L245.1,38.4C245.1,38.4,245.1,38.4,245.1,38.4"/>
					<path class="st5" d="M245.1,38.4l0,8.2c0,0.1,0,0.1,0,0.2l0-8.2C245.1,38.5,245.1,38.5,245.1,38.4"/>
					<path class="st6" d="M245.1,38.6l0,8.2c0,0.1,0,0.2-0.1,0.3l0-8.2C245,38.8,245.1,38.7,245.1,38.6"/>
					<path class="st7" d="M245,38.9l0,8.2c-0.1,0.1-0.1,0.3-0.2,0.4l0-8.2C244.9,39.1,245,39,245,38.9"/>
					<path class="st8" d="M244.8,39.3l0,8.2c-0.2,0.3-0.3,0.5-0.6,0.8l0-8.2C244.5,39.8,244.7,39.6,244.8,39.3"/>
					<path class="st9" d="M244.2,40.1l0,8.2c-0.8,1-1.8,1.9-2.2,2.4l0-8.2C242.4,42.1,243.5,41.1,244.2,40.1"/>
					<path class="st8" d="M242.1,42.5l0,8.2c0,0-0.1,0.1-0.1,0.1c0,0,0,0,0,0l0-8.2c0,0,0,0,0,0C242,42.6,242,42.6,242.1,42.5"/>
					<path class="st9" d="M241.9,42.7l0,8.2c0,0,0,0-0.1,0.1L241.9,42.7C241.9,42.7,241.9,42.7,241.9,42.7"/>
					<path class="st10" d="M241.9,42.8l0,8.2c0,0-0.1,0.1-0.1,0.1l0-8.2C241.8,42.8,241.8,42.8,241.9,42.8"/>
					<path class="st11" d="M241.7,42.9l0,8.2c-0.1,0-0.2,0.1-0.3,0.1l0-8.2C241.6,43,241.7,42.9,241.7,42.9"/>
					<path class="st10" d="M241.4,43l0,8.2c-0.1,0-0.3,0.1-0.5,0.1l0-8.2C241.1,43.1,241.3,43,241.4,43"/>
					<path class="st9" d="M241,43.1l0,8.2c-0.2,0-0.5,0.1-0.8,0.1l0-8.2C240.5,43.2,240.7,43.2,241,43.1"/>
					<path class="st8" d="M240.2,43.2l0,8.2c-0.4,0-0.9,0.1-1.3,0.1l0-8.2C239.3,43.3,239.8,43.3,240.2,43.2"/>
					<path class="st9" d="M238.9,43.3l0,8.2c-0.3,0-0.6,0.1-0.9,0.1l0-8.2C238.3,43.4,238.6,43.4,238.9,43.3"/>
					<path class="st10" d="M238,43.5l0,8.2c-0.2,0-0.3,0.1-0.5,0.1c-0.1,0-0.3,0.1-0.5,0.3l0-8.2c0.2-0.1,0.3-0.2,0.5-0.3
						C237.7,43.5,237.8,43.5,238,43.5"/>
					<path class="st9" d="M237.1,43.8l0,8.2c-0.1,0.1-0.2,0.2-0.3,0.4l0-8.2C236.9,44.1,237,43.9,237.1,43.8"/>
					<path class="st8" d="M236.7,44.2l0,8.2c-0.2,0.2-0.4,0.5-0.6,0.9l0-8.2C236.4,44.7,236.6,44.4,236.7,44.2"/>
					<path class="st7" d="M236.2,45.1l0,8.2c-0.5,1-1,2.2-1.4,3.2l0-8.2C235.1,47.3,235.6,46,236.2,45.1"/>
					<path class="st6" d="M234.8,48.3l0,8.2c-0.4,1-0.6,1.7-0.6,1.8l0-8.2C234.2,50,234.4,49.2,234.8,48.3"/>
				</g>
			</g>
			<g class="st0">
				<defs>
					<path id="SVGID_9_" class="st0" d="M165.2,72.5l0,8.2c0,0,0-0.1,0-0.1c0,0,0,0,0-0.1l0-8.2C165.2,72.4,165.2,72.4,165.2,72.5
						C165.2,72.5,165.2,72.5,165.2,72.5z"/>
				</defs>
				<clipPath id="SVGID_10_">
					<use xlink:href="#SVGID_9_"  style="overflow:visible;"/>
				</clipPath>
				<g class="st17">
					<path class="st2" d="M165.2,72.5l0,8.2c0,0,0-0.1,0-0.1c0,0,0,0,0-0.1l0-8.2C165.2,72.4,165.2,72.4,165.2,72.5
						C165.2,72.5,165.2,72.5,165.2,72.5"/>
				</g>
			</g>
			<g class="st0">
				<defs>
					<path id="SVGID_11_" class="st0" d="M236.4,50.8l0,8.2c-0.1,0.1-1.1,2.1-2.2,2.1c-1.2,0-4.9,3.2-5.1,4.3
						c-0.2,1.1-5.6,3.7-7.2,4.1c-1.5,0.4-2.7,2.4-3.8,4.4c-1.1,2-6.2,7-6.5,7.2l0-8.2c0.3-0.3,5.3-5.2,6.5-7.2
						c1.1-2,2.3-4.1,3.8-4.4c1.5-0.4,7-3,7.2-4.1c0.2-1.1,4-4.3,5.1-4.3C235.3,53,236.3,50.9,236.4,50.8z"/>
				</defs>
				<clipPath id="SVGID_12_">
					<use xlink:href="#SVGID_11_"  style="overflow:visible;"/>
				</clipPath>
				<g class="st18">
					<path class="st7" d="M236.4,50.8l0,8.2c0,0-0.1,0.1-0.1,0.3l0-8.2C236.3,50.9,236.3,50.9,236.4,50.8"/>
					<path class="st8" d="M236.2,51.1l0,8.2c-0.1,0.2-0.3,0.5-0.6,0.8l0-8.2C235.9,51.6,236.1,51.3,236.2,51.1"/>
					<path class="st9" d="M235.7,51.9l0,8.2c-0.1,0.2-0.3,0.3-0.4,0.5l0-8.2C235.4,52.3,235.5,52.1,235.7,51.9"/>
					<path class="st10" d="M235.2,52.4l0,8.2c-0.1,0.1-0.3,0.2-0.4,0.3l0-8.2C235,52.6,235.1,52.5,235.2,52.4"/>
					<path class="st11" d="M234.8,52.7l0,8.2c-0.1,0.1-0.2,0.1-0.3,0.1l0-8.2C234.6,52.8,234.7,52.8,234.8,52.7"/>
					<path class="st10" d="M234.5,52.9l0,8.2c-0.1,0-0.1,0-0.2,0l0-8.2C234.4,52.9,234.5,52.9,234.5,52.9"/>
					<path class="st9" d="M234.4,52.9l0,8.2c0,0-0.1,0-0.1,0L234.4,52.9C234.3,52.9,234.3,52.9,234.4,52.9"/>
					<path class="st8" d="M234.3,52.9l0,8.2c0,0,0,0-0.1,0L234.3,52.9C234.2,52.9,234.3,52.9,234.3,52.9"/>
					<path class="st7" d="M234.2,52.9l0,8.2c0,0,0,0-0.1,0L234.2,52.9C234.2,52.9,234.2,52.9,234.2,52.9"/>
					<polyline class="st6" points="234.2,52.9 234.1,61.1 234.1,61.1 234.1,61.1 234.1,52.9 234.1,52.9 234.2,52.9 					"/>
					<path class="st7" d="M234.1,52.9l0,8.2c0,0,0,0-0.1,0L234.1,52.9C234.1,52.9,234.1,52.9,234.1,52.9"/>
					<path class="st8" d="M234.1,52.9l0,8.2c0,0,0,0-0.1,0L234.1,52.9C234,52.9,234.1,52.9,234.1,52.9"/>
					<path class="st9" d="M234,52.9l0,8.2c0,0,0,0-0.1,0L234,52.9C234,52.9,234,52.9,234,52.9"/>
					<path class="st10" d="M234,52.9l0,8.2c-0.1,0-0.1,0-0.2,0.1l0-8.2C233.8,53,233.9,52.9,234,52.9"/>
					<path class="st11" d="M233.8,53l0,8.2c-0.2,0.1-0.5,0.2-0.8,0.4l0-8.2C233.2,53.2,233.5,53.1,233.8,53"/>
					<path class="st10" d="M232.9,53.4l0,8.2c-0.7,0.4-1.5,1-2.2,1.7l0-8.2C231.4,54.4,232.2,53.8,232.9,53.4"/>
					<path class="st9" d="M230.7,55.1l0,8.2c-0.5,0.4-0.9,0.9-1.2,1.3l0-8.2C229.8,56,230.3,55.5,230.7,55.1"/>
					<path class="st8" d="M229.5,56.4l0,8.2c-0.1,0.2-0.3,0.3-0.3,0.5l0-8.2C229.3,56.7,229.4,56.5,229.5,56.4"/>
					<path class="st7" d="M229.2,56.8l0,8.2c0,0.1-0.1,0.2-0.1,0.2l0-8.2C229.1,57,229.1,56.9,229.2,56.8"/>
					<path class="st6" d="M229.1,57.1l0,8.2c0,0,0,0.1,0,0.1c0,0,0,0.1,0,0.1l0-8.2c0,0,0-0.1,0-0.1C229,57.2,229.1,57.1,229.1,57.1
						"/>
					<path class="st7" d="M229,57.3l0,8.2c0,0,0,0.1,0,0.1L229,57.3C229,57.4,229,57.3,229,57.3"/>
					<path class="st8" d="M229,57.4l0,8.2c0,0.1-0.1,0.1-0.1,0.2l0-8.2C228.9,57.5,228.9,57.4,229,57.4"/>
					<path class="st9" d="M228.9,57.5l0,8.2c-0.1,0.1-0.2,0.2-0.3,0.3l0-8.2C228.7,57.7,228.8,57.6,228.9,57.5"/>
					<path class="st10" d="M228.6,57.8l0,8.2c-0.3,0.3-0.9,0.7-1.5,1.1l0-8.2C227.7,58.5,228.3,58.1,228.6,57.8"/>
					<path class="st11" d="M227.1,58.9l0,8.2c-1.6,1-3.7,1.9-4.9,2.3l0-8.2C223.4,60.8,225.5,59.8,227.1,58.9"/>
					<path class="st10" d="M222.2,61.2l0,8.2c-0.1,0-0.3,0.1-0.4,0.1c-0.1,0-0.1,0-0.2,0.1l0-8.2c0.1,0,0.1,0,0.2-0.1
						C222,61.3,222.1,61.2,222.2,61.2"/>
					<path class="st11" d="M221.7,61.4l0,8.2c-0.2,0.1-0.3,0.1-0.5,0.2l0-8.2C221.3,61.5,221.5,61.4,221.7,61.4"/>
					<path class="st10" d="M221.2,61.6l0,8.2c-0.2,0.1-0.4,0.3-0.6,0.5l0-8.2C220.8,61.9,221,61.7,221.2,61.6"/>
					<path class="st9" d="M220.6,62l0,8.2c-0.2,0.2-0.5,0.5-0.7,0.7l0-8.2C220.1,62.5,220.3,62.3,220.6,62"/>
					<path class="st8" d="M219.9,62.8l0,8.2c-0.7,0.8-1.3,1.9-1.8,3c-0.2,0.3-0.5,0.7-0.8,1.1l0-8.2c0.3-0.4,0.6-0.8,0.8-1.1
						C218.6,64.7,219.2,63.6,219.9,62.8"/>
					<path class="st9" d="M217.3,66.9l0,8.2c-1.8,2.3-5.4,5.9-5.7,6.1l0-8.2C211.8,72.7,215.4,69.2,217.3,66.9"/>
				</g>
			</g>
			<g>
				<polygon class="st19" points="211.6,73 211.6,81.1 209,82 209,73.9 				"/>
			</g>
			<g class="st0">
				<defs>
					<path id="SVGID_13_" class="st0" d="M163.6,76.2l0,8.2c0,0,0,0,0,0c0-0.1,0-0.1,0-0.2l0-8.2C163.6,76.1,163.6,76.2,163.6,76.2
						C163.6,76.2,163.6,76.2,163.6,76.2z"/>
				</defs>
				<clipPath id="SVGID_14_">
					<use xlink:href="#SVGID_13_"  style="overflow:visible;"/>
				</clipPath>
				<g class="st20">
					<path class="st2" d="M163.6,76.2l0,8.2c0,0,0,0,0,0c0-0.1,0-0.1,0-0.2l0-8.2C163.6,76.1,163.6,76.2,163.6,76.2
						C163.6,76.2,163.6,76.2,163.6,76.2"/>
				</g>
			</g>
			<g class="st0">
				<defs>
					<path id="SVGID_15_" class="st0" d="M151,75.3l0,8.2c-0.1,0-2.2,0.6-3.4,0.9c-1.2,0.3-3.2,0.2-4.1,0.6c-0.9,0.4-2.5,0.5-3.4,1
						c-0.9,0.5-2.3,1-3.3,1.6c-0.9,0.7-1.9,2.1-2.3,2.5c-0.3,0.4-0.6,1.1-0.6,1.1l0-8.2c0,0,0.2-0.7,0.6-1.1
						c0.3-0.4,1.4-1.8,2.3-2.5c0.9-0.7,2.3-1.1,3.3-1.6c0.9-0.5,2.6-0.6,3.4-1c0.9-0.4,2.9-0.3,4.1-0.6
						C148.8,75.9,150.9,75.3,151,75.3z"/>
				</defs>
				<clipPath id="SVGID_16_">
					<use xlink:href="#SVGID_15_"  style="overflow:visible;"/>
				</clipPath>
				<g class="st21">
					<path class="st10" d="M151,75.3l0,8.2c-0.1,0-2.2,0.6-3.4,0.9c-0.1,0-0.2,0-0.3,0.1l0-8.2c0.1,0,0.2,0,0.3-0.1
						C148.8,75.9,150.9,75.3,151,75.3"/>
					<path class="st9" d="M147.3,76.2l0,8.2c-0.2,0-0.5,0.1-0.8,0.1l0-8.2C146.8,76.3,147,76.3,147.3,76.2"/>
					<path class="st8" d="M146.5,76.3l0,8.2c-0.6,0.1-1.2,0.1-1.7,0.1l0-8.2C145.4,76.4,146,76.4,146.5,76.3"/>
					<path class="st9" d="M144.8,76.5l0,8.2c-0.2,0-0.5,0.1-0.7,0.1l0-8.2C144.3,76.5,144.6,76.5,144.8,76.5"/>
					<path class="st10" d="M144.1,76.6l0,8.2c-0.2,0-0.3,0.1-0.4,0.1l0-8.2C143.8,76.6,144,76.6,144.1,76.6"/>
					<path class="st11" d="M143.7,76.7l0,8.2c-0.1,0-0.1,0-0.2,0.1c-0.1,0-0.2,0.1-0.3,0.1l0-8.2c0.1,0,0.2-0.1,0.3-0.1
						C143.6,76.7,143.6,76.7,143.7,76.7"/>
					<path class="st10" d="M143.3,76.8l0,8.2c-0.7,0.2-1.7,0.3-2.5,0.6l0-8.2C141.6,77.2,142.6,77,143.3,76.8"/>
					<path class="st11" d="M140.8,77.4l0,8.2c-0.3,0.1-0.5,0.2-0.7,0.3c-0.8,0.5-2,0.9-2.9,1.4l0-8.2c0.9-0.5,2.1-0.9,2.9-1.4
						C140.3,77.6,140.5,77.5,140.8,77.4"/>
					<path class="st10" d="M137.2,79.1l0,8.2c-0.1,0.1-0.2,0.1-0.3,0.2c-0.2,0.1-0.3,0.2-0.5,0.4l0-8.2c0.2-0.1,0.3-0.3,0.5-0.4
						C136.9,79.3,137,79.2,137.2,79.1"/>
					<path class="st9" d="M136.4,79.7l0,8.2c-0.8,0.7-1.5,1.7-1.8,2.1c0,0,0,0,0,0.1l0-8.2c0,0,0,0,0-0.1
						C134.8,81.5,135.6,80.5,136.4,79.7"/>
					<path class="st8" d="M134.5,81.9l0,8.2c-0.1,0.1-0.1,0.2-0.2,0.3l0-8.2C134.4,82.1,134.4,82,134.5,81.9"/>
					<path class="st7" d="M134.3,82.2l0,8.2c-0.1,0.2-0.2,0.4-0.3,0.5l0-8.2C134.1,82.5,134.2,82.3,134.3,82.2"/>
					<path class="st6" d="M134.1,82.7l0,8.2c-0.1,0.1-0.1,0.2-0.1,0.3l0-8.2C134,82.9,134,82.8,134.1,82.7"/>
				</g>
			</g>
			<g>
				<polygon class="st19" points="134,83 133.9,91.1 132,92.2 132,84.1 				"/>
			</g>
			<g>
				<polygon class="st22" points="132,84.1 132,92.2 130.9,92.4 130.9,84.3 				"/>
			</g>
			<g class="st0">
				<defs>
					<path id="SVGID_17_" class="st0" d="M130.9,84.3l0,8.2c0,0.1-0.9,1.3-1.2,1.8l0-8.2C130,85.6,130.8,84.3,130.9,84.3z"/>
				</defs>
				<clipPath id="SVGID_18_">
					<use xlink:href="#SVGID_17_"  style="overflow:visible;"/>
				</clipPath>
				<g class="st23">
					<path class="st8" d="M130.9,84.3l0,8.2c0,0.1-0.8,1.3-1.2,1.8l0-8.2C130,85.6,130.8,84.3,130.9,84.3"/>
					<path class="st9" d="M129.7,86l0,8.2c0,0,0,0,0,0L129.7,86C129.7,86,129.7,86,129.7,86"/>
				</g>
			</g>
			<g>
				<path class="st15" d="M151,75.3c-0.1,0-2.2,0.6-3.4,0.9c-1.2,0.3-3.2,0.2-4.1,0.6c-0.9,0.4-2.5,0.5-3.4,1
					c-0.9,0.5-2.3,1-3.3,1.6c-0.9,0.7-1.9,2.1-2.3,2.5c-0.3,0.4-0.6,1.1-0.6,1.1l-1.9,1.1l-1.2,0.2c0,0.1-0.9,1.3-1.2,1.8
					c-1.3-2.2-2.6-4.4-3.8-6.6c1.2-0.6,2.6-1.1,3.2-1.1c0.9-0.1,3.7-0.6,5.2-1.1c1.4-0.5,6.6-3,7.6-3c1,0,3.2-0.2,3.3-0.2
					c0,0,0.3,0.3,0.7,0.5c0.2,0.1,0.4,0.2,0.6,0.2C147,74.9,150.8,75.3,151,75.3z"/>
			</g>
			<g class="st0">
				<defs>
					<path id="SVGID_19_" class="st0" d="M129.7,86.1l0,8.2c-1.3-2.2-2.6-4.4-3.8-6.6l0-8.2C127.1,81.7,128.4,83.9,129.7,86.1z"/>
				</defs>
				<clipPath id="SVGID_20_">
					<use xlink:href="#SVGID_19_"  style="overflow:visible;"/>
				</clipPath>
				<g class="st24">
					<path class="st2" d="M129.7,86.1l0,8.2c-1.3-2.2-2.6-4.4-3.8-6.6l0-8.2C127.1,81.7,128.4,83.9,129.7,86.1"/>
				</g>
			</g>
			<g class="st0">
				<defs>
					<path id="SVGID_21_" class="st0" d="M124.6,86.6l0,8.2c0-0.1-0.1-0.3-0.6-0.8c-0.9-0.8-1.3-1.5-1.9-1.9
						c-0.2-0.1-0.5-0.2-0.9-0.2l0-8.2c0.4,0,0.6,0.1,0.9,0.2c0.6,0.4,1,1.1,1.9,1.9C124.4,86.2,124.6,86.5,124.6,86.6z"/>
				</defs>
				<clipPath id="SVGID_22_">
					<use xlink:href="#SVGID_21_"  style="overflow:visible;"/>
				</clipPath>
				<g class="st25">
					<path class="st2" d="M124.6,86.6l0,8.2c0-0.1-0.1-0.3-0.6-0.8c-0.9-0.8-1.3-1.5-1.9-1.9c-0.1,0-0.2-0.1-0.2-0.1l0-8.2
						c0.1,0,0.2,0.1,0.2,0.1c0.6,0.4,1,1.1,1.9,1.9C124.4,86.2,124.6,86.5,124.6,86.6"/>
					<path class="st14" d="M121.8,83.8l0,8.2c-0.1,0-0.1,0-0.2-0.1l0-8.2C121.7,83.7,121.8,83.8,121.8,83.8"/>
					<path class="st13" d="M121.7,83.7l0,8.2c0,0-0.1,0-0.1,0l0-8.2C121.6,83.7,121.6,83.7,121.7,83.7"/>
					<path class="st4" d="M121.5,83.7l0,8.2c0,0-0.1,0-0.1,0l0-8.2C121.4,83.7,121.5,83.7,121.5,83.7"/>
					<path class="st5" d="M121.4,83.7l0,8.2c0,0-0.1,0-0.1,0l0-8.2C121.3,83.7,121.3,83.7,121.4,83.7"/>
					<path class="st6" d="M121.2,83.7l0,8.2c0,0-0.1,0-0.1,0L121.2,83.7C121.2,83.6,121.2,83.7,121.2,83.7"/>
				</g>
			</g>
			<g class="st0">
				<defs>
					<path id="SVGID_23_" class="st0" d="M124.5,86.6l0,8.2c-0.1,0-0.3,0-0.3,0l0-8.2C124.2,86.6,124.4,86.7,124.5,86.6z"/>
				</defs>
				<clipPath id="SVGID_24_">
					<use xlink:href="#SVGID_23_"  style="overflow:visible;"/>
				</clipPath>
				<g class="st26">
					<path class="st11" d="M124.5,86.6l0,8.2c0,0,0,0,0,0L124.5,86.6C124.5,86.6,124.5,86.6,124.5,86.6"/>
					<path class="st10" d="M124.5,86.6l0,8.2c0,0,0,0,0,0L124.5,86.6C124.5,86.7,124.5,86.6,124.5,86.6"/>
					<path class="st9" d="M124.5,86.7l0,8.2c0,0,0,0,0,0L124.5,86.7C124.5,86.7,124.5,86.7,124.5,86.7"/>
					<path class="st8" d="M124.5,86.7l0,8.2c0,0,0,0,0,0L124.5,86.7C124.5,86.7,124.5,86.7,124.5,86.7"/>
					<path class="st7" d="M124.4,86.7l0,8.2c0,0,0,0,0,0L124.4,86.7C124.4,86.7,124.4,86.7,124.4,86.7"/>
					<path class="st6" d="M124.4,86.7l0,8.2c0,0,0,0,0,0L124.4,86.7C124.4,86.7,124.4,86.7,124.4,86.7"/>
					<path class="st5" d="M124.4,86.7l0,8.2c0,0,0,0,0,0L124.4,86.7C124.4,86.7,124.4,86.7,124.4,86.7"/>
					<path class="st4" d="M124.4,86.7l0,8.2c0,0,0,0,0,0L124.4,86.7C124.4,86.6,124.4,86.6,124.4,86.7"/>
					<path class="st13" d="M124.3,86.6l0,8.2c0,0,0,0-0.1,0L124.3,86.6C124.3,86.6,124.3,86.6,124.3,86.6"/>
					<path class="st14" d="M124.3,86.6l0,8.2c0,0-0.1,0-0.1,0L124.3,86.6C124.2,86.6,124.2,86.6,124.3,86.6"/>
				</g>
			</g>
			<g>
				<path class="st15" d="M124.5,86.6c-0.1,0-0.3,0-0.3,0C124.2,86.6,124.2,86.6,124.5,86.6z"/>
			</g>
			<g>
				<polygon class="st19" points="190.1,86.5 190,94.6 189,95.2 189,87.1 				"/>
			</g>
			<g>
				<polygon class="st27" points="191.2,87.1 191.2,95.3 190,94.6 190.1,86.5 				"/>
			</g>
			<g class="st0">
				<defs>
					<path id="SVGID_25_" class="st0" d="M129.7,86.1l0,8.2c-0.1,0.1-0.1,0.1-0.1,0.1c-0.2,0.1-2.2,0.8-3.8,0.6
						c-0.7-0.1-1-0.1-1.3-0.1l0-8.2c0.2,0,0.6,0.1,1.3,0.1c1.6,0.2,3.6-0.5,3.8-0.6C129.6,86.2,129.6,86.1,129.7,86.1z"/>
				</defs>
				<clipPath id="SVGID_26_">
					<use xlink:href="#SVGID_25_"  style="overflow:visible;"/>
				</clipPath>
				<g class="st28">
					<path class="st8" d="M129.7,86.1l0,8.2c0,0,0,0,0,0L129.7,86.1C129.7,86.1,129.7,86.1,129.7,86.1"/>
					<path class="st9" d="M129.7,86.1l0,8.2c0,0-0.1,0.1-0.1,0.1L129.7,86.1C129.6,86.1,129.6,86.1,129.7,86.1"/>
					<path class="st10" d="M129.6,86.2l0,8.2c0,0,0,0,0,0L129.6,86.2C129.6,86.2,129.6,86.2,129.6,86.2"/>
					<path class="st11" d="M129.6,86.2l0,8.2c0,0,0,0,0,0c0,0-0.2,0.1-0.3,0.1l0-8.2C129.4,86.2,129.5,86.2,129.6,86.2L129.6,86.2"
						/>
					<path class="st10" d="M129.2,86.3l0,8.2c-0.3,0.1-0.8,0.2-1.4,0.4l0-8.2C128.4,86.5,128.9,86.4,129.2,86.3"/>
					<path class="st9" d="M127.8,86.7l0,8.2c-0.3,0-0.5,0.1-0.8,0.1l0-8.2C127.3,86.7,127.5,86.7,127.8,86.7"/>
					<path class="st8" d="M127,86.8l0,8.2c-0.2,0-0.3,0-0.5,0l0-8.2C126.7,86.8,126.9,86.8,127,86.8"/>
					<path class="st7" d="M126.5,86.8l0,8.2c-0.1,0-0.2,0-0.4,0l0-8.2C126.3,86.8,126.4,86.8,126.5,86.8"/>
					<path class="st6" d="M126.2,86.8l0,8.2c-0.1,0-0.2,0-0.3,0l0-8.2C126,86.8,126.1,86.8,126.2,86.8"/>
					<path class="st5" d="M125.9,86.8l0,8.2c0,0-0.1,0-0.1,0c-0.7-0.1-1-0.1-1.3-0.1l0-8.2c0.2,0,0.6,0.1,1.3,0.1
						C125.8,86.8,125.8,86.8,125.9,86.8"/>
				</g>
			</g>
			<g>
				<path class="st15" d="M125.8,79.5c1.3,2.2,2.6,4.4,3.8,6.6c-0.1,0.1-0.1,0.1-0.1,0.1c-0.2,0.1-2.2,0.8-3.8,0.6
					c-0.7-0.1-1-0.1-1.3-0.1c0.1,0,0.1-0.2-0.6-0.9c-0.9-0.8-1.3-1.5-1.9-1.9c-0.2-0.1-0.5-0.2-0.9-0.2c0.1-0.1,2.2-2.5,2.9-3.2
					C124.4,80.2,125.1,79.9,125.8,79.5z"/>
			</g>
			<g class="st0">
				<defs>
					<path id="SVGID_27_" class="st0" d="M209,73.9l0,8.2c0,0.1-0.4,1.5-0.7,2.1c-0.2,0.6-9.5,8-12.2,9.8c-2.7,1.7-4.8,1.4-4.9,1.4
						l0-8.2c0.1,0,2.2,0.3,4.9-1.4c2.7-1.7,12-9.2,12.2-9.8C208.5,75.4,209,73.9,209,73.9z"/>
				</defs>
				<clipPath id="SVGID_28_">
					<use xlink:href="#SVGID_27_"  style="overflow:visible;"/>
				</clipPath>
				<g class="st29">
					<path class="st6" d="M209,73.9l0,8.2c0,0.1-0.4,1.3-0.6,2l0-8.2C208.6,75.2,209,73.9,209,73.9"/>
					<path class="st7" d="M208.4,75.8l0,8.2c0,0,0,0.1,0,0.1c0,0,0,0,0,0l0-8.2c0,0,0,0,0,0C208.3,75.9,208.3,75.9,208.4,75.8"/>
					<path class="st8" d="M208.3,76l0,8.2c0,0,0,0-0.1,0.1L208.3,76C208.2,76,208.3,76,208.3,76"/>
					<path class="st9" d="M208.2,76l0,8.2c-0.1,0.1-0.3,0.3-0.5,0.5l0-8.2C208,76.3,208.1,76.2,208.2,76"/>
					<path class="st10" d="M207.8,76.5l0,8.2c-2.1,1.9-9.3,7.7-11.7,9.2c-0.1,0.1-0.2,0.1-0.3,0.2l0-8.2c0.1-0.1,0.2-0.1,0.3-0.2
						C198.4,84.2,205.7,78.4,207.8,76.5"/>
					<path class="st11" d="M195.8,85.9l0,8.2c-0.7,0.4-1.4,0.7-2,0.9l0-8.2C194.4,86.6,195.1,86.3,195.8,85.9"/>
					<path class="st10" d="M193.8,86.8l0,8.2c-0.4,0.1-0.7,0.2-1,0.3l0-8.2C193.1,87,193.5,86.9,193.8,86.8"/>
					<path class="st9" d="M192.8,87l0,8.2c-0.2,0-0.4,0.1-0.5,0.1l0-8.2C192.5,87.1,192.6,87.1,192.8,87"/>
					<path class="st8" d="M192.3,87.1l0,8.2c-0.1,0-0.3,0-0.4,0l0-8.2C192,87.1,192.1,87.1,192.3,87.1"/>
					<path class="st7" d="M191.9,87.1l0,8.2c-0.1,0-0.2,0-0.3,0l0-8.2C191.7,87.1,191.8,87.1,191.9,87.1"/>
					<path class="st6" d="M191.6,87.1l0,8.2c-0.1,0-0.2,0-0.2,0l0-8.2C191.4,87.1,191.5,87.1,191.6,87.1"/>
					<path class="st5" d="M191.3,87.1l0,8.2c-0.1,0-0.1,0-0.1,0l0-8.2C191.2,87.1,191.3,87.1,191.3,87.1"/>
				</g>
			</g>
			<g>
				<polygon class="st30" points="189,87.1 189,95.2 186,95.6 186,87.5 				"/>
			</g>
			<g class="st0">
				<defs>
					<path id="SVGID_29_" class="st0" d="M186,87.5l0,8.2c-3.4,3.2-9.1,3.7-9.4,3.8l0-8.2C176.9,91.2,182.6,90.7,186,87.5z"/>
				</defs>
				<clipPath id="SVGID_30_">
					<use xlink:href="#SVGID_29_"  style="overflow:visible;"/>
				</clipPath>
				<g class="st31">
					<path class="st9" d="M186,87.5l0,8.2c0,0-0.1,0.1-0.1,0.1L186,87.5C185.9,87.5,186,87.5,186,87.5"/>
					<path class="st10" d="M185.9,87.6l0,8.2c-0.5,0.5-1.1,0.9-1.7,1.3l0-8.2C184.8,88.5,185.4,88.1,185.9,87.6"/>
					<path class="st11" d="M184.2,88.9l0,8.2c-1.1,0.7-2.3,1.1-3.4,1.5l0-8.2C181.9,90,183.1,89.5,184.2,88.9"/>
					<path class="st10" d="M180.8,90.4l0,8.2c-1.1,0.3-2,0.6-2.8,0.7l0-8.2C178.8,90.9,179.7,90.7,180.8,90.4"/>
					<path class="st9" d="M178,91l0,8.2c-0.7,0.1-1.2,0.2-1.4,0.2l0-8.2C176.8,91.2,177.3,91.2,178,91"/>
					<path class="st8" d="M176.6,91.2l0,8.2c0,0,0,0,0,0L176.6,91.2C176.6,91.2,176.6,91.2,176.6,91.2"/>
				</g>
			</g>
			<g>
				<polygon class="st32" points="174.9,92.9 174.9,101.1 173,100.8 173,92.6 				"/>
			</g>
			<g>
				<polygon class="st33" points="176.6,91.2 176.6,99.4 174.9,101.1 174.9,92.9 				"/>
			</g>
			<g class="st0">
				<defs>
					<path id="SVGID_31_" class="st0" d="M173,92.6l0,8.2c0,0,0,0-0.4,1.5c-0.4,1.5-17.1,5.1-18,5.3l0-8.2c0.9-0.2,17.5-3.8,18-5.3
						C173,92.6,173,92.6,173,92.6z"/>
				</defs>
				<clipPath id="SVGID_32_">
					<use xlink:href="#SVGID_31_"  style="overflow:visible;"/>
				</clipPath>
				<g class="st34">
					<polyline class="st2" points="173,92.6 173,100.8 173,100.8 173,92.6 173,92.6 					"/>
					<polyline class="st14" points="173,92.6 173,100.8 173,100.8 173,92.6 173,92.6 					"/>
					<polyline class="st13" points="173,92.6 173,100.8 173,100.8 173,92.6 173,92.6 					"/>
					<polyline class="st4" points="173,92.6 173,100.8 173,100.8 173,92.6 173,92.6 					"/>
					<polyline class="st5" points="173,92.6 173,100.8 173,100.8 173,92.6 173,92.6 					"/>
					<path class="st6" d="M173,92.6l0,8.2c0,0,0,0.1-0.4,1.5c0,0,0,0,0,0l0-8.2c0,0,0,0,0,0C173,92.7,173,92.6,173,92.6"/>
					<path class="st7" d="M172.6,94.2l0,8.2c0,0,0,0,0,0.1L172.6,94.2C172.5,94.2,172.5,94.2,172.6,94.2"/>
					<path class="st8" d="M172.5,94.2l0,8.2c0,0,0,0-0.1,0.1L172.5,94.2C172.5,94.3,172.5,94.2,172.5,94.2"/>
					<path class="st9" d="M172.5,94.3l0,8.2c0,0,0,0-0.1,0.1L172.5,94.3C172.4,94.3,172.4,94.3,172.5,94.3"/>
					<path class="st10" d="M172.4,94.4l0,8.2c-0.1,0.1-0.2,0.2-0.4,0.2l0-8.2C172.2,94.5,172.3,94.4,172.4,94.4"/>
					<path class="st11" d="M172,94.6l0,8.2c-0.6,0.3-1.6,0.7-2.9,1.2l0-8.2C170.4,95.3,171.4,94.9,172,94.6"/>
					<path class="st10" d="M169.1,95.8l0,8.2c-5,1.6-13.9,3.5-14.5,3.7l0-8.2C155.2,99.3,164,97.4,169.1,95.8"/>
				</g>
			</g>
			<g class="st0">
				<defs>
					<path id="SVGID_33_" class="st0" d="M120.3,101.2l0,8.2c0-0.1-0.1-0.7-1.8-1.8c-0.4-0.2-0.6-0.5-0.6-0.7l0-8.2
						c0,0.3,0.2,0.5,0.6,0.7C120.2,100.4,120.3,101,120.3,101.2z"/>
				</defs>
				<clipPath id="SVGID_34_">
					<use xlink:href="#SVGID_33_"  style="overflow:visible;"/>
				</clipPath>
				<g class="st35">
					<path class="st2" d="M120.3,101.2l0,8.2c0-0.1-0.1-0.7-1.8-1.8c-0.4-0.2-0.6-0.5-0.6-0.7l0-8.2c0,0.3,0.2,0.5,0.6,0.7
						C120.2,100.4,120.3,101,120.3,101.2"/>
				</g>
			</g>
			<g>
				<polygon class="st36" points="154.6,99.4 154.6,107.6 152.3,109.6 152.3,101.4 				"/>
			</g>
			<g>
				<polygon class="st37" points="152.3,101.4 152.3,109.6 149.9,109.8 149.9,101.7 				"/>
			</g>
			<g>
				<polygon class="st38" points="121.4,102.3 121.4,110.4 120.3,109.3 120.3,101.2 				"/>
			</g>
			<g>
				<polygon class="st39" points="149.9,101.7 149.9,109.8 148.9,111.1 148.9,103 				"/>
			</g>
			<g class="st0">
				<defs>
					<path id="SVGID_35_" class="st0" d="M146.1,112l0-8.2c0-0.7,2.7-0.9,2.8-0.9l0,8.2C148.8,111.1,146.1,111.3,146.1,112z"/>
				</defs>
				<clipPath id="SVGID_36_">
					<use xlink:href="#SVGID_35_"  style="overflow:visible;"/>
				</clipPath>
				<g class="st40">
					<path class="st8" d="M148.9,103l0,8.2c0,0-0.1,0-0.3,0l0-8.2C148.8,103,148.9,103,148.9,103"/>
					<path class="st9" d="M148.6,103l0,8.2c-0.3,0-0.6,0.1-1,0.1l0-8.2C148,103.1,148.4,103,148.6,103"/>
					<path class="st10" d="M147.6,103.1l0,8.2c-0.3,0-0.6,0.1-0.8,0.2l0-8.2C147,103.2,147.3,103.2,147.6,103.1"/>
					<path class="st11" d="M146.8,103.3l0,8.2c-0.2,0.1-0.3,0.1-0.4,0.2l0-8.2C146.5,103.4,146.6,103.4,146.8,103.3"/>
					<path class="st10" d="M146.4,103.5l0,8.2c-0.1,0-0.1,0.1-0.1,0.1l0-8.2C146.3,103.6,146.3,103.5,146.4,103.5"/>
					<path class="st9" d="M146.2,103.6l0,8.2c0,0,0,0,0,0.1L146.2,103.6C146.2,103.6,146.2,103.6,146.2,103.6"/>
					<path class="st8" d="M146.2,103.7l0,8.2c0,0,0,0,0,0L146.2,103.7C146.2,103.7,146.2,103.7,146.2,103.7"/>
					<path class="st7" d="M146.1,103.7l0,8.2c0,0,0,0,0,0L146.1,103.7C146.1,103.7,146.1,103.7,146.1,103.7"/>
					<path class="st6" d="M146.1,103.7l0,8.2c0,0,0,0,0,0L146.1,103.7C146.1,103.8,146.1,103.8,146.1,103.7"/>
					<path class="st5" d="M146.1,103.8l0,8.2c0,0,0,0,0,0L146.1,103.8C146.1,103.8,146.1,103.8,146.1,103.8"/>
					<polyline class="st4" points="146.1,103.8 146.1,112 146.1,112 146.1,103.8 146.1,103.8 					"/>
				</g>
			</g>
			<g class="st0">
				<defs>
					<path id="SVGID_37_" class="st0" d="M122.5,104.4l0,8.2c0-0.9-1-2-1.1-2.1l0-8.2C121.5,102.4,122.6,103.4,122.5,104.4z"/>
				</defs>
				<clipPath id="SVGID_38_">
					<use xlink:href="#SVGID_37_"  style="overflow:visible;"/>
				</clipPath>
				<g class="st41">
					<path class="st2" d="M122.5,104.4l0,8.2c0-0.9-1-2-1.1-2.1l0-8.2C121.5,102.4,122.6,103.4,122.5,104.4"/>
				</g>
			</g>
			<g class="st0">
				<defs>
					<path id="SVGID_39_" class="st0" d="M146.1,103.9l0,8.2c0,0.7-3.2,2.8-3.9,3.2l0-8.2C142.9,106.7,146.1,104.6,146.1,103.9z"/>
				</defs>
				<clipPath id="SVGID_40_">
					<use xlink:href="#SVGID_39_"  style="overflow:visible;"/>
				</clipPath>
				<g class="st42">
					<polyline class="st4" points="146.1,103.9 146.1,112.1 146.1,112.1 146.1,103.9 146.1,103.9 					"/>
					<path class="st5" d="M146.1,103.9l0,8.2c0,0,0,0,0,0L146.1,103.9C146.1,104,146.1,104,146.1,103.9"/>
					<path class="st6" d="M146.1,104l0,8.2c0,0,0,0,0,0.1L146.1,104C146.1,104,146.1,104,146.1,104"/>
					<path class="st7" d="M146.1,104.1l0,8.2c0,0,0,0.1,0,0.1L146.1,104.1C146.1,104.1,146.1,104.1,146.1,104.1"/>
					<path class="st8" d="M146,104.1l0,8.2c0,0.1-0.1,0.1-0.1,0.2l0-8.2C146,104.2,146,104.2,146,104.1"/>
					<path class="st9" d="M145.9,104.3l0,8.2c-0.1,0.1-0.2,0.3-0.4,0.4l0-8.2C145.7,104.6,145.8,104.4,145.9,104.3"/>
					<path class="st10" d="M145.5,104.7l0,8.2c-1,0.9-2.8,2.1-3.3,2.4l0-8.2C142.7,106.8,144.6,105.6,145.5,104.7"/>
				</g>
			</g>
			<g class="st0">
				<defs>
					<path id="SVGID_41_" class="st0" d="M142.2,107.1l0,8.2c-3.5-5.8-7-11.7-10.5-17.5l0-8.2C135.2,95.4,138.7,101.3,142.2,107.1z"
						/>
				</defs>
				<clipPath id="SVGID_42_">
					<use xlink:href="#SVGID_41_"  style="overflow:visible;"/>
				</clipPath>
				<g class="st43">
					<path class="st2" d="M142.2,107.1l0,8.2c-3.5-5.8-7-11.7-10.5-17.5l0-8.2C135.2,95.4,138.7,101.3,142.2,107.1"/>
				</g>
			</g>
			<g>
				<path class="st15" d="M244,37.1c0.6,0.3,1,0.7,1.1,1.1c0.3,1.2-2.7,3.8-3.1,4.5c-0.5,0.7-3,0.5-4.4,0.9
					c-1.4,0.4-3.3,6.2-3.4,6.5l2.2,0.8c-0.1,0.1-1.1,2.1-2.2,2.1c-1.2,0-4.9,3.2-5.1,4.3c-0.2,1.1-5.6,3.7-7.2,4.1
					c-1.5,0.4-2.7,2.4-3.8,4.4c-1.1,2-6.2,7-6.5,7.2l-2.6,0.9c0,0.1-0.4,1.5-0.7,2.1c-0.2,0.6-9.5,8-12.2,9.8
					c-2.7,1.7-4.8,1.4-4.9,1.4l-1.2-0.7l-1.1,0.6l-3,0.4c-3.4,3.2-9.1,3.7-9.4,3.8l-1.7,1.7l-1.9-0.3c0,0,0,0-0.4,1.5
					c-0.4,1.5-17.1,5.1-18,5.3l-2.3,2l-2.4,0.2l-1,1.3c-0.1,0-3,0.2-2.8,0.9c0.1,0.6-3.2,2.8-3.9,3.2c-3.5-5.8-7-11.7-10.5-17.5
					c0.2-0.2,0.3-0.5,0.5-0.7c0.6-0.8,0-1.7-0.4-2.1c-0.4-0.4,0.8-0.5,1.4-1c0.5-0.5,3.5-2.6,5-2.2c1,0.3,1.6,0.5,1.8,0.7
					c0.1,0.1,1.7,0.2,3,0.2c1.4,0,2.1-0.8,2.1-0.8c0.1-0.1,2-1.4,2.1-1.6c0.1-0.2,1.8-1,3.1-1.4c1.4-0.4,2.5-0.8,3.4-0.8
					c0.8,0,3.3-0.4,3.4-0.4c0.1,0,1.8-0.7,2.9-1.1c1.1-0.4,3.6-1.6,3.5-2.2c-0.1-0.7,0.4-0.9,0.4-1.3c0-0.4,1.4-2,1.2-2.5
					c-0.2-0.4,1.4-0.9,3-1.6c1.5-0.6,2.4-1.7,3.4-2.7c1-1,1.8-1.2,2.3-1.5s4.2-2.2,5.4-2.6c1.1-0.4,1.8-2.1,4-3.3
					c2.1-1.2,4.1-2.4,4.2-2.4c0.9-0.5,17.9-9.8,24.4-13c6.4-3.2,9.6-4.3,12.5-5.6c2.9-1.3,7.8-2.9,9.5-3.5c1.7-0.5,7.3-0.3,7.6-0.3
					C241.4,36,242.9,36.4,244,37.1z"/>
			</g>
			<g>
				<polygon class="st44" points="90.4,119 90.4,127.1 90.4,126.7 90.4,118.5 				"/>
			</g>
			<g class="st0">
				<defs>
					<path id="SVGID_43_" class="st0" d="M91.9,119.6l0,8.2c-0.4-0.1-1.4-0.6-1.4-0.6l0-8.2C90.5,119,91.4,119.6,91.9,119.6z"/>
				</defs>
				<clipPath id="SVGID_44_">
					<use xlink:href="#SVGID_43_"  style="overflow:visible;"/>
				</clipPath>
				<g class="st45">
					<polyline class="st5" points="91.9,119.6 91.8,127.8 91.8,127.8 91.9,119.6 91.9,119.6 					"/>
					<path class="st4" d="M91.9,119.6l0,8.2c0,0,0,0-0.1,0L91.9,119.6C91.8,119.6,91.8,119.6,91.9,119.6"/>
					<path class="st13" d="M91.8,119.6l0,8.2c0,0-0.1,0-0.1,0L91.8,119.6C91.7,119.6,91.8,119.6,91.8,119.6"/>
					<path class="st14" d="M91.7,119.6l0,8.2c-0.1,0-0.2,0-0.2-0.1l0-8.2C91.6,119.5,91.6,119.6,91.7,119.6"/>
					<path class="st2" d="M91.5,119.5l0,8.2c-0.5-0.2-1-0.5-1-0.5l0-8.2C90.5,119,91,119.3,91.5,119.5"/>
				</g>
			</g>
			<g class="st0">
				<defs>
					<polygon id="SVGID_45_" class="st0" points="91.9,119.6 91.9,127.8 91.8,127.8 91.9,119.6 					"/>
				</defs>
				<clipPath id="SVGID_46_">
					<use xlink:href="#SVGID_45_"  style="overflow:visible;"/>
				</clipPath>
				<g class="st46">
					<polyline class="st2" points="91.9,119.6 91.9,127.8 91.8,127.8 91.9,119.6 91.9,119.6 					"/>
				</g>
			</g>
			<g>
				<polygon class="st47" points="124.3,119.8 124.3,127.9 118.7,126.7 118.7,118.6 				"/>
			</g>
			<g class="st0">
				<defs>
					<path id="SVGID_47_" class="st0" d="M142.4,108.9l0,8.2c-0.1,0-2.1,0.9-3.5,1.6c-1.5,0.7-1.8,1.2-3,2.5
						c-1.1,1.3-11.1,6.5-11.6,6.7l0-8.2c0.5-0.3,10.5-5.5,11.6-6.7c1.1-1.3,1.5-1.9,3-2.5C140.3,109.8,142.3,109,142.4,108.9z"/>
				</defs>
				<clipPath id="SVGID_48_">
					<use xlink:href="#SVGID_47_"  style="overflow:visible;"/>
				</clipPath>
				<g class="st48">
					<path class="st11" d="M142.4,108.9l0,8.2c-0.1,0-2.1,0.9-3.5,1.6c-0.3,0.1-0.5,0.3-0.8,0.4l0-8.2c0.2-0.1,0.5-0.3,0.8-0.4
						C140.3,109.8,142.3,109,142.4,108.9"/>
					<path class="st10" d="M138.1,110.9l0,8.2c-0.3,0.2-0.6,0.4-0.8,0.6l0-8.2C137.5,111.3,137.8,111.1,138.1,110.9"/>
					<path class="st9" d="M137.3,111.5l0,8.2c-0.4,0.4-0.8,0.9-1.4,1.5c0,0-0.1,0.1-0.1,0.1l0-8.2c0.1-0.1,0.1-0.1,0.1-0.1
						C136.5,112.4,136.8,111.9,137.3,111.5"/>
					<path class="st10" d="M135.8,113.2l0,8.2c-0.4,0.4-1.2,0.9-2.2,1.5l0-8.2C134.5,114.1,135.4,113.5,135.8,113.2"/>
					<path class="st11" d="M133.5,114.7l0,8.2c-3.3,2-8.8,4.9-9.2,5.1l0-8.2C124.7,119.6,130.2,116.7,133.5,114.7"/>
				</g>
			</g>
			<g class="st0">
				<defs>
					<path id="SVGID_49_" class="st0" d="M111.1,122l0,8.2c0-0.3-0.2-0.5-0.4-0.7c-0.5-0.3-1.2-0.2-1.2-0.2l0-8.2
						c0,0,0.7-0.1,1.2,0.2C111,121.5,111.1,121.7,111.1,122z"/>
				</defs>
				<clipPath id="SVGID_50_">
					<use xlink:href="#SVGID_49_"  style="overflow:visible;"/>
				</clipPath>
				<g class="st49">
					<path class="st2" d="M111.1,122l0,8.2c0-0.3-0.2-0.5-0.4-0.7c-0.1,0-0.1-0.1-0.2-0.1l0-8.2c0.1,0,0.1,0,0.2,0.1
						C111,121.5,111.1,121.7,111.1,122"/>
					<path class="st14" d="M110.6,121.3l0,8.2c0,0-0.1,0-0.1,0l0-8.2C110.5,121.2,110.5,121.2,110.6,121.3"/>
					<path class="st13" d="M110.4,121.2l0,8.2c0,0-0.1,0-0.1,0l0-8.2C110.3,121.2,110.4,121.2,110.4,121.2"/>
					<path class="st4" d="M110.3,121.2l0,8.2c0,0-0.1,0-0.1,0l0-8.2C110.2,121.2,110.3,121.2,110.3,121.2"/>
					<path class="st5" d="M110.2,121.2l0,8.2c-0.1,0-0.1,0-0.1,0l0-8.2C110.1,121.2,110.1,121.2,110.2,121.2"/>
					<path class="st6" d="M110,121.1l0,8.2c-0.1,0-0.1,0-0.2,0l0-8.2C109.9,121.1,110,121.1,110,121.1"/>
					<path class="st7" d="M109.9,121.1l0,8.2c-0.1,0-0.1,0-0.2,0l0-8.2C109.7,121.1,109.8,121.1,109.9,121.1"/>
					<path class="st8" d="M109.7,121.1l0,8.2c-0.1,0-0.1,0-0.2,0l0-8.2C109.5,121.1,109.6,121.1,109.7,121.1"/>
					<polyline class="st9" points="109.5,121.1 109.5,129.3 109.5,129.3 109.5,121.1 109.5,121.1 					"/>
				</g>
			</g>
			<g>
				<polygon class="st50" points="109.5,121.1 109.5,129.3 108.2,130.6 108.2,122.4 				"/>
			</g>
			<g class="st0">
				<defs>
					<path id="SVGID_51_" class="st0" d="M111.1,130.2l0-8.2c0,0.1,0,0.1,0.1,0.1c0.8,0.4,7.2-3.4,7.5-3.6l0,8.2
						c-0.3,0.2-6.7,4.1-7.5,3.6C111.1,130.3,111.1,130.3,111.1,130.2z"/>
				</defs>
				<clipPath id="SVGID_52_">
					<use xlink:href="#SVGID_51_"  style="overflow:visible;"/>
				</clipPath>
				<g class="st51">
					<path class="st11" d="M118.7,118.6l0,8.2c-0.3,0.2-4.9,2.9-6.8,3.6l0-8.2C113.8,121.5,118.4,118.8,118.7,118.6"/>
					<path class="st10" d="M111.9,122.1l0,8.2c-0.1,0-0.3,0.1-0.4,0.1l0-8.2C111.7,122.2,111.8,122.2,111.9,122.1"/>
					<path class="st9" d="M111.6,122.2l0,8.2c0,0-0.1,0-0.1,0L111.6,122.2C111.5,122.2,111.5,122.2,111.6,122.2"/>
					<path class="st8" d="M111.5,122.2l0,8.2c0,0-0.1,0-0.1,0L111.5,122.2C111.4,122.3,111.5,122.3,111.5,122.2"/>
					<path class="st7" d="M111.4,122.3l0,8.2c0,0,0,0-0.1,0L111.4,122.3C111.4,122.3,111.4,122.3,111.4,122.3"/>
					<path class="st6" d="M111.4,122.3l0,8.2c0,0,0,0,0,0L111.4,122.3C111.3,122.3,111.3,122.3,111.4,122.3"/>
					<path class="st5" d="M111.3,122.3l0,8.2c0,0,0,0,0,0L111.3,122.3C111.3,122.3,111.3,122.3,111.3,122.3"/>
					<path class="st4" d="M111.3,122.3l0,8.2c0,0,0,0,0,0L111.3,122.3C111.3,122.2,111.3,122.2,111.3,122.3"/>
					<path class="st13" d="M111.3,122.2l0,8.2c0,0,0,0,0,0L111.3,122.2C111.3,122.2,111.3,122.2,111.3,122.2"/>
					<path class="st14" d="M111.2,122.2l0,8.2c0,0,0,0,0,0L111.2,122.2C111.2,122.2,111.2,122.2,111.2,122.2"/>
					<path class="st2" d="M111.2,122.2l0,8.2c0,0,0,0,0,0c0,0-0.1-0.1-0.1-0.1l0-8.2C111.1,122.2,111.2,122.2,111.2,122.2
						C111.2,122.2,111.2,122.2,111.2,122.2"/>
				</g>
			</g>
			<g>
				<polygon class="st39" points="108.2,122.4 108.2,130.6 104.5,130.8 104.5,122.7 				"/>
			</g>
			<g>
				<polygon class="st52" points="102,123.7 101.9,131.8 99.2,131.2 99.3,123 				"/>
			</g>
			<g>
				<polygon class="st53" points="104.5,122.7 104.5,130.8 101.9,131.8 102,123.7 				"/>
			</g>
			<g>
				<polygon class="st54" points="99.3,123 99.2,131.2 96,132.2 96,124 				"/>
			</g>
			<g>
				<polygon class="st55" points="96,124 96,132.2 95.3,134.4 95.3,126.2 				"/>
			</g>
			<g>
				<polygon class="st56" points="95.3,126.2 95.3,134.4 92.3,135.9 92.3,127.8 				"/>
			</g>
			<g>
				<polygon class="st57" points="92.3,127.8 92.3,135.9 90.6,138.8 90.6,130.6 				"/>
			</g>
			<g>
				<polygon class="st58" points="90.6,131.4 90.6,139.5 88.5,139.4 88.5,131.2 				"/>
			</g>
			<g>
				<polygon class="st59" points="88.5,131.2 88.5,139.4 80.1,140.9 80.2,132.8 				"/>
			</g>
			<g>
				<polygon class="st60" points="80.2,132.8 80.1,140.9 77.1,141.9 77.1,133.8 				"/>
			</g>
			<g>
				<polygon class="st19" points="77.1,133.8 77.1,141.9 76.1,142.5 76.1,134.3 				"/>
			</g>
			<g class="st0">
				<defs>
					<path id="SVGID_53_" class="st0" d="M71.7,143.3l0-8.2c0,0,0,0.1,0,0.1L71.7,143.3C71.7,143.4,71.7,143.4,71.7,143.3z"/>
				</defs>
				<clipPath id="SVGID_54_">
					<use xlink:href="#SVGID_53_"  style="overflow:visible;"/>
				</clipPath>
				<g class="st61">
					<path class="st2" d="M71.8,135.3l0,8.2c0,0,0,0,0-0.1L71.8,135.3C71.7,135.2,71.7,135.2,71.8,135.3"/>
				</g>
			</g>
			<g>
				<path class="st15" d="M131.8,89.6c3.5,5.9,6.9,11.7,10.5,17.5l0.2,1.8c-0.1,0-2.1,0.9-3.5,1.6c-1.5,0.7-1.8,1.2-3,2.5
					c-1.1,1.3-11.1,6.5-11.6,6.7l-5.6-1.2c-0.3,0.2-6.7,4.1-7.5,3.6c0,0-0.1-0.1-0.1-0.1c0-0.4-0.1-0.6-0.4-0.7
					c-0.5-0.3-1.2-0.2-1.2-0.2l-1.3,1.3l-3.8,0.2l-2.5,1l-2.7-0.7l-3.3,1l-0.7,2.2l-3,1.6l-1.7,2.9l0,0.7l-2.1-0.1l-8.3,1.6l-3.1,1
					l-1,0.6l-4,1.2l-0.4-0.2c-0.4-0.2,2.4-2.3,3-2.6c0.6-0.4,2.7-1.5,3-2.1c0.2-0.6,3.9-3.3,4.9-4.2c1-0.8,2.6-3.5,2.7-3.6
					c0.1-0.1,1.9-1.6,2.4-2.5c0.5-1,1.3-0.3,2.1-0.4c0.7-0.1,2.3-0.2,2.2-0.3c-0.4-0.1-1.4-0.6-1.4-0.6l0-0.4c0-0.1,0.8-1.1,0.9-1.5
					c0.1-0.4,1.3-0.9,1.4-1l0.7,1.9c0.1,0,2.5-0.4,3.6-0.4c1.2,0,6-3,6.7-3.6c0.8-0.6,1.6-0.9,3.1-1.7c1.4-0.8,6.7-3.2,7-3.3
					l1.5-1.2c0,0,0.8-0.5,1.4-0.8c0.5-0.3,2.2-0.5,4.7-1.3c2.5-0.8,0.2-3.2,0.1-3.3l-1.2-1.1c0,0,0.1-0.7-1.8-1.8
					c-1.9-1.1,1.6-2.7,1.8-2.7c0.1,0,1.5-0.4,2-0.5c0.5-0.1,1.7-1,1.8-1c0.1-0.1,1.6-1,2.4-1.4c0.8-0.4,3.7-2.1,4.2-2.6
					C131,90.7,131.4,90.2,131.8,89.6z"/>
			</g>
			<g>
				<polygon class="st62" points="76.1,134.3 76.1,142.5 72.1,143.6 72.1,135.5 				"/>
			</g>
			<g>
				<polygon class="st27" points="72.1,135.5 72.1,143.6 71.7,143.4 71.8,135.3 				"/>
			</g>
		</g>
	</g>
</g>
</svg>
